<?xml version="1.0" encoding="UTF-8"?>
<svg id="_레이어_1" data-name="레이어_1" xmlns="http://www.w3.org/2000/svg" version="1.1" viewBox="0 0 141.73 141.73">
  <!-- Generator: Adobe Illustrator 30.3.0, SVG Export Plug-In . SVG Version: 2.1.3 Build 182)  -->
  <defs>
    <style>
      .st0 {
        fill: #fdd000;
      }

      .st1 {
        fill: #1a1a1a;
      }
    </style>
  </defs>
  <rect class="st0" width="141.73" height="141.73"/>
  <g>
    <g>
      <path class="st1" d="M87.92,58.88s.71-.31.71-.71-.31-.71-.71-.71-.71.31-.71.71.31.71.71.71Z"/>
      <path class="st1" d="M85.67,58.17s.31.71.71.71.71-.31.71-.71-.31-.71-.71-.71-.71.31-.71.71Z"/>
      <path class="st1" d="M84.14,58.17s.31.61.61.61.61-.31.61-.61-.31-.61-.61-.61-.61.31-.61.61Z"/>
      <path class="st1" d="M87.92,60.31s.71-.31.71-.71-.31-.71-.71-.71-.71.31-.71.71.31.71.71.71Z"/>
      <path class="st1" d="M85.67,59.6s.31.71.71.71.71-.31.71-.71-.31-.71-.71-.71-.71.31-.71.71Z"/>
      <path class="st1" d="M84.14,59.6s.31.61.61.61.61-.31.61-.61-.31-.61-.61-.61-.61.31-.61.61Z"/>
      <path class="st1" d="M87.92,61.84s.71-.31.71-.71-.31-.71-.71-.71-.71.31-.71.71.31.71.71.71Z"/>
      <path class="st1" d="M85.67,61.13s.31.71.71.71.71-.31.71-.71-.31-.71-.71-.71-.71.31-.71.71Z"/>
      <path class="st1" d="M84.14,61.13s.31.61.61.61.61-.31.61-.61-.31-.61-.61-.61-.61.31-.61.61Z"/>
      <path class="st1" d="M82.51,61.13s.2.51.51.51.51-.2.51-.51-.2-.51-.51-.51-.51.2-.51.51Z"/>
      <path class="st1" d="M87.92,63.38s.71-.31.71-.71-.31-.71-.71-.71-.71.31-.71.71.31.71.71.71Z"/>
      <path class="st1" d="M85.67,62.56s.31.71.71.71.71-.31.71-.71-.31-.71-.71-.71-.71.31-.71.71Z"/>
      <path class="st1" d="M84.14,62.56s.31.61.61.61.61-.31.61-.61-.31-.61-.61-.61-.61.31-.61.61Z"/>
      <path class="st1" d="M82.51,62.56s.2.51.51.51.51-.2.51-.51-.2-.51-.51-.51-.51.2-.51.51Z"/>
      <path class="st1" d="M87.92,64.8s.71-.31.71-.71-.31-.71-.71-.71-.71.31-.71.71.31.71.71.71Z"/>
      <path class="st1" d="M85.67,64.09s.31.71.71.71.71-.31.71-.71-.31-.71-.71-.71-.71.31-.71.71Z"/>
      <path class="st1" d="M84.14,64.09s.31.61.61.61.61-.31.61-.61-.31-.61-.61-.61-.61.31-.61.61Z"/>
      <path class="st1" d="M82.51,64.09s.2.51.51.51.51-.2.51-.51-.2-.51-.51-.51-.51.2-.51.51Z"/>
      <circle class="st1" cx="81.49" cy="64.09" r=".51"/>
      <path class="st1" d="M87.92,66.34s.71-.31.71-.71-.31-.71-.71-.71-.71.31-.71.71.31.71.71.71Z"/>
      <path class="st1" d="M85.67,65.62s.31.71.71.71.71-.31.71-.71-.31-.71-.71-.71-.71.31-.71.71Z"/>
      <path class="st1" d="M84.14,65.62s.31.61.61.61.61-.31.61-.61-.31-.61-.61-.61-.61.31-.61.61Z"/>
      <path class="st1" d="M82.51,65.62s.2.51.51.51.51-.2.51-.51-.2-.51-.51-.51-.51.2-.51.51Z"/>
      <circle class="st1" cx="81.49" cy="65.62" r=".51"/>
      <path class="st1" d="M87.92,67.87s.71-.31.71-.71-.31-.71-.71-.71-.71.31-.71.71.31.71.71.71Z"/>
      <path class="st1" d="M85.67,67.05s.31.71.71.71.71-.31.71-.71-.31-.71-.71-.71-.71.31-.71.71Z"/>
      <path class="st1" d="M84.14,67.05s.31.61.61.61.61-.31.61-.61-.31-.61-.61-.61-.61.31-.61.61Z"/>
      <path class="st1" d="M82.51,67.05s.2.51.51.51.51-.2.51-.51-.2-.51-.51-.51-.51.2-.51.51Z"/>
      <circle class="st1" cx="81.49" cy="67.05" r=".51"/>
      <path class="st1" d="M87.92,69.3s.71-.31.71-.71-.31-.71-.71-.71-.71.31-.71.71.31.71.71.71Z"/>
      <path class="st1" d="M85.67,68.58s.31.71.71.71.71-.31.71-.71-.31-.71-.71-.71-.71.31-.71.71Z"/>
      <path class="st1" d="M84.14,68.58s.31.61.61.61.61-.31.61-.61-.31-.61-.61-.61-.61.31-.61.61Z"/>
      <path class="st1" d="M82.51,68.58s.2.51.51.51.51-.2.51-.51-.2-.51-.51-.51-.51.2-.51.51Z"/>
      <circle class="st1" cx="81.49" cy="68.58" r=".51"/>
      <path class="st1" d="M79.44,68.58s.2.41.41.41.41-.2.41-.41-.2-.41-.41-.41-.41.2-.41.41Z"/>
      <path class="st1" d="M87.92,70.83s.71-.31.71-.71-.31-.71-.71-.71-.71.31-.71.71.31.71.71.71Z"/>
      <path class="st1" d="M85.67,70.11s.31.71.71.71.71-.31.71-.71-.31-.71-.71-.71-.71.31-.71.71Z"/>
      <path class="st1" d="M84.14,70.11s.31.61.61.61.61-.31.61-.61-.31-.61-.61-.61-.61.31-.61.61Z"/>
      <path class="st1" d="M82.51,70.11s.2.51.51.51.51-.2.51-.51-.2-.51-.51-.51-.51.2-.51.51Z"/>
      <circle class="st1" cx="81.49" cy="70.11" r=".51"/>
      <path class="st1" d="M79.44,70.11s.2.41.41.41.41-.2.41-.41-.2-.41-.41-.41-.41.2-.41.41Z"/>
      <path class="st1" d="M87.92,72.36s.71-.31.71-.71-.31-.71-.71-.71-.71.31-.71.71.31.71.71.71Z"/>
      <path class="st1" d="M85.67,71.54s.31.71.71.71.71-.31.71-.71-.31-.71-.71-.71-.71.31-.71.71Z"/>
      <path class="st1" d="M84.14,71.54s.31.61.61.61.61-.31.61-.61-.31-.61-.61-.61-.61.31-.61.61Z"/>
      <path class="st1" d="M82.51,71.54s.2.51.51.51.51-.2.51-.51-.2-.51-.51-.51-.51.2-.51.51Z"/>
      <circle class="st1" cx="81.49" cy="71.54" r=".51"/>
      <path class="st1" d="M79.44,71.54s.2.41.41.41.41-.2.41-.41-.2-.41-.41-.41-.41.2-.41.41Z"/>
      <path class="st1" d="M87.92,73.79s.71-.31.71-.71-.31-.71-.71-.71-.71.31-.71.71.31.71.71.71Z"/>
      <path class="st1" d="M85.67,73.08s.31.71.71.71.71-.31.71-.71-.31-.71-.71-.71-.71.31-.71.71Z"/>
      <path class="st1" d="M84.14,73.08s.31.61.61.61.61-.31.61-.61-.31-.61-.61-.61-.61.31-.61.61Z"/>
      <path class="st1" d="M82.51,73.08s.2.51.51.51.51-.2.51-.51-.2-.51-.51-.51-.51.2-.51.51Z"/>
      <circle class="st1" cx="81.49" cy="73.08" r=".51"/>
      <path class="st1" d="M79.44,73.08s.2.41.41.41.41-.2.41-.41-.2-.41-.41-.41-.41.2-.41.41Z"/>
      <path class="st1" d="M77.91,73.08s.2.41.41.41.41-.2.41-.41-.2-.41-.41-.41-.41.2-.41.41Z"/>
      <path class="st1" d="M87.92,75.32s.71-.31.71-.71-.31-.71-.71-.71-.71.31-.71.71.31.71.71.71Z"/>
      <path class="st1" d="M85.67,74.61s.31.71.71.71.71-.31.71-.71-.31-.71-.71-.71-.71.31-.71.71Z"/>
      <path class="st1" d="M84.14,74.61s.31.61.61.61.61-.31.61-.61-.31-.61-.61-.61-.61.31-.61.61Z"/>
      <path class="st1" d="M82.51,74.61s.2.51.51.51.51-.2.51-.51-.2-.51-.51-.51-.51.2-.51.51Z"/>
      <circle class="st1" cx="81.49" cy="74.61" r=".51"/>
      <path class="st1" d="M79.44,74.61s.2.41.41.41.41-.2.41-.41-.2-.41-.41-.41-.41.2-.41.41Z"/>
      <path class="st1" d="M77.91,74.61s.2.41.41.41.41-.2.41-.41-.2-.41-.41-.41-.41.2-.41.41Z"/>
      <path class="st1" d="M87.92,76.85s.71-.31.71-.71-.31-.71-.71-.71-.71.31-.71.71.31.71.71.71Z"/>
      <path class="st1" d="M85.67,76.04s.31.71.71.71.71-.31.71-.71-.31-.71-.71-.71-.71.31-.71.71Z"/>
      <path class="st1" d="M84.14,76.04s.31.61.61.61.61-.31.61-.61-.31-.61-.61-.61-.61.31-.61.61Z"/>
      <path class="st1" d="M82.51,76.04s.2.51.51.51.51-.2.51-.51-.2-.51-.51-.51-.51.2-.51.51Z"/>
      <circle class="st1" cx="81.49" cy="76.04" r=".51"/>
      <path class="st1" d="M79.44,76.04s.2.41.41.41.41-.2.41-.41-.2-.41-.41-.41-.41.2-.41.41Z"/>
      <circle class="st1" cx="78.22" cy="76.04" r=".41"/>
      <path class="st1" d="M87.92,78.28s.71-.31.71-.71-.31-.71-.71-.71-.71.31-.71.71.31.71.71.71Z"/>
      <path class="st1" d="M85.67,77.57s.31.71.71.71.71-.31.71-.71-.31-.71-.71-.71-.71.31-.71.71Z"/>
      <path class="st1" d="M84.14,77.57s.31.61.61.61.61-.31.61-.61-.31-.61-.61-.61-.61.31-.61.61Z"/>
      <path class="st1" d="M82.51,77.57s.2.51.51.51.51-.2.51-.51-.2-.51-.51-.51-.51.2-.51.51Z"/>
      <circle class="st1" cx="81.49" cy="77.57" r=".51"/>
      <path class="st1" d="M79.44,77.57s.2.41.41.41.41-.2.41-.41-.2-.41-.41-.41-.41.2-.41.41Z"/>
      <circle class="st1" cx="78.22" cy="77.57" r=".41"/>
      <path class="st1" d="M87.92,79.81s.71-.31.71-.71-.31-.71-.71-.71-.71.31-.71.71.31.71.71.71Z"/>
      <path class="st1" d="M85.67,79s.31.71.71.71.71-.31.71-.71-.31-.71-.71-.71-.71.31-.71.71Z"/>
      <path class="st1" d="M84.14,79s.31.61.61.61.61-.31.61-.61-.31-.61-.61-.61-.61.31-.61.61Z"/>
      <path class="st1" d="M82.51,79s.2.51.51.51.51-.2.51-.51-.2-.51-.51-.51-.51.2-.51.51Z"/>
      <circle class="st1" cx="81.49" cy="79" r=".51"/>
      <path class="st1" d="M79.44,79s.2.41.41.41.41-.2.41-.41-.2-.41-.41-.41-.41.2-.41.41Z"/>
      <circle class="st1" cx="78.22" cy="79" r=".41"/>
      <path class="st1" d="M87.92,81.24s.71-.31.71-.71-.31-.71-.71-.71-.71.31-.71.71.31.71.71.71Z"/>
      <path class="st1" d="M85.67,80.53s.31.71.71.71.71-.31.71-.71-.31-.71-.71-.71-.71.31-.71.71Z"/>
      <path class="st1" d="M84.14,80.53s.31.61.61.61.61-.31.61-.61-.31-.61-.61-.61-.61.31-.61.61Z"/>
      <path class="st1" d="M82.51,80.53s.2.51.51.51.51-.2.51-.51-.2-.51-.51-.51-.51.2-.51.51Z"/>
      <circle class="st1" cx="81.49" cy="80.53" r=".51"/>
      <path class="st1" d="M79.44,80.53s.2.41.41.41.41-.2.41-.41-.2-.41-.41-.41-.41.2-.41.41Z"/>
      <circle class="st1" cx="78.22" cy="80.53" r=".41"/>
      <path class="st1" d="M87.92,82.78s.71-.31.71-.71-.31-.71-.71-.71-.71.31-.71.71.31.71.71.71Z"/>
      <path class="st1" d="M85.67,82.06s.31.71.71.71.71-.31.71-.71-.31-.71-.71-.71-.71.31-.71.71Z"/>
      <path class="st1" d="M84.14,82.06s.31.61.61.61.61-.31.61-.61-.31-.61-.61-.61-.61.31-.61.61Z"/>
      <path class="st1" d="M82.51,82.06s.2.51.51.51.51-.2.51-.51-.2-.51-.51-.51-.51.2-.51.51Z"/>
      <circle class="st1" cx="81.49" cy="82.06" r=".51"/>
      <path class="st1" d="M79.44,82.06s.2.41.41.41.41-.2.41-.41-.2-.41-.41-.41-.41.2-.41.41Z"/>
      <circle class="st1" cx="78.22" cy="82.06" r=".41"/>
      <path class="st1" d="M87.92,84.31s.71-.31.71-.71-.31-.71-.71-.71-.71.31-.71.71.31.71.71.71Z"/>
      <path class="st1" d="M85.67,83.49s.31.71.71.71.71-.31.71-.71-.31-.71-.71-.71-.71.31-.71.71Z"/>
      <path class="st1" d="M84.14,83.49s.31.61.61.61.61-.31.61-.61-.31-.61-.61-.61-.61.31-.61.61Z"/>
      <path class="st1" d="M82.51,83.49s.2.51.51.51.51-.2.51-.51-.2-.51-.51-.51-.51.2-.51.51Z"/>
      <circle class="st1" cx="81.49" cy="83.49" r=".51"/>
      <path class="st1" d="M79.44,83.49s.2.41.41.41.41-.2.41-.41-.2-.41-.41-.41-.41.2-.41.41Z"/>
      <circle class="st1" cx="78.22" cy="83.49" r=".41"/>
      <path class="st1" d="M87.92,85.74s.71-.31.71-.71-.31-.71-.71-.71-.71.31-.71.71.31.71.71.71Z"/>
      <path class="st1" d="M85.67,85.02s.31.71.71.71.71-.31.71-.71-.31-.71-.71-.71-.71.31-.71.71Z"/>
      <path class="st1" d="M84.14,85.02s.31.61.61.61.61-.31.61-.61-.31-.61-.61-.61-.61.31-.61.61Z"/>
      <path class="st1" d="M82.51,85.02s.2.51.51.51.51-.2.51-.51-.2-.51-.51-.51-.51.2-.51.51Z"/>
      <circle class="st1" cx="81.49" cy="85.02" r=".51"/>
      <path class="st1" d="M79.44,85.02s.2.41.41.41.41-.2.41-.41-.2-.41-.41-.41-.41.2-.41.41Z"/>
      <path class="st1" d="M77.91,85.02s.2.41.41.41.41-.2.41-.41-.2-.41-.41-.41-.41.2-.41.41Z"/>
      <path class="st1" d="M87.92,87.27s.71-.31.71-.71-.31-.71-.71-.71-.71.31-.71.71.31.71.71.71Z"/>
      <path class="st1" d="M85.67,86.55s.31.71.71.71.71-.31.71-.71-.31-.71-.71-.71-.71.31-.71.71Z"/>
      <path class="st1" d="M84.14,86.55s.31.61.61.61.61-.31.61-.61-.31-.61-.61-.61-.61.31-.61.61Z"/>
      <path class="st1" d="M82.51,86.55s.2.51.51.51.51-.2.51-.51-.2-.51-.51-.51-.51.2-.51.51Z"/>
      <circle class="st1" cx="81.49" cy="86.55" r=".51"/>
      <path class="st1" d="M79.44,86.55s.2.41.41.41.41-.2.41-.41-.2-.41-.41-.41-.41.2-.41.41Z"/>
      <path class="st1" d="M77.91,86.55s.2.41.41.41.41-.2.41-.41-.2-.41-.41-.41-.41.2-.41.41Z"/>
      <path class="st1" d="M87.92,87.27s-.71.31-.71.71.31.71.71.71.71-.31.71-.71-.31-.71-.71-.71Z"/>
      <path class="st1" d="M85.67,87.98s.31.71.71.71.71-.31.71-.71-.31-.71-.71-.71-.71.31-.71.71Z"/>
      <path class="st1" d="M84.14,87.98s.31.61.61.61.61-.31.61-.61-.31-.61-.61-.61-.61.31-.61.61Z"/>
      <path class="st1" d="M82.51,87.98s.2.51.51.51.51-.2.51-.51-.2-.51-.51-.51-.51.2-.51.51Z"/>
      <circle class="st1" cx="81.49" cy="87.98" r=".51"/>
      <path class="st1" d="M79.44,87.98s.2.41.41.41.41-.2.41-.41-.2-.41-.41-.41-.41.2-.41.41Z"/>
      <path class="st1" d="M77.91,87.98s.2.41.41.41.41-.2.41-.41-.2-.41-.41-.41-.41.2-.41.41Z"/>
      <path class="st1" d="M84.14,89.51s.31.61.61.61.61-.31.61-.61-.31-.61-.61-.61-.61.31-.61.61Z"/>
      <path class="st1" d="M82.51,89.51s.2.51.51.51.51-.2.51-.51-.2-.51-.51-.51-.51.2-.51.51Z"/>
      <circle class="st1" cx="81.49" cy="89.51" r=".51"/>
      <path class="st1" d="M79.44,89.51s.2.41.41.41.41-.2.41-.41-.2-.41-.41-.41-.41.2-.41.41Z"/>
      <path class="st1" d="M77.91,89.51s.2.41.41.41.41-.2.41-.41-.2-.41-.41-.41-.41.2-.41.41Z"/>
      <path class="st1" d="M87.92,28.05s.71-.31.71-.71-.31-.71-.71-.71-.71.31-.71.71.31.71.71.71Z"/>
      <path class="st1" d="M87,27.23s-.31-.71-.71-.71-.71.31-.71.71.31.71.71.71.71-.31.71-.71Z"/>
      <path class="st1" d="M85.37,27.23s-.31-.61-.61-.61-.61.31-.61.61.31.61.61.61.61-.31.61-.61Z"/>
      <path class="st1" d="M83.63,27.23s-.2-.51-.51-.51-.51.2-.51.51.2.51.51.51.51-.2.51-.51Z"/>
      <circle class="st1" cx="81.49" cy="27.23" r=".51"/>
      <path class="st1" d="M80.26,27.23s-.2-.41-.41-.41-.41.2-.41.41.2.41.41.41.41-.2.41-.41Z"/>
      <path class="st1" d="M78.63,27.23s-.2-.41-.41-.41-.41.2-.41.41.2.41.41.41.41-.2.41-.41Z"/>
      <path class="st1" d="M87.92,28.05s-.71.31-.71.71.31.71.71.71.71-.31.71-.71-.31-.71-.71-.71Z"/>
      <path class="st1" d="M87,28.76s-.31-.71-.71-.71-.71.31-.71.71.31.71.71.71.71-.31.71-.71Z"/>
      <path class="st1" d="M85.37,28.76s-.31-.61-.61-.61-.61.31-.61.61.31.61.61.61.61-.31.61-.61Z"/>
      <path class="st1" d="M83.63,28.76s-.2-.51-.51-.51-.51.2-.51.51.2.51.51.51.51-.2.51-.51Z"/>
      <circle class="st1" cx="81.49" cy="28.76" r=".51"/>
      <path class="st1" d="M80.26,28.76s-.2-.41-.41-.41-.41.2-.41.41.2.41.41.41.41-.2.41-.41Z"/>
      <path class="st1" d="M78.63,28.76s-.2-.41-.41-.41-.41.2-.41.41.2.41.41.41.41-.2.41-.41Z"/>
      <path class="st1" d="M87.92,29.48s-.71.31-.71.71.31.71.71.71.71-.31.71-.71-.31-.71-.71-.71Z"/>
      <path class="st1" d="M87,30.29s-.31-.71-.71-.71-.71.31-.71.71.31.71.71.71.71-.31.71-.71Z"/>
      <path class="st1" d="M85.37,30.29s-.31-.61-.61-.61-.61.31-.61.61.31.61.61.61.61-.31.61-.61Z"/>
      <path class="st1" d="M83.63,30.29s-.2-.51-.51-.51-.51.2-.51.51.2.51.51.51.51-.2.51-.51Z"/>
      <circle class="st1" cx="81.49" cy="30.29" r=".51"/>
      <path class="st1" d="M80.26,30.29s-.2-.41-.41-.41-.41.2-.41.41.2.41.41.41.41-.2.41-.41Z"/>
      <path class="st1" d="M78.63,30.29s-.2-.41-.41-.41-.41.2-.41.41.2.41.41.41.41-.2.41-.41Z"/>
      <path class="st1" d="M87.92,31.01s-.71.31-.71.71.31.71.71.71.71-.31.71-.71-.31-.71-.71-.71Z"/>
      <path class="st1" d="M87,31.72s-.31-.71-.71-.71-.71.31-.71.71.31.71.71.71.71-.31.71-.71Z"/>
      <path class="st1" d="M85.37,31.72s-.31-.61-.61-.61-.61.31-.61.61.31.61.61.61.61-.31.61-.61Z"/>
      <path class="st1" d="M83.63,31.72s-.2-.51-.51-.51-.51.2-.51.51.2.51.51.51.51-.2.51-.51Z"/>
      <circle class="st1" cx="81.49" cy="31.72" r=".51"/>
      <path class="st1" d="M80.26,31.72s-.2-.41-.41-.41-.41.2-.41.41.2.41.41.41.41-.2.41-.41Z"/>
      <path class="st1" d="M78.63,31.72s-.2-.41-.41-.41-.41.2-.41.41.2.41.41.41.41-.2.41-.41Z"/>
      <path class="st1" d="M80.26,33.25s-.2-.41-.41-.41-.41.2-.41.41.2.41.41.41.41-.2.41-.41Z"/>
      <path class="st1" d="M78.63,33.25s-.2-.41-.41-.41-.41.2-.41.41.2.41.41.41.41-.2.41-.41Z"/>
      <path class="st1" d="M59.63,54.9s.1-.41,0-.51c-.1-.1-.41-.1-.51,0-.1.1-.1.41,0,.51.1.1.41.1.51,0Z"/>
      <path class="st1" d="M58.92,55.62v-.41c0-.1-.31,0-.41,0s0,.31,0,.41.31,0,.41,0Z"/>
      <path class="st1" d="M58.31,56.43v-.41h-.41v.41h.41Z"/>
      <path class="st1" d="M57.59,57.15v-.31h-.31v.31h.31Z"/>
      <path class="st1" d="M62.29,53.27s.1-.51,0-.61c-.2-.2-.51-.1-.61,0-.2.2-.1.51,0,.61s.51.1.61,0Z"/>
      <path class="st1" d="M61.68,54.08s.1-.41,0-.61c-.2-.1-.41-.1-.61,0-.1.2-.1.41,0,.61.2.1.41.1.61,0Z"/>
      <path class="st1" d="M60.96,54.8s.1-.41,0-.51c-.2-.1-.41-.1-.51,0-.1.2-.1.41,0,.51.2.1.41.1.51,0Z"/>
      <path class="st1" d="M60.35,55.51s.1-.41,0-.51c-.1-.1-.41-.1-.51,0-.1.1-.1.41,0,.51.1.1.41.1.51,0Z"/>
      <path class="st1" d="M59.12,55.82v.41c.1.1.31,0,.41,0s0-.31,0-.41-.31,0-.41,0Z"/>
      <path class="st1" d="M58.61,57.04h.41v-.41c0-.1-.31,0-.41,0v.41Z"/>
      <path class="st1" d="M58,57.76h.31v-.31c0-.1-.2,0-.31,0v.31Z"/>
      <path class="st1" d="M62.29,53.27s-.1.51,0,.61.51.1.61,0c.2-.2.1-.51,0-.61-.2-.2-.51-.1-.61,0Z"/>
      <path class="st1" d="M62.39,54.59s.1-.41,0-.61c-.2-.1-.41-.1-.61,0-.1.2-.1.41,0,.61s.41.1.61,0Z"/>
      <path class="st1" d="M61.06,54.9s-.1.41,0,.51c.2.1.41.1.51,0,.1-.2.1-.41,0-.51s-.41-.1-.51,0Z"/>
      <path class="st1" d="M60.96,55.62s-.41-.1-.51,0c-.1.1-.1.41,0,.51.1.1.41.1.51,0,.1-.1.1-.41,0-.51Z"/>
      <path class="st1" d="M59.84,56.43v.41c0,.1.31,0,.41,0s0-.31,0-.41-.31,0-.41,0Z"/>
      <path class="st1" d="M59.33,57.66h.41v-.41h-.41v.41Z"/>
      <path class="st1" d="M58.72,58.37h.31v-.31h-.31v.31Z"/>
      <path class="st1" d="M63,53.88s-.1.51,0,.61c.2.2.51.1.61,0s.1-.51,0-.61c-.2-.2-.51-.1-.61,0Z"/>
      <path class="st1" d="M63.11,55.21s.1-.41,0-.61c-.2-.1-.41-.1-.61,0s-.1.41,0,.61.41.1.61,0Z"/>
      <path class="st1" d="M61.78,55.51s-.1.41,0,.51c.2.1.41.1.51,0,.1-.2.1-.41,0-.51-.2-.1-.41-.1-.51,0Z"/>
      <path class="st1" d="M61.68,56.23s-.41-.1-.51,0c-.1.1-.1.41,0,.51.1.1.41.1.51,0,.1-.1.1-.41,0-.51Z"/>
      <path class="st1" d="M61.06,57.04h-.41c-.1,0,0,.31,0,.41s.31,0,.41,0,0-.31,0-.41Z"/>
      <path class="st1" d="M60.04,58.17h.41v-.41h-.41v.41Z"/>
      <path class="st1" d="M59.43,58.98h.31v-.31h-.31v.31Z"/>
      <path class="st1" d="M63.72,54.49s-.1.51,0,.61.51.1.61,0c.2-.2.1-.51,0-.61-.2-.2-.51-.1-.61,0Z"/>
      <path class="st1" d="M63.82,55.82s.1-.41,0-.61c-.2-.1-.41-.1-.61,0-.1.2-.1.41,0,.61s.41.1.61,0Z"/>
      <path class="st1" d="M62.49,56.02s-.1.41,0,.51c.2.1.41.1.51,0,.1-.2.1-.41,0-.51-.2-.1-.41-.1-.51,0Z"/>
      <path class="st1" d="M62.39,56.84s-.41-.1-.51,0c-.1.1-.1.41,0,.51.1.1.41.1.51,0,.1-.1.1-.41,0-.51Z"/>
      <path class="st1" d="M61.68,57.66h-.41c-.1,0,0,.31,0,.41s.31,0,.41,0,0-.31,0-.41Z"/>
      <path class="st1" d="M61.06,58.37h-.41v.41h.41v-.41Z"/>
      <path class="st1" d="M60.14,59.5h.31v-.31h-.31v.31Z"/>
      <path class="st1" d="M64.43,55.1s-.1.51,0,.61c.2.2.51.1.61,0s.1-.51,0-.61-.51-.1-.61,0Z"/>
      <path class="st1" d="M64.54,56.43s.1-.41,0-.61c-.2-.1-.41-.1-.61,0-.1.2-.1.41,0,.61.2.1.41.1.61,0Z"/>
      <path class="st1" d="M63.21,56.64s-.1.41,0,.51.41.1.51,0,.1-.41,0-.51-.41-.1-.51,0Z"/>
      <path class="st1" d="M63.11,57.45s-.41-.1-.51,0c-.1.1-.1.41,0,.51.1.1.41.1.51,0,.1-.1.1-.41,0-.51Z"/>
      <path class="st1" d="M62.39,58.17h-.41c-.1,0,0,.31,0,.41.1.1.31,0,.41,0s0-.31,0-.41Z"/>
      <path class="st1" d="M61.78,58.98h-.41v.41h.41v-.41Z"/>
      <path class="st1" d="M60.76,59.8v.31c0,.1.2,0,.31,0v-.31h-.31Z"/>
      <path class="st1" d="M65.15,55.72s-.1.51,0,.61c.2.2.51.1.61,0s.1-.51,0-.61c-.2-.2-.51-.1-.61,0Z"/>
      <path class="st1" d="M65.15,57.04s.1-.41,0-.61-.41-.1-.61,0-.1.41,0,.61c.2.1.41.1.61,0Z"/>
      <path class="st1" d="M63.92,57.25s-.1.41,0,.51c.2.1.41.1.51,0,.1-.2.1-.41,0-.51-.2-.1-.41-.1-.51,0Z"/>
      <path class="st1" d="M63.82,57.96s-.41-.1-.51,0c-.1.1-.1.41,0,.51.1.1.41.1.51,0,.1-.1.1-.41,0-.51Z"/>
      <path class="st1" d="M63.11,58.78h-.41c-.1,0,0,.31,0,.41s.31,0,.41,0,0-.31,0-.41Z"/>
      <path class="st1" d="M62.49,59.6h-.41v.41h.41v-.41Z"/>
      <path class="st1" d="M61.47,60.41v.31h.31v-.31h-.31Z"/>
      <path class="st1" d="M65.86,56.23s-.1.51,0,.61c.2.2.51.1.61,0,.2-.2.1-.51,0-.61s-.51-.1-.61,0Z"/>
      <path class="st1" d="M65.86,57.66s.1-.41,0-.61-.41-.1-.61,0c-.1.2-.1.41,0,.61.2.1.41.1.61,0Z"/>
      <path class="st1" d="M64.64,57.86s-.1.41,0,.51c.2.1.41.1.51,0,.1-.2.1-.41,0-.51-.2-.1-.41-.1-.51,0Z"/>
      <path class="st1" d="M64.54,58.58s-.41-.1-.51,0c-.1.1-.1.41,0,.51.1.1.41.1.51,0,.1-.1.1-.41,0-.51Z"/>
      <path class="st1" d="M63.82,59.39h-.41c-.1.1,0,.31,0,.41s.31,0,.41,0,0-.31,0-.41Z"/>
      <path class="st1" d="M63.21,60.21h-.41v.41h.41v-.41Z"/>
      <path class="st1" d="M62.19,61.03v.31h.31v-.31h-.31Z"/>
      <path class="st1" d="M66.58,56.84s-.1.51,0,.61c.2.2.51.1.61,0,.2-.2.1-.51,0-.61-.2-.2-.51-.1-.61,0Z"/>
      <path class="st1" d="M66.58,58.17s.1-.41,0-.61c-.2-.1-.41-.1-.61,0-.1.2-.1.41,0,.61.2.1.41.1.61,0Z"/>
      <path class="st1" d="M65.35,58.47s-.1.41,0,.51c.2.1.41.1.51,0,.1-.2.1-.41,0-.51s-.41-.1-.51,0Z"/>
      <path class="st1" d="M64.74,59.19s-.1.41,0,.51c.1.1.41.1.51,0,.1-.1.1-.41,0-.51-.1-.1-.41-.1-.51,0Z"/>
      <path class="st1" d="M64.13,60.01v.41c.1.1.31,0,.41,0s0-.31,0-.41-.31,0-.41,0Z"/>
      <path class="st1" d="M63.51,60.82v.41h.41v-.41h-.41Z"/>
      <path class="st1" d="M62.9,61.64v.31h.31v-.31h-.31Z"/>
      <path class="st1" d="M70.87,11.4c-24,0-43.4,19.4-43.4,43.4s19.4,43.4,43.4,43.4,43.4-19.4,43.4-43.4S94.86,11.4,70.87,11.4ZM96.8,26.51h0ZM96.8,27.94h0ZM95.07,26.51h.2v.2s0-.1-.2-.2h0ZM95.17,27.84v.41s0-.1-.2-.2c0,0,.1-.1.2-.2ZM95.17,29.27s.1.2.2.31c0,0-.1.1-.2.2,0,0,0-.2-.2-.2,0,0,.1-.1.2-.2v-.1ZM70.87,16.1c8.78,0,16.85,3.06,23.28,7.96h-42.37s-.71.31-.92.61h0c-4.19,3.47-9.19,7.96-14.19,12.66,6.33-12.56,19.3-21.34,34.31-21.34l-.1.1ZM93.53,27.64s.1.31.2.41c-.1,0-.2.2-.2.41,0-.2-.2-.31-.31-.41.1,0,.2-.2.31-.41ZM93.23,26.51h.41c-.1,0-.2.2-.2.41,0-.2-.2-.31-.31-.41h.1ZM93.53,29.17s.1.31.2.41c-.1,0-.2.2-.2.41,0-.2-.2-.31-.31-.41.1,0,.2-.2.31-.41ZM91.9,27.54s.2.41.41.51c-.2.1-.31.31-.41.51,0-.2-.2-.41-.51-.51.2,0,.41-.31.51-.51ZM91.49,26.51h.82c-.2.1-.31.31-.41.51,0-.2-.2-.41-.51-.51h.1ZM91.9,28.96s.2.41.41.51c-.2.1-.31.31-.41.51,0-.2-.2-.41-.51-.51.2,0,.41-.31.51-.51ZM91.9,30.5s.2.41.51.61c-.2,0-.41.2-.61.31,0-.2-.2-.2-.41-.31.2,0,.41-.31.51-.51v-.1ZM90.37,27.33s.2.61.51.71c-.31.1-.51.41-.51.71,0-.41-.31-.61-.71-.71.41,0,.61-.31.71-.71ZM89.65,26.51h1.23c-.31.1-.51.41-.51.71,0-.41-.31-.61-.71-.71h0ZM90.37,28.76s.2.61.51.71c-.31.1-.51.41-.51.71,0-.41-.31-.61-.71-.71.41,0,.61-.31.71-.71ZM90.37,30.29s.2.61.51.71c-.31.1-.51.41-.51.71,0-.41-.31-.61-.71-.71.41,0,.61-.31.71-.71ZM90.37,31.82h0ZM91.29,35.91v3.47h-7.96v-3.47h7.96ZM32.17,54.8c0-4.19.82-8.17,2.04-11.95,6.23-6.13,12.76-11.84,17.97-16.34h37.27c-.41,0-.71.31-.71.71s.31.71.71.71c-.41,0-.71.31-.71.71s.31.71.71.71c-.41,0-.71.31-.71.71s.31.71.71.71c-.41,0-.71.31-.71.71,0,.2.31.31.41.41-.41.1-.82.2-1.23.31h0c-.41.1-.92.2-1.33.31-.1,0-.1-.31-.31-.31s-.2.2-.31.31c-.31,0-.61,0-.82.1-.1-.2-.2-.41-.41-.41-.31,0-.51.31-.61.61h-.51c0-.31-.2-.51-.51-.51s-.51.2-.51.51c0,0,.1,0,.2.2-.2,0-.41,0-.71.1h-.41c.1,0,.31-.1.31-.31,0-.31-.2-.51-.51-.51s-.51.2-.51.51c0,.2.2.31.31.31-18.58,1.94-22.16,2.04-22.36,2.04-.31,0-.71.1-.92.41l-20.12,23.69c-2.25,2.65-3.17,6.23-2.96,9.7-1.84-4.49-2.86-9.39-2.86-14.6l.1.41ZM80.97,36.01v3.37h-.92l-5.51-2.76c1.94-.2,4.08-.41,6.53-.71l-.1.1ZM37.58,70.73c-.71-3.37,0-7.05,2.25-9.6l19.71-23.28c1.02,0,3.88-.2,10.42-.82l4.7,2.35h-.31c-2.45,0-4.49,2.04-4.49,4.49v5l-6.43-2.14s-.92,0-1.23.41l-9.8,11.84s-.31,1.23.2,1.63c.2.2.51.31.71.31.31,0,.71-.1.92-.41l5.62-6.74s-.1.41,0,.51c.2.1.41.1.51,0,.1-.2.1-.41,0-.51-.1-.1-.41,0-.51,0l.61-.71s-.1.41,0,.51c.2.1.41.1.61,0,.1-.2.1-.41,0-.61-.2-.1-.41,0-.51,0l.51-.61s-.1.41,0,.51c.2.2.51.1.61,0,.2-.2.1-.51,0-.61-.2-.1-.41,0-.51,0l.51-.61s-.1.41,0,.51c.2.2.51.1.61,0-.1.2-.1.51,0,.61.2.2.51.1.61,0-.1.2-.1.51,0,.61.2.2.51.1.61,0-.1.2-.1.51,0,.61.2.2.51.1.61,0-.1.2-.1.51,0,.61.2.2.51.1.61,0-.1.2-.1.51,0,.61.2.2.51.1.61,0-.1.2-.1.51,0,.61.2.2.51.1.61,0-.1.2-.1.51,0,.61.2.2.51.1.61,0-.1.2-.1.51,0,.61.2.2.51.1.61,0v.2c-.2.2-.31.31-.51.51h-.2v.2c-.2.2-.41.41-.51.61h0c-4.39,5-9.39,10.52-12.05,13.38-6.13,6.54-10.01,6.02-13.17,4.49-1.84-.82-3.27-2.96-3.78-5.51l.61-.2ZM69.85,51.53v-.2h0v.2h0ZM69.85,52.45h0ZM69.64,53.16v.41h-.41v-.41h.41ZM69.13,51.94h.41v.41h-.41v-.41ZM69.74,54.49v.31s-.1.1-.2.2h-.31v-.51h.51ZM62.9,51.22s-.1.41,0,.61c-.2-.1-.41-.1-.61,0,.1-.2.1-.41,0-.61.2.1.41,0,.61,0ZM62.39,50.51l.41-.51v.51h-.51.1ZM62.9,50.51h.61v.61c-.2-.1-.41,0-.61,0v-.61ZM63,49.69l.41-.51v.41h-.41v.1ZM63.51,51.84s-.1.41,0,.61c-.2-.1-.41-.1-.61,0,.1-.2.1-.41,0-.61.2.1.41,0,.61,0ZM63.62,51.12h.61v.61c-.2-.1-.41,0-.61,0v-.61ZM63.62,49.79h.51v.51h-.51v-.51ZM64.23,52.45s-.1.41,0,.61c-.2-.1-.41-.1-.61,0,.1-.2.1-.41,0-.61.2.1.41,0,.61,0ZM64.84,50.41v.51h-.51v-.51h.51ZM64.33,49.49h0ZM64.33,51.74h.61v.61c-.2-.1-.41,0-.61,0v-.61ZM64.94,53.06s-.1.41,0,.61c-.2-.1-.41-.1-.61,0,.1-.2.1-.41,0-.61.2.1.41,0,.61,0ZM65.05,50.1v-.41l.51.2v.2h-.51ZM65.45,50.92v.51h-.51v-.51h.51ZM65.05,52.35h.61v.61c-.2-.1-.41,0-.61,0v-.61ZM65.66,53.57s-.1.41,0,.61c-.2-.1-.41-.1-.61,0,.1-.2.1-.41,0-.61.2.1.41,0,.61,0ZM65.66,50.71v-.41h.41v.41h-.41ZM66.17,51.53v.51h-.51v-.51h.51ZM65.76,52.96h.61v.61c-.2-.1-.41,0-.61,0v-.61ZM66.37,54.19s-.1.41,0,.61c-.2-.1-.41-.1-.61,0,.1-.2.1-.41,0-.61.2.1.41,0,.61,0ZM66.37,51.33v-.41h.41v.41h-.41ZM66.88,52.14v.51h-.51v-.51h.51ZM66.48,53.57h.61v.61c-.2-.1-.41,0-.61,0v-.61ZM67.09,54.8s-.1.41,0,.61c-.2-.1-.41-.1-.61,0,.1-.2.1-.41,0-.61.2.1.41,0,.61,0ZM67.09,51.94v-.41h.41v.41h-.41ZM67.6,52.76v.51h-.51v-.51h.51ZM67.09,50.51h.2-.2ZM67.19,54.08h.61v.61c-.2-.1-.41,0-.61,0v-.61ZM67.8,52.55v-.41h.41v.41h-.41ZM68.31,53.37v.51h-.51v-.51h.51ZM67.8,51.12v-.41h.41v.41h-.41ZM67.8,55.41s-.1.41,0,.61c-.2-.1-.41-.1-.61,0,.1-.2.1-.41,0-.61.2.1.41,0,.61,0ZM67.9,54.7h.61v.61c-.2-.1-.41,0-.61,0v-.61ZM68.52,51.74v-.41h.41v.41h-.41ZM68.93,52.65v.41h-.41v-.41h.41ZM68.52,56.02v.2c-.1.1-.2.31-.41.41h-.2c.1-.2.1-.41,0-.61.2.1.41,0,.61,0ZM68.52,53.98h.51v.51h-.51v-.51ZM69.13,55.31v.31c0,.1-.2.2-.31.31h-.2v-.61c.2.1.41,0,.61,0h-.1ZM62.19,51.22h-.51l.51-.51v.51ZM40.44,78.38c1.63.82,3.27,1.23,4.8,1.23,3.57,0,7.05-2.04,11.03-6.23,3.27-3.57,9.8-10.82,14.91-16.64,3.17-3.57,5.72-6.43,6.53-7.25,1.43-1.53,3.27-1.63,4.19-.92,1.12.92,1.12,3.17,0,6.54-.92,2.55-8.47,21.85-14.7,37.98-10.82-1.02-20.32-6.54-26.65-14.6l-.1-.1ZM70.87,93.39s-.82-.1-1.23-.1c.31-.71.51-1.43.82-2.14.51.92,1.23,1.63,2.14,2.04-.61,0-1.12.2-1.74.2h0ZM89.45,60.31s-.71.31-.71.71.31.71.71.71c-.41,0-.71.31-.71.71s.31.71.71.71c-.41,0-.71.31-.71.71s.31.71.71.71c-.41,0-.71.31-.71.71s.31.71.71.71c-.41,0-.71.31-.71.71s.31.71.71.71c-.41,0-.71.31-.71.71s.31.71.71.71c-.41,0-.71.31-.71.71s.31.71.71.71c-.41,0-.71.31-.71.71s.31.71.71.71c-.41,0-.71.31-.71.71s.31.71.71.71c-.41,0-.71.31-.71.71s.31.71.71.71c-.41,0-.71.31-.71.71s.31.71.71.71c-.41,0-.71.31-.71.71s.31.71.71.71c-.41,0-.71.31-.71.71s.31.71.71.71c-.41,0-.71.31-.71.71s.31.71.71.71c-.41,0-.71.31-.71.71s.31.71.71.71c-.41,0-.71.31-.71.71s.31.71.71.71c-.41,0-.71.31-.71.71s.31.71.71.71c-.41,0-.71.31-.71.71s.31.71.71.71c-.41,0-.71.31-.71.71,0,.31.31.41.51.51-.31.2-.71.41-1.02.51-.1,0-.1-.31-.31-.31-.41,0-.71.31-.71.71h0c-.31.1-.51.31-.82.41.2-.1.51-.2.51-.51,0-.41-.31-.71-.71-.71s-.71.31-.71.71c0,.31.31.61.61.61-.41.2-.92.31-1.33.51-.1,0-.1-.31-.31-.31-.31,0-.41.2-.51.51-.2,0-.41.1-.61.2h0c0-.31-.2-.51-.51-.51s-.51.2-.51.51c0,.1.2.2.31.31h-1.12s.31-.1.31-.31c0-.31-.2-.51-.51-.51s-.51.2-.51.51c0,.1.2.2.31.31h-1.23s.31-.1.31-.31-.2-.41-.41-.41-.41.2-.41.41c0,.1.2.2.31.31h-1.33s.31-.1.31-.31-.2-.41-.41-.41-.41.2-.41.41c0,.1.1.2.31.31h-3.78c-1.23,0-2.14-.92-2.14-2.14v-2.65c1.94-5.11,3.98-10.21,5.72-14.81,0,.1.1.31.31.31s.41-.2.41-.41-.2-.41-.41-.41c-.1,0-.1.1-.2.2.2-.41.31-.82.51-1.23h0c.41-.92.71-1.84,1.02-2.76,0,0,0,.2.2.2s.41-.2.41-.41-.2-.41-.41-.41c.51-1.33,1.02-2.55,1.43-3.78,0,0,0,.2.2.2.31,0,.51-.2.51-.51,0-.2-.2-.31-.41-.41.41-.92.71-1.84,1.02-2.55,0,.31.2.51.51.51s.51-.2.51-.51-.2-.51-.51-.51c-.2,0-.41.2-.41.41.1-.31.2-.61.31-.92h0c.31,0,.51-.2.51-.51,0-.2-.2-.2-.31-.31.2-.41.31-.82.41-1.12h.41s.31.61.61.61.51-.31.61-.61h.41s.31.61.61.61.61-.31.61-.61h.31s.31.71.71.71.71-.31.71-.71h.1s.31.61.71.71c-.41,0-.71.31-.71.71s.31.71.71.71c-.41,0-.71.31-.71.71s.31.71.71.71l.1,1.32ZM90.37,87.98h0c0-.41-.31-.61-.71-.71.41,0,.61-.31.71-.71,0,.31.2.61.51.71-.31.1-.51.31-.51.71ZM90.37,86.45s-.31-.61-.71-.71c.41,0,.61-.31.71-.71,0,.31.2.61.51.71-.31.1-.51.41-.51.71ZM90.37,85.02s-.31-.61-.71-.71c.41,0,.61-.31.71-.71,0,.31.2.61.51.71-.31.1-.51.41-.51.71ZM90.37,79.1s.2.61.51.71c-.31.1-.51.41-.51.71,0-.41-.31-.61-.71-.71.41,0,.61-.31.71-.71ZM89.65,78.28s.61-.31.71-.71c0,.31.2.61.51.71-.31.1-.51.41-.51.71,0-.41-.31-.61-.71-.71ZM90.37,80.63s.2.61.51.71c-.31.1-.51.41-.51.71,0-.41-.31-.61-.71-.71.41,0,.61-.31.71-.71ZM90.37,82.06s.2.61.51.71c-.31.1-.51.41-.51.71,0-.41-.31-.61-.71-.71.41,0,.61-.31.71-.71ZM90.37,77.47s-.31-.61-.71-.71c.41,0,.61-.31.71-.71,0,.31.2.61.51.71-.31.1-.51.41-.51.71ZM90.37,76.04s-.31-.61-.71-.71c.41,0,.61-.31.71-.71,0,.31.2.61.51.71-.31.1-.51.41-.51.71ZM90.37,74.5s-.31-.61-.71-.71c.41,0,.61-.31.71-.71,0,.31.2.61.51.71-.31.1-.51.41-.51.71ZM90.37,72.97s-.31-.61-.71-.71c.41,0,.61-.31.71-.71,0,.31.2.61.51.71-.31.1-.51.41-.51.71ZM90.37,71.54s-.31-.61-.71-.71c.41,0,.61-.31.71-.71,0,.31.2.61.51.71-.31.1-.51.41-.51.71ZM90.37,70.01s-.31-.61-.71-.71c.41,0,.61-.31.71-.71,0,.31.2.61.51.71-.31.1-.51.41-.51.71ZM90.37,62.66s.2.61.51.71c-.31.1-.51.41-.51.71,0-.41-.31-.61-.71-.71.41,0,.61-.31.71-.71ZM89.65,61.84s.61-.31.71-.71c0,.31.2.61.51.71-.31.1-.51.41-.51.71,0-.41-.31-.61-.71-.71ZM90.37,64.19s.2.61.51.71c-.31.1-.51.41-.51.71,0-.41-.31-.61-.71-.71.41,0,.61-.31.71-.71ZM90.37,65.62s.2.61.51.71c-.31.1-.51.41-.51.71,0-.41-.31-.61-.71-.71.41,0,.61-.31.71-.71ZM90.37,67.15s.2.61.51.71c-.31.1-.51.41-.51.71,0-.41-.31-.61-.71-.71.41,0,.61-.31.71-.71ZM90.37,61.03s-.31-.61-.71-.71c.41,0,.61-.31.71-.71,0,.31.2.61.51.71-.31.1-.51.41-.51.71ZM90.37,59.6s-.31-.61-.71-.71c.41,0,.61-.31.71-.71,0,.31.2.61.51.71-.31.1-.51.41-.51.71ZM90.37,58.07s-.31-.61-.71-.71c.41,0,.61-.31.71-.71,0,.31.2.61.51.71-.31.1-.51.41-.51.71ZM91.49,87.27h0c.2,0,.41-.31.51-.51v.2c-.2.1-.41.2-.51.31ZM91.9,86.25s-.2-.41-.51-.51c.2,0,.41-.31.51-.51,0,.2.2.41.41.51-.2.1-.31.31-.41.51ZM91.9,84.82s-.2-.41-.51-.51c.2,0,.41-.31.51-.51,0,.2.2.41.41.51-.2.1-.31.31-.41.51ZM91.9,76.34s.2.41.41.51c-.2.1-.31.31-.41.51,0-.2-.2-.41-.51-.51.2,0,.41-.31.51-.51ZM91.49,75.32s.41-.31.51-.51c0,.2.2.41.41.51-.2.1-.31.31-.41.51,0-.2-.2-.41-.51-.51ZM91.9,83.29s-.2-.41-.51-.51c.2,0,.41-.31.51-.51,0,.2.2.41.41.51-.2.1-.31.31-.41.51ZM91.9,81.75s-.2-.41-.51-.51c.2,0,.41-.31.51-.51,0,.2.2.41.41.51-.2.1-.31.31-.41.51ZM91.9,80.33s-.2-.41-.51-.51c.2,0,.41-.31.51-.51,0,.2.2.41.41.51-.2.1-.31.31-.41.51ZM91.9,78.79s-.2-.41-.51-.51c.2,0,.41-.31.51-.51,0,.2.2.41.41.51-.2.1-.31.31-.41.51ZM91.9,74.3s-.2-.41-.51-.51c.2,0,.41-.31.51-.51,0,.2.2.41.41.51-.2.1-.31.31-.41.51ZM91.9,72.87s-.2-.41-.51-.51c.2,0,.41-.31.51-.51,0,.2.2.41.41.51-.2.1-.31.31-.41.51ZM91.9,71.34s-.2-.41-.51-.51c.2,0,.41-.31.51-.51,0,.2.2.41.41.51-.2.1-.31.31-.41.51ZM91.9,60.82s-.2-.41-.51-.51c.2,0,.41-.31.51-.51,0,.2.2.41.41.51-.2.1-.31.31-.41.51ZM92.31,61.84s-.31.31-.41.51c0-.2-.2-.41-.51-.51.2,0,.41-.31.51-.51,0,.2.2.41.41.51ZM91.9,68.79s.2.41.41.51c-.2.1-.31.31-.41.51,0-.2-.2-.41-.51-.51.2,0,.41-.31.51-.51ZM91.49,67.87s.41-.31.51-.51c0,.2.2.41.41.51-.2.1-.31.31-.41.51,0-.2-.2-.41-.51-.51ZM91.9,66.85s-.2-.41-.51-.51c.2,0,.41-.31.51-.51,0,.2.2.41.41.51-.2.1-.31.31-.41.51ZM91.9,65.32s-.2-.41-.51-.51c.2,0,.41-.31.51-.51,0,.2.2.41.41.51-.2.1-.31.31-.41.51ZM91.9,63.89s-.2-.41-.51-.51c.2,0,.41-.31.51-.51,0,.2.2.41.41.51-.2.1-.31.31-.41.51ZM91.9,59.39s-.2-.41-.51-.51c.2,0,.41-.31.51-.51,0,.2.2.41.41.51-.2.1-.31.31-.41.51ZM91.9,57.86s-.2-.41-.51-.51c.2,0,.41-.31.51-.51,0,.2.2.41.41.51-.2.1-.31.31-.41.51ZM93.43,85.94s-.1-.1-.2-.2c.1,0,.2-.2.31-.41,0,.1,0,.2.1.31,0,0-.1.1-.2.2v.1ZM93.53,84.61s-.2-.31-.31-.41c.1,0,.2-.2.31-.41,0,.1.1.31.2.41-.1,0-.2.2-.2.41ZM93.53,83.18s-.2-.31-.31-.41c.1,0,.2-.2.31-.41,0,.1.1.31.2.41-.1,0-.2.2-.2.41ZM93.53,81.65s-.2-.31-.31-.41c.1,0,.2-.2.31-.41,0,.1.1.31.2.41-.1,0-.2.2-.2.41ZM93.53,80.12s-.2-.31-.31-.41c.1,0,.2-.2.31-.41,0,.1.1.31.2.41-.1,0-.2.2-.2.41ZM93.53,78.69s-.2-.31-.31-.41c.1,0,.2-.2.31-.41,0,.1.1.31.2.41-.1,0-.2.2-.2.41ZM93.53,77.16s-.2-.31-.31-.41c.1,0,.2-.2.31-.41,0,.1.1.31.2.41-.1,0-.2.2-.2.41ZM93.53,75.63s-.2-.31-.31-.41c.1,0,.2-.2.31-.41,0,.1.1.31.2.41-.1,0-.2.2-.2.41ZM93.53,74.2s-.2-.31-.31-.41c.1,0,.2-.2.31-.41,0,.1.1.31.2.41-.1,0-.2.2-.2.41ZM93.53,72.67s-.2-.31-.31-.41c.1,0,.2-.2.31-.41,0,.1.1.31.2.41-.1,0-.2.2-.2.41ZM93.53,58.47s.1.31.2.41c-.1,0-.2.2-.2.41,0-.2-.2-.31-.31-.41.1,0,.2-.2.31-.41ZM93.23,57.35s.2-.2.31-.41c0,.1.1.31.2.41-.1,0-.2.2-.2.41,0-.2-.2-.31-.31-.41ZM93.53,60.72s-.2-.31-.31-.41c.1,0,.2-.2.31-.41,0,.1.1.31.2.41-.1,0-.2.2-.2.41ZM93.84,61.84s-.2.2-.2.41c0-.2-.2-.31-.31-.41.1,0,.2-.2.31-.41,0,.1.1.31.2.41ZM93.53,62.97s.1.31.2.41c-.1,0-.2.2-.2.41,0-.2-.2-.31-.31-.41.1,0,.2-.2.31-.41ZM93.53,64.5s.1.31.2.41c-.1,0-.2.2-.2.41,0-.2-.2-.31-.31-.41.1,0,.2-.2.31-.41ZM93.53,66.03s.1.31.2.41c-.1,0-.2.2-.2.41,0-.2-.2-.31-.31-.41.1,0,.2-.2.31-.41ZM93.53,68.17s-.2-.31-.31-.41c.1,0,.2-.2.31-.41,0,.1.1.31.2.41-.1,0-.2.2-.2.41ZM93.84,69.3s-.2.2-.2.41c0-.2-.2-.31-.31-.41.1,0,.2-.2.31-.41,0,.1.1.31.2.41ZM93.53,70.42s.1.31.2.41c-.1,0-.2.2-.2.41,0-.2-.2-.31-.31-.41.1,0,.2-.2.31-.41ZM95.17,84.51s0-.1-.2-.2c0,0,.1-.1.2-.2v.41ZM95.17,82.98s0-.1-.2-.2c0,0,.1-.1.2-.2v.41ZM95.17,81.04v.41s0-.1-.2-.2c0,0,.1-.1.2-.2ZM95.07,79.81s.1-.1.2-.2v.41s0-.1-.2-.2ZM95.17,78.49s0-.1-.2-.2c0,0,.1-.1.2-.2v.41ZM95.17,77.06s0-.1-.2-.2c0,0,.1-.1.2-.2v.41ZM95.17,75.53s0-.1-.2-.2c0,0,.1-.1.2-.2v.41ZM95.17,73.99s0-.1-.2-.2c0,0,.1-.1.2-.2v.41ZM95.17,72.56s0-.1-.2-.2c0,0,.1-.1.2-.2v.41ZM95.17,71.03s0-.1-.2-.2c0,0,.1-.1.2-.2v.41ZM95.17,69.5s0-.1-.2-.2c0,0,.1-.1.2-.2v.41ZM95.17,68.07s0-.1-.2-.2c0,0,.1-.1.2-.2v.41ZM95.17,66.54s0-.1-.2-.2c0,0,.1-.1.2-.2v.41ZM95.07,64.8s.1-.1.2-.2v.41s0-.1-.2-.2ZM95.17,63.58s0-.1-.2-.2c0,0,.1-.1.2-.2v.41ZM95.17,62.05s0-.1-.2-.2c0,0,.1-.1.2-.2v.41ZM95.17,60.52s0-.1-.2-.2c0,0,.1-.1.2-.2v.41ZM95.17,59.09s0-.1-.2-.2c0,0,.1-.1.2-.2v.41ZM95.17,57.55s0-.1-.2-.2c0,0,.1-.1.2-.2v.41ZM96.8,82.88h0ZM96.8,81.35h0ZM96.8,79.81h0ZM96.8,78.38h0ZM96.8,76.85h0ZM96.8,75.32h0ZM96.8,73.89h0ZM96.8,72.36h0ZM96.8,70.83h0ZM96.8,69.4h0ZM96.8,67.87h0ZM96.8,66.44h0ZM96.8,64.91h0ZM96.8,63.38h0ZM96.8,61.95h0ZM96.8,60.41h0ZM96.8,58.88h0ZM96.8,57.45h0ZM98.44,81.35h0ZM98.44,79.81h0ZM98.44,78.38h0ZM98.44,76.85h0ZM98.44,75.32h0ZM98.44,73.89h0ZM98.44,72.36h0ZM98.44,70.93h0ZM98.44,69.4h0ZM98.44,67.87h0ZM98.44,66.44h0ZM98.44,64.91h0ZM98.44,63.38h0ZM98.44,61.95h0ZM98.44,60.41h0ZM98.44,58.88h0ZM98.44,57.45h0ZM100.17,78.38h0ZM100.17,76.85h0ZM100.17,75.32h0ZM100.17,73.89h0ZM100.17,72.36h0ZM100.17,70.93h0ZM100.17,69.4h0ZM100.17,67.87h0ZM100.17,66.44h0ZM100.17,64.91h0ZM100.17,63.38h0ZM100.17,61.95h0ZM100.17,60.41h0ZM100.17,58.88h0ZM100.17,57.45h0ZM101.8,76.85h0ZM101.8,75.42h0ZM101.8,73.89h0ZM101.8,72.36h0ZM101.8,70.93h0ZM101.8,69.4h0ZM101.8,67.87h0ZM101.8,66.44h0ZM101.8,64.91h0ZM101.8,63.38h0ZM101.8,61.95h0ZM101.8,60.41h0ZM101.8,58.88h0ZM101.8,57.45h0ZM103.54,73.89h0ZM103.54,72.36h0ZM103.54,70.93h0ZM103.54,69.4h0ZM103.54,67.87h0ZM103.54,66.44h0ZM103.54,64.91h0ZM103.54,63.38h0ZM103.54,61.95h0ZM103.54,60.41h0ZM103.54,58.88h0ZM103.54,57.45h0ZM105.28,70.93h0ZM105.28,69.4h0ZM105.28,67.87h0ZM105.28,66.44h0ZM105.28,64.91h0ZM105.28,63.38h0ZM105.28,61.95h0ZM105.28,60.41h0ZM105.28,58.88h0ZM105.28,57.45h0ZM106.91,67.87h0ZM106.91,66.44h0ZM106.91,64.91h0ZM106.91,63.38h0ZM106.91,61.95h0ZM106.91,60.41h0ZM106.91,58.88h0ZM106.91,57.45h0ZM108.65,61.95h0ZM108.65,60.41h0ZM108.65,58.88h0ZM108.65,57.45h0ZM109.36,54.29h-24.91c1.02-3.57.71-6.13-1.12-7.56-1.74-1.43-4.9-1.53-7.35,1.12-.51.61-1.94,2.14-3.78,4.19v-8.17c0-1.23.92-2.14,2.14-2.14h32.67c1.43,3.98,2.35,8.17,2.35,12.56h0ZM93.64,39.38v-4.7c0-.61-.41-1.02-1.02-1.12,2.76-1.02,4.9-2.35,6.64-3.98.2-.2.2-.41.2-.61,2.76,3.06,5.11,6.54,6.74,10.31h-12.56v.1Z"/>
    </g>
    <g>
      <path class="st1" d="M29.45,107.54l.82-3.27h-12.68l-2.82,11.37,1.96.16c4.46.57,6.75,2.29,6.42,5.97-.29,3.52-2.37,5.07-4.66,5.11-1.19,0-2.33-.49-2.74-1.02l-.86-3.68c-1.43-.25-2.95.49-3.19,1.96-.25,1.31.29,2.37,1.55,3.11,1.39.82,3.93,1.15,6.22,1.02,5.44-.33,8.63-2.99,9.53-7.28,1.23-5.77-3.19-8.8-11.9-9.08l1.06-4.3h11.29v-.08Z"/>
      <path class="st1" d="M42.1,104.39c1.06.86,2.25,2.41,2.82,3.97.9-.29,1.92-.9,2.58-1.88.65-.94,1.02-2.29-.08-2.99-.53-.33-1.27-.49-2.25-.53-.94,0-2.05.04-3.03.33-3.15.82-6.18,3.23-6.79,7.36l-.08.61h-2.95l-.2,1.27,2.9.33-2.09,13.62-2.7.57-.12.7h11.25l.12-.7-2.74-.57,2.09-13.62,4.91-.33.2-1.27h-4.87l1.06-6.91-.04.04Z"/>
      <path class="st1" d="M55.27,112.9l5.2-.33.2-1.27h-5.11l.78-4.99h-1.47l-5.11,4.99h-2.74l-.2,1.27,2.66.33-1.47,9.61c-.65,3.97,1.02,5.81,4.5,5.69,2.45-.08,4.7-.82,6.75-2.86l-.41-.7c-.86.61-2.13,1.02-3.48,1.02-1.43,0-1.88-.94-1.51-3.15l1.47-9.65-.04.04Z"/>
      <path class="st1" d="M63.65,123.74c-1.55,0-2.9.82-3.15,2.41-.25,1.6.86,2.41,2.41,2.41s2.9-.82,3.15-2.41c.25-1.6-.86-2.41-2.41-2.41Z"/>
      <path class="st1" d="M90.49,111.71c-.53-.57-1.15-.98-1.84-1.27-.7-.25-1.47-.37-2.29-.37-.2,0-.49,0-.82.08-.33.04-.7.12-1.1.25s-.82.33-1.23.61c-.41.25-.82.61-1.23,1.06-.53-.7-1.19-1.23-1.92-1.51-.78-.33-1.6-.45-2.5-.45-.41,0-.94.08-1.64.25-.65.16-1.35.49-1.96,1.02l-.65-.9h-5.52v16.9h6.59v-10.68c.16-.2.37-.37.57-.45s.37-.12.57-.12c.45,0,.82.16.98.49.2.33.29.78.29,1.31v9.45h6.59v-10.88c.29-.25.61-.37.94-.37.45,0,.78.16.98.49s.29.78.29,1.31v9.45h6.59v-9.9c0-1.35-.16-2.5-.45-3.44-.33-.94-.74-1.68-1.23-2.29v-.04Z"/>
      <path class="st1" d="M109.19,111.92c-.61-.57-1.43-1.02-2.5-1.35-1.02-.33-2.29-.49-3.85-.49-1.35,0-2.58.12-3.72.41s-2.13.57-2.9.9v5.56c.37-.16.74-.37,1.19-.53s.94-.33,1.43-.45c.49-.12,1.02-.25,1.51-.33.53-.08,1.02-.12,1.51-.12.7,0,1.19.04,1.51.16.29.12.45.25.49.45-1.39.08-2.66.29-3.85.53-1.15.29-2.17.7-2.99,1.19-.86.49-1.47,1.15-1.92,1.92s-.7,1.68-.7,2.74c0,.86.12,1.64.41,2.29.25.65.65,1.19,1.15,1.64s1.06.74,1.8.98c.7.2,1.47.33,2.33.33.7,0,1.39-.12,2.13-.33.7-.2,1.39-.53,2-.98l.82.94h5.93v-10.88c0-.9-.12-1.72-.41-2.5s-.7-1.47-1.35-2.05l-.04-.04ZM103.91,121.41s0,.25-.08.41c-.08.25-.25.41-.53.57s-.57.25-.9.25-.61-.08-.82-.2-.33-.37-.33-.65c0-.25.08-.41.2-.57s.33-.29.57-.37.53-.16.82-.2c.33,0,.65-.04,1.02-.04v.82h.04Z"/>
      <path class="st1" d="M124.98,110.4l-.86.86c-.45-.41-.94-.7-1.47-.9s-1.15-.29-1.76-.29c-1.06,0-2.05.16-2.99.53s-1.76.86-2.45,1.55c-.7.7-1.27,1.55-1.64,2.62-.41,1.06-.61,2.29-.61,3.68,0,1.15.16,2.21.49,3.15.33.98.82,1.8,1.43,2.5.61.7,1.35,1.23,2.21,1.6.86.37,1.84.57,2.9.57.61,0,1.23-.08,1.76-.2.53-.12,1.02-.33,1.43-.49-.08.29-.2.53-.37.7-.2.16-.41.33-.65.45s-.53.2-.82.25-.57.08-.82.08h-1.6c-.57-.04-1.15-.12-1.72-.25s-1.15-.25-1.68-.37-1.02-.29-1.43-.45v5.11c1.06.45,2.17.74,3.31.94,1.15.2,2.37.29,3.68.29,2.9,0,5.07-.78,6.55-2.29s2.21-3.76,2.21-6.75v-12.85h-5.03l-.08-.04ZM123.38,120.02c-.16.25-.41.45-.65.61s-.53.25-.9.25c-.61,0-1.06-.25-1.43-.7-.37-.45-.53-1.1-.53-1.96,0-.74.16-1.39.49-1.88s.82-.78,1.47-.78c.25,0,.49.08.78.2s.53.37.78.7v3.56h0Z"/>
    </g>
  </g>
</svg>