<?xml version="1.0" encoding="UTF-8"?>
<svg xmlns="http://www.w3.org/2000/svg" viewBox="107.64 468.51 380 345" preserveAspectRatio="xMidYMid meet">
  <defs>
    <style>
      .st0 { fill: #0a0000; }
      .st1 { fill: #c9a063; }
    </style>
  </defs>
  <path class="st0" fill-rule="evenodd" d="M481.14,518.51c-2.76,0-5-2.24-5-5v-20c0-2.76,2.24-5,5-5h6.5v-20H107.64v20h6.5c2.76,0,5,2.24,5,5v20c0,2.76-2.24,5-5,5h-6.5v250h6.5c2.76,0,5,2.24,5,5v20c0,2.76-2.24,5-5,5h-6.5v20h380v-20h-6.5c-2.76,0-5-2.24-5-5v-20c0-2.76,2.24-5,5-5h6.5v-250h-6.5ZM428.64,493.51c0-2.76,2.24-5,5-5h13c2.76,0,5,2.24,5,5v20c0,2.76-2.24,5-5,5h-13c-2.76,0-5-2.24-5-5v-20ZM381.14,493.51c0-2.76,2.24-5,5-5h13c2.76,0,5,2.24,5,5v20c0,2.76-2.24,5-5,5h-13c-2.76,0-5-2.24-5-5v-20ZM333.64,493.51c0-2.76,2.24-5,5-5h13c2.76,0,5,2.24,5,5v20c0,2.76-2.24,5-5,5h-13c-2.76,0-5-2.24-5-5v-20ZM286.14,493.51c0-2.76,2.24-5,5-5h13c2.76,0,5,2.24,5,5v20c0,2.76-2.24,5-5,5h-13c-2.76,0-5-2.24-5-5v-20ZM238.64,493.51c0-2.76,2.24-5,5-5h13c2.76,0,5,2.24,5,5v20c0,2.76-2.24,5-5,5h-13c-2.76,0-5-2.24-5-5v-20ZM191.14,493.51c0-2.76,2.24-5,5-5h13c2.76,0,5,2.24,5,5v20c0,2.76-2.24,5-5,5h-13c-2.76,0-5-2.24-5-5v-20ZM143.64,493.51c0-2.76,2.24-5,5-5h13c2.76,0,5,2.24,5,5v20c0,2.76-2.24,5-5,5h-13c-2.76,0-5-2.24-5-5v-20ZM166.64,793.51c0,2.76-2.24,5-5,5h-13c-2.76,0-5-2.24-5-5v-20c0-2.76,2.24-5,5-5h13c2.76,0,5,2.24,5,5v20ZM214.14,793.51c0,2.76-2.24,5-5,5h-13c-2.76,0-5-2.24-5-5v-20c0-2.76,2.24-5,5-5h13c2.76,0,5,2.24,5,5v20ZM261.64,793.51c0,2.76-2.24,5-5,5h-13c-2.76,0-5-2.24-5-5v-20c0-2.76,2.24-5,5-5h13c2.76,0,5,2.24,5,5v20ZM309.14,793.51c0,2.76-2.24,5-5,5h-13c-2.76,0-5-2.24-5-5v-20c0-2.76,2.24-5,5-5h13c2.76,0,5,2.24,5,5v20ZM356.64,793.51c0,2.76-2.24,5-5,5h-13c-2.76,0-5-2.24-5-5v-20c0-2.76,2.24-5,5-5h13c2.76,0,5,2.24,5,5v20ZM404.14,793.51c0,2.76-2.24,5-5,5h-13c-2.76,0-5-2.24-5-5v-20c0-2.76,2.24-5,5-5h13c2.76,0,5,2.24,5,5v20ZM451.64,793.51c0,2.76-2.24,5-5,5h-13c-2.76,0-5-2.24-5-5v-20c0-2.76,2.24-5,5-5h13c2.76,0,5,2.24,5,5v20ZM472.64,760.51c0,1.66-1.34,3-3,3H125.64c-1.66,0-3-1.34-3-3v-234c0-1.66,1.34-3,3-3h344c1.66,0,3,1.34,3,3v234Z"/>
  <path class="st1" d="M296.8,482.95l9.47-3.42-9.47-3.42s.03,1.09.06,2.41h-7.85v2.02h7.87c0,1.27,0,2.33-.08,2.41Z"/>
</svg>
