<?xml version="1.0" encoding="UTF-8"?>
<svg id="_레이어_1" xmlns="http://www.w3.org/2000/svg" version="1.1" viewBox="0 0 380 350">
  <!-- Generator: Adobe Illustrator 30.3.0, SVG Export Plug-In . SVG Version: 2.1.3 Build 182)  -->
  <defs>
    <style>
      .st0 {
        fill: #140a0a;
      }

      .st1 {
        isolation: isolate;
      }

      .st2 {
        fill: #c9a063;
      }
    </style>
  </defs>
  <path class="st0" d="M373.5,50c-2.76,0-5-2.24-5-5v-20c0-2.76,2.24-5,5-5h6.5V0H0v20h6.5c2.76,0,5,2.24,5,5v20c0,2.76-2.24,5-5,5H0v250h6.5c2.76,0,5,2.24,5,5v20c0,2.76-2.24,5-5,5H0v20h380v-20h-6.5c-2.76,0-5-2.24-5-5v-20c0-2.76,2.24-5,5-5h6.5V50h-6.5ZM321,25c0-2.76,2.24-5,5-5h13c2.76,0,5,2.24,5,5v20c0,2.76-2.24,5-5,5h-13c-2.76,0-5-2.24-5-5v-20ZM273.5,25c0-2.76,2.24-5,5-5h13c2.76,0,5,2.24,5,5v20c0,2.76-2.24,5-5,5h-13c-2.76,0-5-2.24-5-5v-20ZM226,25c0-2.76,2.24-5,5-5h13c2.76,0,5,2.24,5,5v20c0,2.76-2.24,5-5,5h-13c-2.76,0-5-2.24-5-5v-20ZM178.5,25c0-2.76,2.24-5,5-5h13c2.76,0,5,2.24,5,5v20c0,2.76-2.24,5-5,5h-13c-2.76,0-5-2.24-5-5v-20ZM131,25c0-2.76,2.24-5,5-5h13c2.76,0,5,2.24,5,5v20c0,2.76-2.24,5-5,5h-13c-2.76,0-5-2.24-5-5v-20h0ZM83.5,25c0-2.76,2.24-5,5-5h13c2.76,0,5,2.24,5,5v20c0,2.76-2.24,5-5,5h-13c-2.76,0-5-2.24-5-5v-20ZM36,25c0-2.76,2.24-5,5-5h13c2.76,0,5,2.24,5,5v20c0,2.76-2.24,5-5,5h-13c-2.76,0-5-2.24-5-5v-20ZM59,325c0,2.76-2.24,5-5,5h-13c-2.76,0-5-2.24-5-5v-20c0-2.76,2.24-5,5-5h13c2.76,0,5,2.24,5,5v20ZM106.5,325c0,2.76-2.24,5-5,5h-13c-2.76,0-5-2.24-5-5v-20c0-2.76,2.24-5,5-5h13c2.76,0,5,2.24,5,5v20ZM154,325c0,2.76-2.24,5-5,5h-13c-2.76,0-5-2.24-5-5v-20c0-2.76,2.24-5,5-5h13c2.76,0,5,2.24,5,5v20ZM201.5,325c0,2.76-2.24,5-5,5h-13c-2.76,0-5-2.24-5-5v-20c0-2.76,2.24-5,5-5h13c2.76,0,5,2.24,5,5v20ZM249,325c0,2.76-2.24,5-5,5h-13c-2.76,0-5-2.24-5-5v-20c0-2.76,2.24-5,5-5h13c2.76,0,5,2.24,5,5v20ZM296.5,325c0,2.76-2.24,5-5,5h-13c-2.76,0-5-2.24-5-5v-20c0-2.76,2.24-5,5-5h13c2.76,0,5,2.24,5,5v20ZM344,325c0,2.76-2.24,5-5,5h-13c-2.76,0-5-2.24-5-5v-20c0-2.76,2.24-5,5-5h13c2.76,0,5,2.24,5,5v20ZM365,292c0,1.66-1.34,3-3,3H18c-1.66,0-3-1.34-3-3V58c0-1.66,1.34-3,3-3h344c1.66,0,3,1.34,3,3v234Z"/>
  <path class="st2" d="M189.16,14.44l9.47-3.42-9.47-3.42s.03,1.09.06,2.41h-7.85v2.02h7.87c0,1.27,0,2.33-.08,2.41h0Z"/>
  <g class="st1">
    <g class="st1">
      <path class="st2" d="M57.65,334.68h5.44v1.28h-3.91v2.32h3.54v1.28h-3.54v3.61h-1.52v-8.48Z"/>
      <path class="st2" d="M63.93,335.79c-.13-.07-.24-.17-.32-.3s-.12-.26-.12-.41.04-.28.12-.4.18-.22.32-.3.28-.11.43-.11.3.04.43.11.24.17.32.3.12.26.12.4-.04.29-.12.41-.18.23-.32.3-.28.11-.43.11-.3-.04-.43-.11ZM63.6,336.8h1.5v6.36h-1.5v-6.36Z"/>
      <path class="st2" d="M67.32,343.16h-1.5v-8.48h1.5v8.48Z"/>
      <path class="st2" d="M68.05,336.8h1.43v1.08h.08c.13-.36.35-.65.65-.85s.67-.31,1.09-.31.79.1,1.09.3.51.49.63.86h.07c.14-.36.38-.64.72-.85s.74-.31,1.19-.31c.39,0,.74.08,1.03.25s.53.41.7.74.25.72.25,1.18v4.28h-1.49v-4.04c0-.38-.1-.67-.3-.86s-.46-.29-.79-.29c-.36,0-.65.11-.85.34s-.31.52-.31.88v3.97h-1.45v-4.1c0-.21-.05-.41-.14-.57s-.22-.29-.38-.38-.35-.13-.56-.13-.41.06-.59.17-.32.27-.42.47-.16.43-.16.69v3.87h-1.5v-6.36Z"/>
      <path class="st2" d="M84.05,336.16c-.29-.2-.66-.3-1.12-.3-.31,0-.59.05-.82.14s-.41.22-.54.39-.19.36-.19.57c0,.32.13.58.4.75s.62.32,1.05.42l.8.21c.73.17,1.33.45,1.79.83s.69.92.69,1.6c0,.5-.13.93-.38,1.31s-.62.67-1.1.88-1.06.31-1.73.31-1.23-.1-1.72-.31-.86-.5-1.13-.9-.42-.87-.44-1.42h1.5c.04.43.22.76.54.98s.74.34,1.24.34c.33,0,.63-.05.88-.15s.46-.25.6-.43.21-.4.21-.64c0-.31-.13-.55-.38-.72s-.64-.33-1.15-.46l-.96-.25c-1.51-.39-2.26-1.16-2.26-2.29,0-.49.13-.93.4-1.3s.64-.67,1.12-.88,1.01-.31,1.6-.31,1.12.1,1.58.31.82.5,1.07.87.39.79.4,1.27h-1.46c-.04-.36-.2-.64-.48-.84Z"/>
      <path class="st2" d="M87.78,342.88c-.46-.27-.82-.66-1.07-1.15s-.38-1.07-.38-1.72.12-1.23.38-1.73.61-.88,1.07-1.15,1-.41,1.61-.41,1.15.14,1.61.41.82.66,1.06,1.15.37,1.07.37,1.73-.12,1.23-.38,1.72-.6.88-1.06,1.15-1,.41-1.61.41-1.14-.14-1.61-.41ZM90.23,341.82c.23-.18.4-.43.52-.75s.17-.67.17-1.07-.06-.75-.17-1.07-.29-.57-.52-.75-.51-.28-.83-.28-.62.09-.85.28-.41.43-.52.75-.17.67-.17,1.07.06.76.17,1.07.29.57.52.75.52.28.85.28.61-.09.83-.28Z"/>
      <path class="st2" d="M94.04,342.87c-.46-.28-.81-.66-1.06-1.16s-.37-1.06-.37-1.71.12-1.22.38-1.71.6-.89,1.06-1.16,1-.42,1.61-.42c.51,0,.97.09,1.37.28s.72.45.96.8.37.74.41,1.2h-1.43c-.06-.32-.21-.58-.43-.78s-.51-.3-.86-.3c-.31,0-.58.08-.81.25s-.41.4-.54.71-.19.68-.19,1.1.06.81.19,1.12.31.56.54.72.5.25.82.25c.34,0,.62-.09.85-.28s.38-.45.44-.8h1.43c-.04.45-.17.85-.41,1.2s-.55.62-.95.81-.86.29-1.38.29c-.62,0-1.16-.14-1.62-.42Z"/>
      <path class="st2" d="M99.14,335.79c-.13-.07-.24-.17-.32-.3s-.12-.26-.12-.41.04-.28.12-.4.18-.22.32-.3.28-.11.43-.11.3.04.43.11.24.17.32.3.12.26.12.4-.04.29-.12.41-.18.23-.32.3-.28.11-.43.11-.3-.04-.43-.11ZM98.81,336.8h1.5v6.36h-1.5v-6.36Z"/>
      <path class="st2" d="M101.4,339.95c.44-.29,1.01-.46,1.7-.5.68-.05,1.22-.08,1.63-.09v-.5c0-.32-.1-.56-.3-.74s-.48-.26-.85-.26c-.32,0-.59.07-.8.21s-.34.32-.4.56h-1.44c.04-.36.16-.69.39-.98s.53-.51.92-.68.85-.25,1.37-.25c.45,0,.86.07,1.26.21s.71.37.97.7.38.75.38,1.29v4.25h-1.43v-.88h-.05c-.16.3-.39.54-.7.73s-.7.28-1.17.28c-.41,0-.78-.07-1.1-.22s-.58-.37-.76-.66-.28-.64-.28-1.04c0-.66.22-1.13.67-1.42ZM102.47,341.97c.2.14.46.21.79.21.29,0,.55-.06.78-.18s.4-.28.52-.48.18-.42.18-.66v-.52s-1.41.09-1.41.09c-.37.03-.65.12-.86.28s-.3.37-.3.64.1.48.29.62Z"/>
      <path class="st2" d="M108.42,343.16h-1.5v-8.48h1.5v8.48Z"/>
      <path class="st2" d="M116.7,336.67c-.19-.24-.42-.43-.71-.55s-.6-.19-.95-.19c-.47,0-.88.12-1.24.35s-.63.57-.83,1.02-.3.99-.3,1.62.1,1.17.3,1.62.48.79.83,1.02.77.35,1.23.35c.34,0,.65-.06.93-.18s.52-.3.71-.54.32-.51.39-.84h1.54c-.08.55-.27,1.04-.59,1.49s-.73.8-1.25,1.05-1.1.39-1.75.39c-.75,0-1.41-.17-2-.52s-1.05-.85-1.38-1.51-.5-1.43-.5-2.32.17-1.67.5-2.33.79-1.16,1.38-1.51,1.25-.52,2-.52c.62,0,1.19.12,1.71.35s.93.58,1.26,1.03.54.98.62,1.6h-1.54c-.06-.33-.18-.62-.37-.86Z"/>
      <path class="st2" d="M120.64,343.16h-1.5v-8.48h1.5v8.48Z"/>
      <path class="st2" d="M125.43,336.8h1.49v6.36h-1.44v-1.12h-.07c-.15.37-.39.66-.72.88s-.73.33-1.19.33c-.42,0-.79-.09-1.11-.28s-.57-.46-.75-.82-.27-.79-.28-1.29v-4.05h1.5v3.82c0,.27.05.5.15.7s.24.36.42.46.39.16.64.16c.23,0,.44-.06.65-.17s.38-.28.51-.5.2-.48.2-.79v-3.69Z"/>
      <path class="st2" d="M127.71,334.68h1.5v3.16h.06c.16-.32.38-.58.66-.8s.66-.33,1.16-.33.95.13,1.35.38.71.63.94,1.12.35,1.08.35,1.77-.11,1.27-.34,1.77-.54.87-.94,1.13-.85.39-1.35.39c-.84,0-1.45-.38-1.83-1.12h-.09v1.01h-1.46v-8.48ZM129.35,341.06c.12.31.29.55.51.73s.5.26.81.26.6-.09.83-.26.4-.42.52-.73.18-.67.18-1.08-.06-.75-.17-1.06-.29-.55-.52-.72-.51-.26-.83-.26-.59.08-.81.25-.4.41-.51.71-.18.67-.18,1.08.06.78.18,1.09Z"/>
    </g>
  </g>
  <g class="st1">
    <g class="st1">
      <path class="st2" d="M247.12,336.16c-.29-.2-.66-.3-1.12-.3-.31,0-.59.05-.82.14s-.41.22-.54.39-.19.36-.19.57c0,.32.13.58.4.75s.62.32,1.05.42l.8.21c.73.17,1.33.45,1.79.83s.69.92.69,1.6c0,.5-.13.93-.38,1.31s-.62.67-1.1.88-1.06.31-1.73.31-1.23-.1-1.72-.31-.86-.5-1.13-.9-.42-.87-.44-1.42h1.5c.04.43.22.76.54.98s.74.34,1.24.34c.33,0,.63-.05.88-.15s.46-.25.6-.43.21-.4.21-.64c0-.31-.13-.55-.38-.72s-.64-.33-1.15-.46l-.96-.25c-1.51-.39-2.26-1.16-2.26-2.29,0-.49.13-.93.4-1.3s.64-.67,1.12-.88,1.01-.31,1.6-.31,1.12.1,1.58.31.82.5,1.07.87.39.79.4,1.27h-1.46c-.04-.36-.2-.64-.48-.84Z"/>
      <path class="st2" d="M252.85,337.95h-1.25v3.3c0,.28.06.47.18.58s.29.16.5.16c.19,0,.41,0,.66-.02v1.22c-.2.04-.48.06-.84.06-.39,0-.73-.06-1.03-.19s-.53-.32-.7-.58-.25-.59-.25-.97v-3.55h-.91v-1.15h.91v-1.52h1.49v1.52h1.25v1.15Z"/>
      <path class="st2" d="M253.29,336.8h1.45v1.05h.07c.11-.36.31-.64.59-.84s.61-.3.98-.3c.22,0,.4.01.54.04v1.38c-.07-.02-.17-.04-.3-.06s-.27-.03-.39-.03c-.27,0-.52.06-.74.18s-.39.28-.52.49-.19.45-.19.71v3.75h-1.5v-6.36Z"/>
      <path class="st2" d="M258.07,342.89c-.47-.27-.82-.65-1.07-1.14s-.37-1.07-.37-1.73.12-1.23.38-1.73.6-.89,1.06-1.16.98-.42,1.58-.42c.54,0,1.03.12,1.47.35s.79.59,1.05,1.07.39,1.08.39,1.8v.47h-4.44c0,.36.07.66.21.92s.33.46.57.59.53.21.85.21.59-.06.81-.18.38-.28.48-.47h1.46c-.09.37-.26.69-.51.96s-.57.49-.95.64-.82.23-1.3.23c-.63,0-1.18-.13-1.65-.4ZM261.12,339.37c0-.29-.07-.55-.19-.77s-.29-.4-.51-.53-.47-.19-.76-.19-.55.07-.78.2-.41.32-.54.54-.21.48-.23.75h3.01Z"/>
      <path class="st2" d="M264.17,342.89c-.47-.27-.82-.65-1.07-1.14s-.37-1.07-.37-1.73.12-1.23.38-1.73.6-.89,1.06-1.16.98-.42,1.58-.42c.54,0,1.03.12,1.47.35s.79.59,1.05,1.07.39,1.08.39,1.8v.47h-4.44c0,.36.07.66.21.92s.33.46.57.59.53.21.85.21.59-.06.81-.18.38-.28.48-.47h1.46c-.09.37-.26.69-.51.96s-.57.49-.95.64-.82.23-1.3.23c-.63,0-1.18-.13-1.65-.4ZM267.22,339.37c0-.29-.07-.55-.19-.77s-.29-.4-.51-.53-.47-.19-.76-.19-.55.07-.78.2-.41.32-.54.54-.21.48-.23.75h3.01Z"/>
      <path class="st2" d="M272.28,337.95h-1.25v3.3c0,.28.06.47.18.58s.29.16.5.16c.19,0,.41,0,.66-.02v1.22c-.2.04-.48.06-.84.06-.39,0-.73-.06-1.03-.19s-.53-.32-.7-.58-.25-.59-.25-.97v-3.55h-.91v-1.15h.91v-1.52h1.49v1.52h1.25v1.15Z"/>
      <path class="st2" d="M274.93,334.68h3.19c.63,0,1.17.12,1.62.36s.79.57,1.02.99.35.91.35,1.46-.12,1.03-.35,1.46-.58.75-1.03.99-1,.35-1.63.35h-1.64v2.87h-1.52v-8.48ZM277.88,339.04c.55,0,.97-.14,1.25-.42s.42-.66.42-1.13-.14-.85-.42-1.12-.69-.41-1.25-.41h-1.43v3.08h1.43Z"/>
      <path class="st2" d="M283.05,343.16h-1.5v-8.48h1.46v3.2h.08c.15-.37.39-.66.7-.86s.71-.3,1.19-.3c.44,0,.83.09,1.16.28s.58.46.76.82.27.79.27,1.29v4.05h-1.49v-3.82c0-.43-.11-.77-.33-1s-.53-.35-.92-.35c-.27,0-.51.06-.72.17s-.37.28-.49.5-.18.48-.18.78v3.73Z"/>
      <path class="st2" d="M289.06,342.88c-.46-.27-.82-.66-1.07-1.15s-.38-1.07-.38-1.72.12-1.23.38-1.73.61-.88,1.07-1.15,1-.41,1.61-.41,1.15.14,1.61.41.82.66,1.06,1.15.37,1.07.37,1.73-.12,1.23-.38,1.72-.6.88-1.06,1.15-1,.41-1.61.41-1.14-.14-1.61-.41ZM291.51,341.82c.23-.18.4-.43.52-.75s.17-.67.17-1.07-.06-.75-.17-1.07-.29-.57-.52-.75-.51-.28-.83-.28-.62.09-.85.28-.41.43-.52.75-.17.67-.17,1.07.06.76.17,1.07.29.57.52.75.52.28.85.28.61-.09.83-.28Z"/>
      <path class="st2" d="M297.34,337.95h-1.25v3.3c0,.28.06.47.18.58s.29.16.5.16c.19,0,.41,0,.66-.02v1.22c-.2.04-.48.06-.84.06-.39,0-.73-.06-1.03-.19s-.53-.32-.7-.58-.25-.59-.25-.97v-3.55h-.91v-1.15h.91v-1.52h1.49v1.52h1.25v1.15Z"/>
      <path class="st2" d="M298.89,342.88c-.46-.27-.82-.66-1.07-1.15s-.38-1.07-.38-1.72.12-1.23.38-1.73.61-.88,1.07-1.15,1-.41,1.61-.41,1.15.14,1.61.41.82.66,1.06,1.15.37,1.07.37,1.73-.12,1.23-.38,1.72-.6.88-1.06,1.15-1,.41-1.61.41-1.14-.14-1.61-.41ZM301.34,341.82c.23-.18.4-.43.52-.75s.17-.67.17-1.07-.06-.75-.17-1.07-.29-.57-.52-.75-.51-.28-.83-.28-.62.09-.85.28-.41.43-.52.75-.17.67-.17,1.07.06.76.17,1.07.29.57.52.75.52.28.85.28.61-.09.83-.28Z"/>
      <path class="st2" d="M311.55,336.67c-.19-.24-.42-.43-.71-.55s-.6-.19-.95-.19c-.47,0-.88.12-1.24.35s-.63.57-.83,1.02-.3.99-.3,1.62.1,1.17.3,1.62.48.79.83,1.02.77.35,1.23.35c.34,0,.65-.06.93-.18s.52-.3.71-.54.32-.51.39-.84h1.54c-.08.55-.27,1.04-.59,1.49s-.73.8-1.25,1.05-1.1.39-1.75.39c-.75,0-1.41-.17-2-.52s-1.05-.85-1.38-1.51-.5-1.43-.5-2.32.17-1.67.5-2.33.79-1.16,1.38-1.51,1.25-.52,2-.52c.62,0,1.19.12,1.71.35s.93.58,1.26,1.03.54.98.62,1.6h-1.54c-.06-.33-.18-.62-.37-.86Z"/>
      <path class="st2" d="M315.49,343.16h-1.5v-8.48h1.5v8.48Z"/>
      <path class="st2" d="M320.28,336.8h1.49v6.36h-1.44v-1.12h-.07c-.15.37-.39.66-.72.88s-.73.33-1.19.33c-.42,0-.79-.09-1.11-.28s-.57-.46-.75-.82-.27-.79-.28-1.29v-4.05h1.5v3.82c0,.27.05.5.15.7s.24.36.42.46.39.16.64.16c.23,0,.44-.06.65-.17s.38-.28.51-.5.2-.48.2-.79v-3.69Z"/>
      <path class="st2" d="M322.56,334.68h1.5v3.16h.06c.16-.32.38-.58.66-.8s.66-.33,1.16-.33.95.13,1.35.38.71.63.94,1.12.35,1.08.35,1.77-.11,1.27-.34,1.77-.54.87-.94,1.13-.85.39-1.35.39c-.84,0-1.45-.38-1.83-1.12h-.09v1.01h-1.46v-8.48ZM324.2,341.06c.12.31.29.55.51.73s.5.26.81.26.6-.09.83-.26.4-.42.52-.73.18-.67.18-1.08-.06-.75-.17-1.06-.29-.55-.52-.72-.51-.26-.83-.26-.59.08-.81.25-.4.41-.51.71-.18.67-.18,1.08.06.78.18,1.09Z"/>
    </g>
  </g>
</svg>