<?xml version="1.0" encoding="UTF-8"?>
<svg xmlns="http://www.w3.org/2000/svg" viewBox="107.64 245.94 380 345" preserveAspectRatio="xMidYMid meet">
  <!-- Strip body: 외부 rect + 가운데 photo window cutout (evenodd). 퍼포레이션은 body 에 cutout 하지 않음 → 사진 비침 차단 -->
  <path fill="#0a0000" fill-rule="evenodd" d="M107.64 245.94 H487.64 V590.94 H107.64 Z M472.64 537.94 a3 3 0 0 1 -3 3 H125.64 a3 3 0 0 1 -3 -3 V303.94 a3 3 0 0 1 3 -3 H469.64 a3 3 0 0 1 3 3 Z"/>
  <!-- 퍼포레이션 14개 amber 데코 (body 위에 그려서 photo window 외에는 사진 안 비침) -->
  <g fill="#c9a063">
    <rect x="138.64" y="265.94" width="23" height="30" rx="5" ry="5"/>
    <rect x="186.14" y="265.94" width="23" height="30" rx="5" ry="5"/>
    <rect x="233.64" y="265.94" width="23" height="30" rx="5" ry="5"/>
    <rect x="281.14" y="265.94" width="23" height="30" rx="5" ry="5"/>
    <rect x="328.64" y="265.94" width="23" height="30" rx="5" ry="5"/>
    <rect x="376.14" y="265.94" width="23" height="30" rx="5" ry="5"/>
    <rect x="423.64" y="265.94" width="23" height="30" rx="5" ry="5"/>
    <rect x="138.64" y="545.94" width="23" height="30" rx="5" ry="5"/>
    <rect x="186.14" y="545.94" width="23" height="30" rx="5" ry="5"/>
    <rect x="233.64" y="545.94" width="23" height="30" rx="5" ry="5"/>
    <rect x="281.14" y="545.94" width="23" height="30" rx="5" ry="5"/>
    <rect x="328.64" y="545.94" width="23" height="30" rx="5" ry="5"/>
    <rect x="376.14" y="545.94" width="23" height="30" rx="5" ry="5"/>
    <rect x="423.64" y="545.94" width="23" height="30" rx="5" ry="5"/>
  </g>
  <!-- 5 FUMA -->
  <g fill="#c9a063">
    <path d="M181.67,260.99c-.4-.21-.71-.49-.94-.86-.23-.37-.35-.78-.37-1.25h1.32c.01.23.08.43.2.61s.28.32.48.42c.2.1.42.15.65.15.28,0,.53-.07.75-.21s.39-.33.52-.58c.12-.25.18-.53.18-.83s-.06-.61-.19-.86c-.13-.25-.31-.45-.53-.59s-.48-.21-.76-.21c-.6-.01-1.01.23-1.25.73h-1.26l.46-4.8h4.45v1.28h-3.34l-.23,2.25h.07c.15-.19.35-.35.61-.47.26-.12.54-.18.84-.18.46,0,.88.12,1.25.36s.66.58.87,1c.21.43.31.91.31,1.44s-.12,1.06-.35,1.5-.56.79-.98,1.03c-.42.25-.89.37-1.43.37-.5,0-.94-.1-1.34-.31Z"/>
    <path d="M186.99,252.7h4.83v1.28h-3.47v2.32h3.14v1.28h-3.14v3.61h-1.35v-8.48Z"/>
    <path d="M192.63,252.7h6v1.28h-2.32v7.21h-1.35v-7.21h-2.33v-1.28Z"/>
    <path d="M203.88,252.7l2.24,6.16h.09l2.24-6.16h1.66v8.48h-1.3v-5.84h-.07l-2.09,5.81h-.97l-2.09-5.84h-.06v5.86h-1.31v-8.48h1.66Z"/>
    <path d="M211.02,261.18l2.65-8.48h1.66l2.66,8.48h-1.45l-.63-2.1h-2.83l-.62,2.1h-1.45ZM215.56,257.85l-1.02-3.42h-.06l-1.02,3.42h2.11Z"/>
    <path d="M222.94,254.33c-.31-.26-.69-.38-1.14-.38-.41,0-.77.12-1.09.35-.32.23-.56.57-.74,1.02s-.27.98-.27,1.61.09,1.17.27,1.63.42.79.74,1.03.69.35,1.11.35c.37,0,.7-.08.98-.24s.5-.39.66-.69c.16-.3.24-.65.24-1.05h-1.75v-1.21h3.06v1.02c0,.71-.14,1.34-.41,1.87-.27.53-.65.94-1.13,1.23s-1.03.43-1.65.43c-.69,0-1.3-.18-1.83-.53-.53-.35-.94-.86-1.23-1.51s-.43-1.43-.43-2.31.15-1.66.44-2.32c.3-.66.71-1.16,1.23-1.51.52-.35,1.11-.53,1.77-.53.55,0,1.05.12,1.5.36s.83.57,1.12,1c.29.43.48.92.55,1.47h-1.38c-.12-.46-.34-.81-.64-1.07Z"/>
  </g>
  <!-- 4rest -->
  <g fill="#c9a063">
    <path d="M380.04,258.38l3.26-5.68h1.69v5.65h.99v1.25h-.99v1.58h-1.29v-1.58h-3.65v-1.22ZM383.71,258.34v-3.91h-.08l-2.21,3.86v.06h2.29Z"/>
    <path d="M387.06,254.82h1.29v1.05h.06c.1-.36.27-.64.53-.84.25-.2.54-.3.87-.3.19,0,.35.01.48.04v1.38c-.06-.02-.15-.04-.27-.06-.12-.02-.24-.03-.34-.03-.24,0-.46.06-.66.18-.19.12-.35.28-.46.49-.11.21-.17.45-.17.71v3.75h-1.33v-6.36Z"/>
    <path d="M391.94,260.91c-.41-.27-.73-.65-.95-1.14s-.33-1.07-.33-1.73.11-1.23.33-1.73c.22-.5.54-.89.94-1.16s.87-.42,1.4-.42c.48,0,.91.12,1.3.35s.7.59.93,1.07c.23.48.35,1.08.35,1.8v.47h-3.94c0,.36.07.66.19.92.12.26.29.46.5.59.21.14.47.21.75.21s.52-.06.72-.18.34-.28.43-.47h1.3c-.08.37-.23.69-.45.96-.22.28-.5.49-.85.64-.34.15-.73.23-1.16.23-.56,0-1.05-.13-1.46-.4ZM394.64,257.4c0-.29-.06-.55-.17-.77s-.26-.4-.45-.53c-.19-.13-.42-.19-.67-.19s-.49.07-.69.2c-.2.13-.36.32-.48.54-.12.23-.19.48-.2.75h2.67Z"/>
    <path d="M399.82,256.06c-.17-.14-.4-.21-.68-.21-.19,0-.36.03-.51.1-.15.06-.27.15-.35.27-.08.12-.12.24-.12.38-.01.34.26.58.8.73l.96.22c.54.14.94.35,1.2.63.26.28.39.65.4,1.11,0,.4-.1.75-.3,1.06-.2.31-.48.54-.84.71s-.79.25-1.27.25c-.71,0-1.28-.17-1.69-.51-.42-.34-.66-.82-.73-1.43h1.35c.04.27.15.47.34.61.18.13.43.2.74.2s.58-.07.77-.21c.19-.14.29-.32.29-.56,0-.18-.07-.33-.2-.45-.13-.12-.34-.21-.62-.28l-.91-.22c-.52-.12-.92-.33-1.19-.63-.27-.3-.4-.68-.4-1.14,0-.39.09-.73.28-1.02s.45-.52.8-.68.74-.24,1.2-.24.83.08,1.16.23.59.37.78.66c.19.29.3.62.33,1.01h-1.26c-.04-.24-.15-.43-.32-.57Z"/>
    <path d="M405.34,255.97h-1.11v3.3c0,.28.05.47.16.58.11.11.25.16.44.16.17,0,.36,0,.58-.02v1.22c-.17.04-.42.06-.75.06-.34,0-.65-.06-.91-.19-.27-.13-.47-.32-.62-.58-.15-.26-.22-.59-.22-.97v-3.55h-.81v-1.15h.81v-1.52h1.11v1.15Z"/>
  </g>
  <!-- Arrow -->
  <path fill="#c9a063" d="M296.8,588.52l9.47-3.42-9.47-3.42s.03,1.09.06,2.41h-7.85v2.02h7.87c0,1.27,0,2.33-.08,2.41Z"/>
</svg>
