<?xml version="1.0" encoding="UTF-8"?>
<svg id="_레이어_1" xmlns="http://www.w3.org/2000/svg" version="1.1" viewBox="0 0 380 350">
  <!-- Generator: Adobe Illustrator 30.3.0, SVG Export Plug-In . SVG Version: 2.1.3 Build 182)  -->
  <defs>
    <style>
      .st0 {
        fill: #c9a063;
      }

      .st1 {
        fill: #210000;
      }
    </style>
  </defs>
  <path class="st1" d="M373.5,50c-2.76,0-5-2.24-5-5v-20c0-2.76,2.24-5,5-5h6.5V0H0v20h6.5c2.76,0,5,2.24,5,5v20c0,2.76-2.24,5-5,5H0v250h6.5c2.76,0,5,2.24,5,5v20c0,2.76-2.24,5-5,5H0v20h380v-20h-6.5c-2.76,0-5-2.24-5-5v-20c0-2.76,2.24-5,5-5h6.5V50h-6.5ZM321,25c0-2.76,2.24-5,5-5h13c2.76,0,5,2.24,5,5v20c0,2.76-2.24,5-5,5h-13c-2.76,0-5-2.24-5-5v-20ZM273.5,25c0-2.76,2.24-5,5-5h13c2.76,0,5,2.24,5,5v20c0,2.76-2.24,5-5,5h-13c-2.76,0-5-2.24-5-5v-20ZM226,25c0-2.76,2.24-5,5-5h13c2.76,0,5,2.24,5,5v20c0,2.76-2.24,5-5,5h-13c-2.76,0-5-2.24-5-5v-20ZM178.5,25c0-2.76,2.24-5,5-5h13c2.76,0,5,2.24,5,5v20c0,2.76-2.24,5-5,5h-13c-2.76,0-5-2.24-5-5v-20ZM131,25c0-2.76,2.24-5,5-5h13c2.76,0,5,2.24,5,5v20c0,2.76-2.24,5-5,5h-13c-2.76,0-5-2.24-5-5v-20h0ZM83.5,25c0-2.76,2.24-5,5-5h13c2.76,0,5,2.24,5,5v20c0,2.76-2.24,5-5,5h-13c-2.76,0-5-2.24-5-5v-20ZM36,25c0-2.76,2.24-5,5-5h13c2.76,0,5,2.24,5,5v20c0,2.76-2.24,5-5,5h-13c-2.76,0-5-2.24-5-5v-20ZM59,325c0,2.76-2.24,5-5,5h-13c-2.76,0-5-2.24-5-5v-20c0-2.76,2.24-5,5-5h13c2.76,0,5,2.24,5,5v20ZM106.5,325c0,2.76-2.24,5-5,5h-13c-2.76,0-5-2.24-5-5v-20c0-2.76,2.24-5,5-5h13c2.76,0,5,2.24,5,5v20ZM154,325c0,2.76-2.24,5-5,5h-13c-2.76,0-5-2.24-5-5v-20c0-2.76,2.24-5,5-5h13c2.76,0,5,2.24,5,5v20ZM201.5,325c0,2.76-2.24,5-5,5h-13c-2.76,0-5-2.24-5-5v-20c0-2.76,2.24-5,5-5h13c2.76,0,5,2.24,5,5v20ZM249,325c0,2.76-2.24,5-5,5h-13c-2.76,0-5-2.24-5-5v-20c0-2.76,2.24-5,5-5h13c2.76,0,5,2.24,5,5v20ZM296.5,325c0,2.76-2.24,5-5,5h-13c-2.76,0-5-2.24-5-5v-20c0-2.76,2.24-5,5-5h13c2.76,0,5,2.24,5,5v20ZM344,325c0,2.76-2.24,5-5,5h-13c-2.76,0-5-2.24-5-5v-20c0-2.76,2.24-5,5-5h13c2.76,0,5,2.24,5,5v20ZM365,292c0,1.66-1.34,3-3,3H18c-1.66,0-3-1.34-3-3V58c0-1.66,1.34-3,3-3h344c1.66,0,3,1.34,3,3v234Z"/>
  <g>
    <g>
      <path class="st0" d="M74.03,15.05c-.4-.21-.71-.49-.94-.86s-.35-.78-.37-1.25h1.32c0,.23.08.43.2.61s.28.32.48.42.42.15.65.15c.28,0,.53-.07.75-.21s.39-.33.52-.58c.12-.25.18-.53.18-.83s-.06-.61-.19-.86-.31-.45-.53-.59-.48-.21-.76-.21c-.6-.01-1.01.23-1.25.73h-1.26l.46-4.8h4.45v1.28h-3.34l-.23,2.25h.07c.15-.19.35-.35.61-.47s.54-.18.84-.18c.46,0,.88.12,1.25.36s.66.58.87,1c.21.43.31.91.31,1.44s-.12,1.06-.35,1.5-.56.79-.98,1.03c-.42.25-.89.37-1.43.37-.5,0-.94-.1-1.34-.31h0Z"/>
      <path class="st0" d="M79.35,6.76h4.83v1.28h-3.47v2.32h3.14v1.28h-3.14v3.61h-1.35V6.77h0Z"/>
      <path class="st0" d="M84.99,6.76h6v1.28h-2.32v7.21h-1.35v-7.21h-2.33v-1.28h0Z"/>
      <path class="st0" d="M96.24,6.76l2.24,6.16h.09l2.24-6.16h1.66v8.48h-1.3v-5.84h-.07l-2.09,5.81h-.97l-2.09-5.84h-.06v5.86h-1.31V6.75h1.66,0Z"/>
      <path class="st0" d="M103.38,15.24l2.65-8.48h1.66l2.66,8.48h-1.45l-.63-2.1h-2.83l-.62,2.1h-1.45,0ZM107.92,11.91l-1.02-3.42h-.06l-1.02,3.42h2.11,0Z"/>
      <path class="st0" d="M115.3,8.39c-.31-.26-.69-.38-1.14-.38-.41,0-.77.12-1.09.35-.32.23-.56.57-.74,1.02s-.27.98-.27,1.61.09,1.17.27,1.63.42.79.74,1.03.69.35,1.11.35c.37,0,.7-.08.98-.24s.5-.39.66-.69.24-.65.24-1.05h-1.75v-1.21h3.06v1.02c0,.71-.14,1.34-.41,1.87s-.65.94-1.13,1.23-1.03.43-1.65.43c-.69,0-1.3-.18-1.83-.53s-.94-.86-1.23-1.51-.43-1.43-.43-2.31.15-1.66.44-2.32c.3-.66.71-1.16,1.23-1.51.52-.35,1.11-.53,1.77-.53.55,0,1.05.12,1.5.36s.83.57,1.12,1,.48.92.55,1.47h-1.38c-.12-.46-.34-.81-.64-1.07l.02-.02Z"/>
    </g>
    <g>
      <path class="st0" d="M272.4,12.44l3.26-5.68h1.69v5.65h.99v1.25h-.99v1.58h-1.29v-1.58h-3.65v-1.22h-.01ZM276.07,12.4v-3.91h-.08l-2.21,3.86v.06h2.29,0Z"/>
      <path class="st0" d="M279.42,8.88h1.29v1.05h.06c.1-.36.27-.64.53-.84.25-.2.54-.3.87-.3.19,0,.35,0,.48.04v1.38c-.06-.02-.15-.04-.27-.06s-.24-.03-.34-.03c-.24,0-.46.06-.66.18-.19.12-.35.28-.46.49s-.17.45-.17.71v3.75h-1.33v-6.36h0Z"/>
      <path class="st0" d="M284.3,14.97c-.41-.27-.73-.65-.95-1.14s-.33-1.07-.33-1.73.11-1.23.33-1.73.54-.89.94-1.16.87-.42,1.4-.42c.48,0,.91.12,1.3.35s.7.59.93,1.07c.23.48.35,1.08.35,1.8v.47h-3.94c0,.36.07.66.19.92s.29.46.5.59c.21.14.47.21.75.21s.52-.06.72-.18.34-.28.43-.47h1.3c-.08.37-.23.69-.45.96-.22.28-.5.49-.85.64-.34.15-.73.23-1.16.23-.56,0-1.05-.13-1.46-.4h0ZM287,11.46c0-.29-.06-.55-.17-.77s-.26-.4-.45-.53-.42-.19-.67-.19-.49.07-.69.2-.36.32-.48.54c-.12.23-.19.48-.2.75h2.67,0Z"/>
      <path class="st0" d="M292.18,10.12c-.17-.14-.4-.21-.68-.21-.19,0-.36.03-.51.1-.15.06-.27.15-.35.27-.08.12-.12.24-.12.38-.01.34.26.58.8.73l.96.22c.54.14.94.35,1.2.63s.39.65.4,1.11c0,.4-.1.75-.3,1.06-.2.31-.48.54-.84.71s-.79.25-1.27.25c-.71,0-1.28-.17-1.69-.51-.42-.34-.66-.82-.73-1.43h1.35c.04.27.15.47.34.61.18.13.43.2.74.2s.58-.07.77-.21c.19-.14.29-.32.29-.56,0-.18-.07-.33-.2-.45-.13-.12-.34-.21-.62-.28l-.91-.22c-.52-.12-.92-.33-1.19-.63-.27-.3-.4-.68-.4-1.14,0-.39.09-.73.28-1.02s.45-.52.8-.68.74-.24,1.2-.24.83.08,1.16.23.59.37.78.66c.19.29.3.62.33,1.01h-1.26c-.04-.24-.15-.43-.32-.57v-.02Z"/>
      <path class="st0" d="M297.7,10.03h-1.11v3.3c0,.28.05.47.16.58.11.11.25.16.44.16.17,0,.36,0,.58-.02v1.22c-.17.04-.42.06-.75.06s-.65-.06-.91-.19c-.27-.13-.47-.32-.62-.58-.15-.26-.22-.59-.22-.97v-3.55h-.81v-1.15h.81v-1.52h1.32v1.52h1.11v1.15h0Z"/>
    </g>
  </g>
  <path class="st0" d="M189.16,342.58l9.47-3.42-9.47-3.42s.03,1.09.06,2.41h-7.85v2.02h7.87c0,1.27,0,2.33-.08,2.41Z"/>
</svg>