<?xml version="1.0" encoding="UTF-8"?>
<svg id="_레이어_2" data-name="레이어 2" xmlns="http://www.w3.org/2000/svg" viewBox="0 0 38.93 8.5">
  <defs>
    <style>
      .cls-1 {
        fill: #fff;
      }
    </style>
  </defs>
  <g id="_레이어_1-2" data-name="레이어 1">
    <g>
      <path class="cls-1" d="M14.35,1.87l.2-.8h-3.1l-.69,2.78.48.04c1.09.14,1.65.56,1.57,1.46-.07.86-.58,1.24-1.14,1.25-.29,0-.57-.12-.67-.25l-.21-.9c-.35-.06-.72.12-.78.48-.06.32.07.58.38.76.34.2.96.28,1.52.25,1.33-.08,2.11-.73,2.33-1.78.3-1.41-.78-2.15-2.91-2.22l.26-1.05h2.76Z"/>
      <path class="cls-1" d="M17.44,1.11c.26.21.55.59.69.97.22-.07.47-.22.63-.46.16-.23.25-.56-.02-.73-.13-.08-.31-.12-.55-.13-.23,0-.5.01-.74.08-.77.2-1.51.79-1.66,1.8l-.02.15h-.72l-.05.31.71.08-.51,3.33-.66.14-.03.17h2.75l.03-.17-.67-.14.51-3.33,1.2-.08.05-.31h-1.19l.26-1.69Z"/>
      <path class="cls-1" d="M20.66,3.19l1.27-.08.05-.31h-1.25l.19-1.22h-.36l-1.25,1.22h-.67l-.05.31.65.08-.36,2.35c-.16.97.25,1.42,1.1,1.39.6-.02,1.15-.2,1.65-.7l-.1-.17c-.21.15-.52.25-.85.25-.35,0-.46-.23-.37-.77l.36-2.36Z"/>
      <path class="cls-1" d="M22.7,5.83c-.38,0-.71.2-.77.59-.06.39.21.59.59.59s.71-.2.77-.59c.06-.39-.21-.59-.59-.59Z"/>
      <path class="cls-1" d="M29.26,2.89c-.13-.14-.28-.24-.45-.31-.17-.06-.36-.09-.56-.09-.05,0-.12,0-.2.02-.08.01-.17.03-.27.06-.1.03-.2.08-.3.15-.1.06-.2.15-.3.26-.13-.17-.29-.3-.47-.37-.19-.08-.39-.11-.61-.11-.1,0-.23.02-.4.06-.16.04-.33.12-.48.25l-.16-.22h-1.35v4.13h1.61v-2.61c.04-.05.09-.09.14-.11.05-.02.09-.03.14-.03.11,0,.2.04.24.12.05.08.07.19.07.32v2.31h1.61v-2.54s0-.08,0-.12c.07-.06.15-.09.23-.09.11,0,.19.04.24.12.05.08.07.19.07.32v2.31h1.61v-2.42c0-.33-.04-.61-.11-.84-.08-.23-.18-.41-.3-.56Z"/>
      <path class="cls-1" d="M33.84,2.94c-.15-.14-.35-.25-.61-.33-.25-.08-.56-.12-.94-.12-.33,0-.63.03-.91.1-.28.07-.52.14-.71.22v1.36c.09-.04.18-.09.29-.13.11-.04.23-.08.35-.11.12-.03.25-.06.37-.08.13-.02.25-.03.37-.03.17,0,.29.01.37.04.07.03.11.06.12.11-.34.02-.65.07-.94.13-.28.07-.53.17-.73.29-.21.12-.36.28-.47.47-.11.19-.17.41-.17.67,0,.21.03.4.1.56.06.16.16.29.28.4.12.11.26.18.44.24.17.05.36.08.57.08.17,0,.34-.03.52-.08.17-.05.34-.13.49-.24l.2.23h1.45v-2.66c0-.22-.03-.42-.1-.61s-.17-.36-.33-.5ZM32.54,5.27s0,.06-.02.1c-.02.06-.06.1-.13.14-.07.04-.14.06-.22.06-.08,0-.15-.02-.2-.05-.05-.03-.08-.09-.08-.16,0-.06.02-.1.05-.14.03-.04.08-.07.14-.09.06-.02.13-.04.2-.05.08,0,.16-.01.25-.01v.2Z"/>
      <path class="cls-1" d="M37.7,2.58l-.21.21c-.11-.1-.23-.17-.36-.22-.13-.05-.28-.07-.43-.07-.26,0-.5.04-.73.13-.23.09-.43.21-.6.38-.17.17-.31.38-.4.64-.1.26-.15.56-.15.9,0,.28.04.54.12.77.08.24.2.44.35.61.15.17.33.3.54.39.21.09.45.14.71.14.15,0,.3-.02.43-.05.13-.03.25-.08.35-.12-.02.07-.05.13-.09.17-.05.04-.1.08-.16.11-.06.03-.13.05-.2.06s-.14.02-.2.02c-.12,0-.25,0-.39,0-.14-.01-.28-.03-.42-.06-.14-.03-.28-.06-.41-.09-.13-.03-.25-.07-.35-.11v1.25c.26.11.53.18.81.23.28.05.58.07.9.07.71,0,1.24-.19,1.6-.56.36-.37.54-.92.54-1.65v-3.14h-1.23ZM37.31,4.93c-.04.06-.1.11-.16.15-.06.04-.13.06-.22.06-.15,0-.26-.06-.35-.17-.09-.11-.13-.27-.13-.48,0-.18.04-.34.12-.46s.2-.19.36-.19c.06,0,.12.02.19.05.07.03.13.09.19.17v.87Z"/>
      <path class="cls-1" d="M5.93,4.65s.07-.03.07-.07-.03-.07-.07-.07-.07.03-.07.07.03.07.07.07Z"/>
      <path class="cls-1" d="M5.7,4.58s.03.07.07.07.07-.03.07-.07-.03-.07-.07-.07-.07.03-.07.07Z"/>
      <path class="cls-1" d="M5.55,4.58s.03.06.06.06.06-.03.06-.06-.03-.06-.06-.06-.06.03-.06.06Z"/>
      <path class="cls-1" d="M5.93,4.8s.07-.03.07-.07-.03-.07-.07-.07-.07.03-.07.07.03.07.07.07Z"/>
      <path class="cls-1" d="M5.7,4.73s.03.07.07.07.07-.03.07-.07-.03-.07-.07-.07-.07.03-.07.07Z"/>
      <path class="cls-1" d="M5.55,4.73s.03.06.06.06.06-.03.06-.06-.03-.06-.06-.06-.06.03-.06.06Z"/>
      <path class="cls-1" d="M5.93,4.95s.07-.03.07-.07-.03-.07-.07-.07-.07.03-.07.07.03.07.07.07Z"/>
      <path class="cls-1" d="M5.7,4.87s.03.07.07.07.07-.03.07-.07-.03-.07-.07-.07-.07.03-.07.07Z"/>
      <path class="cls-1" d="M5.55,4.87s.03.06.06.06.06-.03.06-.06-.03-.06-.06-.06-.06.03-.06.06Z"/>
      <path class="cls-1" d="M5.4,4.87s.02.05.05.05.05-.02.05-.05-.02-.05-.05-.05-.05.02-.05.05Z"/>
      <path class="cls-1" d="M5.93,5.09s.07-.03.07-.07-.03-.07-.07-.07-.07.03-.07.07.03.07.07.07Z"/>
      <path class="cls-1" d="M5.7,5.02s.03.07.07.07.07-.03.07-.07-.03-.07-.07-.07-.07.03-.07.07Z"/>
      <path class="cls-1" d="M5.55,5.02s.03.06.06.06.06-.03.06-.06-.03-.06-.06-.06-.06.03-.06.06Z"/>
      <path class="cls-1" d="M5.4,5.02s.02.05.05.05.05-.02.05-.05-.02-.05-.05-.05-.05.02-.05.05Z"/>
      <path class="cls-1" d="M5.93,5.24s.07-.03.07-.07-.03-.07-.07-.07-.07.03-.07.07.03.07.07.07Z"/>
      <path class="cls-1" d="M5.7,5.16s.03.07.07.07.07-.03.07-.07-.03-.07-.07-.07-.07.03-.07.07Z"/>
      <path class="cls-1" d="M5.55,5.16s.03.06.06.06.06-.03.06-.06-.03-.06-.06-.06-.06.03-.06.06Z"/>
      <path class="cls-1" d="M5.4,5.16s.02.05.05.05.05-.02.05-.05-.02-.05-.05-.05-.05.02-.05.05Z"/>
      <circle class="cls-1" cx="5.3" cy="5.16" r=".05"/>
      <path class="cls-1" d="M5.93,5.38s.07-.03.07-.07-.03-.07-.07-.07-.07.03-.07.07.03.07.07.07Z"/>
      <path class="cls-1" d="M5.7,5.31s.03.07.07.07.07-.03.07-.07-.03-.07-.07-.07-.07.03-.07.07Z"/>
      <path class="cls-1" d="M5.55,5.31s.03.06.06.06.06-.03.06-.06-.03-.06-.06-.06-.06.03-.06.06Z"/>
      <path class="cls-1" d="M5.4,5.31s.02.05.05.05.05-.02.05-.05-.02-.05-.05-.05-.05.02-.05.05Z"/>
      <circle class="cls-1" cx="5.3" cy="5.31" r=".05"/>
      <path class="cls-1" d="M5.93,5.53s.07-.03.07-.07-.03-.07-.07-.07-.07.03-.07.07.03.07.07.07Z"/>
      <path class="cls-1" d="M5.7,5.46s.03.07.07.07.07-.03.07-.07-.03-.07-.07-.07-.07.03-.07.07Z"/>
      <path class="cls-1" d="M5.55,5.46s.03.06.06.06.06-.03.06-.06-.03-.06-.06-.06-.06.03-.06.06Z"/>
      <path class="cls-1" d="M5.4,5.46s.02.05.05.05.05-.02.05-.05-.02-.05-.05-.05-.05.02-.05.05Z"/>
      <circle class="cls-1" cx="5.3" cy="5.46" r=".05"/>
      <path class="cls-1" d="M5.93,5.68s.07-.03.07-.07-.03-.07-.07-.07-.07.03-.07.07.03.07.07.07Z"/>
      <path class="cls-1" d="M5.7,5.6s.03.07.07.07.07-.03.07-.07-.03-.07-.07-.07-.07.03-.07.07Z"/>
      <path class="cls-1" d="M5.55,5.6s.03.06.06.06.06-.03.06-.06-.03-.06-.06-.06-.06.03-.06.06Z"/>
      <path class="cls-1" d="M5.4,5.6s.02.05.05.05.05-.02.05-.05-.02-.05-.05-.05-.05.02-.05.05Z"/>
      <circle class="cls-1" cx="5.3" cy="5.6" r=".05"/>
      <path class="cls-1" d="M5.1,5.6s.02.04.04.04.04-.02.04-.04-.02-.04-.04-.04-.04.02-.04.04Z"/>
      <path class="cls-1" d="M5.93,5.82s.07-.03.07-.07-.03-.07-.07-.07-.07.03-.07.07.03.07.07.07Z"/>
      <path class="cls-1" d="M5.7,5.75s.03.07.07.07.07-.03.07-.07-.03-.07-.07-.07-.07.03-.07.07Z"/>
      <path class="cls-1" d="M5.55,5.75s.03.06.06.06.06-.03.06-.06-.03-.06-.06-.06-.06.03-.06.06Z"/>
      <path class="cls-1" d="M5.4,5.75s.02.05.05.05.05-.02.05-.05-.02-.05-.05-.05-.05.02-.05.05Z"/>
      <circle class="cls-1" cx="5.3" cy="5.75" r=".05"/>
      <path class="cls-1" d="M5.1,5.75s.02.04.04.04.04-.02.04-.04-.02-.04-.04-.04-.04.02-.04.04Z"/>
      <path class="cls-1" d="M5.93,5.97s.07-.03.07-.07-.03-.07-.07-.07-.07.03-.07.07.03.07.07.07Z"/>
      <path class="cls-1" d="M5.7,5.9s.03.07.07.07.07-.03.07-.07-.03-.07-.07-.07-.07.03-.07.07Z"/>
      <path class="cls-1" d="M5.55,5.9s.03.06.06.06.06-.03.06-.06-.03-.06-.06-.06-.06.03-.06.06Z"/>
      <path class="cls-1" d="M5.4,5.9s.02.05.05.05.05-.02.05-.05-.02-.05-.05-.05-.05.02-.05.05Z"/>
      <circle class="cls-1" cx="5.3" cy="5.9" r=".05"/>
      <path class="cls-1" d="M5.1,5.9s.02.04.04.04.04-.02.04-.04-.02-.04-.04-.04-.04.02-.04.04Z"/>
      <path class="cls-1" d="M5.93,6.12s.07-.03.07-.07-.03-.07-.07-.07-.07.03-.07.07.03.07.07.07Z"/>
      <path class="cls-1" d="M5.7,6.04s.03.07.07.07.07-.03.07-.07-.03-.07-.07-.07-.07.03-.07.07Z"/>
      <path class="cls-1" d="M5.55,6.04s.03.06.06.06.06-.03.06-.06-.03-.06-.06-.06-.06.03-.06.06Z"/>
      <path class="cls-1" d="M5.4,6.04s.02.05.05.05.05-.02.05-.05-.02-.05-.05-.05-.05.02-.05.05Z"/>
      <circle class="cls-1" cx="5.3" cy="6.04" r=".05"/>
      <path class="cls-1" d="M5.1,6.04s.02.04.04.04.04-.02.04-.04-.02-.04-.04-.04-.04.02-.04.04Z"/>
      <path class="cls-1" d="M4.94,6.04s.02.04.04.04.04-.02.04-.04-.02-.04-.04-.04-.04.02-.04.04Z"/>
      <path class="cls-1" d="M5.93,6.26s.07-.03.07-.07-.03-.07-.07-.07-.07.03-.07.07.03.07.07.07Z"/>
      <path class="cls-1" d="M5.7,6.19s.03.07.07.07.07-.03.07-.07-.03-.07-.07-.07-.07.03-.07.07Z"/>
      <path class="cls-1" d="M5.55,6.19s.03.06.06.06.06-.03.06-.06-.03-.06-.06-.06-.06.03-.06.06Z"/>
      <path class="cls-1" d="M5.4,6.19s.02.05.05.05.05-.02.05-.05-.02-.05-.05-.05-.05.02-.05.05Z"/>
      <circle class="cls-1" cx="5.3" cy="6.19" r=".05"/>
      <path class="cls-1" d="M5.1,6.19s.02.04.04.04.04-.02.04-.04-.02-.04-.04-.04-.04.02-.04.04Z"/>
      <path class="cls-1" d="M4.94,6.19s.02.04.04.04.04-.02.04-.04-.02-.04-.04-.04-.04.02-.04.04Z"/>
      <path class="cls-1" d="M5.93,6.41s.07-.03.07-.07-.03-.07-.07-.07-.07.03-.07.07.03.07.07.07Z"/>
      <path class="cls-1" d="M5.7,6.34s.03.07.07.07.07-.03.07-.07-.03-.07-.07-.07-.07.03-.07.07Z"/>
      <path class="cls-1" d="M5.55,6.34s.03.06.06.06.06-.03.06-.06-.03-.06-.06-.06-.06.03-.06.06Z"/>
      <path class="cls-1" d="M5.4,6.34s.02.05.05.05.05-.02.05-.05-.02-.05-.05-.05-.05.02-.05.05Z"/>
      <circle class="cls-1" cx="5.3" cy="6.34" r=".05"/>
      <path class="cls-1" d="M5.1,6.34s.02.04.04.04.04-.02.04-.04-.02-.04-.04-.04-.04.02-.04.04Z"/>
      <circle class="cls-1" cx="4.98" cy="6.34" r=".04"/>
      <path class="cls-1" d="M5.93,6.56s.07-.03.07-.07-.03-.07-.07-.07-.07.03-.07.07.03.07.07.07Z"/>
      <path class="cls-1" d="M5.7,6.48s.03.07.07.07.07-.03.07-.07-.03-.07-.07-.07-.07.03-.07.07Z"/>
      <path class="cls-1" d="M5.55,6.48s.03.06.06.06.06-.03.06-.06-.03-.06-.06-.06-.06.03-.06.06Z"/>
      <path class="cls-1" d="M5.4,6.48s.02.05.05.05.05-.02.05-.05-.02-.05-.05-.05-.05.02-.05.05Z"/>
      <circle class="cls-1" cx="5.3" cy="6.48" r=".05"/>
      <path class="cls-1" d="M5.1,6.48s.02.04.04.04.04-.02.04-.04-.02-.04-.04-.04-.04.02-.04.04Z"/>
      <circle class="cls-1" cx="4.98" cy="6.48" r=".04"/>
      <path class="cls-1" d="M5.93,6.7s.07-.03.07-.07-.03-.07-.07-.07-.07.03-.07.07.03.07.07.07Z"/>
      <path class="cls-1" d="M5.7,6.63s.03.07.07.07.07-.03.07-.07-.03-.07-.07-.07-.07.03-.07.07Z"/>
      <path class="cls-1" d="M5.55,6.63s.03.06.06.06.06-.03.06-.06-.03-.06-.06-.06-.06.03-.06.06Z"/>
      <path class="cls-1" d="M5.4,6.63s.02.05.05.05.05-.02.05-.05-.02-.05-.05-.05-.05.02-.05.05Z"/>
      <circle class="cls-1" cx="5.3" cy="6.63" r=".05"/>
      <path class="cls-1" d="M5.1,6.63s.02.04.04.04.04-.02.04-.04-.02-.04-.04-.04-.04.02-.04.04Z"/>
      <circle class="cls-1" cx="4.98" cy="6.63" r=".04"/>
      <path class="cls-1" d="M5.93,6.85s.07-.03.07-.07-.03-.07-.07-.07-.07.03-.07.07.03.07.07.07Z"/>
      <path class="cls-1" d="M5.7,6.78s.03.07.07.07.07-.03.07-.07-.03-.07-.07-.07-.07.03-.07.07Z"/>
      <path class="cls-1" d="M5.55,6.78s.03.06.06.06.06-.03.06-.06-.03-.06-.06-.06-.06.03-.06.06Z"/>
      <path class="cls-1" d="M5.4,6.78s.02.05.05.05.05-.02.05-.05-.02-.05-.05-.05-.05.02-.05.05Z"/>
      <circle class="cls-1" cx="5.3" cy="6.78" r=".05"/>
      <path class="cls-1" d="M5.1,6.78s.02.04.04.04.04-.02.04-.04-.02-.04-.04-.04-.04.02-.04.04Z"/>
      <circle class="cls-1" cx="4.98" cy="6.78" r=".04"/>
      <path class="cls-1" d="M5.93,7s.07-.03.07-.07-.03-.07-.07-.07-.07.03-.07.07.03.07.07.07Z"/>
      <path class="cls-1" d="M5.7,6.92s.03.07.07.07.07-.03.07-.07-.03-.07-.07-.07-.07.03-.07.07Z"/>
      <path class="cls-1" d="M5.55,6.92s.03.06.06.06.06-.03.06-.06-.03-.06-.06-.06-.06.03-.06.06Z"/>
      <path class="cls-1" d="M5.4,6.92s.02.05.05.05.05-.02.05-.05-.02-.05-.05-.05-.05.02-.05.05Z"/>
      <circle class="cls-1" cx="5.3" cy="6.92" r=".05"/>
      <path class="cls-1" d="M5.1,6.92s.02.04.04.04.04-.02.04-.04-.02-.04-.04-.04-.04.02-.04.04Z"/>
      <circle class="cls-1" cx="4.98" cy="6.92" r=".04"/>
      <path class="cls-1" d="M5.93,7.14s.07-.03.07-.07-.03-.07-.07-.07-.07.03-.07.07.03.07.07.07Z"/>
      <path class="cls-1" d="M5.7,7.07s.03.07.07.07.07-.03.07-.07-.03-.07-.07-.07-.07.03-.07.07Z"/>
      <path class="cls-1" d="M5.55,7.07s.03.06.06.06.06-.03.06-.06-.03-.06-.06-.06-.06.03-.06.06Z"/>
      <path class="cls-1" d="M5.4,7.07s.02.05.05.05.05-.02.05-.05-.02-.05-.05-.05-.05.02-.05.05Z"/>
      <circle class="cls-1" cx="5.3" cy="7.07" r=".05"/>
      <path class="cls-1" d="M5.1,7.07s.02.04.04.04.04-.02.04-.04-.02-.04-.04-.04-.04.02-.04.04Z"/>
      <circle class="cls-1" cx="4.98" cy="7.07" r=".04"/>
      <path class="cls-1" d="M5.93,7.29s.07-.03.07-.07-.03-.07-.07-.07-.07.03-.07.07.03.07.07.07Z"/>
      <path class="cls-1" d="M5.7,7.21s.03.07.07.07.07-.03.07-.07-.03-.07-.07-.07-.07.03-.07.07Z"/>
      <path class="cls-1" d="M5.55,7.21s.03.06.06.06.06-.03.06-.06-.03-.06-.06-.06-.06.03-.06.06Z"/>
      <path class="cls-1" d="M5.4,7.21s.02.05.05.05.05-.02.05-.05-.02-.05-.05-.05-.05.02-.05.05Z"/>
      <circle class="cls-1" cx="5.3" cy="7.21" r=".05"/>
      <path class="cls-1" d="M5.1,7.21s.02.04.04.04.04-.02.04-.04-.02-.04-.04-.04-.04.02-.04.04Z"/>
      <path class="cls-1" d="M4.94,7.21s.02.04.04.04.04-.02.04-.04-.02-.04-.04-.04-.04.02-.04.04Z"/>
      <path class="cls-1" d="M5.93,7.43s.07-.03.07-.07-.03-.07-.07-.07-.07.03-.07.07.03.07.07.07Z"/>
      <path class="cls-1" d="M5.7,7.36s.03.07.07.07.07-.03.07-.07-.03-.07-.07-.07-.07.03-.07.07Z"/>
      <path class="cls-1" d="M5.55,7.36s.03.06.06.06.06-.03.06-.06-.03-.06-.06-.06-.06.03-.06.06Z"/>
      <path class="cls-1" d="M5.4,7.36s.02.05.05.05.05-.02.05-.05-.02-.05-.05-.05-.05.02-.05.05Z"/>
      <circle class="cls-1" cx="5.3" cy="7.36" r=".05"/>
      <path class="cls-1" d="M5.1,7.36s.02.04.04.04.04-.02.04-.04-.02-.04-.04-.04-.04.02-.04.04Z"/>
      <path class="cls-1" d="M4.94,7.36s.02.04.04.04.04-.02.04-.04-.02-.04-.04-.04-.04.02-.04.04Z"/>
      <path class="cls-1" d="M5.93,7.43s-.07.03-.07.07.03.07.07.07.07-.03.07-.07-.03-.07-.07-.07Z"/>
      <path class="cls-1" d="M5.7,7.51s.03.07.07.07.07-.03.07-.07-.03-.07-.07-.07-.07.03-.07.07Z"/>
      <path class="cls-1" d="M5.55,7.51s.03.06.06.06.06-.03.06-.06-.03-.06-.06-.06-.06.03-.06.06Z"/>
      <path class="cls-1" d="M5.4,7.51s.02.05.05.05.05-.02.05-.05-.02-.05-.05-.05-.05.02-.05.05Z"/>
      <circle class="cls-1" cx="5.3" cy="7.51" r=".05"/>
      <path class="cls-1" d="M5.1,7.51s.02.04.04.04.04-.02.04-.04-.02-.04-.04-.04-.04.02-.04.04Z"/>
      <path class="cls-1" d="M4.94,7.51s.02.04.04.04.04-.02.04-.04-.02-.04-.04-.04-.04.02-.04.04Z"/>
      <path class="cls-1" d="M5.55,7.65s.03.06.06.06.06-.03.06-.06-.03-.06-.06-.06-.06.03-.06.06Z"/>
      <path class="cls-1" d="M5.4,7.65s.02.05.05.05.05-.02.05-.05-.02-.05-.05-.05-.05.02-.05.05Z"/>
      <circle class="cls-1" cx="5.3" cy="7.65" r=".05"/>
      <path class="cls-1" d="M5.1,7.65s.02.04.04.04.04-.02.04-.04-.02-.04-.04-.04-.04.02-.04.04Z"/>
      <path class="cls-1" d="M4.94,7.65s.02.04.04.04.04-.02.04-.04-.02-.04-.04-.04-.04.02-.04.04Z"/>
      <path class="cls-1" d="M5.93,1.63s.07-.03.07-.07-.03-.07-.07-.07-.07.03-.07.07.03.07.07.07Z"/>
      <path class="cls-1" d="M5.84,1.56s-.03-.07-.07-.07-.07.03-.07.07.03.07.07.07.07-.03.07-.07Z"/>
      <path class="cls-1" d="M5.67,1.56s-.03-.06-.06-.06-.06.03-.06.06.03.06.06.06.06-.03.06-.06Z"/>
      <path class="cls-1" d="M5.51,1.56s-.02-.05-.05-.05-.05.02-.05.05.02.05.05.05.05-.02.05-.05Z"/>
      <circle class="cls-1" cx="5.3" cy="1.56" r=".05"/>
      <path class="cls-1" d="M5.18,1.56s-.02-.04-.04-.04-.04.02-.04.04.02.04.04.04.04-.02.04-.04Z"/>
      <path class="cls-1" d="M5.02,1.56s-.02-.04-.04-.04-.04.02-.04.04.02.04.04.04.04-.02.04-.04Z"/>
      <path class="cls-1" d="M5.93,1.63s-.07.03-.07.07.03.07.07.07.07-.03.07-.07-.03-.07-.07-.07Z"/>
      <path class="cls-1" d="M5.84,1.7s-.03-.07-.07-.07-.07.03-.07.07.03.07.07.07.07-.03.07-.07Z"/>
      <path class="cls-1" d="M5.67,1.7s-.03-.06-.06-.06-.06.03-.06.06.03.06.06.06.06-.03.06-.06Z"/>
      <path class="cls-1" d="M5.51,1.7s-.02-.05-.05-.05-.05.02-.05.05.02.05.05.05.05-.02.05-.05Z"/>
      <circle class="cls-1" cx="5.3" cy="1.7" r=".05"/>
      <path class="cls-1" d="M5.18,1.7s-.02-.04-.04-.04-.04.02-.04.04.02.04.04.04.04-.02.04-.04Z"/>
      <path class="cls-1" d="M5.02,1.7s-.02-.04-.04-.04-.04.02-.04.04.02.04.04.04.04-.02.04-.04Z"/>
      <path class="cls-1" d="M5.93,1.78s-.07.03-.07.07.03.07.07.07.07-.03.07-.07-.03-.07-.07-.07Z"/>
      <path class="cls-1" d="M5.84,1.85s-.03-.07-.07-.07-.07.03-.07.07.03.07.07.07.07-.03.07-.07Z"/>
      <path class="cls-1" d="M5.67,1.85s-.03-.06-.06-.06-.06.03-.06.06.03.06.06.06.06-.03.06-.06Z"/>
      <path class="cls-1" d="M5.51,1.85s-.02-.05-.05-.05-.05.02-.05.05.02.05.05.05.05-.02.05-.05Z"/>
      <circle class="cls-1" cx="5.3" cy="1.85" r=".05"/>
      <path class="cls-1" d="M5.18,1.85s-.02-.04-.04-.04-.04.02-.04.04.02.04.04.04.04-.02.04-.04Z"/>
      <path class="cls-1" d="M5.02,1.85s-.02-.04-.04-.04-.04.02-.04.04.02.04.04.04.04-.02.04-.04Z"/>
      <path class="cls-1" d="M5.93,1.92s-.07.03-.07.07.03.07.07.07.07-.03.07-.07-.03-.07-.07-.07Z"/>
      <path class="cls-1" d="M5.84,2s-.03-.07-.07-.07-.07.03-.07.07.03.07.07.07.07-.03.07-.07Z"/>
      <path class="cls-1" d="M5.67,2s-.03-.06-.06-.06-.06.03-.06.06.03.06.06.06.06-.03.06-.06Z"/>
      <path class="cls-1" d="M5.51,2s-.02-.05-.05-.05-.05.02-.05.05.02.05.05.05.05-.02.05-.05Z"/>
      <circle class="cls-1" cx="5.3" cy="2" r=".05"/>
      <path class="cls-1" d="M5.18,2s-.02-.04-.04-.04-.04.02-.04.04.02.04.04.04.04-.02.04-.04Z"/>
      <path class="cls-1" d="M5.02,2s-.02-.04-.04-.04-.04.02-.04.04.02.04.04.04.04-.02.04-.04Z"/>
      <path class="cls-1" d="M5.18,2.14s-.02-.04-.04-.04-.04.02-.04.04.02.04.04.04.04-.02.04-.04Z"/>
      <path class="cls-1" d="M5.02,2.14s-.02-.04-.04-.04-.04.02-.04.04.02.04.04.04.04-.02.04-.04Z"/>
      <path class="cls-1" d="M3.15,4.27s.01-.04,0-.05c-.01-.01-.04-.01-.05,0-.01.01-.01.04,0,.05.01.01.04.01.05,0Z"/>
      <path class="cls-1" d="M3.09,4.34s0-.03,0-.04-.03,0-.04,0,0,.03,0,.04.03,0,.04,0Z"/>
      <path class="cls-1" d="M3.02,4.41s0-.03,0-.04c-.01,0-.03,0-.04,0,0,.01,0,.03,0,.04.01,0,.03,0,.04,0Z"/>
      <path class="cls-1" d="M2.96,4.48s0-.02,0-.03c0,0-.02,0-.03,0,0,0,0,.02,0,.03,0,0,.02,0,.03,0Z"/>
      <path class="cls-1" d="M3.42,4.11s.01-.05,0-.06c-.02-.02-.05-.01-.06,0-.02.02-.01.05,0,.06s.05.01.06,0Z"/>
      <path class="cls-1" d="M3.35,4.18s.01-.04,0-.06c-.02-.01-.04-.01-.06,0-.01.02-.01.04,0,.06.02.01.04.01.06,0Z"/>
      <path class="cls-1" d="M3.29,4.25s.01-.04,0-.05c-.02-.01-.04-.01-.05,0-.01.02-.01.04,0,.05.02.01.04.01.05,0Z"/>
      <path class="cls-1" d="M3.22,4.32s.01-.04,0-.05c-.01-.01-.04-.01-.05,0-.01.01-.01.04,0,.05.01.01.04.01.05,0Z"/>
      <path class="cls-1" d="M3.11,4.36s0,.03,0,.04c.01.01.03,0,.04,0s0-.03,0-.04-.03,0-.04,0Z"/>
      <path class="cls-1" d="M3.05,4.47s.03,0,.04,0c0-.01,0-.03,0-.04s-.03,0-.04,0c0,.01,0,.03,0,.04Z"/>
      <path class="cls-1" d="M2.99,4.54s.02,0,.03,0c0,0,0-.02,0-.03s-.02,0-.03,0c0,0,0,.02,0,.03Z"/>
      <path class="cls-1" d="M3.42,4.11s-.01.05,0,.06.05.01.06,0c.02-.02.01-.05,0-.06-.02-.02-.05-.01-.06,0Z"/>
      <path class="cls-1" d="M3.42,4.24s.01-.04,0-.06c-.02-.01-.04-.01-.06,0-.01.02-.01.04,0,.06s.04.01.06,0Z"/>
      <path class="cls-1" d="M3.3,4.26s-.01.04,0,.05c.02.01.04.01.05,0,.01-.02.01-.04,0-.05s-.04-.01-.05,0Z"/>
      <path class="cls-1" d="M3.29,4.34s-.04-.01-.05,0c-.01.01-.01.04,0,.05.01.01.04.01.05,0,.01-.01.01-.04,0-.05Z"/>
      <path class="cls-1" d="M3.18,4.42s0,.03,0,.04.03,0,.04,0,0-.03,0-.04-.03,0-.04,0Z"/>
      <path class="cls-1" d="M3.12,4.53s.03,0,.04,0c0-.01,0-.03,0-.04-.01,0-.03,0-.04,0,0,.01,0,.03,0,.04Z"/>
      <path class="cls-1" d="M3.06,4.6s.02,0,.03,0c0,0,0-.02,0-.03,0,0-.02,0-.03,0,0,0,0,.02,0,.03Z"/>
      <path class="cls-1" d="M3.49,4.17s-.01.05,0,.06c.02.02.05.01.06,0s.01-.05,0-.06c-.02-.02-.05-.01-.06,0Z"/>
      <path class="cls-1" d="M3.49,4.3s.01-.04,0-.06c-.02-.01-.04-.01-.06,0s-.01.04,0,.06.04.01.06,0Z"/>
      <path class="cls-1" d="M3.37,4.32s-.01.04,0,.05c.02.01.04.01.05,0,.01-.02.01-.04,0-.05-.02-.01-.04-.01-.05,0Z"/>
      <path class="cls-1" d="M3.36,4.39s-.04-.01-.05,0c-.01.01-.01.04,0,.05.01.01.04.01.05,0,.01-.01.01-.04,0-.05Z"/>
      <path class="cls-1" d="M3.29,4.47s-.03,0-.04,0,0,.03,0,.04.03,0,.04,0,0-.03,0-.04Z"/>
      <path class="cls-1" d="M3.19,4.59s.03,0,.04,0c0-.01,0-.03,0-.04-.01,0-.03,0-.04,0,0,.01,0,.03,0,.04Z"/>
      <path class="cls-1" d="M3.13,4.66s.02,0,.03,0c0,0,0-.02,0-.03,0,0-.02,0-.03,0,0,0,0,.02,0,.03Z"/>
      <path class="cls-1" d="M3.56,4.22s-.01.05,0,.06.05.01.06,0c.02-.02.01-.05,0-.06-.02-.02-.05-.01-.06,0Z"/>
      <path class="cls-1" d="M3.56,4.35s.01-.04,0-.06c-.02-.01-.04-.01-.06,0-.01.02-.01.04,0,.06s.04.01.06,0Z"/>
      <path class="cls-1" d="M3.44,4.38s-.01.04,0,.05c.02.01.04.01.05,0,.01-.02.01-.04,0-.05-.02-.01-.04-.01-.05,0Z"/>
      <path class="cls-1" d="M3.43,4.45s-.04-.01-.05,0c-.01.01-.01.04,0,.05.01.01.04.01.05,0,.01-.01.01-.04,0-.05Z"/>
      <path class="cls-1" d="M3.36,4.53s-.03,0-.04,0,0,.03,0,.04.03,0,.04,0,0-.03,0-.04Z"/>
      <path class="cls-1" d="M3.3,4.61s-.03,0-.04,0c0,.01,0,.03,0,.04.01,0,.03,0,.04,0,0-.01,0-.03,0-.04Z"/>
      <path class="cls-1" d="M3.2,4.72s.02,0,.03,0c0,0,0-.02,0-.03,0,0-.02,0-.03,0,0,0,0,.02,0,.03Z"/>
      <path class="cls-1" d="M3.63,4.28s-.01.05,0,.06c.02.02.05.01.06,0s.01-.05,0-.06-.05-.01-.06,0Z"/>
      <path class="cls-1" d="M3.63,4.41s.01-.04,0-.06c-.02-.01-.04-.01-.06,0-.01.02-.01.04,0,.06.02.01.04.01.06,0Z"/>
      <path class="cls-1" d="M3.51,4.44s-.01.04,0,.05.04.01.05,0,.01-.04,0-.05-.04-.01-.05,0Z"/>
      <path class="cls-1" d="M3.5,4.51s-.04-.01-.05,0c-.01.01-.01.04,0,.05.01.01.04.01.05,0,.01-.01.01-.04,0-.05Z"/>
      <path class="cls-1" d="M3.43,4.59s-.03,0-.04,0,0,.03,0,.04c.01.01.03,0,.04,0s0-.03,0-.04Z"/>
      <path class="cls-1" d="M3.36,4.67s-.03,0-.04,0c0,.01,0,.03,0,.04.01,0,.03,0,.04,0,0-.01,0-.03,0-.04Z"/>
      <path class="cls-1" d="M3.27,4.75s0,.02,0,.03.02,0,.03,0c0,0,0-.02,0-.03,0,0-.02,0-.03,0Z"/>
      <path class="cls-1" d="M3.7,4.34s-.01.05,0,.06c.02.02.05.01.06,0s.01-.05,0-.06c-.02-.02-.05-.01-.06,0Z"/>
      <path class="cls-1" d="M3.7,4.47s.01-.04,0-.06-.04-.01-.06,0-.01.04,0,.06c.02.01.04.01.06,0Z"/>
      <path class="cls-1" d="M3.58,4.5s-.01.04,0,.05c.02.01.04.01.05,0,.01-.02.01-.04,0-.05-.02-.01-.04-.01-.05,0Z"/>
      <path class="cls-1" d="M3.56,4.57s-.04-.01-.05,0c-.01.01-.01.04,0,.05.01.01.04.01.05,0,.01-.01.01-.04,0-.05Z"/>
      <path class="cls-1" d="M3.5,4.65s-.03,0-.04,0,0,.03,0,.04.03,0,.04,0,0-.03,0-.04Z"/>
      <path class="cls-1" d="M3.43,4.72s-.03,0-.04,0c0,.01,0,.03,0,.04.01,0,.03,0,.04,0,0-.01,0-.03,0-.04Z"/>
      <path class="cls-1" d="M3.34,4.8s0,.02,0,.03c0,0,.02,0,.03,0,0,0,0-.02,0-.03,0,0-.02,0-.03,0Z"/>
      <path class="cls-1" d="M3.77,4.4s-.01.05,0,.06c.02.02.05.01.06,0,.02-.02.01-.05,0-.06s-.05-.01-.06,0Z"/>
      <path class="cls-1" d="M3.77,4.53s.01-.04,0-.06-.04-.01-.06,0c-.01.02-.01.04,0,.06.02.01.04.01.06,0Z"/>
      <path class="cls-1" d="M3.65,4.55s-.01.04,0,.05c.02.01.04.01.05,0,.01-.02.01-.04,0-.05-.02-.01-.04-.01-.05,0Z"/>
      <path class="cls-1" d="M3.63,4.63s-.04-.01-.05,0c-.01.01-.01.04,0,.05.01.01.04.01.05,0,.01-.01.01-.04,0-.05Z"/>
      <path class="cls-1" d="M3.57,4.7s-.03,0-.04,0c-.01.01,0,.03,0,.04s.03,0,.04,0,0-.03,0-.04Z"/>
      <path class="cls-1" d="M3.5,4.78s-.03,0-.04,0c0,.01,0,.03,0,.04.01,0,.03,0,.04,0,0-.01,0-.03,0-.04Z"/>
      <path class="cls-1" d="M3.41,4.86s0,.02,0,.03c0,0,.02,0,.03,0,0,0,0-.02,0-.03,0,0-.02,0-.03,0Z"/>
      <path class="cls-1" d="M3.84,4.46s-.01.05,0,.06c.02.02.05.01.06,0,.02-.02.01-.05,0-.06-.02-.02-.05-.01-.06,0Z"/>
      <path class="cls-1" d="M3.84,4.59s.01-.04,0-.06c-.02-.01-.04-.01-.06,0-.01.02-.01.04,0,.06.02.01.04.01.06,0Z"/>
      <path class="cls-1" d="M3.72,4.61s-.01.04,0,.05c.02.01.04.01.05,0,.01-.02.01-.04,0-.05s-.04-.01-.05,0Z"/>
      <path class="cls-1" d="M3.66,4.69s-.01.04,0,.05c.01.01.04.01.05,0,.01-.01.01-.04,0-.05-.01-.01-.04-.01-.05,0Z"/>
      <path class="cls-1" d="M3.6,4.77s0,.03,0,.04c.01.01.03,0,.04,0s0-.03,0-.04-.03,0-.04,0Z"/>
      <path class="cls-1" d="M3.54,4.84s0,.03,0,.04c.01,0,.03,0,.04,0,0-.01,0-.03,0-.04-.01,0-.03,0-.04,0Z"/>
      <path class="cls-1" d="M3.48,4.92s0,.02,0,.03c0,0,.02,0,.03,0,0,0,0-.02,0-.03,0,0-.02,0-.03,0Z"/>
      <path class="cls-1" d="M4.25,0C1.9,0,0,1.9,0,4.25s1.9,4.25,4.25,4.25,4.25-1.9,4.25-4.25S6.6,0,4.25,0ZM6.79,1.48h0s0,0,0,0c0,0,0,0,0,0,0,0,0,0,0,0,0,0,0,0,0,0ZM6.8,1.62s0,0,0,0c0,0,0,0,0,0,0,0,0,0,0,0,0,0,0,0,0,0ZM6.63,1.48h.02s0,0,0,0c0,0,0,.01,0,.02,0,0,0-.01-.02-.02,0,0,0,0,0,0ZM6.64,1.61s0,.01,0,.02c0,0,0,.01,0,.02,0,0,0-.01-.02-.02,0,0,.01-.01.02-.02ZM6.64,1.76s.01.02.02.03c0,0-.01.01-.02.02,0,0,0-.02-.02-.02,0,0,.01-.01.02-.02ZM4.25.47c.86,0,1.65.3,2.28.78H2.38s-.07.03-.09.06h0c-.41.34-.9.78-1.39,1.24C1.51,1.32,2.78.47,4.25.47ZM6.48,1.59s.01.03.02.04c-.01,0-.02.02-.02.04,0-.02-.02-.03-.03-.04.01,0,.02-.02.03-.04ZM6.45,1.48s0,0,0,0h.04s0,0,0,0c-.01,0-.02.02-.02.04,0-.02-.02-.03-.03-.04ZM6.48,1.74s.01.03.02.04c-.01,0-.02.02-.02.04,0-.02-.02-.03-.03-.04.01,0,.02-.02.03-.04ZM6.32,1.58s.02.04.04.05c-.02.01-.03.03-.04.05,0-.02-.02-.04-.05-.05.02,0,.04-.03.05-.05ZM6.28,1.48s0,0,0,0h.08s0,0,0,0c-.02.01-.03.03-.04.05,0-.02-.02-.04-.05-.05ZM6.32,1.73s.02.04.04.05c-.02.01-.03.03-.04.05,0-.02-.02-.04-.05-.05.02,0,.04-.03.05-.05ZM6.32,1.87s.02.04.05.06c-.02,0-.04.02-.06.03,0-.02-.02-.02-.04-.03.02,0,.04-.03.05-.05ZM6.16,1.56s.02.06.05.07c-.03.01-.05.04-.05.07,0-.04-.03-.06-.07-.07.04,0,.06-.03.07-.07ZM6.09,1.48s0,0,0,0h.12s0,0,0,0c-.03.01-.05.04-.05.07,0-.04-.03-.06-.07-.07ZM6.16,1.71s.02.06.05.07c-.03.01-.05.04-.05.07,0-.04-.03-.06-.07-.07.04,0,.06-.03.07-.07ZM6.16,1.85s.02.06.05.07c-.03.01-.05.04-.05.07,0-.04-.03-.06-.07-.07.04,0,.06-.03.07-.07ZM6.16,2s0,0,0,0c0,0,0,0,0,0,0,0,0,0,0,0ZM6.25,2.4v.34h-.78v-.34h.78ZM.47,4.25c0-.41.08-.8.2-1.17.61-.6,1.25-1.16,1.76-1.6h0s3.5,0,3.5,0c0,0,0,0,0,0s0,0,0,0h.15s0,0,0,0c-.04,0-.07.03-.07.07s.03.07.07.07c-.04,0-.07.03-.07.07s.03.07.07.07c-.04,0-.07.03-.07.07s.03.07.07.07c-.04,0-.07.03-.07.07,0,.02.03.03.04.04-.04.01-.08.02-.12.03,0,0,0,0,0,0,0,0,0,0,0,0-.04.01-.09.02-.13.03-.01,0-.01-.03-.03-.03-.02,0-.02.02-.03.03-.03,0-.06,0-.08.01-.01-.02-.02-.04-.04-.04-.03,0-.05.03-.06.06-.02,0-.03,0-.05,0,0,0,0,0,0,0,0-.03-.02-.05-.05-.05s-.05.02-.05.05c0,0,.01,0,.02.02-.02,0-.04,0-.07.01-.01,0-.02,0-.04,0,.01,0,.03-.01.03-.03,0-.03-.02-.05-.05-.05s-.05.02-.05.05c0,.02.02.03.03.03-1.82.19-2.17.2-2.19.2-.03,0-.07.01-.09.04l-1.97,2.32c-.22.26-.31.61-.29.95-.18-.44-.28-.92-.28-1.43ZM5.25,2.41v.33h-.09l-.54-.27c.19-.02.4-.04.64-.07ZM1,5.82c-.07-.33,0-.69.22-.94l1.93-2.28c.1,0,.38-.02,1.02-.08l.46.23h-.03c-.24,0-.44.2-.44.44v.49l-.63-.21s-.09,0-.12.04l-.96,1.16s-.03.12.02.16c.02.02.05.03.07.03.03,0,.07-.01.09-.04l.55-.66s-.01.04,0,.05c.02.01.04.01.05,0,.01-.02.01-.04,0-.05-.01-.01-.04,0-.05,0l.06-.07s-.01.04,0,.05c.02.01.04.01.06,0,.01-.02.01-.04,0-.06-.02-.01-.04,0-.05,0l.05-.06s-.01.04,0,.05c.02.02.05.01.06,0,.02-.02.01-.05,0-.06-.02-.01-.04,0-.05,0l.05-.06s-.01.04,0,.05c.02.02.05.01.06,0-.01.02-.01.05,0,.06.02.02.05.01.06,0-.01.02-.01.05,0,.06.02.02.05.01.06,0-.01.02-.01.05,0,.06.02.02.05.01.06,0-.01.02-.01.05,0,.06.02.02.05.01.06,0-.01.02-.01.05,0,.06.02.02.05.01.06,0-.01.02-.01.05,0,.06.02.02.05.01.06,0-.01.02-.01.05,0,.06.02.02.05.01.06,0-.01.02-.01.05,0,.06.02.02.05.01.06,0,0,0,0,.01,0,.02-.02.02-.03.03-.05.05,0,0-.01,0-.02,0,0,0,0,.01,0,.02-.02.02-.04.04-.05.06,0,0,0,0,0,0,0,0,0,0,0,0-.43.49-.92,1.03-1.18,1.31-.6.64-.98.59-1.29.44-.18-.08-.32-.29-.37-.54ZM4.16,3.93s0-.01,0-.02h0v.02s0,0,0,0ZM4.16,4.03h0s0,0,0,0h0ZM4.14,4.1s0,.03,0,.04c-.02,0-.03,0-.04,0,0-.02,0-.03,0-.04.02,0,.03,0,.04,0ZM4.09,3.97s.03,0,.04,0c0,.01,0,.03,0,.04-.01,0-.03,0-.04,0,0-.01,0-.03,0-.04ZM4.15,4.23s0,.02,0,.03c0,0-.01.01-.02.02-.01,0-.02,0-.03,0,0-.02,0-.03,0-.05.02,0,.03,0,.05,0ZM3.47,3.91s-.01.04,0,.06c-.02-.01-.04-.01-.06,0,.01-.02.01-.04,0-.06.02.01.04,0,.06,0ZM3.42,3.84l.04-.05s0,.03,0,.05c-.01,0-.03,0-.05,0ZM3.48,3.84s.04,0,.06,0c0,.02,0,.04,0,.06-.02-.01-.04,0-.06,0,0-.02,0-.04,0-.06ZM3.49,3.76l.04-.05s0,.03,0,.04c-.01,0-.03,0-.04,0ZM3.54,3.96s-.01.04,0,.06c-.02-.01-.04-.01-.06,0,.01-.02.01-.04,0-.06.02.01.04,0,.06,0ZM3.55,3.9s.04,0,.06,0c0,.02,0,.04,0,.06-.02-.01-.04,0-.06,0,0-.02,0-.04,0-.06ZM3.54,3.77s.03,0,.05,0c0,.02,0,.03,0,.05-.02,0-.03,0-.05,0,0-.02,0-.03,0-.05ZM3.61,4.02s-.01.04,0,.06c-.02-.01-.04-.01-.06,0,.01-.02.01-.04,0-.06.02.01.04,0,.06,0ZM3.66,3.82s0,.03,0,.05c-.02,0-.03,0-.05,0,0-.02,0-.03,0-.05.02,0,.03,0,.05,0ZM3.61,3.74h0s0,0,0,0c0,0,0,0,0,0ZM3.62,3.96s.04,0,.06,0c0,.02,0,.04,0,.06-.02-.01-.04,0-.06,0,0-.02,0-.04,0-.06ZM3.68,4.08s-.01.04,0,.06c-.02-.01-.04-.01-.06,0,.01-.02.01-.04,0-.06.02.01.04,0,.06,0ZM3.68,3.8s0-.03,0-.04l.05.02s0,.01,0,.02c-.02,0-.03,0-.04,0ZM3.73,3.88s0,.03,0,.05c-.02,0-.03,0-.05,0,0-.02,0-.03,0-.05.02,0,.03,0,.05,0ZM3.68,4.01s.04,0,.06,0c0,.02,0,.04,0,.06-.02-.01-.04,0-.06,0,0-.02,0-.04,0-.06ZM3.75,4.14s-.01.04,0,.06c-.02-.01-.04-.01-.06,0,.01-.02.01-.04,0-.06.02.01.04,0,.06,0ZM3.75,3.85s0-.03,0-.04c.02,0,.03,0,.04,0,0,.02,0,.03,0,.04-.02,0-.03,0-.04,0ZM3.8,3.94s0,.03,0,.05c-.02,0-.03,0-.05,0,0-.02,0-.03,0-.05.02,0,.03,0,.05,0ZM3.75,4.07s.04,0,.06,0c0,.02,0,.04,0,.06-.02-.01-.04,0-.06,0,0-.02,0-.04,0-.06ZM3.82,4.2s-.01.04,0,.06c-.02-.01-.04-.01-.06,0,.01-.02.01-.04,0-.06.02.01.04,0,.06,0ZM3.82,3.91s0-.03,0-.04c.02,0,.03,0,.04,0,0,.02,0,.03,0,.04-.02,0-.03,0-.04,0ZM3.87,3.99s0,.03,0,.05c-.02,0-.03,0-.05,0,0-.02,0-.03,0-.05.02,0,.03,0,.05,0ZM3.82,4.13s.04,0,.06,0c0,.02,0,.04,0,.06-.02-.01-.04,0-.06,0,0-.02,0-.04,0-.06ZM3.89,4.25s-.01.04,0,.06c-.02-.01-.04-.01-.06,0,.01-.02.01-.04,0-.06.02.01.04,0,.06,0ZM3.89,3.97s0-.03,0-.04c.02,0,.03,0,.04,0,0,.02,0,.03,0,.04-.02,0-.03,0-.04,0ZM3.94,4.05s0,.03,0,.05c-.02,0-.03,0-.05,0,0-.02,0-.03,0-.05.02,0,.03,0,.05,0ZM3.89,3.84s0,0,0,0h.02s-.01,0-.02,0ZM3.89,4.19s.04,0,.06,0c0,.02,0,.04,0,.06-.02-.01-.04,0-.06,0,0-.02,0-.04,0-.06ZM3.96,4.03s0-.03,0-.04c.02,0,.03,0,.04,0,0,.02,0,.03,0,.04-.02,0-.03,0-.04,0ZM4.01,4.11s0,.03,0,.05c-.02,0-.03,0-.05,0,0-.02,0-.03,0-.05.02,0,.03,0,.05,0ZM3.95,3.89s0-.03,0-.04c0,0,0,0,.02,0h.02s0,.03,0,.04c-.01,0-.03,0-.04,0ZM3.96,4.31s-.01.04,0,.06c-.02-.01-.04-.01-.06,0,.01-.02.01-.04,0-.06.02.01.04,0,.06,0ZM3.96,4.25s.04,0,.06,0c0,.02,0,.04,0,.06-.02-.01-.04,0-.06,0,0-.02,0-.04,0-.06ZM4.02,3.95s0-.03,0-.04c.01,0,.03,0,.04,0,0,.01,0,.03,0,.04-.01,0-.03,0-.04,0ZM4.07,4.04s0,.03,0,.04c-.02,0-.03,0-.04,0,0-.02,0-.03,0-.04.02,0,.03,0,.04,0ZM4.03,4.37s0,.01,0,.02c-.01.01-.02.03-.04.04,0,0-.01,0-.02,0,.01-.02.01-.04,0-.06.02.01.04,0,.06,0ZM4.03,4.17s.03,0,.05,0c0,.02,0,.03,0,.05-.02,0-.03,0-.05,0,0-.02,0-.03,0-.05ZM4.09,4.3s0,.02,0,.03c0,.01-.02.02-.03.03,0,0-.02,0-.02,0,0-.02,0-.04,0-.06.02.01.04,0,.06,0ZM3.41,3.91s-.03,0-.05,0l.05-.05s0,.04,0,.05ZM1.28,6.56c.16.08.32.12.47.12.35,0,.69-.2,1.08-.61.32-.35.96-1.06,1.46-1.63.31-.35.56-.63.64-.71.14-.15.32-.16.41-.09.11.09.11.31,0,.64-.09.25-.83,2.14-1.44,3.72-1.06-.1-1.99-.64-2.61-1.43ZM4.25,8.04s-.08-.01-.12-.01c.03-.07.05-.14.08-.21.05.09.12.16.21.2-.06,0-.11.02-.17.02ZM6.08,4.8s-.07.03-.07.07.03.07.07.07c-.04,0-.07.03-.07.07s.03.07.07.07c-.04,0-.07.03-.07.07s.03.07.07.07c-.04,0-.07.03-.07.07s.03.07.07.07c-.04,0-.07.03-.07.07s.03.07.07.07c-.04,0-.07.03-.07.07s.03.07.07.07c-.04,0-.07.03-.07.07s.03.07.07.07c-.04,0-.07.03-.07.07s.03.07.07.07c-.04,0-.07.03-.07.07s.03.07.07.07c-.04,0-.07.03-.07.07s.03.07.07.07c-.04,0-.07.03-.07.07s.03.07.07.07c-.04,0-.07.03-.07.07s.03.07.07.07c-.04,0-.07.03-.07.07s.03.07.07.07c-.04,0-.07.03-.07.07s.03.07.07.07c-.04,0-.07.03-.07.07s.03.07.07.07c-.04,0-.07.03-.07.07s.03.07.07.07c-.04,0-.07.03-.07.07s.03.07.07.07c-.04,0-.07.03-.07.07s.03.07.07.07c-.04,0-.07.03-.07.07,0,.03.03.04.05.05-.03.02-.07.04-.1.05-.01,0-.01-.03-.03-.03-.04,0-.07.03-.07.07,0,0,0,0,0,0-.03.01-.05.03-.08.04.02-.01.05-.02.05-.05,0-.04-.03-.07-.07-.07s-.07.03-.07.07c0,.03.03.06.06.06-.04.02-.09.03-.13.05-.01,0-.01-.03-.03-.03-.03,0-.04.02-.05.05-.02,0-.04.01-.06.02,0,0,0,0,0,0,0-.03-.02-.05-.05-.05s-.05.02-.05.05c0,.01.02.02.03.03h-.11s.03-.01.03-.03c0-.03-.02-.05-.05-.05s-.05.02-.05.05c0,.01.02.02.03.03h-.12s.03-.01.03-.03c0-.02-.02-.04-.04-.04s-.04.02-.04.04c0,.01.02.02.03.03h-.13s.03-.01.03-.03c0-.02-.02-.04-.04-.04s-.04.02-.04.04c0,.01.01.02.03.03h-.37c-.12,0-.21-.09-.21-.21v-.26c.19-.5.39-1,.56-1.45,0,.01.01.03.03.03.02,0,.04-.02.04-.04s-.02-.04-.04-.04c-.01,0-.01.01-.02.02.02-.04.03-.08.05-.12,0,0,0,0,0,0,0,0,0,0,0,0,.04-.09.07-.18.1-.27,0,0,0,.02.02.02.02,0,.04-.02.04-.04s-.02-.04-.04-.04c.05-.13.1-.25.14-.37,0,0,0,.02.02.02.03,0,.05-.02.05-.05,0-.02-.02-.03-.04-.04.04-.09.07-.18.1-.25,0,.03.02.05.05.05.03,0,.05-.02.05-.05s-.02-.05-.05-.05c-.02,0-.04.02-.04.04.01-.03.02-.06.03-.09,0,0,0,0,0,0,.03,0,.05-.02.05-.05,0-.02-.02-.02-.03-.03.02-.04.03-.08.04-.11h.04s.03.06.06.06.05-.03.06-.06h.04s.03.06.06.06.06-.03.06-.06h.03s.03.07.07.07.07-.03.07-.07h.01s.03.06.07.07c-.04,0-.07.03-.07.07s.03.07.07.07c-.04,0-.07.03-.07.07s.03.07.07.07ZM6.16,7.5s0,0,0,0c0-.04-.03-.06-.07-.07.04,0,.06-.03.07-.07,0,.03.02.06.05.07-.03.01-.05.03-.05.07ZM6.16,7.36s-.03-.06-.07-.07c.04,0,.06-.03.07-.07,0,.03.02.06.05.07-.03.01-.05.04-.05.07ZM6.16,7.21s-.03-.06-.07-.07c.04,0,.06-.03.07-.07,0,.03.02.06.05.07-.03.01-.05.04-.05.07ZM6.16,6.63s.02.06.05.07c-.03.01-.05.04-.05.07,0-.04-.03-.06-.07-.07.04,0,.06-.03.07-.07ZM6.09,6.56s.06-.03.07-.07c0,.03.02.06.05.07-.03.01-.05.04-.05.07,0-.04-.03-.06-.07-.07ZM6.16,6.78s.02.06.05.07c-.03.01-.05.04-.05.07,0-.04-.03-.06-.07-.07.04,0,.06-.03.07-.07ZM6.16,6.93s.02.06.05.07c-.03.01-.05.04-.05.07,0-.04-.03-.06-.07-.07.04,0,.06-.03.07-.07ZM6.16,6.48s-.03-.06-.07-.07c.04,0,.06-.03.07-.07,0,.03.02.06.05.07-.03.01-.05.04-.05.07ZM6.16,6.33s-.03-.06-.07-.07c.04,0,.06-.03.07-.07,0,.03.02.06.05.07-.03.01-.05.04-.05.07ZM6.16,6.19s-.03-.06-.07-.07c.04,0,.06-.03.07-.07,0,.03.02.06.05.07-.03.01-.05.04-.05.07ZM6.16,6.04s-.03-.06-.07-.07c.04,0,.06-.03.07-.07,0,.03.02.06.05.07-.03.01-.05.04-.05.07ZM6.16,5.89s-.03-.06-.07-.07c.04,0,.06-.03.07-.07,0,.03.02.06.05.07-.03.01-.05.04-.05.07ZM6.16,5.75s-.03-.06-.07-.07c.04,0,.06-.03.07-.07,0,.03.02.06.05.07-.03.01-.05.04-.05.07ZM6.16,5.02s.02.06.05.07c-.03.01-.05.04-.05.07,0-.04-.03-.06-.07-.07.04,0,.06-.03.07-.07ZM6.09,4.95s.06-.03.07-.07c0,.03.02.06.05.07-.03.01-.05.04-.05.07,0-.04-.03-.06-.07-.07ZM6.16,5.17s.02.06.05.07c-.03.01-.05.04-.05.07,0-.04-.03-.06-.07-.07.04,0,.06-.03.07-.07ZM6.16,5.32s.02.06.05.07c-.03.01-.05.04-.05.07,0-.04-.03-.06-.07-.07.04,0,.06-.03.07-.07ZM6.16,5.46s.02.06.05.07c-.03.01-.05.04-.05.07,0-.04-.03-.06-.07-.07.04,0,.06-.03.07-.07ZM6.16,4.87s-.03-.06-.07-.07c.04,0,.06-.03.07-.07,0,.03.02.06.05.07-.03.01-.05.04-.05.07ZM6.16,4.72s-.03-.06-.07-.07c.04,0,.06-.03.07-.07,0,.03.02.06.05.07-.03.01-.05.04-.05.07ZM6.16,4.57s-.03-.06-.07-.07c.04,0,.06-.03.07-.07,0,.03.02.06.05.07-.03.01-.05.04-.05.07ZM6.28,7.44s0,0,0,0c.02,0,.04-.03.05-.05,0,0,0,.02,0,.02-.02.01-.04.02-.05.03ZM6.32,7.34s-.02-.04-.05-.05c.02,0,.04-.03.05-.05,0,.02.02.04.04.05-.02.01-.03.03-.04.05ZM6.32,7.19s-.02-.04-.05-.05c.02,0,.04-.03.05-.05,0,.02.02.04.04.05-.02.01-.03.03-.04.05ZM6.32,6.36s.02.04.04.05c-.02.01-.03.03-.04.05,0-.02-.02-.04-.05-.05.02,0,.04-.03.05-.05ZM6.28,6.26s.04-.03.05-.05c0,.02.02.04.04.05-.02.01-.03.03-.04.05,0-.02-.02-.04-.05-.05ZM6.32,7.05s-.02-.04-.05-.05c.02,0,.04-.03.05-.05,0,.02.02.04.04.05-.02.01-.03.03-.04.05ZM6.32,6.9s-.02-.04-.05-.05c.02,0,.04-.03.05-.05,0,.02.02.04.04.05-.02.01-.03.03-.04.05ZM6.32,6.75s-.02-.04-.05-.05c.02,0,.04-.03.05-.05,0,.02.02.04.04.05-.02.01-.03.03-.04.05ZM6.32,6.61s-.02-.04-.05-.05c.02,0,.04-.03.05-.05,0,.02.02.04.04.05-.02.01-.03.03-.04.05ZM6.32,6.17s-.02-.04-.05-.05c.02,0,.04-.03.05-.05,0,.02.02.04.04.05-.02.01-.03.03-.04.05ZM6.32,6.02s-.02-.04-.05-.05c.02,0,.04-.03.05-.05,0,.02.02.04.04.05-.02.01-.03.03-.04.05ZM6.32,5.87s-.02-.04-.05-.05c.02,0,.04-.03.05-.05,0,.02.02.04.04.05-.02.01-.03.03-.04.05ZM6.32,4.85s-.02-.04-.05-.05c.02,0,.04-.03.05-.05,0,.02.02.04.04.05-.02.01-.03.03-.04.05ZM6.36,4.95s-.03.03-.04.05c0-.02-.02-.04-.05-.05.02,0,.04-.03.05-.05,0,.02.02.04.04.05ZM6.32,5.63s.02.04.04.05c-.02.01-.03.03-.04.05,0-.02-.02-.04-.05-.05.02,0,.04-.03.05-.05ZM6.28,5.53s.04-.03.05-.05c0,.02.02.04.04.05-.02.01-.03.03-.04.05,0-.02-.02-.04-.05-.05ZM6.32,5.43s-.02-.04-.05-.05c.02,0,.04-.03.05-.05,0,.02.02.04.04.05-.02.01-.03.03-.04.05ZM6.32,5.29s-.02-.04-.05-.05c.02,0,.04-.03.05-.05,0,.02.02.04.04.05-.02.01-.03.03-.04.05ZM6.32,5.14s-.02-.04-.05-.05c.02,0,.04-.03.05-.05,0,.02.02.04.04.05-.02.01-.03.03-.04.05ZM6.32,4.7s-.02-.04-.05-.05c.02,0,.04-.03.05-.05,0,.02.02.04.04.05-.02.01-.03.03-.04.05ZM6.32,4.56s-.02-.04-.05-.05c.02,0,.04-.03.05-.05,0,.02.02.04.04.05-.02.01-.03.03-.04.05ZM6.47,7.3s-.01-.01-.02-.02c.01,0,.02-.02.03-.04,0,.01,0,.02.01.03,0,0-.01.01-.02.02ZM6.48,7.18s-.02-.03-.03-.04c.01,0,.02-.02.03-.04,0,.01.01.03.02.04-.01,0-.02.02-.02.04ZM6.48,7.03s-.02-.03-.03-.04c.01,0,.02-.02.03-.04,0,.01.01.03.02.04-.01,0-.02.02-.02.04ZM6.48,6.88s-.02-.03-.03-.04c.01,0,.02-.02.03-.04,0,.01.01.03.02.04-.01,0-.02.02-.02.04ZM6.48,6.74s-.02-.03-.03-.04c.01,0,.02-.02.03-.04,0,.01.01.03.02.04-.01,0-.02.02-.02.04ZM6.48,6.59s-.02-.03-.03-.04c.01,0,.02-.02.03-.04,0,.01.01.03.02.04-.01,0-.02.02-.02.04ZM6.48,6.44s-.02-.03-.03-.04c.01,0,.02-.02.03-.04,0,.01.01.03.02.04-.01,0-.02.02-.02.04ZM6.48,6.3s-.02-.03-.03-.04c.01,0,.02-.02.03-.04,0,.01.01.03.02.04-.01,0-.02.02-.02.04ZM6.48,6.15s-.02-.03-.03-.04c.01,0,.02-.02.03-.04,0,.01.01.03.02.04-.01,0-.02.02-.02.04ZM6.48,6.01s-.02-.03-.03-.04c.01,0,.02-.02.03-.04,0,.01.01.03.02.04-.01,0-.02.02-.02.04ZM6.48,4.62s.01.03.02.04c-.01,0-.02.02-.02.04,0-.02-.02-.03-.03-.04.01,0,.02-.02.03-.04ZM6.45,4.51s.02-.02.03-.04c0,.01.01.03.02.04-.01,0-.02.02-.02.04,0-.02-.02-.03-.03-.04ZM6.48,4.83s-.02-.03-.03-.04c.01,0,.02-.02.03-.04,0,.01.01.03.02.04-.01,0-.02.02-.02.04ZM6.5,4.95s-.02.02-.02.04c0-.02-.02-.03-.03-.04.01,0,.02-.02.03-.04,0,.01.01.03.02.04ZM6.48,5.06s.01.03.02.04c-.01,0-.02.02-.02.04,0-.02-.02-.03-.03-.04.01,0,.02-.02.03-.04ZM6.48,5.2s.01.03.02.04c-.01,0-.02.02-.02.04,0-.02-.02-.03-.03-.04.01,0,.02-.02.03-.04ZM6.48,5.35s.01.03.02.04c-.01,0-.02.02-.02.04,0-.02-.02-.03-.03-.04.01,0,.02-.02.03-.04ZM6.48,5.57s-.02-.03-.03-.04c.01,0,.02-.02.03-.04,0,.01.01.03.02.04-.01,0-.02.02-.02.04ZM6.5,5.68s-.02.02-.02.04c0-.02-.02-.03-.03-.04.01,0,.02-.02.03-.04,0,.01.01.03.02.04ZM6.48,5.79s.01.03.02.04c-.01,0-.02.02-.02.04,0-.02-.02-.03-.03-.04.01,0,.02-.02.03-.04ZM6.64,7.16s0-.01-.02-.02c0,0,.01-.01.02-.02,0,0,0,.01,0,.02,0,0,0,.01,0,.02ZM6.64,7.02s0-.01-.02-.02c0,0,.01-.01.02-.02,0,0,0,.01,0,.02,0,0,0,.01,0,.02ZM6.64,6.83s0,.01,0,.02c0,0,0,.01,0,.02,0,0,0-.01-.02-.02,0,0,.01-.01.02-.02ZM6.62,6.7s.01-.01.02-.02c0,0,0,.01,0,.02,0,0,0,.01,0,.02,0,0,0-.01-.02-.02ZM6.64,6.58s0-.01-.02-.02c0,0,.01-.01.02-.02,0,0,0,.02,0,.02,0,0,0,.01,0,.02ZM6.64,6.43s0-.01-.02-.02c0,0,.01-.01.02-.02,0,0,0,.02,0,.02,0,0,0,.01,0,.02ZM6.64,6.28s0-.01-.02-.02c0,0,.01-.01.02-.02,0,0,0,.02,0,.02,0,0,0,.01,0,.02ZM6.64,6.14s0-.01-.02-.02c0,0,.01-.01.02-.02,0,0,0,.02,0,.02,0,0,0,.01,0,.02ZM6.64,5.99s0-.01-.02-.02c0,0,.01-.01.02-.02,0,0,0,.02,0,.02,0,0,0,.01,0,.02ZM6.64,5.84s0-.01-.02-.02c0,0,.01-.01.02-.02,0,0,0,.01,0,.02,0,0,0,.01,0,.02ZM6.64,5.7s0-.01-.02-.02c0,0,.01-.01.02-.02,0,0,0,.01,0,.02,0,0,0,.01,0,.02ZM6.64,5.55s0-.01-.02-.02c0,0,.01-.01.02-.02,0,0,0,.01,0,.02,0,0,0,.01,0,.02ZM6.64,5.4s0-.01-.02-.02c0,0,.01-.01.02-.02,0,0,0,.01,0,.02,0,0,0,.01,0,.02ZM6.62,5.24s.01-.01.02-.02c0,0,0,.01,0,.02,0,0,0,.01,0,.02,0,0,0-.01-.02-.02ZM6.64,5.11s0-.01-.02-.02c0,0,.01-.01.02-.02,0,0,0,.02,0,.02,0,0,0,.01,0,.02ZM6.64,4.97s0-.01-.02-.02c0,0,.01-.01.02-.02,0,0,0,.02,0,.02,0,0,0,.01,0,.02ZM6.64,4.82s0-.01-.02-.02c0,0,.01-.01.02-.02,0,0,0,.02,0,.02,0,0,0,.01,0,.02ZM6.64,4.67s0-.01-.02-.02c0,0,.01-.01.02-.02,0,0,0,.02,0,.02,0,0,0,.01,0,.02ZM6.64,4.53s0-.01-.02-.02c0,0,.01-.01.02-.02,0,0,0,.02,0,.02,0,0,0,.01,0,.02ZM6.8,7s0,0,0,0c0,0,0,0,0,0,0,0,0,0,0,0,0,0,0,0,0,0ZM6.8,6.85s0,0,0,0c0,0,0,0,0,0,0,0,0,0,0,0,0,0,0,0,0,0ZM6.8,6.71s0,0,0,0c0,0,0,0,0,0,0,0,0,0,0,0,0,0,0,0,0,0ZM6.8,6.56s0,0,0,0c0,0,0,0,0,0,0,0,0,0,0,0,0,0,0,0,0,0ZM6.8,6.41s0,0,0,0c0,0,0,0,0,0,0,0,0,0,0,0,0,0,0,0,0,0ZM6.8,6.27s0,0,0,0c0,0,0,0,0,0,0,0,0,0,0,0,0,0,0,0,0,0ZM6.8,6.12s0,0,0,0c0,0,0,0,0,0,0,0,0,0,0,0,0,0,0,0,0,0ZM6.8,5.98s0,0,0,0c0,0,0,0,0,0,0,0,0,0,0,0,0,0,0,0,0,0ZM6.8,5.83s0,0,0,0c0,0,0,0,0,0,0,0,0,0,0,0,0,0,0,0,0,0ZM6.8,5.68s0,0,0,0c0,0,0,0,0,0,0,0,0,0,0,0,0,0,0,0,0,0ZM6.8,5.54s0,0,0,0c0,0,0,0,0,0,0,0,0,0,0,0,0,0,0,0,0,0ZM6.8,5.39s0,0,0,0c0,0,0,0,0,0,0,0,0,0,0,0,0,0,0,0,0,0ZM6.8,5.24s0,0,0,0c0,0,0,0,0,0,0,0,0,0,0,0,0,0,0,0,0,0ZM6.8,5.1s0,0,0,0c0,0,0,0,0,0,0,0,0,0,0,0,0,0,0,0,0,0ZM6.8,4.95s0,0,0,0c0,0,0,0,0,0,0,0,0,0,0,0,0,0,0,0,0,0ZM6.8,4.8s0,0,0,0c0,0,0,0,0,0,0,0,0,0,0,0,0,0,0,0,0,0ZM6.8,4.66s0,0,0,0c0,0,0,0,0,0,0,0,0,0,0,0,0,0,0,0,0,0ZM6.8,4.51s0,0,0,0c0,0,0,0,0,0,0,0,0,0,0,0,0,0,0,0,0,0ZM6.96,6.85s0,0,0,0c0,0,0,0,0,0,0,0,0,0,0,0,0,0,0,0,0,0ZM6.96,6.71s0,0,0,0c0,0,0,0,0,0,0,0,0,0,0,0,0,0,0,0,0,0ZM6.96,6.56s0,0,0,0c0,0,0,0,0,0,0,0,0,0,0,0,0,0,0,0,0,0ZM6.96,6.42s0,0,0,0c0,0,0,0,0,0,0,0,0,0,0,0,0,0,0,0,0,0ZM6.96,6.27s0,0,0,0c0,0,0,0,0,0,0,0,0,0,0,0,0,0,0,0,0,0ZM6.96,6.12s0,0,0,0c0,0,0,0,0,0,0,0,0,0,0,0,0,0,0,0,0,0ZM6.96,5.98s0,0,0,0c0,0,0,0,0,0,0,0,0,0,0,0,0,0,0,0,0,0ZM6.96,5.83s0,0,0,0c0,0,0,0,0,0,0,0,0,0,0,0,0,0,0,0,0,0ZM6.96,5.68s0,0,0,0c0,0,0,0,0,0,0,0,0,0,0,0,0,0,0,0,0,0ZM6.96,5.54s0,0,0,0c0,0,0,0,0,0,0,0,0,0,0,0,0,0,0,0,0,0ZM6.96,5.39s0,0,0,0c0,0,0,0,0,0,0,0,0,0,0,0,0,0,0,0,0,0ZM6.96,5.24s0,0,0,0c0,0,0,0,0,0,0,0,0,0,0,0,0,0,0,0,0,0ZM6.96,5.1s0,0,0,0c0,0,0,0,0,0,0,0,0,0,0,0,0,0,0,0,0,0ZM6.96,4.95s0,0,0,0c0,0,0,0,0,0,0,0,0,0,0,0,0,0,0,0,0,0ZM6.96,4.8s0,0,0,0c0,0,0,0,0,0,0,0,0,0,0,0,0,0,0,0,0,0ZM6.96,4.66s0,0,0,0c0,0,0,0,0,0,0,0,0,0,0,0,0,0,0,0,0,0ZM6.96,4.51s0,0,0,0c0,0,0,0,0,0,0,0,0,0,0,0,0,0,0,0,0,0ZM7.13,6.56s0,0,0,0c0,0,0,0,0,0,0,0,0,0,0,0,0,0,0,0,0,0ZM7.13,6.42s0,0,0,0c0,0,0,0,0,0,0,0,0,0,0,0,0,0,0,0,0,0ZM7.13,6.27s0,0,0,0c0,0,0,0,0,0,0,0,0,0,0,0,0,0,0,0,0,0ZM7.13,6.12s0,0,0,0c0,0,0,0,0,0,0,0,0,0,0,0,0,0,0,0,0,0ZM7.13,5.98s0,0,0,0c0,0,0,0,0,0,0,0,0,0,0,0,0,0,0,0,0,0ZM7.13,5.83s0,0,0,0c0,0,0,0,0,0,0,0,0,0,0,0,0,0,0,0,0,0ZM7.13,5.68s0,0,0,0c0,0,0,0,0,0,0,0,0,0,0,0,0,0,0,0,0,0ZM7.13,5.54s0,0,0,0c0,0,0,0,0,0,0,0,0,0,0,0,0,0,0,0,0,0ZM7.13,5.39s0,0,0,0c0,0,0,0,0,0,0,0,0,0,0,0,0,0,0,0,0,0ZM7.13,5.24s0,0,0,0c0,0,0,0,0,0,0,0,0,0,0,0,0,0,0,0,0,0ZM7.13,5.1s0,0,0,0c0,0,0,0,0,0,0,0,0,0,0,0,0,0,0,0,0,0ZM7.13,4.95s0,0,0,0c0,0,0,0,0,0,0,0,0,0,0,0,0,0,0,0,0,0ZM7.13,4.8s0,0,0,0c0,0,0,0,0,0,0,0,0,0,0,0,0,0,0,0,0,0ZM7.13,4.66s0,0,0,0c0,0,0,0,0,0,0,0,0,0,0,0,0,0,0,0,0,0ZM7.13,4.51s0,0,0,0c0,0,0,0,0,0,0,0,0,0,0,0,0,0,0,0,0,0ZM7.29,6.42s0,0,0,0c0,0,0,0,0,0,0,0,0,0,0,0,0,0,0,0,0,0ZM7.29,6.27s0,0,0,0c0,0,0,0,0,0,0,0,0,0,0,0,0,0,0,0,0,0ZM7.29,6.12s0,0,0,0c0,0,0,0,0,0,0,0,0,0,0,0,0,0,0,0,0,0ZM7.29,5.98s0,0,0,0c0,0,0,0,0,0,0,0,0,0,0,0,0,0,0,0,0,0ZM7.29,5.83s0,0,0,0c0,0,0,0,0,0,0,0,0,0,0,0,0,0,0,0,0,0ZM7.29,5.68s0,0,0,0c0,0,0,0,0,0,0,0,0,0,0,0,0,0,0,0,0,0ZM7.29,5.54s0,0,0,0c0,0,0,0,0,0,0,0,0,0,0,0,0,0,0,0,0,0ZM7.29,5.39s0,0,0,0c0,0,0,0,0,0,0,0,0,0,0,0,0,0,0,0,0,0ZM7.29,5.24s0,0,0,0c0,0,0,0,0,0,0,0,0,0,0,0,0,0,0,0,0,0ZM7.29,5.1s0,0,0,0c0,0,0,0,0,0,0,0,0,0,0,0,0,0,0,0,0,0ZM7.29,4.95s0,0,0,0c0,0,0,0,0,0,0,0,0,0,0,0,0,0,0,0,0,0ZM7.29,4.81s0,0,0,0c0,0,0,0,0,0,0,0,0,0,0,0,0,0,0,0,0,0ZM7.29,4.66s0,0,0,0c0,0,0,0,0,0,0,0,0,0,0,0,0,0,0,0,0,0ZM7.29,4.51s0,0,0,0c0,0,0,0,0,0,0,0,0,0,0,0,0,0,0,0,0,0ZM7.46,6.12s0,0,0,0c0,0,0,0,0,0,0,0,0,0,0,0,0,0,0,0,0,0ZM7.46,5.98s0,0,0,0c0,0,0,0,0,0,0,0,0,0,0,0,0,0,0,0,0,0ZM7.46,5.83s0,0,0,0c0,0,0,0,0,0,0,0,0,0,0,0,0,0,0,0,0,0ZM7.46,5.68s0,0,0,0c0,0,0,0,0,0,0,0,0,0,0,0,0,0,0,0,0,0ZM7.46,5.54s0,0,0,0c0,0,0,0,0,0,0,0,0,0,0,0,0,0,0,0,0,0ZM7.46,5.39s0,0,0,0c0,0,0,0,0,0,0,0,0,0,0,0,0,0,0,0,0,0ZM7.46,5.24s0,0,0,0c0,0,0,0,0,0,0,0,0,0,0,0,0,0,0,0,0,0ZM7.46,5.1s0,0,0,0c0,0,0,0,0,0,0,0,0,0,0,0,0,0,0,0,0,0ZM7.46,4.95s0,0,0,0c0,0,0,0,0,0,0,0,0,0,0,0,0,0,0,0,0,0ZM7.46,4.8s0,0,0,0c0,0,0,0,0,0,0,0,0,0,0,0,0,0,0,0,0,0ZM7.46,4.66s0,0,0,0c0,0,0,0,0,0,0,0,0,0,0,0,0,0,0,0,0,0ZM7.46,4.51s0,0,0,0c0,0,0,0,0,0,0,0,0,0,0,0,0,0,0,0,0,0ZM7.62,5.83s0,0,0,0c0,0,0,0,0,0,0,0,0,0,0,0,0,0,0,0,0,0ZM7.62,5.68s0,0,0,0c0,0,0,0,0,0,0,0,0,0,0,0,0,0,0,0,0,0ZM7.62,5.54s0,0,0,0c0,0,0,0,0,0,0,0,0,0,0,0,0,0,0,0,0,0ZM7.62,5.39s0,0,0,0c0,0,0,0,0,0,0,0,0,0,0,0,0,0,0,0,0,0ZM7.62,5.24s0,0,0,0c0,0,0,0,0,0,0,0,0,0,0,0,0,0,0,0,0,0ZM7.62,5.1s0,0,0,0c0,0,0,0,0,0,0,0,0,0,0,0,0,0,0,0,0,0ZM7.62,4.95s0,0,0,0c0,0,0,0,0,0,0,0,0,0,0,0,0,0,0,0,0,0ZM7.62,4.8s0,0,0,0c0,0,0,0,0,0,0,0,0,0,0,0,0,0,0,0,0,0ZM7.62,4.66s0,0,0,0c0,0,0,0,0,0,0,0,0,0,0,0,0,0,0,0,0,0ZM7.62,4.51s0,0,0,0c0,0,0,0,0,0,0,0,0,0,0,0,0,0,0,0,0,0ZM7.79,5.54s0,0,0,0c0,0,0,0,0,0,0,0,0,0,0,0,0,0,0,0,0,0ZM7.79,5.39s0,0,0,0c0,0,0,0,0,0,0,0,0,0,0,0,0,0,0,0,0,0ZM7.79,5.24s0,0,0,0c0,0,0,0,0,0,0,0,0,0,0,0,0,0,0,0,0,0ZM7.79,5.1s0,0,0,0c0,0,0,0,0,0,0,0,0,0,0,0,0,0,0,0,0,0ZM7.79,4.95s0,0,0,0c0,0,0,0,0,0,0,0,0,0,0,0,0,0,0,0,0,0ZM7.79,4.81s0,0,0,0c0,0,0,0,0,0,0,0,0,0,0,0,0,0,0,0,0,0ZM7.79,4.66s0,0,0,0c0,0,0,0,0,0,0,0,0,0,0,0,0,0,0,0,0,0ZM7.79,4.51s0,0,0,0c0,0,0,0,0,0,0,0,0,0,0,0,0,0,0,0,0,0ZM7.95,4.95s0,0,0,0c0,0,0,0,0,0,0,0,0,0,0,0,0,0,0,0,0,0ZM7.95,4.8s0,0,0,0c0,0,0,0,0,0,0,0,0,0,0,0,0,0,0,0,0,0ZM7.95,4.66s0,0,0,0c0,0,0,0,0,0,0,0,0,0,0,0,0,0,0,0,0,0ZM7.95,4.51s0,0,0,0c0,0,0,0,0,0,0,0,0,0,0,0,0,0,0,0,0,0ZM8.03,4.21h-2.44c.1-.35.07-.6-.11-.74-.17-.14-.48-.15-.72.11-.05.06-.19.21-.37.41v-.8c0-.12.09-.21.21-.21h3.2c.14.39.23.8.23,1.23ZM6.48,2.74v-.46c0-.06-.04-.1-.1-.11.27-.1.48-.23.65-.39.02-.02.02-.04.02-.06.27.3.5.64.66,1.01h-1.23Z"/>
    </g>
  </g>
</svg>