<?xml version="1.0" encoding="UTF-8"?>
<svg id="_레이어_2" data-name="레이어 2" xmlns="http://www.w3.org/2000/svg" viewBox="0 0 63.1 8.5">
  <defs>
    <style>
      .cls-1 {
        fill: #1a1a1a;
      }
    </style>
  </defs>
  <g id="_레이어_1-2" data-name="레이어 1">
    <g>
      <ellipse class="cls-1" cx="3.82" cy="4.19" rx="3.82" ry="2.86"/>
      <path class="cls-1" d="M19.78,1.33c-2.11,0-3.82,1.28-3.82,2.86s1.71,2.86,3.82,2.86,3.82-1.28,3.82-2.86-1.71-2.86-3.82-2.86Z"/>
      <path class="cls-1" d="M15.95,3.31l-.85-.31c-.22-.08-.33-.32-.26-.54l.29-.86-.9.09c-.23.02-.44-.14-.47-.37l-.11-.9-.77.47c-.2.12-.45.06-.58-.13l-.49-.76-.49.76c-.13.2-.38.25-.58.13l-.77-.47-.11.9c-.03.23-.23.39-.47.37l-.9-.09.29.86c.07.22-.04.46-.26.54l-.85.31.63.65c.16.17.16.43,0,.6l-.63.65.85.31c.22.08.33.32.26.54l-.29.86.9-.09c.23-.02.44.14.47.37l.11.9.77-.47c.2-.12.45-.06.58.13l.49.76.49-.76c.13-.2.38-.25.58-.13l.77.47.11-.9c.03-.23.23-.39.47-.37l.9.09-.29-.86c-.07-.22.04-.46.26-.54l.85-.31-.63-.65c-.16-.17-.16-.43,0-.6l.63-.65Z"/>
      <polygon class="cls-1" points="23.26 1.79 23.42 1.79 23.42 2.24 23.5 2.24 23.5 1.79 23.67 1.79 23.67 1.72 23.26 1.72 23.26 1.79"/>
      <polygon class="cls-1" points="24.04 2.13 24.03 2.13 23.89 1.72 23.77 1.72 23.77 2.24 23.84 2.24 23.84 1.83 23.85 1.83 23.99 2.24 24.07 2.24 24.22 1.83 24.22 1.83 24.22 2.24 24.31 2.24 24.31 1.72 24.19 1.72 24.04 2.13"/>
      <polygon class="cls-1" points="27.42 2.83 29.34 2.83 29.43 2.42 27.02 2.42 26.25 6.09 26.74 6.09 27.09 4.41 28.78 4.41 28.87 4 27.17 4 27.42 2.83"/>
      <polygon class="cls-1" points="29.14 6.09 29.57 6.09 30.13 3.43 29.69 3.43 29.14 6.09"/>
      <polygon class="cls-1" points="29.9 2.42 29.79 2.96 30.23 2.96 30.34 2.42 29.9 2.42"/>
      <polygon class="cls-1" points="31.04 2.42 30.28 6.09 30.71 6.09 31.48 2.42 31.04 2.42"/>
      <path class="cls-1" d="M35.31,3.51c-.07-.05-.15-.08-.24-.1-.09-.02-.18-.03-.27-.03-.18,0-.35.04-.51.13-.16.09-.3.2-.4.35-.04-.17-.12-.3-.24-.37-.12-.07-.26-.11-.43-.11-.18,0-.36.04-.52.13-.16.08-.3.2-.41.34h-.01s.1-.41.1-.41h-.41l-.56,2.65h.43l.3-1.39c.03-.13.06-.24.09-.33.03-.09.1-.18.19-.27.08-.09.18-.17.3-.24.12-.07.24-.1.36-.1s.21.03.27.09c.06.06.09.15.09.26,0,.03,0,.09-.02.18-.02.09-.04.18-.06.29l-.32,1.51h.44l.29-1.37c.02-.11.05-.22.09-.32.03-.1.09-.19.16-.27.04-.05.08-.09.13-.14.05-.04.11-.08.16-.12.06-.03.12-.06.18-.08.06-.02.13-.03.19-.03.12,0,.21.03.29.1s.12.15.12.26c0,.04,0,.08-.01.14,0,.06-.02.11-.03.15l-.37,1.68h.44l.33-1.59c.02-.08.03-.16.05-.26.02-.1.03-.19.03-.27,0-.11-.02-.2-.06-.28-.04-.07-.1-.14-.17-.18Z"/>
      <path class="cls-1" d="M38.5,2.88c.08-.05.18-.08.27-.11.1-.02.19-.03.28-.03.13,0,.24.01.35.04.11.02.2.07.27.13.07.06.13.14.17.24.04.1.06.22.05.36h.49c0-.21-.02-.38-.09-.53-.07-.15-.17-.27-.29-.36-.12-.09-.27-.16-.43-.21-.16-.05-.33-.07-.52-.07-.16,0-.33.02-.49.07-.16.04-.3.11-.43.2-.12.09-.23.2-.31.33-.08.13-.12.29-.12.46,0,.14.02.26.07.36.04.1.1.19.18.26.08.07.16.14.26.18.1.05.2.09.31.12l.5.13c.09.02.17.05.25.08.08.03.15.07.21.12.06.05.11.1.14.17.03.07.05.15.05.24,0,.12-.03.23-.08.32-.05.09-.12.16-.21.22-.09.06-.18.1-.3.13-.11.03-.22.04-.34.04-.15,0-.28-.01-.41-.04-.12-.03-.23-.08-.32-.15-.09-.07-.15-.16-.2-.27-.04-.11-.06-.25-.06-.42h-.49c-.02.23,0,.42.07.58.07.16.16.3.29.4.13.1.28.18.47.23.18.05.39.07.61.07.16,0,.33-.02.5-.07.17-.04.32-.11.46-.2.14-.09.25-.21.34-.34.09-.14.13-.3.13-.5,0-.16-.02-.3-.07-.42-.05-.11-.12-.21-.2-.28-.08-.07-.18-.13-.28-.18-.11-.05-.22-.08-.33-.12l-.49-.13c-.08-.02-.16-.05-.23-.08-.07-.03-.14-.07-.19-.12-.05-.05-.09-.1-.13-.16-.03-.06-.05-.14-.05-.23,0-.11.03-.2.08-.28.05-.08.12-.14.21-.18Z"/>
      <path class="cls-1" d="M42.14,3.37c-.23,0-.44.05-.62.14-.18.09-.34.22-.47.37-.13.15-.23.33-.29.53-.07.2-.1.41-.1.63,0,.16.03.31.08.44.05.14.12.25.22.35.1.1.21.17.35.23.14.05.3.08.47.08.23,0,.44-.05.62-.14s.34-.22.46-.37c.13-.16.22-.33.29-.54.07-.2.1-.41.1-.63,0-.36-.09-.63-.28-.82-.19-.19-.46-.28-.82-.28ZM42.74,4.92c-.04.15-.11.28-.19.41-.08.12-.19.23-.31.31-.12.08-.26.12-.42.12-.24,0-.42-.07-.54-.2-.12-.13-.18-.31-.18-.53,0-.14.02-.28.06-.43.04-.15.11-.29.19-.41.09-.12.19-.23.32-.31.13-.08.27-.12.44-.12.12,0,.22.02.31.06.09.04.16.09.22.16.06.07.1.15.13.24.03.09.04.19.04.29,0,.13-.02.27-.06.42Z"/>
      <path class="cls-1" d="M44.32,4.16c.09-.12.19-.22.32-.29.13-.08.28-.11.44-.11s.31.05.41.14c.1.09.15.22.15.38h.44c-.01-.31-.1-.54-.28-.69-.18-.15-.41-.22-.72-.22-.24,0-.45.05-.63.14-.18.09-.34.21-.46.36-.12.15-.22.33-.28.52-.06.2-.09.4-.09.61,0,.36.09.64.27.84.18.2.46.3.82.3.31,0,.57-.08.78-.24.21-.16.35-.39.43-.69h-.44c-.06.16-.16.3-.29.4-.13.1-.29.15-.48.15-.12,0-.23-.02-.31-.06-.08-.04-.15-.1-.2-.16-.05-.07-.09-.15-.11-.24-.02-.09-.03-.19-.03-.29,0-.14.02-.29.07-.44.04-.15.11-.28.2-.4Z"/>
      <polygon class="cls-1" points="47.01 2.42 46.89 2.96 47.33 2.96 47.45 2.42 47.01 2.42"/>
      <polygon class="cls-1" points="46.25 6.09 46.68 6.09 47.23 3.43 46.8 3.43 46.25 6.09"/>
      <path class="cls-1" d="M49.51,3.51c-.09-.05-.19-.09-.31-.11-.12-.02-.24-.03-.37-.03-.14,0-.28.02-.41.05-.13.03-.25.09-.35.16-.1.07-.19.16-.26.27-.07.11-.12.24-.14.38h.44c.01-.09.04-.16.09-.22.04-.06.1-.11.16-.15.06-.04.14-.07.22-.08s.16-.03.24-.03c.06,0,.12,0,.18.02.06.01.12.03.17.05.05.03.09.06.13.11.03.04.05.1.05.17,0,.09-.01.16-.04.21-.03.05-.07.09-.12.12s-.12.05-.21.06c-.08.01-.18.02-.3.03-.15.01-.3.03-.46.05-.16.02-.3.06-.43.12-.13.06-.24.14-.32.25-.08.11-.13.26-.13.46,0,.14.02.25.06.35.04.09.1.17.17.23.07.06.16.1.25.13.1.03.2.04.32.04.23,0,.41-.03.54-.1.14-.06.25-.16.34-.28h.01c-.01.13.01.22.07.28.06.07.15.1.27.1.04,0,.08,0,.14-.02.05-.01.1-.02.13-.04l.07-.32s-.04.01-.07.02c-.03,0-.05.01-.07.01-.04,0-.07-.01-.09-.04-.02-.02-.04-.07-.04-.13s0-.13.03-.2c.02-.07.03-.13.04-.18l.17-.72c.02-.07.03-.15.05-.24.02-.09.03-.17.03-.24,0-.13-.03-.24-.08-.33-.05-.09-.12-.16-.21-.21ZM49.16,5.09c-.03.12-.07.22-.15.32-.15.23-.4.35-.74.35-.12,0-.23-.03-.33-.09-.1-.06-.15-.15-.15-.28,0-.11.03-.2.09-.26.05-.06.12-.11.21-.15.09-.03.18-.06.29-.07.11-.02.21-.03.32-.04.11-.01.21-.02.3-.04.09-.02.17-.05.23-.09h.01c-.03.12-.06.24-.08.36Z"/>
      <polygon class="cls-1" points="50.05 6.09 50.48 6.09 51.25 2.42 50.81 2.42 50.05 6.09"/>
      <path class="cls-1" d="M53.7,3.33c.13-.17.28-.31.47-.42.19-.11.41-.16.67-.16s.48.07.65.21c.17.14.25.36.25.64h.49c0-.21-.04-.4-.11-.56-.07-.16-.17-.29-.3-.4-.12-.1-.27-.18-.44-.24-.17-.05-.35-.08-.55-.08-.31,0-.59.06-.84.18-.25.12-.46.28-.63.49-.17.21-.31.44-.4.71-.09.27-.14.55-.14.85,0,.51.14.9.41,1.18.27.28.66.42,1.16.42.45,0,.81-.12,1.08-.35.27-.23.45-.56.54-.97h-.49c-.08.29-.21.52-.4.67-.19.16-.43.24-.73.24-.18,0-.34-.03-.48-.09-.14-.06-.25-.14-.34-.24-.09-.1-.16-.23-.2-.38-.04-.15-.07-.31-.07-.49,0-.22.03-.44.1-.66.06-.22.16-.41.28-.58Z"/>
      <polygon class="cls-1" points="56.32 6.09 56.75 6.09 57.52 2.42 57.09 2.42 56.32 6.09"/>
      <path class="cls-1" d="M59.41,4.9c-.02.11-.06.22-.12.32-.06.1-.13.2-.21.28-.08.08-.18.14-.28.19-.1.05-.22.07-.34.07-.13,0-.24-.03-.33-.09-.09-.06-.13-.15-.13-.28,0-.02,0-.05,0-.09,0-.04,0-.07.02-.11,0-.04.01-.08.02-.12,0-.04.01-.07.02-.09l.34-1.55h-.44l-.32,1.51c-.02.1-.04.2-.06.29-.01.09-.02.17-.02.23,0,.24.06.41.18.52.12.11.31.16.56.16.18,0,.36-.04.53-.11.17-.08.31-.19.42-.34h.01l-.08.4h.42l.56-2.65h-.44l-.31,1.47Z"/>
      <path class="cls-1" d="M63.04,4.05c-.04-.14-.11-.26-.19-.36-.09-.1-.19-.18-.32-.23s-.28-.08-.46-.08c-.16,0-.32.04-.45.11-.14.07-.26.17-.36.3h-.01s.28-1.35.28-1.35h-.44l-.77,3.66h.38l.1-.49h.01c.01.07.05.14.09.2.05.07.11.12.19.17.08.05.17.09.27.13.1.03.22.05.34.05.23,0,.43-.05.6-.14.17-.09.32-.21.44-.36s.21-.32.27-.52c.06-.19.09-.4.09-.61,0-.17-.02-.33-.06-.47ZM62.6,4.93c-.04.15-.1.28-.18.41-.08.12-.18.23-.3.31-.12.08-.26.12-.42.12-.22,0-.39-.06-.52-.17-.13-.12-.2-.28-.2-.49,0-.14.02-.29.06-.45.04-.16.11-.3.19-.44.09-.13.2-.24.34-.33.14-.09.3-.13.49-.13.1,0,.19.02.27.06.08.04.14.09.19.16.05.07.09.15.11.24.03.09.04.19.04.3,0,.13-.02.26-.06.41Z"/>
    </g>
  </g>
</svg>