<?xml version="1.0" encoding="UTF-8"?>
<svg xmlns="http://www.w3.org/2000/svg" viewBox="0 0 39.95 10.64">
  <defs>
    <style>
      .cls-1 {
        fill: #ccc;
      }

      .cls-2 {
        isolation: isolate;
      }

      .cls-3 {
        mix-blend-mode: multiply;
      }

      .cls-4 {
        fill: #1a1a1a;
      }
    </style>
  </defs>
  <g class="cls-2">
    <g id="_레이어_2" data-name="레이어 2">
      <g id="_레이어_1-2" data-name="레이어 1">
        <g>
          <g>
            <g>
              <path class="cls-4" d="M15.18,4.86c0,.59-.48,1.06-1.06,1.06h-.25c-.59,0-1.06-.56-1.06-.97,0-.08-.06-.13-.13-.13s-.13.06-.13.13v.41c0,.29-.22.53-.53.53h-.59c-.2,0-.38-.13-.38-.38s.16-.99.16-1.61-.16-1.37-.16-1.63.22-.38.38-.38h2.61c.53,0,.95.43.95.95s-.43.97-.96.97c-.11,0-.11.15,0,.15.69,0,1.16.31,1.16.9ZM13.38,3.23h-.84v.53h.84c.15,0,.27-.12.27-.27s-.12-.27-.27-.27ZM13.74,4.29c0-.15-.12-.28-.28-.28h-.92v.55h.92c.15,0,.28-.12.28-.28Z"/>
              <path class="cls-4" d="M19.93,4.67c0,.57-.44,1.26-1.13,1.26s-1.13-.56-1.36-1.15c-.05-.13-.12-.31-.13-.35-.03-.09-.06-.16-.16-.16-.06,0-.13.04-.13.13,0,.14.16.87.16,1.11s-.15.38-.38.38h-.9c-.23,0-.38-.15-.38-.38,0-.44.16-.97.16-1.62s-.16-1.37-.16-1.63.22-.38.38-.38h2.58c.74,0,1.19.64,1.19,1.19s-.44,1.19-1.19,1.19h-.96c.17.23.6.35,1.01.35.64,0,.88-.37,1.16-.37.13,0,.24.12.24.43ZM17.02,4h1.03c.22,0,.39-.17.39-.39s-.17-.39-.39-.39h-1.03v.78Z"/>
              <path class="cls-4" d="M21.75,3.89c0,.65.16,1.18.16,1.62,0,.23-.15.38-.38.38h-.9c-.23,0-.38-.15-.38-.38,0-.44.16-.97.16-1.62s-.16-1.37-.16-1.63.22-.38.38-.38h.9c.16,0,.38.12.38.38s-.16.98-.16,1.63Z"/>
              <path class="cls-4" d="M26.11,4.76c0,.61-.52,1.17-1.88,1.17-1.11,0-1.95-.64-1.95-1.44,0-.16.11-.33.3-.33.33,0,.72.52,1.77.52.36,0,.55-.14.55-.28,0-.2-.24-.29-1.01-.44-.68-.14-1.55-.27-1.55-1.09,0-.6.52-.98,1.06-.98h.39c.21,0,.4.13.47.32l.24.6s.07.08.12.08c.07,0,.13-.06.13-.13,0-.01,0-.03-.01-.06,0-.01-.14-.37-.16-.41-.02-.04-.02-.07-.02-.11,0-.16.13-.29.29-.29h.57c.24,0,.32.15.4.37.05.12.14.36.17.44.17.44-.11.77-.45.77-.54,0-.95-.42-1.47-.42-.22,0-.48.08-.48.32,0,.35.8.37,1.48.49.61.11,1.05.33,1.05.89Z"/>
              <path class="cls-4" d="M30.62,3.89c0,.65.16,1.18.16,1.62,0,.23-.15.38-.38.38h-.68c-.26,0-.45-.09-.67-.52-.28-.55-.75-1.97-.99-1.97-.1,0-.1.29-.1.49,0,.65.16,1.18.16,1.62,0,.23-.15.38-.38.38h-.9c-.23,0-.38-.15-.38-.38,0-.44.16-.97.16-1.62s-.16-1.37-.16-1.63.22-.38.38-.38h.45c.46,0,.55.18.82.73.27.54.78,1.88,1,1.88.11,0,.16-.23.16-.6,0-.65-.16-1.37-.16-1.63s.22-.38.38-.38h.9c.16,0,.38.12.38.38s-.16.98-.16,1.63Z"/>
              <path class="cls-4" d="M35.58,5.54c0,.25-.19.36-.4.36h-1.37c-.15,0-.38-.1-.38-.38,0-.21.15-.35.15-.52,0-.26-.36-.31-.82-.31s-.81.04-.81.29c0,.18.21.26.22.53,0,.21-.17.39-.38.39h-.41c-.21,0-.38-.17-.38-.36,0-.41.55-.39,1.03-1.65.16-.4.13-.33.27-.7.21-.54-.07-.63-.07-.92,0-.27.23-.38.38-.38h1.35c.39,0,.41.26.41.38,0,.29-.06.64.31,1.62.37.98.91,1.26.91,1.65ZM33.29,4.43c.11,0,.2-.11.17-.22-.03-.1-.06-.21-.1-.32-.12-.35-.28-.76-.52-.76-.28,0-.39.37-.47.56s-.18.48-.18.48c-.04.11.02.26.15.26h.95Z"/>
              <path class="cls-4" d="M39.95,3.07c0,.54-.44,1.18-1.19,1.18h-1.44c.04.49.15.9.15,1.26,0,.23-.15.38-.38.38h-.9c-.23,0-.38-.15-.38-.38,0-.44.16-.97.16-1.62s-.16-1.37-.16-1.63.22-.38.38-.38h2.58c.74,0,1.19.64,1.19,1.19ZM38.72,3.61c0-.22-.18-.39-.39-.39h0s-1.03,0-1.03,0v.78h1.03c.22,0,.39-.17.39-.39Z"/>
            </g>
            <g>
              <g>
                <path class="cls-4" d="M16.72,9.18l-.09-.25h-.49l-.09.25h-.2l.46-1.25h.15l.46,1.25h-.2ZM16.39,8.22l-.19.55h.38l-.19-.55Z"/>
                <path class="cls-4" d="M17.31,9.18c-.17,0-.24-.11-.24-.25v-1h.18v.99c0,.07.02.1.1.1h.08v.15h-.11Z"/>
                <path class="cls-4" d="M17.86,9.18c-.17,0-.24-.11-.24-.25v-1h.18v.99c0,.07.02.1.1.1h.08v.15h-.11Z"/>
                <path class="cls-4" d="M19.06,9.18v-.08c-.06.06-.13.09-.24.09s-.18-.03-.24-.08c-.05-.05-.07-.12-.07-.19,0-.15.1-.26.31-.26h.23v-.06c0-.11-.06-.17-.19-.17-.1,0-.15.02-.19.09l-.12-.11c.08-.1.17-.13.32-.13.24,0,.37.1.37.31v.59h-.18ZM19.06,8.79h-.21c-.11,0-.16.05-.16.13s.05.13.16.13c.07,0,.12,0,.17-.05.03-.03.04-.07.04-.13v-.07Z"/>
                <path class="cls-4" d="M20.14,9.11s-.13.08-.22.08c-.1,0-.17-.02-.23-.11v.09h-.18v-1.25h.18v.45c.06-.08.14-.1.23-.1.09,0,.17.03.22.08.09.09.1.24.1.38s-.01.29-.1.38ZM19.87,8.44c-.16,0-.19.14-.19.3s.02.3.19.3.18-.14.18-.3-.02-.3-.18-.3Z"/>
                <path class="cls-4" d="M21.07,9.09c-.06.06-.15.11-.27.11s-.21-.05-.26-.11c-.08-.09-.11-.2-.11-.35s.02-.26.11-.35c.06-.06.14-.11.26-.11s.21.05.27.11c.08.09.11.2.11.35s-.02.26-.11.35ZM20.94,8.49s-.08-.05-.13-.05-.1.02-.13.05c-.05.05-.06.15-.06.24s0,.19.06.24c.03.03.08.05.13.05s.1-.02.13-.05c.05-.05.06-.15.06-.24s0-.19-.06-.24Z"/>
                <path class="cls-4" d="M21.95,9.18v-.09c-.06.07-.15.1-.24.1s-.17-.03-.22-.08c-.07-.07-.09-.15-.09-.25v-.57h.18v.54c0,.14.08.2.18.2s.18-.06.18-.2v-.54h.18v.89h-.18Z"/>
                <path class="cls-4" d="M22.68,9.18c-.17,0-.24-.12-.24-.25v-.49h-.1v-.14h.1v-.27h.18v.27h.17v.14h-.17v.48c0,.06.03.1.1.1h.07v.15h-.11Z"/>
                <path class="cls-4" d="M23.71,9.36s-.04.08-.06.11c-.05.05-.11.06-.18.06h-.07v-.16h.05c.08,0,.1-.02.13-.09l.05-.14-.31-.85h.19l.21.63.21-.63h.19l-.39,1.07Z"/>
                <path class="cls-4" d="M24.83,9.09c-.06.06-.15.11-.27.11s-.21-.05-.26-.11c-.08-.09-.11-.2-.11-.35s.02-.26.11-.35c.06-.06.14-.11.26-.11s.21.05.27.11c.08.09.11.2.11.35s-.02.26-.11.35ZM24.69,8.49s-.08-.05-.13-.05-.1.02-.13.05c-.05.05-.06.15-.06.24s0,.19.06.24c.03.03.08.05.13.05s.1-.02.13-.05c.05-.05.06-.15.06-.24s0-.19-.06-.24Z"/>
                <path class="cls-4" d="M25.71,9.18v-.09c-.06.07-.15.1-.24.1s-.17-.03-.22-.08c-.07-.07-.09-.15-.09-.25v-.57h.18v.54c0,.14.08.2.18.2s.18-.06.18-.2v-.54h.18v.89h-.18Z"/>
                <path class="cls-4" d="M26.66,8.5s-.07-.06-.13-.06c-.1,0-.18.08-.18.2v.54h-.18v-.89h.18v.1c.05-.06.14-.11.24-.11.09,0,.15.02.21.08l-.14.13Z"/>
                <path class="cls-4" d="M28.44,9.18v-.54c0-.14-.08-.2-.18-.2s-.18.06-.18.19v.55h-.18v-.54c0-.14-.08-.2-.18-.2s-.18.06-.18.2v.54h-.18v-.89h.18v.09c.06-.06.15-.1.24-.1.11,0,.2.04.25.13.07-.09.16-.13.28-.13.09,0,.17.03.22.08.07.07.1.15.1.25v.57h-.18Z"/>
                <path class="cls-4" d="M29.02,8.79c0,.15.08.25.23.25.1,0,.15-.03.22-.09l.11.11c-.09.09-.18.14-.33.14-.22,0-.4-.12-.4-.46,0-.29.15-.45.38-.45s.38.18.38.43v.08h-.58ZM29.4,8.54c-.03-.07-.09-.11-.18-.11s-.15.05-.18.11c-.02.04-.02.07-.02.12h.4c0-.06,0-.08-.02-.12Z"/>
                <path class="cls-4" d="M30.92,9.18v-.54c0-.14-.08-.2-.18-.2s-.18.06-.18.19v.55h-.18v-.54c0-.14-.08-.2-.18-.2s-.18.06-.18.2v.54h-.18v-.89h.18v.09c.06-.06.15-.1.24-.1.11,0,.2.04.25.13.07-.09.16-.13.28-.13.09,0,.17.03.22.08.07.07.1.15.1.25v.57h-.18Z"/>
                <path class="cls-4" d="M31.96,9.09c-.06.06-.15.11-.27.11s-.21-.05-.26-.11c-.08-.09-.11-.2-.11-.35s.02-.26.11-.35c.06-.06.14-.11.26-.11s.21.05.27.11c.08.09.11.2.11.35s-.02.26-.11.35ZM31.83,8.49s-.08-.05-.13-.05-.1.02-.13.05c-.05.05-.06.15-.06.24s0,.19.06.24c.03.03.08.05.13.05s.1-.02.13-.05c.05-.05.06-.15.06-.24s0-.19-.06-.24Z"/>
                <path class="cls-4" d="M32.8,8.5s-.07-.06-.13-.06c-.1,0-.18.08-.18.2v.54h-.18v-.89h.18v.1c.05-.06.14-.11.24-.11.09,0,.15.02.21.08l-.14.13Z"/>
                <path class="cls-4" d="M33.07,8.12v-.19h.19v.19h-.19ZM33.08,9.18v-.89h.18v.89h-.18Z"/>
                <path class="cls-4" d="M33.67,8.79c0,.15.08.25.23.25.1,0,.15-.03.22-.09l.11.11c-.09.09-.18.14-.33.14-.22,0-.4-.12-.4-.46,0-.29.15-.45.38-.45s.38.18.38.43v.08h-.58ZM34.05,8.54c-.03-.07-.09-.11-.18-.11s-.15.05-.18.11c-.02.04-.02.07-.02.12h.4c0-.06,0-.08-.02-.12Z"/>
                <path class="cls-4" d="M34.77,9.19c-.15,0-.27-.02-.37-.13l.12-.12c.07.07.17.09.26.09.11,0,.19-.04.19-.12,0-.06-.03-.1-.12-.11h-.14c-.17-.03-.26-.1-.26-.26,0-.17.15-.27.34-.27.13,0,.25.03.33.1l-.11.11c-.06-.05-.13-.06-.22-.06-.11,0-.16.05-.16.11,0,.05.03.09.12.1h.14c.17.03.26.11.26.26,0,.19-.16.28-.37.28Z"/>
              </g>
              <path class="cls-4" d="M36.33,8.84h-.03s-.02,0-.02.01v.02s-.03.02-.04,0h-.02s-.02-.02-.02-.01l-.02.02s-.02,0-.03,0l-.02-.02s-.01-.01-.02,0h-.03s-.02,0-.03,0v-.03s-.02-.02-.02-.02h-.03s-.02-.02-.02-.03v-.03s0-.02,0-.02h-.02s-.01-.04,0-.05l.02-.02s0-.02,0-.02v-.02s-.02-.02,0-.03h.02s.01-.03.01-.04v-.03s0-.02.02-.03h.03s.02-.01.02-.02v-.03s.02-.02.04-.02h.03s.02,0,.02,0l.02-.02s.02-.01.03,0l.02.02s.02,0,.02,0h.02s.03-.01.03,0v.02s.02.01.03.01h.03s.02,0,.02.02v.03s0,.02.02.02h.03s.02.03.01.04v.02s-.01.02,0,.02l.02.02s0,.02,0,.03l-.02.02s0,.02,0,.02v.03s0,.03,0,.03h-.03s-.01.02-.01.03v.03s-.01.02-.03.02Z"/>
              <path class="cls-4" d="M14.95,8.84h-.03s-.02,0-.02.01v.02s-.03.02-.04,0h-.02s-.02-.02-.02-.01l-.02.02s-.02,0-.03,0l-.02-.02s-.01-.01-.02,0h-.03s-.02,0-.03,0v-.03s-.02-.02-.02-.02h-.03s-.02-.02-.02-.03v-.03s0-.02,0-.02h-.02s-.01-.04,0-.05l.02-.02s0-.02,0-.02v-.02s-.02-.02,0-.03h.02s.01-.03.01-.04v-.03s0-.02.02-.03h.03s.02-.01.02-.02v-.03s.02-.02.04-.02h.03s.02,0,.02,0l.02-.02s.02-.01.03,0l.02.02s.02,0,.02,0h.02s.03-.01.03,0v.02s.02.01.03.01h.03s.02,0,.02.02v.03s0,.02.02.02h.03s.02.03.01.04v.02s-.01.02,0,.02l.02.02s0,.02,0,.03l-.02.02s0,.02,0,.02v.03s0,.03,0,.03h-.03s-.01.02-.01.03v.03s-.01.02-.03.02Z"/>
            </g>
          </g>
          <g>
            <g class="cls-3">
              <path class="cls-1" d="M3.82,9.46s0-.03,0-.05l-.3-.17s-.02.02-.03.03c0,0-.02,0-.03,0,.03.02.09.04.13.07.07.03.15.07.22.11Z"/>
              <path class="cls-1" d="M3.39,9.2s0-.06,0-.09c-.01-.02-.02-.04-.04-.06-.09-.15-.21-.34-.37-.41.09.08.16.2.25.33.05.08.1.16.16.23Z"/>
              <path class="cls-1" d="M2.7,8.76s-.03,0-.05,0c-.05,0-.1.02-.15.05h0c-.11.07-.18.18-.2.3.18-.11.33-.2.47-.31-.03-.02-.05-.03-.08-.04Z"/>
              <path class="cls-1" d="M2.88,8.9c-.17.13-.35.24-.58.37,0,.04.01.07.02.11.24-.14.43-.26.61-.4-.02-.03-.04-.06-.06-.08Z"/>
              <path class="cls-1" d="M3.06,9.17s-.03-.05-.04-.07c-.19.14-.39.27-.64.41,0,0,0,0,0,0,.01.03.03.06.05.09.25-.15.45-.28.65-.42,0,0,0-.01-.01-.02Z"/>
              <path class="cls-1" d="M3.15,9.32c-.19.15-.4.28-.65.42.02.03.04.06.06.09.25-.15.45-.28.65-.43-.02-.03-.04-.05-.06-.08Z"/>
              <path class="cls-1" d="M3.31,9.5c-.2.15-.4.29-.66.44.02.03.05.05.08.08.26-.15.47-.3.68-.46-.03-.02-.07-.03-.1-.06Z"/>
              <path class="cls-1" d="M3.56,9.63s-.01,0-.02,0c-.22.18-.44.33-.71.49.03.02.07.04.1.06.26-.16.48-.32.71-.51-.03-.01-.06-.02-.09-.04Z"/>
              <path class="cls-1" d="M3.79,9.73c-.23.19-.44.35-.68.51.05.01.1.02.15.03.21-.14.4-.29.61-.47-.02-.02-.05-.04-.08-.06Z"/>
              <path class="cls-1" d="M3.92,9.94c-.13.12-.26.22-.39.31.13-.03.23-.09.29-.15.05-.05.09-.11.1-.16Z"/>
              <path class="cls-1" d="M6.69,10.36s0,0,.01,0c.24-.09.5-.29.62-.48.03-.05.06-.11.09-.16-.12.24-.34.48-.72.65Z"/>
              <path class="cls-1" d="M7.5,8.7c-.04-.17-.1-.27-.14-.3.09.15.18.44.18.75,0-.17,0-.32-.04-.45Z"/>
              <path class="cls-1" d="M5.15,5.45s-.04,0-.06.02c-.01,0-.03.02-.04.03-.02-.02-.05-.05-.09-.05-.09,0-.15.07-.12.15.02.06.07.08.13.1.05.01.1.01.15,0,.07,0,.12-.06.14-.12.02-.06-.01-.13-.11-.14Z"/>
              <path class="cls-1" d="M6.96,5.62c-.09-.07-.18-.15-.28-.23-.07-.06-.08-.16-.02-.23.06-.07.16-.08.23-.02.02.02.05.04.07.06,0-.94,0-1.88,0-2.82,0-.23.08-.74-.2-.77-.12.03-.27.07-.41.08-.61.09-1.27.09-1.89.06-.21-.02-.42-.02-.63-.06-.13-.02-.32-.12-.4,0-.04.05-.05.12-.05.2,0,.06-.01.29,0,.41,0,.33,0,.68,0,1.02,0,.35,0,.7,0,1.05,0,.12,0,.23,0,.35,0,.55,0,1.09,0,1.64,0,.13,0,.33,0,.41,0,.19-.03.4.12.51.21.12.54.23.81.25.18.04.36.05.54.05.09,0,.19,0,.28,0,.03,0,.05,0,.08,0,.05,0,.1,0,.16,0,.06,0,.12,0,.18,0,.47-.02,1.02-.09,1.29-.33.12-.13.1-.39.11-.57.02-.19.01-.39,0-.59,0-.15,0-.3,0-.45ZM5.12,4.7c.02-.06.13-.03.1.03-.02.06-.05.11-.1.15-.04.04-.09.06-.16.05-.06,0-.12-.02-.16-.07-.04-.04-.06-.1-.06-.17,0-.07.11-.07.11,0,0,.08.05.13.13.13.08,0,.11-.06.13-.13ZM3.97,5.27c-.07,0-.07-.11,0-.11s.07.11,0,.11ZM4.01,3.99s0-.05,0-.07c0-.07-.02-.14-.02-.21,0-.07,0-.14,0-.21,0-.07,0-.14,0-.21,0-.05,0-.09,0-.14,0-.08.01-.17.02-.25,0-.09,0-.17.02-.25.02-.09.04-.17.07-.24.04-.09.11-.14.18-.18.07-.04.15-.05.25-.03.06.01.11.03.16.07.04.04.08.08.11.14.04.08.05.16.06.25.01.09.03.17.03.25,0,.02,0,.05,0,.07,0,.02,0,.02,0,.05,0,.08,0,.16,0,.24,0,.08,0,.16,0,.24,0,.08,0,.16,0,.24,0,.04,0,.07,0,.11,0,.08,0,.16-.01.24,0,.08-.01.16-.03.23-.02.08-.04.15-.07.23-.03.07-.08.12-.14.16-.06.04-.13.07-.2.07,0,0,0,0,0,0-.08,0-.15-.02-.21-.06-.06-.04-.1-.1-.14-.17-.04-.08-.06-.17-.08-.26-.01-.09-.01-.18-.02-.27ZM4.15,5.36c-.07,0-.07-.1,0-.1s.07.1,0,.1ZM4.15,5.17s-.03,0-.04-.02c-.01,0-.02-.02-.02-.04,0-.03.03-.05.05-.05.04,0,.06.02.06.06,0,.03-.03.05-.05.05ZM5.29,5.98c-.07.04-.16.05-.25.04-.09,0-.18-.03-.25-.07-.06-.04,0-.13.05-.09.05.03.12.06.19.07.07,0,.15,0,.2-.03.06-.03.11.06.05.09ZM5.89,5.63c-.09-.04-.19-.03-.26-.12-.02-.02-.02-.04-.03-.07-.03.06-.08.11-.12.17-.05.05-.1.1-.16.13-.08.04-.16.07-.25.07-.09,0-.17-.03-.25-.07-.07-.04-.12-.11-.17-.18-.05-.07-.09-.14-.12-.21-.02.04-.05.08-.08.11-.05.05-.12.06-.18.07-.07,0-.07-.1,0-.11.11-.01.17-.08.2-.18.03-.1-.02-.2-.11-.24-.06-.03-.03-.13.03-.1.08.03.14.1.17.17.06.04.13.07.2.1.07.03.14.04.21.05.07.01.15.02.22.01.07,0,.15-.02.22-.04.07-.02.14-.05.21-.08.04-.09.1-.17.19-.19.06-.02.09.09.03.1-.11.03-.16.15-.16.26,0,.08.03.18.1.22.05.03.11.03.16.05.06.02.04.12-.02.09ZM5.83,5.14s-.01,0-.01,0c0-.07.11-.07.11,0,0,0,0,0,0,0,0,.07-.1.07-.1,0ZM5.86,5.42c-.07,0-.07-.11,0-.11s.07.11,0,.11ZM6.06,5.25c0,.07-.09.07-.09,0,0,0-.01,0-.01,0,0-.07.12-.07.12,0,0,0-.01,0-.01,0ZM6.18,3.84c0,.08,0,.16-.01.23,0,.08,0,.16-.02.23-.02.08-.04.15-.07.22-.03.07-.08.13-.13.16-.06.04-.13.05-.2.05,0,0,0,0,0,0-.08,0-.15-.01-.21-.05-.06-.04-.11-.1-.14-.17-.04-.08-.06-.17-.08-.26-.01-.09-.03-.18-.03-.27,0-.02,0-.05,0-.07,0-.07,0-.14,0-.21,0-.07,0-.14,0-.21,0-.07,0-.14,0-.21,0-.05,0-.09,0-.14,0-.08,0-.17,0-.26,0-.09.02-.17.03-.25.02-.09.05-.17.08-.24.04-.09.1-.15.17-.19.07-.04.16-.05.25-.03.06.01.12.03.16.07.04.04.08.08.11.14.04.08.05.16.07.25.01.09.03.17.03.25,0,.02,0,.05,0,.07,0,.02,0,.02,0,.05,0,.08,0,.16,0,.24,0,.08,0,.16,0,.24,0,.08,0,.16,0,.24,0,.04,0,.07,0,.11Z"/>
            </g>
            <g>
              <g>
                <path class="cls-4" d="M1.84,3.77s-.05-.03-.07-.04c-.02-.01-.04-.02-.06-.03-.02-.01-.03-.02-.05-.04-.02-.01-.03-.03-.04-.05-.01-.02-.02-.03-.03-.05-.01-.02-.03-.05-.04-.08s-.01-.06-.01-.09c0-.02-.01-.04-.03-.05s-.03-.02-.06-.02c-.02,0-.04,0-.06.02s-.02.04-.02.06c0,.02,0,.04,0,.06s.02.04.02.06,0,.04.01.06.02.04.03.05c.01.02.03.04.05.06s.03.05.05.06.04.04.06.05c.02.02.04.03.06.05.01,0,.03.01.04.02.01,0,.03.02.05.02,0,0,.02.02.04.02.03,0,.05-.02.07-.05.02-.05,0-.08-.03-.1Z"/>
                <path class="cls-4" d="M7.38,4.45s.03.04.05.06.03.04.06.05.05.02.07.04.04.03.07.04.05.02.07.03c.02,0,.04.02.06.03s.05.01.07.02.04.02.06.03.05,0,.07.01.04.02.07.02.04.01.07.02.05,0,.07.01.05.01.07.02c.03,0,.05,0,.08,0,.03,0,.05,0,.07-.02.02,0,.05-.02.06-.04s.03-.04.04-.06c0-.02.02-.04.02-.07,0-.02,0-.04,0-.07,0-.02,0-.04,0-.07,0-.02,0-.04,0-.07s-.01-.04-.01-.07,0-.05,0-.07c0-.02-.01-.05-.01-.07,0-.02,0-.05,0-.07s0-.05,0-.07,0-.05,0-.07,0-.05,0-.07,0-.05,0-.07,0-.05,0-.07,0-.05,0-.07,0-.05,0-.07,0-.05,0-.07,0-.05,0-.07,0-.05,0-.07c0-.02,0-.05,0-.07s0-.05,0-.07,0-.05,0-.07.01-.05.01-.07,0-.05,0-.07-.01-.05-.01-.07,0-.05,0-.07,0-.05,0-.07,0-.05,0-.07,0-.05,0-.07,0-.05,0-.07c0-.02,0-.05,0-.07,0-.02,0-.05,0-.07s0-.05,0-.07,0-.05,0-.07,0-.05,0-.07,0-.05,0-.07,0-.05,0-.07,0-.05,0-.07,0-.05,0-.07,0-.05,0-.07,0-.05,0-.07,0-.05,0-.07-.01-.05-.02-.07-.01-.04-.02-.07,0-.05-.02-.07-.02-.04-.03-.06-.03-.04-.04-.06-.03-.03-.05-.05-.03-.04-.05-.05-.04-.02-.06-.03c-.02,0-.04-.02-.06-.03-.02,0-.04-.01-.07-.02-.02,0-.05,0-.07-.01s-.05-.01-.07-.02-.05,0-.07,0c-.02,0-.05-.01-.07-.01-.03,0-.05,0-.07-.01-.02,0-.04,0-.07,0-.02,0-.04,0-.07,0s-.04,0-.07,0-.05,0-.07,0c-.02,0-.04.02-.06.02-.02.01-.04.02-.06.04s-.02.04-.02.06c0,.04,0,.04,0,.07,0,0,0,.02,0,.02.01.01.03.03.06.04.02.01.04.03.05.05s.02.04.03.06c0,.02,0,.04.01.07,0,.02.02.04.02.07,0,.03,0,.06-.02.08-.01.03-.03.05-.05.06s-.04.03-.06.05c-.02.02-.03.05-.03.08,0,.02,0,.05,0,.08,0,.02,0,.05,0,.07,0,.02,0,.05,0,.07s0,.05,0,.07,0,.05,0,.07,0,.05,0,.07c0,.02,0,.05,0,.07s0,.04,0,.07,0,.05,0,.07,0,.05,0,.07-.01.05,0,.07,0,.05,0,.07,0,.05,0,.07,0,.05,0,.07,0,.05,0,.07,0,.05,0,.07,0,.05,0,.07,0,.04.01.07c0,.02,0,.04,0,.07s0,.05,0,.07,0,.04,0,.07,0,.05,0,.07,0,.05,0,.07,0,.05,0,.07,0,.05,0,.07,0,.05,0,.07,0,.05-.01.07c0,.03,0,.05,0,.07,0,.03,0,.05,0,.07,0,.03,0,.05,0,.07,0,.03,0,.05,0,.07s0,.05,0,.07.02.04.03.07c0,.02.01.04.03.07,0,.02.02.04.03.07ZM8.08,1.58s.04,0,.06,0,.04.01.05.02.04.02.05.03c.02.02.03.04.04.06s.02.04.02.07,0,.05,0,.07,0,.05,0,.07c0,.02-.03.04-.04.06s-.03.04-.05.05c-.02,0-.04,0-.07,0-.02,0-.04,0-.06-.02s-.03-.03-.04-.05c0-.02-.01-.04-.02-.06s-.01-.04-.01-.06c0-.02,0-.05,0-.06,0-.03,0-.06,0-.08,0-.03,0-.06.02-.08s.04-.03.07-.03ZM7.7,1.53s.05.01.07.03.03.03.05.05c.01.02.03.04.03.06s0,.05,0,.07,0,.05,0,.07c0,.02-.02.05-.03.07-.01.02-.02.05-.04.06s-.04.01-.07.02c-.02,0-.04,0-.06-.02-.01-.02-.02-.04-.03-.06,0-.02-.02-.04-.02-.06s-.01-.04-.01-.07,0-.05,0-.07c0-.02,0-.05.01-.07,0-.02.02-.04.03-.06.02-.02.04-.03.06-.03Z"/>
                <path class="cls-4" d="M4.18,4.69s.05.02.07.03.04.02.07.02.05,0,.07,0c0,0,0,.01,0,.01.02,0,.05-.01.07-.02s.05-.01.07-.02.04-.02.06-.04c.02-.01.04-.03.06-.04s.04-.02.06-.04.02-.04.03-.07c.01-.02.03-.04.04-.07s0-.05.02-.08.01-.05.02-.08c0-.03,0-.05,0-.08s0-.05,0-.08,0-.05.01-.08c0-.03,0-.05,0-.08s0-.05,0-.08,0-.05,0-.08c0-.02,0-.04,0-.06s0-.04,0-.06c0-.03,0-.05,0-.08s0-.05,0-.08,0-.05,0-.08c0-.03.01-.05,0-.08s0-.05,0-.08,0-.05,0-.08c0-.03,0-.05,0-.08s0-.05,0-.08,0-.05,0-.08c0-.02,0-.02,0-.05,0-.02-.01-.05-.01-.07,0-.02,0-.04,0-.06s-.01-.04-.01-.06,0-.04-.01-.06,0-.04,0-.06c0-.02-.01-.04-.02-.06s0-.04-.01-.06,0-.04-.02-.06-.01-.04-.02-.06c0-.02-.02-.03-.03-.05-.01-.02-.02-.04-.03-.05-.01-.01-.03-.03-.05-.04-.02-.01-.03-.03-.05-.04s-.04,0-.06-.01-.03-.02-.05-.03c-.02,0-.04,0-.06,0-.02,0-.04,0-.06,0s-.04,0-.06.01-.04.02-.06.03c-.02,0-.04.02-.05.04s-.03.03-.05.04-.03.03-.04.05c-.01.02-.03.03-.04.05,0,.02-.02.04-.03.06s-.02.04-.02.06,0,.04-.01.06-.01.04-.01.06c0,.02,0,.04,0,.06s-.01.04-.02.06,0,.04,0,.06,0,.04,0,.06c0,.02,0,.04,0,.06s0,.04,0,.06,0,.04,0,.06,0,.04,0,.06c0,.02,0,.05,0,.07s0,.05,0,.07c0,.02,0,.05,0,.07s0,.05,0,.07-.01.05-.01.07c0,.02,0,.05,0,.07s0,.05,0,.07,0,.05,0,.07c0,.02,0,.05.01.07s0,.05,0,.07,0,.05,0,.07c0,.02,0,.05.01.07,0,.02,0,.05,0,.07s0,.05,0,.07,0,.05,0,.07,0,.05,0,.07c0,.02.01.04.02.07s0,.05,0,.07.02.04.03.06.02.04.03.06c.01.02.02.05.03.07s.03.04.04.06.04.03.06.04ZM4.03,3.7s0-.05,0-.07c0-.02,0-.05,0-.07s0-.05,0-.07c0-.03,0-.06,0-.09,0-.02-.01-.04-.01-.06s0-.04,0-.06c0-.02,0-.04,0-.05s0-.04,0-.05c0-.01.01-.02.01-.04,0-.03-.01-.05,0-.08s.02-.05.02-.08,0-.05,0-.08c0-.03,0-.06,0-.08s0-.06,0-.08c0-.02,0-.05,0-.07,0-.03.02-.05.03-.08,0-.03.01-.05.02-.08s.02-.05.03-.07c.01-.02.03-.04.04-.06.01-.02.03-.04.05-.05.02-.02.04-.03.06-.04.02,0,.04-.01.05-.02.02,0,.04,0,.06,0s.04,0,.06,0c.02,0,.03.02.05.02,0,.02-.01.03-.02.05s-.02.04-.02.05c0,.02,0,.04,0,.06s-.02.04-.02.06,0,.04,0,.06c0,.02-.01.04-.02.06s0,.04,0,.06-.02.04-.02.06c0,.02,0,.04,0,.06s0,.04,0,.06,0,.04-.01.07c.02.01.04.03.05.04s.03.03.05.05.03.03.05.05c0,0,0,0,0,0,.02.01.03.03.05.04s.03.03.04.05.03.02.05.04c-.02,0-.03.02-.05.02-.02.01-.03.03-.05.04s-.04.01-.06.03c-.01,0-.03.02-.04.03s-.03.02-.04.03c-.02.01-.05.03-.07.04,0,0,0,.02,0,.02,0,0,0,0,0,0,0,0,0,0,0,0,0,.02,0,.05,0,.07s0,.05,0,.07,0,.05,0,.07c0,.03,0,.05,0,.08,0,.02,0,.05,0,.07s0,.05,0,.07c0,.02,0,.05,0,.07s-.01.05-.01.07,0,.05,0,.07c0,.02,0,.05,0,.07s0,.05,0,.07,0,.05.01.07c0,0,0,.01,0,.02,0,.02,0,.04.01.06s0,.04,0,.06,0,.04,0,.07c0,.03.01.06.02.1,0,.02.02.03.02.05,0,0,0,0,0,0,0,0,0,0,0,0,0,0,0,0,0,0,0,0,0,0,0,0-.02,0-.05,0-.07,0s-.04-.01-.06-.02-.03-.03-.05-.04-.04-.02-.05-.04-.02-.04-.03-.06c0-.02-.02-.04-.02-.06s-.01-.04-.02-.06,0-.04-.01-.06-.01-.04-.02-.06c0-.03,0-.05,0-.08s-.01-.05-.01-.08c0-.03,0-.07,0-.1,0-.01,0-.02,0-.04,0-.01,0-.02,0-.04,0-.02,0-.05-.01-.07s0-.05,0-.07,0-.05,0-.07Z"/>
                <path class="cls-4" d="M5.23,3.28s-.01.05-.01.07,0,.05,0,.07,0,.05,0,.07c0,.02,0,.05,0,.07s-.01.05-.01.07,0,.05,0,.07c0,.02,0,.05,0,.07s-.01.05-.01.07,0,.05,0,.07c0,.02,0,.05,0,.07,0,.02.01.04.01.07s0,.05,0,.07,0,.04.01.07,0,.05,0,.07c0,.02,0,.05,0,.07s0,.04.01.07.01.04.02.06.02.04.03.06c.01.02.02.05.03.07s.03.04.05.05.04.03.06.04c.02.01.04.02.07.03s.04.02.07.03.05,0,.07,0c0,0,0,0,0,0,.02,0,.05,0,.07,0s.05-.02.07-.02.05-.01.07-.02c.02-.01.04-.03.05-.05s.04-.03.05-.05.01-.05.02-.07c.01-.02.03-.04.04-.07s0-.05.01-.08.01-.05.02-.08c0-.03.02-.05.02-.08s0-.05,0-.08,0-.05,0-.08c0-.03,0-.05,0-.08s0-.05,0-.08.01-.05.01-.08c0-.02,0-.04,0-.06s0-.04,0-.06c0-.03,0-.05,0-.08s-.01-.05-.01-.08,0-.05,0-.08c0-.03,0-.05,0-.08s0-.05,0-.08,0-.05,0-.08c0-.03,0-.05,0-.08s0-.05,0-.08,0-.05,0-.08c0-.02,0-.02,0-.05,0-.02,0-.05,0-.07,0-.02,0-.04,0-.06s0-.04,0-.06,0-.04-.01-.06,0-.04-.01-.06c0-.02,0-.04-.01-.06s0-.04-.01-.06,0-.04-.01-.06-.02-.04-.03-.06c0-.02-.02-.03-.03-.05-.01-.02-.01-.04-.03-.05-.01-.02-.03-.03-.05-.04-.02-.01-.03-.03-.05-.03s-.04-.01-.06-.02-.04-.01-.06-.02c-.02,0-.04-.01-.06-.01-.02,0-.04,0-.06,0s-.04,0-.06.01-.04.01-.06.02c-.02,0-.04.02-.05.03s-.03.03-.05.04-.02.03-.04.05c-.01.02-.02.04-.03.06,0,.02-.03.04-.03.05s0,.04-.01.06-.02.04-.02.06,0,.04,0,.06c0,.02,0,.04-.01.06s0,.04-.01.06-.01.04-.02.06,0,.04,0,.06c0,.02,0,.04,0,.06s0,.04,0,.06,0,.04,0,.06,0,.04,0,.06c0,.02,0,.05,0,.07s0,.05,0,.07ZM5.31,3.18s.01-.03.01-.04c0,0,0,0,0,0,0-.03,0-.05,0-.08s0-.05,0-.08.01-.05.01-.08c0-.03,0-.05,0-.08s0-.05,0-.08.02-.05.02-.08c0-.01,0-.02,0-.03,0-.02.01-.05.02-.07s0-.05.01-.07.02-.04.03-.06c0-.02.02-.04.03-.05.01-.02.03-.03.04-.04.01-.01.03-.02.05-.03.02-.01.04-.02.07-.03s.05,0,.07,0c0,0,.02,0,.03,0,.01,0,.02.01.04.01.02,0,.03,0,.04,0,0,.01,0,.02,0,.03,0,.02,0,.05-.01.07,0,.02-.02.04-.03.07s0,.05-.01.07c0,.02,0,.03-.01.05,0,.02-.01.04-.01.06s0,.04,0,.07-.01.04-.01.06c0,.02,0,.04,0,.06s-.01.04-.02.06,0,.04,0,.06c.02.01.02.04.04.05s.04.02.06.04.03.03.05.05c.02.01.02.04.04.05s.03.02.05.04.03.02.04.04c-.03.02-.05.03-.08.05-.02.02-.04.04-.07.06-.02.01-.04.01-.06.03s-.03.03-.05.04-.04.02-.06.03c0,0,0,0,0,0,0,0,0,0,0,0,0,.02,0,.05,0,.07s0,.05,0,.07,0,.05,0,.07c0,.02,0,.03,0,.05,0,.03,0,.05,0,.08s0,.05,0,.08c0,.02,0,.04,0,.07s0,.04,0,.07c0,.03,0,.05,0,.08,0,.02,0,.05,0,.07s0,.05,0,.07,0,.05,0,.07c0,0,0,0,0,0,0,.02,0,.05,0,.07s0,.05,0,.07,0,.05,0,.07c0,.03.01.05.02.08s.02.05.03.07c0,0-.01,0-.01,0,0,0,0,0,0,0-.03,0-.05,0-.08-.01s-.05-.01-.08-.03c-.02-.01-.04-.04-.06-.06s-.02-.05-.04-.07c0-.02-.02-.04-.03-.05s-.02-.04-.02-.06-.01-.04-.02-.06,0-.04-.01-.06c0-.03,0-.06,0-.08s0-.06,0-.08c0-.03,0-.06,0-.08,0-.02.01-.05,0-.07,0-.02-.01-.05-.01-.07s0-.05,0-.07,0-.05,0-.07c0-.02,0-.05,0-.07s0-.05,0-.07,0-.05,0-.07c0-.02,0-.05,0-.07s0-.05,0-.07c0-.03,0-.05,0-.08,0-.03,0-.06,0-.1Z"/>
                <path class="cls-4" d="M4.8,4.7s-.02-.05-.05-.05-.05.02-.05.05c0,.02,0,.04,0,.06,0,.02,0,.04.02.06s.02.03.04.05c.01.01.03.03.05.04s.04.01.06.02c.02,0,.04,0,.06,0,.03,0,.06,0,.09-.01.03,0,.05-.02.07-.05.01-.01.03-.03.04-.04s.03-.03.04-.05,0-.04.02-.06c.01-.03,0-.05-.03-.06-.03,0-.06,0-.07.03,0,.02-.02.04-.03.06-.01.02-.02.04-.04.06-.02.01-.04,0-.07,0-.03,0-.05,0-.07,0-.02-.01-.04-.03-.05-.05-.01-.02-.02-.04-.02-.07Z"/>
                <path class="cls-4" d="M5.85,5.53s-.05-.01-.08-.02-.05-.02-.08-.03c-.02-.01-.03-.02-.04-.04s-.02-.03-.03-.05-.02-.04-.02-.06,0-.04,0-.06c0-.02,0-.04,0-.07s.01-.04.02-.06.02-.04.03-.05.03-.04.04-.05.04-.02.06-.03c.03,0,.04-.04.03-.06s-.03-.05-.06-.04c-.02,0-.04.02-.06.03s-.04.02-.06.04-.03.03-.05.05-.02.04-.03.06c-.02.01-.04.03-.06.04s-.05.02-.07.03-.05,0-.07.01c-.02,0-.05.01-.07.02s-.05.02-.07.02-.05,0-.07,0c-.02,0-.05,0-.07,0s-.05,0-.07,0-.05-.01-.07-.01c-.02,0-.05,0-.07,0s-.05,0-.07-.02-.05-.01-.07-.02c-.02,0-.04-.03-.06-.04s-.05-.01-.07-.02-.04-.03-.06-.04c-.01-.02-.03-.04-.05-.07s-.03-.05-.05-.06-.04-.03-.07-.04c-.03-.01-.06.01-.06.04,0,.03,0,.06.03.07.02,0,.05.02.06.03.02.02.04.04.05.06s.02.05.02.07c0,.02,0,.05,0,.07,0,.02-.02.05-.03.07-.01.02-.03.04-.05.05s-.03.04-.05.05c-.02,0-.04.01-.07.02-.03,0-.05.03-.05.06,0,.03.02.06.05.06.02,0,.04,0,.07-.01s.04-.01.06-.02.04-.02.06-.04c.02-.01.03-.03.04-.05s.02-.03.03-.06c.01.02.03.04.04.06s.02.05.04.07.03.05.04.07c.02.02.03.05.05.07s.04.04.06.06.04.03.07.05c.02.01.03.03.05.04s.04,0,.06.01.04.02.06.02.04,0,.07,0c.02,0,.04,0,.06-.01s.04,0,.06-.02.04-.01.06-.02.04-.01.06-.02c.02-.01.04-.02.06-.04s.03-.03.05-.05.04-.03.05-.04c.02-.02.02-.04.04-.06s.03-.03.04-.05.03-.04.04-.06c.01.02.01.06.03.08.02.02.04.04.06.05.02.01.05.01.07.02s.05.02.07.02.05.01.07.02c.03.01.05,0,.06-.03,0-.02,0-.05-.03-.06ZM5.2,5.58s-.01.04-.03.06c-.01.02-.03.03-.05.04s-.04.02-.06.02c-.02,0-.05,0-.07,0s-.05,0-.07,0c-.03,0-.05-.02-.08-.03s-.04-.04-.05-.06c-.01-.03,0-.06,0-.08,0-.02.03-.04.05-.06.02-.01.05-.02.07-.02.04,0,.07.02.09.05.01-.01.02-.02.04-.03.02-.01.04-.02.06-.02.03,0,.05,0,.07.01.02.01.04.04.04.06s0,.04,0,.07Z"/>
                <path class="cls-4" d="M4.09,5.06s-.05.02-.05.05c0,.02.01.03.02.04,0,.01.02.02.04.02.03,0,.06-.02.05-.05,0-.04-.03-.05-.06-.05Z"/>
                <path class="cls-4" d="M4.09,5.25s-.05.03-.05.05.02.04.05.04.06-.02.06-.04-.02-.05-.06-.05Z"/>
                <path class="cls-4" d="M3.92,5.17s-.06.02-.06.05.02.06.06.06.05-.03.05-.06-.01-.05-.05-.05Z"/>
                <path class="cls-4" d="M5.87,5.13s-.03-.05-.06-.05-.06.01-.06.05c0,0,.02,0,.02,0,0,.03.03.05.05.05s.04-.02.04-.05c0,0,0,0,0,0Z"/>
                <path class="cls-4" d="M5.81,5.3s-.05.03-.05.06.02.06.05.06.04-.03.04-.06-.01-.06-.04-.06Z"/>
                <path class="cls-4" d="M6.01,5.25s0,0,0,0c0-.03-.03-.05-.05-.05s-.06.02-.06.05c0,0,.02,0,.02,0,0,.03.02.05.05.05s.05-.01.05-.05Z"/>
                <path class="cls-4" d="M5.18,5.88s-.04.03-.06.03c-.02,0-.05.01-.07.01s-.05,0-.07,0c-.02,0-.05,0-.07,0s-.04-.02-.06-.03c-.02,0-.05-.02-.06-.03-.03-.02-.05,0-.07.01s0,.05.02.07c.02.01.04.02.06.03s.04.02.06.03.04,0,.06.01.04,0,.07,0c.02,0,.04.01.06.01s.04,0,.07,0,.05,0,.07,0,.04-.01.06-.03c.03-.02.02-.05.01-.07s-.04-.04-.07-.03Z"/>
                <path class="cls-4" d="M9.47,6.91s0-.05-.01-.07-.02-.04-.03-.07,0-.05-.02-.07-.02-.04-.02-.07c0-.02,0-.04-.02-.06s-.02-.04-.03-.06-.01-.04-.02-.06-.02-.04-.03-.06-.03-.04-.04-.06,0-.05-.02-.07-.03-.04-.04-.06-.02-.04-.02-.06c-.02-.03-.01-.03-.03-.07s-.02-.03-.04-.06-.01-.03-.03-.07-.02-.03-.04-.06c-.02-.03-.03-.07-.04-.09,0,0,0,0,0,0,0-.01,0-.01,0-.02,0-.02.01-.04.02-.05,0-.02,0-.04.01-.06s.02-.04.02-.06,0-.04.01-.06c0-.02.02-.03.03-.05,0-.02.01-.05.02-.07,0-.02,0-.05.01-.07s.02-.05.02-.07,0-.05,0-.07c0-.03,0-.05,0-.08,0-.03-.02-.05-.03-.07-.01-.02-.02-.05-.03-.07s-.03-.04-.05-.06c-.02-.02-.03-.03-.05-.04s-.03-.03-.05-.04-.04-.02-.06-.03-.04,0-.06-.01-.04,0-.06,0c-.03,0-.06,0-.09.01-.03,0-.06.03-.08.04-.02.01-.03.02-.04.04s-.03.03-.04.05-.02.04-.03.06c0,.03,0,.06,0,.09,0,.03,0,.05,0,.07,0,.01,0,.03,0,.04,0,.03.02.06.02.08,0,.02,0,.03,0,.04,0,.01,0,.03,0,.03-.01.02-.04.03-.08.04-.03.01-.06.03-.09.04-.03,0-.06,0-.08.02s-.05.03-.08.04c-.02.01-.05.01-.07.02-.02.01-.04.03-.06.05-.02.01-.03.03-.05.04,0,0,0,0,0,0-.02,0-.03,0-.05,0-.04,0-.07.02-.09.03-.02,0-.04.01-.06.02s-.03.03-.05.04-.04.02-.06.03c-.02.02-.04.04-.05.06-.02-.02-.03-.03-.05-.05s-.04-.03-.06-.04-.03-.04-.05-.05-.04-.02-.06-.04-.03-.03-.05-.05-.04-.03-.06-.04-.03-.03-.05-.05-.04-.03-.05-.04-.03-.03-.05-.05c-.02-.02-.04-.04-.07-.06,0-.02,0-.05,0-.07s-.01-.05-.01-.07,0-.05,0-.07,0-.05,0-.07,0-.05,0-.07,0-.05,0-.07,0-.05,0-.07,0-.05,0-.07,0-.05,0-.07,0-.05,0-.07,0-.05,0-.07,0-.05,0-.07,0-.05,0-.07.01-.05.01-.07,0-.05,0-.07,0-.05,0-.07,0-.05,0-.07,0-.05,0-.07.01-.05.01-.07,0-.05,0-.07,0-.05,0-.07,0-.05,0-.07,0-.05,0-.07,0-.05,0-.07,0-.05,0-.07,0-.05,0-.07.01-.05.01-.07,0-.05,0-.07,0-.05,0-.07,0-.05,0-.07,0-.05,0-.07,0-.05,0-.07,0-.05,0-.07,0-.05,0-.07c0-.02,0-.05,0-.07s0-.05,0-.07,0-.05,0-.07,0-.05,0-.07,0-.05,0-.07,0-.05,0-.07,0-.05,0-.07,0-.05,0-.07,0-.05,0-.07,0-.05,0-.07,0-.05,0-.07,0-.05,0-.07,0-.05,0-.07,0-.05,0-.07c0-.03,0-.05,0-.07,0-.03,0-.05,0-.07,0-.03,0-.05,0-.07,0-.02,0-.05,0-.07,0-.02,0-.05,0-.07,0-.02,0-.04,0-.06,0-.02,0-.04,0-.06,0-.02.02-.04.03-.05,0,0,0,0,0-.01,0,0,0,0,0,0,.02-.02.04-.04.05-.07.01-.03.02-.05.03-.08,0-.03.01-.06.01-.08,0-.02-.01-.05-.02-.07,0-.02-.01-.05-.02-.07s-.03-.04-.04-.06-.03-.04-.05-.05-.04-.03-.06-.04-.04-.03-.06-.04-.04-.02-.07-.03-.04-.02-.06-.03-.04-.02-.07-.03-.05-.01-.07-.02-.05,0-.07,0-.04-.02-.07-.03-.05,0-.07,0-.05-.02-.07-.02-.05,0-.07,0-.05,0-.07,0-.05-.02-.07-.02c-.02,0-.05,0-.07,0-.02,0-.05,0-.07,0-.02,0-.04-.01-.07-.02,0-.03-.02-.04-.03-.06,0-.02,0-.04,0-.06,0-.02,0-.04,0-.06s0-.05,0-.06c0-.02,0-.04,0-.06,0-.02,0-.04,0-.06,0-.03-.01-.05-.03-.07s-.02-.04-.04-.06c-.02-.01-.04-.02-.06-.03-.02,0-.04-.02-.07-.03-.02,0-.05-.01-.07-.02-.02,0-.04-.01-.07-.02s-.05,0-.07,0-.05,0-.07,0-.05,0-.07,0-.05,0-.07,0-.05,0-.07,0c-.02,0-.05,0-.07,0-.03,0-.05,0-.07,0-.03,0-.05,0-.07,0-.02,0-.04,0-.07,0-.02,0-.04,0-.07,0-.02,0-.04,0-.07,0-.02,0-.04,0-.07,0s-.05,0-.07,0-.05,0-.07,0-.05,0-.07,0-.05,0-.07,0-.04.01-.07.02c-.02,0-.05,0-.07.01-.02,0-.04.02-.06.03-.02.01-.05.02-.06.03-.02.02-.03.04-.04.06s-.02.04-.01.06c0,.03,0,.05,0,.06,0,.02,0,.04,0,.06,0,.02,0,.04,0,.06s0,.05,0,.06c0,.02,0,.04,0,.06,0,.02,0,.04,0,.06-.02,0-.04,0-.07,0-.02,0-.04,0-.07,0-.02,0-.05,0-.07,0-.02,0-.05,0-.07,0s-.04.01-.07.01-.05,0-.07,0-.05,0-.07,0-.05,0-.07.01-.04.01-.07.02-.04.02-.07.02-.05,0-.07.01-.04.02-.06.02-.04.01-.07.02-.04.02-.06.03-.04.02-.06.03c-.02.01-.04.02-.06.03-.02.01-.04.03-.05.05-.02.02-.03.04-.04.06s-.03.04-.04.06-.01.05-.01.07c0,.02,0,.05,0,.07,0,.02,0,.05,0,.07s0,.05.02.07.02.04.04.06c.01.02.03.04.05.05.02.02.02.04.03.06,0,.02.01.04.02.07,0,.02,0,.05,0,.07s0,.05,0,.07,0,.05,0,.07,0,.05,0,.07,0,.05,0,.07c0,.03,0,.05,0,.07,0,.02,0,.05,0,.07s0,.05,0,.07,0,.05,0,.07,0,.05,0,.07,0,.05,0,.07,0,.05,0,.07,0,.05,0,.07,0,.05,0,.07,0,.05,0,.07,0,.05,0,.07,0,.05,0,.07,0,.05,0,.07,0,.05,0,.07,0,.05,0,.07,0,.05,0,.07.01.05.01.07,0,.05,0,.07,0,.05,0,.07,0,.05,0,.07,0,.05,0,.07,0,.05,0,.07,0,.05,0,.07,0,.05,0,.07,0,.05,0,.07,0,.05,0,.07,0,.05,0,.07,0,.05,0,.07,0,.05,0,.07,0,.05,0,.07c0,.02,0,.04,0,.07s0,.04,0,.07,0,.04,0,.07,0,.04,0,.07,0,.04,0,.07,0,.04,0,.07c-.02,0-.03.02-.06.03-.02,0-.04.02-.06.03-.02,0-.04.01-.06.02s-.04,0-.07.01-.04.01-.07.01-.04,0-.07,0c-.02,0-.05,0-.07-.01-.02,0-.05-.02-.07-.03-.02,0-.04-.02-.06-.04-.02-.01-.04-.03-.06-.04s-.05-.02-.07-.03-.04-.03-.06-.04-.04-.03-.06-.04-.04-.03-.06-.05c-.02-.02-.04-.03-.06-.04,0,0,.02-.02.03-.03.01-.02.02-.04.03-.05,0-.02.01-.04.02-.06,0-.02,0-.05,0-.07s0-.05,0-.07c0-.02,0-.05-.02-.07,0,0,0-.01,0-.02.01-.02.02-.04.03-.07s0-.05.01-.07c0-.02,0-.05,0-.07,0-.02,0-.04,0-.07,0-.03,0-.06,0-.1,0-.02,0-.05,0-.07,0-.02-.02-.05-.02-.07,0-.02,0-.04.01-.06s.01-.04.02-.06c0-.02.02-.04.03-.06.01-.02.03-.03.05-.05.02-.02.03-.04.05-.06.02-.02.04-.04.06-.06.01-.01.03-.03.04-.05.01-.02.03-.03.04-.05.01-.02.01-.04.02-.06.01-.03.02-.06.02-.1,0-.02,0-.04,0-.05s-.01-.03-.02-.05c0-.02-.01-.03-.02-.05s-.02-.02-.04-.04c-.02-.02-.04-.04-.07-.05-.03-.02-.06-.02-.09-.03-.03,0-.06-.03-.09-.03-.02,0-.04,0-.07.01s-.05,0-.07,0-.04.03-.05.04c-.02.01-.03.02-.05.04s-.03.03-.04.04c-.01.02-.02.03-.03.05-.01.02-.03.05-.04.07-.01.03-.02.05-.03.07-.01.03-.03.06-.04.09,0,.02,0,.02-.02.05,0,.02-.02.04-.03.06,0,.02,0,.02-.01.03,0,0,0,0-.01,0-.02,0-.05-.02-.09-.04-.02-.01-.04-.03-.06-.04-.02-.01-.04-.03-.06-.04-.02-.01-.04-.03-.05-.04-.02-.01-.04-.03-.05-.04s-.03-.03-.05-.05-.03-.03-.05-.04-.03-.03-.05-.04c-.02-.02-.04-.03-.06-.05s-.04-.04-.06-.06c-.02-.02-.04-.02-.06-.04s-.04-.03-.06-.05-.03-.04-.05-.05c-.02-.02-.05-.02-.07-.04s-.04-.03-.07-.04-.04-.03-.07-.04c-.03-.01-.05-.02-.08-.02-.03,0-.05-.02-.08-.02-.03,0-.05,0-.08,0-.02,0-.05,0-.07,0-.03,0-.06,0-.09.03-.03.02-.06.04-.08.06,0,0,0,0-.01.01-.01.01-.02.03-.03.04s-.01.03-.01.05c0,.03,0,.06.02.09.01.02.02.04.04.06.02.02.04.03.05.04.02.02.04.04.06.05s.04.03.06.05.04.03.06.04c.02.02.05.03.07.04s.04.03.07.05c.02.01.04.03.05.04s.04.02.06.03.03.03.05.04.04.02.06.04c.02.02.05.04.07.06,0,0,.02.02.02.02,0,0,0,0,0,0,0,0,0,0,0,0,0,0,0,0-.01,0,0,0-.03.01-.06,0-.02,0-.04-.02-.06-.03s-.04-.02-.06-.03-.04-.02-.06-.03c-.03-.02-.05-.03-.08-.05-.02-.01-.03-.02-.05-.03s-.04-.02-.05-.03c-.02-.01-.04-.03-.06-.05-.02-.01-.05-.02-.07-.03-.02-.01-.05-.02-.07-.03-.02,0-.04-.02-.06-.02-.02,0-.04,0-.06,0-.03,0-.05,0-.07,0-.03,0-.05.01-.07.03-.02.01-.04.03-.06.04-.01.01-.04.05-.05.06-.02.02-.03.05-.03.08s-.01.06,0,.09c0,.02.02.04.04.06s.03.04.05.06c.01.01.03.03.05.04.02.01.03.02.05.03,0,0,0,0,.01,0,.02.01.04.03.06.04s.05.02.07.03.04.03.06.04c.03.01.03,0,.06.02.02.01.05.02.07.03s.04.03.07.04c.02,0,.04.02.06.03s.04.02.06.03.04.02.06.03c.02.01.02.01.04.03.01,0,.02.03.02.04.02.02.04.03.04.04,0,0,0,.01-.01.01,0,0-.02.02-.06.02-.03,0-.05,0-.08,0-.03,0-.05,0-.08,0-.02,0-.03,0-.05,0-.02,0-.04,0-.06,0-.02,0-.04,0-.06,0-.02,0-.04,0-.06,0-.02,0-.04.01-.06.02-.03.01-.06.02-.07.03-.02.02-.04.05-.05.08,0,.02,0,.05,0,.08s0,.05,0,.08c0,.02.02.05.04.07s.03.05.05.06c0,0,.02,0,.02.01.02.01.04.03.07.04.04,0,.08.03.13.03.05,0,.1,0,.15,0,.03,0,.05,0,.08,0s.05-.02.07-.02.05-.01.07-.02c.02,0,.04,0,.06-.01s.04,0,.06-.01.04-.01.05-.02c.01,0,.01,0,.02,0,.01,0,.02.02.04.02.02.02.02.02.04.03.01,0,.02.02.03.02,0,0,0,0,.01.01.02.01.05.02.08.03.02.01.05.02.08.04.03,0,.05.03.07.03.03,0,.05.01.07.02.02.02.04.04.06.06.02.01.02.01.04.03,0,0,.02.01.03.02,0,0,0,0,.02,0,.02.01.04,0,.07.02,0,0,.02,0,.02.01.01,0,.02,0,.03,0,.03,0,.05,0,.08,0s.06-.01.08-.02c.01.01.03.02.06.04.02.01.03.03.05.05.02.01.04.02.06.04.02.01.04.02.06.04.02.01.03.03.05.05s.04.03.06.04.04.02.06.03.04.03.06.04.04.02.06.03.04.02.06.03.04.02.07.03c.02,0,.05.01.07.02.02,0,.05,0,.07,0,.03,0,.05,0,.08,0,.02,0,.05,0,.07,0s.05-.01.07-.02.05,0,.07-.01.04-.02.07-.02c.02,0,.04-.01.06-.02,0,.02,0,.04,0,.07s0,.05,0,.07.01.05.01.07,0,.05,0,.07,0,.05,0,.07,0,.05,0,.07,0,.05,0,.07,0,.05,0,.07,0,.05,0,.07,0,.05,0,.07,0,.05,0,.07,0,.05,0,.07,0,.05,0,.07.01.05.01.07,0,.05,0,.07c0,.02,0,.05,0,.07s0,.05,0,.07,0,.05,0,.07.01.05.01.07,0,.05,0,.07,0,.05,0,.07,0,.05,0,.07,0,.05,0,.07,0,.05,0,.07,0,.05,0,.07,0,.05,0,.07,0,.05,0,.07,0,.05-.01.07,0,.05,0,.07,0,.05,0,.07,0,.05,0,.07,0,.05,0,.07c0,.03-.02.05-.03.08-.02.05-.03.08-.03.08-.02.02-.03.04-.04.06-.01.02-.03.04-.03.06,0,.03-.01.05-.01.07,0,.03,0,.05,0,.07,0,.02-.01.04,0,.06,0,.02,0,.04.01.06,0,.02.02.04.03.06.01.02.02.04.03.06s.03.04.05.05c.02.02.04.02.06.04.02.01.03.03.05.05.02.01.04.01.07.02.02,0,.04.02.06.03s.04.02.06.03.04.01.07.02.04.01.07.02.04.01.07.02.04.01.07.02.05,0,.07,0,.05,0,.07.01.05,0,.07,0,.04.01.06.01c-.02.01-.03.03-.05.04s-.04.03-.05.04-.04.03-.06.04-.03.04-.04.06-.03.03-.05.05-.02.04-.04.06-.02.04-.03.06-.02.04-.03.06,0,.05-.01.07,0,.05-.01.07c0,.03,0,.03-.01.06s0,.03,0,.07,0,.03,0,.06,0,.03-.01.06,0,.03,0,.06.01.04,0,.07c-.02,0-.04,0-.06,0-.02,0-.04.01-.06.02,0,0,0,0,0,0-.01-.02-.02-.04-.04-.06s-.03-.04-.04-.06-.03-.04-.04-.06-.02-.04-.04-.06-.03-.04-.04-.06-.03-.04-.05-.05-.04-.03-.06-.04-.04-.03-.06-.04-.05-.02-.07-.02-.04-.03-.07-.03c-.02,0-.05,0-.07,0s-.05,0-.07,0-.05,0-.07.01-.04.02-.07.03c-.02,0-.05.01-.07.02-.13.06-.27.17-.35.29-.01.02-.02.04-.03.06s-.03.04-.04.06-.01.05-.02.07-.01.05-.01.07-.01.05-.01.07c0,.12.03.25.08.36.02.06.04.12.07.17.07.14.17.26.27.37.01.02.03.03.04.05s.03.03.05.04c0,0,0,0,0,0,.02.02.03.04.05.05s.04.03.06.04.04.02.06.04c.02,0,.03.03.05.03.04.01.09.03.13.05.02,0,.03,0,.05.01s.03,0,.05.01c-.02,0-.05,0-.07,0s-.05,0-.07,0-.05,0-.07,0-.05,0-.07,0-.05,0-.07,0-.05,0-.07,0-.05,0-.07,0-.05,0-.07,0-.05,0-.07,0-.05,0-.07,0-.05,0-.07,0-.05,0-.07,0c-.02,0-.05-.01-.07-.01-.02,0-.05.01-.07.01-.02,0-.05,0-.07,0-.03,0-.05,0-.07,0-.03,0-.05,0-.07,0-.03,0-.05,0-.07,0-.03,0-.05,0-.07,0-.05,0-.04,0-.07,0-.02.02-.03.04-.03.06,0,.02.02.04.04.05.02,0,.04.02.07.03.02,0,.04,0,.07.01.02,0,.05,0,.07.01.02,0,.05,0,.07,0,.02,0,.05,0,.07,0,.02,0,.05,0,.07,0,.02,0,.05.01.07.02.02,0,.05,0,.07,0s.05,0,.07,0,.05,0,.07,0,.05,0,.07,0,.05,0,.07,0,.05,0,.07,0,.05,0,.07,0,.05,0,.07,0,.05,0,.07,0,.05,0,.07,0,.05,0,.07,0,.05,0,.07,0,.05,0,.07,0,.05,0,.07,0,.05.01.07.01.05,0,.07,0c.02,0,.05,0,.07,0s.05,0,.07,0,.05,0,.07,0,.05,0,.07,0,.05,0,.07,0,.05,0,.07,0,.05,0,.07,0,.05,0,.07,0,.05,0,.07,0,.05,0,.07,0,.05,0,.07,0,.05,0,.07,0,.05,0,.07,0,.05,0,.07,0,.05,0,.07,0,.05,0,.07,0,.05,0,.07,0,.05,0,.07,0,.05,0,.07,0,.05,0,.07,0,.05,0,.07,0,.05,0,.07,0,.05,0,.07,0,.05,0,.07,0,.05-.01.07-.01.05,0,.07,0,.05,0,.07,0,.05,0,.07,0,.05,0,.07,0,.05,0,.07,0,.05,0,.07,0,.05,0,.07,0,.05,0,.07,0,.05-.01.07-.01.05.01.07,0,.05-.01.07-.01.05,0,.07,0,.05,0,.07,0,.05,0,.07,0,.05,0,.07,0,.05,0,.07,0,.05,0,.07,0,.05,0,.07,0,.05,0,.07,0,.05-.01.07-.01.05,0,.07,0,.05,0,.07,0,.05,0,.07,0,.05,0,.07,0,.05,0,.07,0,.05,0,.07,0,.05,0,.07,0,.05,0,.07,0,.05,0,.07,0,.05,0,.07,0,.05,0,.07,0,.05,0,.07,0,.05,0,.07,0,.05,0,.07,0c.02,0,.05,0,.07,0,.02,0,.05,0,.07,0,.02,0,.05,0,.07,0,.02,0,.05,0,.07,0,.02,0,.05,0,.07,0,.02,0,.05,0,.07,0,.02,0,.05,0,.07,0,.03,0,.05,0,.07,0,.03,0,.05,0,.07-.01.03,0,.05,0,.07,0,.03,0,.05,0,.07,0,.03,0,.05-.02.06-.03.04-.02.04-.03.02-.05-.01-.01-.04-.03-.06-.04-.02,0-.05-.01-.07-.02-.01,0-.04,0-.07,0-.02,0-.04,0-.07,0-.02,0-.04,0-.07,0-.02,0-.05,0-.07,0-.02,0-.05,0-.07,0-.02,0-.05-.01-.07-.01-.02,0-.05,0-.07,0-.02,0-.05,0-.07-.01s-.05,0-.07,0-.05,0-.07,0-.05,0-.07-.01-.05,0-.07,0-.05,0-.07,0-.05-.01-.07-.01-.05,0-.07,0-.05,0-.07,0-.05,0-.07,0-.05,0-.07,0c.02-.01.03-.03.05-.04s.04-.02.06-.03.04-.03.05-.04.03-.03.05-.05.03-.03.05-.05.04-.02.06-.04.02-.04.04-.06.03-.03.05-.05.03-.04.04-.06c.01-.02.02-.04.03-.06s.02-.04.03-.06.03-.04.04-.06.01-.05.02-.07.02-.04.02-.07.02-.04.02-.07.02-.04.02-.07.01-.05.02-.07,0-.05,0-.07,0-.05,0-.07,0-.05,0-.07,0-.05,0-.07,0-.05,0-.07,0-.05,0-.07,0-.05,0-.07,0-.05,0-.07-.01-.05-.02-.07,0-.05-.01-.07c0-.02,0-.05-.01-.07,0-.02-.02-.04-.02-.06,0-.02,0-.04-.01-.06,0-.02-.01-.04-.02-.06s-.03-.04-.04-.06-.01-.04-.02-.06-.03-.03-.05-.05c-.02-.02-.03-.03-.05-.04-.02-.01-.04-.02-.07-.01-.02,0-.04,0-.07.01-.02,0-.05.01-.07.02,0,0-.01,0-.02.01-.03.02-.03.02-.06.04s-.03.01-.06.03-.02.03-.06.04c-.02,0-.04-.02-.06-.02s-.04-.02-.06-.02c-.02,0-.04,0-.07.01-.02,0-.05,0-.07.01s-.04.02-.06.04-.04.02-.06.04-.04.03-.06.04-.03.03-.05.05c-.04,0-.04,0-.07,0s-.03-.01-.07-.02-.04,0-.07,0-.04,0-.07,0-.03,0-.07-.02-.04,0-.07,0-.04,0-.07,0c-.02,0-.05,0-.07-.01-.02,0-.04-.02-.06-.03-.02-.01-.04-.02-.06-.03-.02-.01-.04-.02-.06-.04-.02-.02-.02-.04-.03-.06-.01-.02-.03-.04-.03-.06,0-.03,0-.03,0-.07s0-.03,0-.07-.02-.04-.01-.07c.02,0,.05,0,.08,0s.05,0,.07,0,.05,0,.07,0,.05,0,.07-.01.05,0,.07,0,.04-.01.07-.02.05,0,.07,0,.04-.01.07-.02.05,0,.07,0,.04-.02.07-.02.05,0,.07,0,.04-.02.07-.02.05,0,.07-.01.05,0,.07-.01.05,0,.07-.02.04-.01.07-.02.04-.02.07-.02.04-.02.06-.03.04-.03.06-.04.04-.02.06-.04c.02-.01.04-.03.06-.04.02-.02.04-.03.05-.05s.02-.04.03-.06.03-.04.04-.06,0-.05,0-.07c0-.02,0-.05,0-.07,0-.02,0-.05,0-.07-.01-.02-.03-.04-.03-.07s0-.05,0-.07-.01-.05-.01-.07,0-.05,0-.07,0-.05,0-.07,0-.05,0-.07c0-.02-.01-.04-.02-.07s0-.05,0-.07,0-.05,0-.07,0-.05,0-.07,0-.05,0-.07,0-.05,0-.07c0-.02-.01-.05-.01-.07,0-.09,0-.19,0-.28,0-.09-.02-.17-.02-.25,0-.02,0-.05,0-.07s0-.05,0-.07c0,0,0-.01,0-.01,0,0,0,.01,0,.02.02.02.04.03.05.05s.04.02.06.04.03.04.05.05.04.03.06.04.03.03.05.05.03.03.05.05.04.03.06.04c0,0,0,.02,0,.03,0,.02-.02.04-.02.06,0,.03-.01.07-.01.1,0,.01,0,.01,0,.02,0,.02,0,.02,0,.05,0,.01,0,.03,0,.04,0,0,0,0,0,.02,0,.02.01.05.02.07s.03.04.04.06.03.04.05.05c.02.02.05.02.08.04.02.01.05.03.08.04.01,0,.02.02.03.03.02.01.02,0,.04.01.02.01.04.03.06.04s.04.02.06.04.03.04.05.05.04.02.06.04.04.03.05.04.04.03.06.04.03.04.05.05.04.03.05.05c.02.02.04.03.05.04s.03.03.05.05.03.04.04.05.02.04.04.06.03.03.04.05.03.04.04.06.02.04.03.06.03.04.04.06c0,.02.02.04.03.06.01.02.02.05.04.07,0,.02.02.05.05.07.01.02.02.03.04.04s.03.03.05.03c.08.03.14.02.21-.02.02-.01.04-.02.05-.03,0,0,0,0,0,0,.01,0,.03.02.06.03.02,0,.05,0,.06,0,0,0,.01,0,.02,0,.03,0,.05-.02.08-.04.02-.01.03-.03.05-.05.01-.02.02-.04.03-.06,0-.02.01-.03.02-.05,0-.02,0-.03.01-.05,0-.02.02-.04.02-.06,0-.02.01-.04.02-.07,0-.02,0-.04,0-.07,0-.03,0-.06,0-.09,0-.02.06-.03.08-.04.04-.03.05-.08.06-.13,0-.02,0-.05,0-.08ZM2.13,3.49s0,.06.01.08c0,.04.01.07.01.1,0,.02-.03.12-.05.12h0s0,.01,0,.01c-.01.02-.02.05-.03.07-.01.02-.03.02-.05.04s-.02.03-.03.05c0,0-.02,0-.02.01-.01,0-.03.04-.03.06,0,.02.01.04.03.05.01.01.02.02.04.02.02,0,.03,0,.04,0,0,0,.02,0,.03-.01,0,0,.02,0,.02-.01.01-.01.02-.03.03-.04-.01.03-.03.05-.05.07-.01.01-.01.03-.02.04-.02.02-.05.04-.06.05-.02.02-.04.04-.07.05-.01,0-.03.02-.05.02,0,0-.02,0-.02,0-.02,0-.05.02-.07.01,0,0,0,0-.01,0,.02,0,.03-.02.05-.02s.04-.01.05-.02c.01,0,.02-.01.03-.02.02-.01.03-.03.03-.05,0,0,0-.02,0-.03,0-.01,0-.02-.01-.03-.01-.02-.03-.02-.05-.03-.02,0-.04,0-.06.01-.03.02-.05.03-.08.04-.01,0-.03.01-.04.02-.02,0-.04,0-.07,0s-.04,0-.07,0c-.02,0-.04-.01-.07-.02-.02,0-.04,0-.07-.02-.02-.01-.05-.02-.07-.03-.02-.01-.04-.03-.06-.04,0,0-.01,0-.02,0,0,0-.01-.02-.02-.02-.02-.02-.03,0-.05-.02-.01,0-.02-.02-.03-.03-.03-.02-.03-.01-.06-.03-.02-.02-.05-.03-.08-.02-.02,0-.04.03-.06.03-.02,0-.04,0-.07.01-.02,0-.04.02-.06.02-.02,0-.04.01-.07.01s-.05,0-.07,0-.04,0-.07,0c-.02,0-.04,0-.06,0-.02,0-.04,0-.06,0-.02,0-.04,0-.06,0-.01,0,0,0-.02-.01s-.01,0-.02,0c-.01,0,0,0-.02-.02,0,0,0,0-.01,0-.02-.01-.02-.04-.03-.06,0-.02-.02-.04-.01-.05,0,0,0,0,.01,0,0,0,0-.01.02-.02.02,0,.06,0,.08-.01.03,0,.07,0,.1,0,.02,0,.03,0,.05,0,.03,0,.06,0,.09,0,.03,0,.06,0,.09,0,.02,0,.04-.02.07-.02.02,0,.04-.01.07-.03.03-.02.05-.04.07-.07.01-.03,0-.06,0-.1,0-.03,0-.05-.02-.08-.01-.02-.03-.04-.05-.06-.01-.01-.03-.03-.05-.04-.02-.02-.03-.01-.05-.03-.02-.01-.04-.03-.06-.04s-.04-.02-.07-.03c-.02-.01-.04-.03-.06-.04-.02-.01-.05-.02-.07-.03s-.04-.03-.06-.04c-.02,0-.04-.02-.06-.03s-.04-.01-.06-.02-.04-.02-.06-.03-.04-.02-.06-.03c-.03-.02-.04-.04-.06-.06-.02-.02-.04-.05-.04-.08,0,0,0,0,0-.01,0,0,0,0,0-.01.01-.01.03-.03.04-.03.02,0,.04-.02.06-.02.02,0,.05.02.08.03.02,0,.04.01.06.02.02,0,.04.02.06.03.02.01.04.01.06.03.02.01.03.02.05.03s.03.03.05.04c.03.02.06.03.08.05.02.01.04.03.07.04.02.01.04.03.07.04.02.01.04.03.07.04.02,0,.05.01.07.02.02,0,.05,0,.08,0,.01,0,.02,0,.03,0,0,0,0,0,0,0,0,0,0,0,0,0,0,0,.02,0,.03-.02,0,0,0,0,0,0,0,0,0,0,.01,0,0,0,.02-.02.03-.03.01-.02.02-.04.02-.06,0-.02,0-.04,0-.06,0-.02,0-.04-.01-.06-.01-.02-.04-.04-.05-.05-.01-.02-.03-.03-.04-.04-.02-.01-.03-.03-.04-.04-.02-.01-.04-.03-.05-.04s-.04-.03-.06-.04-.04-.02-.06-.04-.04-.02-.06-.03c-.02-.01-.04-.04-.06-.05s-.04-.03-.07-.04c-.02-.01-.04-.02-.06-.04s-.04-.03-.05-.04-.04-.03-.05-.04c-.02-.02-.04-.05-.05-.06,0,0,0,0,0,0,0,0,.01,0,.01-.01,0,0,0-.01.01-.02,0,0,0,0,.01,0,0,0,0,0,0,0,0,0,.01,0,.02,0,.03,0,.05-.02.07-.02.02,0,.04,0,.06,0,.02,0,.04.01.06.02.02,0,.04.01.06.02.02,0,.04,0,.06.02s.03.03.05.04.04.01.06.03c.02.01.03.03.05.05s.04.03.06.04.04.03.05.04c.02.02.03.04.05.06s.05.03.07.05c.02.02.03.03.05.05s.03.04.04.05.04.02.06.04.03.03.05.05c.02.02.04.03.06.05s.04.03.06.04c.02.01.04.03.06.04.01,0,.03.02.05.03.02,0,.04.01.06.02.02,0,.04.02.07.02.02,0,.03,0,.06,0,.01,0,.03,0,.04-.02,0,0,.01-.01.01-.02,0,0,0,0,.01,0,0-.02.01-.03.02-.05,0-.02,0-.02.01-.03.01-.02.02-.05.03-.07,0-.02,0-.03.01-.05.01-.03.03-.06.04-.09,0-.02.01-.05.02-.06.01-.02.03-.04.04-.06.01-.02.02-.03.03-.05.01-.02.02-.03.04-.04.02,0,.03-.01.05-.02.01,0,.03,0,.05,0,.02,0,.04,0,.05.01.02,0,.04.02.05.03.02,0,.03.02.05.03.01,0,.02.02.03.03.01.02,0,.05,0,.08,0,.02-.01.04-.03.06-.01.02-.03.03-.05.05-.02.02-.03.04-.05.06-.02.02-.04.04-.06.06-.01.02-.02.04-.03.05-.01.02-.03.03-.04.05-.01.02-.03.03-.03.05,0,.02-.01.04-.02.06s0,.04,0,.06-.01.04-.01.06c0,.03,0,.06,0,.08,0,.03,0,.06,0,.08ZM4.44.21s.01-.04.04-.05c.02-.01.04-.03.06-.04.02,0,.05,0,.07,0,.02,0,.05,0,.07-.01s.05,0,.07,0,.05,0,.07,0,.05,0,.07,0c.03,0,.05,0,.07,0,.03,0,.05-.01.07-.01.02,0,.04.01.07.01.02,0,.04,0,.07,0,.02,0,.05,0,.07,0s.05,0,.07,0,.05,0,.07,0,.05,0,.07,0c.02,0,.05,0,.07,0,.02,0,.05,0,.07.01.03,0,.05.02.07.03.02.01.03.04.04.06,0,.02-.01.03-.04.04-.02,0-.04.02-.06.03-.02,0-.04,0-.06.01-.02,0-.04.02-.06.02s-.04,0-.07,0c-.02,0-.04,0-.07,0-.02,0-.05,0-.07,0-.02,0-.04-.01-.07-.01-.02,0-.04,0-.07,0s-.04,0-.07,0-.04,0-.07,0-.04,0-.07,0-.05,0-.07,0-.05,0-.07,0-.05,0-.07,0c-.02,0-.05,0-.07,0-.02,0-.05,0-.07,0-.03,0-.05-.01-.07-.02-.03,0-.06-.02-.07-.03-.04-.02-.03-.05-.03-.06ZM4.19.71s0,.04,0,.07c0,.03,0,.07,0,.08,0,.02,0,.04,0,.06,0,.01.02.03.04.04.01.01.03.03.05.04.02,0,.04.01.07.02s.04.02.06.03.05,0,.07.01.05,0,.07,0,.04.02.07.02.05,0,.07,0,.05,0,.07.01.05,0,.07,0,.05,0,.07,0,.05,0,.07,0,.05,0,.07,0,.05,0,.07,0,.05,0,.07,0,.05,0,.07,0c.02,0,.05,0,.07,0,.02,0,.05,0,.07-.01.02,0,.05,0,.07,0s.05-.01.07-.02.05,0,.07,0,.05,0,.07-.01.05-.01.07-.02c.02,0,.05,0,.07-.01.02,0,.04-.03.06-.04.02-.01.04-.03.05-.05s.02-.04.02-.07c0-.02,0-.05,0-.08,0-.03,0-.06,0-.08.02,0,.04,0,.07,0,.02,0,.05,0,.07.01.02,0,.05,0,.07,0s.05,0,.07,0,.05.01.07.02.05.01.07.02c.02,0,.05.01.07.02.02.01.04.02.06.04.02.01.04.03.05.05.01.02.02.04.02.07,0,.02,0,.04-.01.06,0,.02-.02.03-.05.05-.02.01-.04.01-.06.02-.02,0-.04.02-.06.03s-.04,0-.07.01-.04.02-.06.03-.05,0-.07,0-.04.02-.07.02-.05,0-.07,0-.04.01-.07.02-.05,0-.07,0-.05,0-.07.01-.05,0-.07,0-.05,0-.07,0-.05,0-.07,0c-.02,0-.04,0-.07.01s-.05,0-.07,0-.04,0-.07,0-.05,0-.07,0-.05,0-.07,0-.05,0-.07,0-.05,0-.07,0-.05,0-.07,0-.05,0-.07,0-.05,0-.07,0-.04,0-.07,0-.05,0-.07,0c-.02,0-.05,0-.07,0s-.05,0-.07,0-.05,0-.07,0-.05,0-.07,0-.05,0-.07,0-.05,0-.07,0-.05,0-.07,0-.05,0-.07,0-.05-.01-.07-.01-.05,0-.07,0-.05,0-.07,0-.05,0-.07,0-.05-.01-.07-.02-.05,0-.07-.01-.04-.02-.07-.02-.05,0-.07-.01-.04-.03-.06-.04c-.02-.01-.04-.02-.06-.03-.02-.02-.04-.03-.05-.04-.01-.02,0-.05,0-.07,0-.03,0-.05.01-.07s.04-.03.06-.05c.02-.01.04-.03.06-.04.02,0,.04-.02.07-.03.02,0,.05,0,.07-.01s.05-.01.07-.02.05,0,.07,0,.05,0,.07,0c.03,0,.05,0,.07-.01.03,0,.05,0,.07,0ZM3.44,9.28s.02-.02.03-.03c.03.01.03,0,.06.02s.03.02.06.04.03.01.06.03.03.02.06.04.04,0,.06.03c0,.01-.01.03-.01.04-.02-.01-.03-.02-.05-.03s-.04-.01-.06-.02-.03-.03-.05-.04-.04,0-.06-.02c-.02,0-.04-.02-.07-.04-.03-.01-.05-.03-.06-.04.01,0,.02,0,.03,0ZM3.29,9.05s.02.04.04.05c0,.03,0,.06.01.1-.01-.02-.03-.04-.05-.06s-.03-.04-.04-.06-.02-.04-.03-.06-.03-.04-.04-.06c-.01-.02-.02-.04-.03-.06s-.03-.04-.04-.06-.03-.03-.05-.05-.02-.04-.03-.06c-.01-.02-.04-.03-.05-.05-.02-.02-.03-.04-.04-.05.02,0,.04.02.06.04s.04.02.06.04.03.03.05.05.03.03.05.05.03.04.04.06.03.04.04.06.02.04.03.06.02.04.03.06ZM2.45,8.81s0,0,0,0c.03-.02.04-.04.07-.05.03,0,.06,0,.08,0,.02,0,.03,0,.05,0,.03,0,.05.03.08.04-.02.01-.03.03-.05.04s-.04.02-.06.03-.04.03-.06.04-.03.03-.05.05-.05.02-.07.03-.03.03-.05.05-.04.02-.06.03-.04.02-.06.03c0-.03,0-.05.01-.07s.02-.05.03-.07.02-.05.04-.07.03-.04.05-.05.04-.02.07-.04ZM2.27,9.38s0-.03-.01-.05-.02-.04-.02-.06c.02-.01.04-.02.06-.03s.04-.03.06-.04.04-.02.06-.03.04-.03.06-.04.04-.02.06-.03.04-.03.06-.04.03-.03.05-.05.04-.02.06-.03.03-.03.05-.05.04-.02.06-.04c.02.03.04.05.06.08-.02.01-.03.03-.05.05s-.04.03-.06.04-.04.03-.06.05-.04.03-.06.04-.04.03-.06.04-.04.02-.06.04-.05.02-.07.03-.04.03-.06.04-.04.02-.06.04-.04.02-.06.03ZM2.37,9.61s-.03-.06-.04-.09c0,0,0,0-.01,0,.02-.01.04-.02.06-.03s.04-.03.06-.04.04-.02.06-.03.04-.03.06-.04.04-.02.06-.03.04-.03.06-.04.03-.03.05-.05.04-.02.06-.03.03-.04.05-.05.04-.02.06-.04.04-.02.06-.04c.01.02.03.04.04.06,0,0,0,.01,0,.02-.02.01-.03.03-.05.05s-.04.03-.06.04-.04.03-.06.04-.04.02-.06.04-.04.02-.06.03-.04.03-.06.04-.04.02-.06.04-.04.03-.06.04-.04.02-.06.03-.04.03-.06.04-.04.02-.06.03ZM2.5,9.82s-.02-.03-.03-.04-.03-.03-.04-.05c.02-.01.05-.02.07-.03s.04-.03.06-.04.04-.02.06-.03.04-.03.06-.04.04-.02.06-.03.04-.03.06-.04.03-.03.05-.05.05-.02.06-.03.03-.04.05-.05.04-.02.06-.04.04-.02.06-.04c.02.03.04.06.06.08-.02.01-.04.03-.06.04s-.03.03-.05.05-.04.03-.06.04-.04.03-.06.04-.04.02-.06.04-.04.02-.06.03-.04.03-.06.04-.04.02-.06.04-.04.03-.06.04-.04.02-.06.03-.04.02-.06.03ZM2.6,9.94s.04-.02.06-.03.04-.03.06-.05.04-.02.06-.03.04-.03.06-.04.04-.02.06-.03.04-.03.06-.04.04-.02.06-.03.04-.03.06-.04.03-.04.05-.05.05-.02.06-.03.03-.04.05-.05c.01.01.03.03.05.03s.03.02.05.03c-.02.01-.03.03-.05.04s-.04.02-.06.04-.03.03-.05.05-.04.03-.06.04-.04.03-.06.04-.04.02-.06.04-.04.02-.06.03-.04.03-.05.04-.04.02-.06.03-.03.03-.05.04-.04.02-.06.03-.04.03-.06.04c-.01-.01-.03-.02-.04-.04s-.02-.03-.03-.04ZM2.89,10.17s-.03-.02-.05-.03-.04-.02-.06-.03c.02-.01.05-.02.07-.04s.04-.03.06-.04.04-.02.06-.03.04-.03.06-.04.04-.02.06-.03.04-.03.06-.04.03-.04.05-.05.05-.02.06-.03.03-.04.05-.05.04-.03.06-.04.04-.03.06-.04.03-.03.05-.05c0,0,.01,0,.02.01.03.01.06.02.09.03-.02.02-.04.04-.06.05s-.04.03-.06.05-.04.03-.06.04-.04.02-.06.04-.04.03-.06.05-.04.03-.06.04-.03.04-.05.05-.04.02-.06.04-.04.03-.06.04-.04.03-.06.04-.05.02-.07.03-.04.03-.06.04ZM3.06,10.23s.04-.02.06-.03.03-.04.05-.05.04-.02.06-.04.04-.03.06-.04.04-.02.06-.04.04-.03.05-.05.04-.02.06-.04.04-.03.05-.05.03-.04.05-.05.04-.02.06-.04.03-.04.05-.05.04-.03.06-.04c.03.02.05.04.08.06-.02.02-.03.03-.05.05s-.04.03-.06.04-.03.03-.05.05-.04.03-.05.04-.04.03-.05.05-.04.03-.06.04-.04.02-.06.04-.03.03-.05.05-.04.03-.06.04-.03.03-.05.05-.04.02-.06.03c-.02,0-.05,0-.08,0-.02,0-.04-.01-.07-.02ZM3.86,9.94s-.01.03-.02.05c0,.02-.01.04-.02.06-.01.02-.03.03-.05.04-.02.01-.03.03-.05.05-.02.01-.04.02-.06.03-.02.01-.04.03-.06.03-.02,0-.04,0-.06.02s-.04.02-.06.02c.02-.01.03-.03.05-.05s.04-.02.06-.03.03-.04.05-.05.04-.03.06-.04.04-.03.06-.04.03-.03.05-.05.04-.02.05-.04ZM7.26,9.87s-.03.04-.04.06-.02.04-.04.06-.04.03-.05.05-.03.04-.05.05-.04.03-.06.04-.04.03-.05.05-.04.02-.06.04-.04.03-.06.04-.04.03-.06.04-.05.01-.07.02-.04.03-.06.04c0,0-.01,0-.02,0,.02,0,.05-.02.07-.03s.04-.03.06-.04.04-.02.06-.03.04-.03.06-.04.04-.03.06-.04.04-.03.06-.04.04-.03.06-.04.04-.03.06-.04.03-.04.05-.05.03-.03.05-.05.02-.04.04-.06.03-.04.04-.06.02-.04.03-.06.02-.04.03-.07c0,.02-.02.04-.03.06s-.01.04-.02.06-.03.03-.04.05ZM7.44,8.7s.01.05.02.07c0,.02.02.05.02.07s0,.05,0,.08,0,.05,0,.07,0,.05,0,.08,0,.05,0,.08c0-.02,0-.05,0-.07s0-.05,0-.07-.01-.05-.02-.07,0-.05,0-.07-.02-.04-.02-.07,0-.05-.01-.07,0-.05-.01-.07c0-.02-.02-.04-.03-.07,0-.02-.01-.05-.02-.07,0-.02-.02-.04-.03-.06-.01-.02-.02-.05-.03-.06.01.01.04.03.05.05.01.02.02.04.03.06,0,.02,0,.04.02.07,0,.02.02.04.03.06,0,.02,0,.04.01.07ZM6.78,9.58s-.03-.03-.05-.05-.04-.02-.06-.03-.03-.03-.05-.04-.04-.02-.06-.03-.04-.02-.06-.03c0-.04.01-.04.03-.08s.02-.04.04-.07c.01,0,.02,0,.03,0,.03,0,.05-.01.07-.01.03,0,.05,0,.08,0,.04,0,.06-.03.07-.03.02,0,.03-.01.04-.03s.01-.04,0-.05c0-.02-.02-.03-.04-.04s-.03-.01-.05,0c-.02,0-.04.02-.06.02-.02,0-.04,0-.07.01s-.05,0-.07,0c-.03,0-.05-.01-.07-.02-.02,0-.02-.03-.03-.05,0-.03-.02-.06-.02-.09.03,0,.03,0,.07.01s.04,0,.07,0,.03.01.07.02c.01,0,.02,0,.03,0,.02,0,.04,0,.06-.01s.05,0,.06-.02.03-.04.04-.06.02-.04.02-.06c0-.03,0-.05,0-.07s-.01-.05-.03-.07-.03-.04-.05-.05-.05-.02-.07-.02c-.03,0-.03,0-.06-.01s-.03,0-.06,0c.02-.01.03-.03.04-.04s.04-.02.05-.02.04-.01.06-.02c.02,0,.05,0,.08,0,.02,0,.05.02.07.04.02.02.02.04.03.07,0,.02,0,.05,0,.07,0,.02,0,.05,0,.07,0,.02,0,.05,0,.07,0,.02-.02.05-.03.07,0,.02,0,.04.01.06s.02.03.04.04c.02,0,.04,0,.05-.02s.03-.02.04-.04c0-.02,0-.05.01-.07,0-.02.02-.04.02-.06,0-.02,0-.05,0-.07,0-.02.01-.05.01-.07,0-.02,0-.05-.01-.07,0-.02-.01-.05-.02-.07,0-.02-.01-.04-.02-.06.02-.02.02-.01.05-.03s.02-.03.05-.03c0,.02.02.04.03.07,0,.02.02.04.03.06,0,.02.01.05.02.07,0,.02.02.04.02.07,0,.02,0,.05.01.07,0,.02.02.05.02.07s0,.05,0,.07.02.05.02.07,0,.05,0,.07,0,.05,0,.07,0,.05,0,.07,0,.05,0,.07,0,.05-.01.07-.01.05-.02.07c0,.02-.02.05-.02.07s0,.05-.02.07-.02.04-.03.06-.03.04-.04.06-.02.05-.03.07-.03.03-.05.05-.03.04-.04.06-.03.04-.05.05-.03.04-.05.05-.04.03-.06.04-.04.03-.06.05-.04.02-.06.04-.04.03-.06.04-.05.01-.07.02-.04.02-.06.03-.04.03-.06.04-.04.02-.07.03-.04.02-.07.03-.05,0-.07.01-.04.02-.07.02-.04.02-.07.03c0,0-.02,0-.02,0-.02-.01-.05-.02-.06-.04-.02-.02-.04-.03-.06-.05-.02-.02-.03-.04-.05-.06-.02-.02-.03-.04-.04-.06s0-.05-.02-.07-.02-.05-.02-.07,0-.05,0-.07c0-.02,0-.05,0-.08s.02-.05.03-.07.03-.04.04-.06.03-.04.04-.06.04-.04.06-.05.04-.03.06-.04.05-.01.07-.02c.02,0,.04-.01.07-.02s.05,0,.07,0,.04,0,.07.01.04.01.06.02.04.02.06.03c.02.01.04.03.05.04.02.01.04.03.05.05.01.01.03.03.05.03s.04,0,.05-.02c.01-.01.02-.03.02-.05s0-.04-.01-.05ZM5.91,8.86s.04,0,.07.01.04,0,.07,0,.04.01.07.02.04,0,.07,0,.03.01.07.02.04,0,.07,0c0,.02,0,.05,0,.08s0,.05.01.07c0,.03.02.05.04.07s.02.04.05.06c0,.03,0,.03-.02.06s-.02.03-.03.06,0,.03-.03.06c-.03,0-.05,0-.08.01s-.05,0-.08.02c-.02,0-.04.02-.06.03s-.04.02-.06.03-.04.03-.05.04-.04.03-.05.04-.04.03-.05.05-.02.04-.04.06-.03.04-.04.06-.01.04-.02.07-.02.04-.02.06,0,.05,0,.07c0,.02,0,.05,0,.07s0,.05,0,.07.02.04.02.07.01.04.02.07.02.04.03.06.02.04.04.06.03.03.04.05c-.02,0-.04,0-.07,0s-.05,0-.07,0-.05,0-.07,0-.05,0-.07,0-.05,0-.07,0-.05,0-.07,0-.05,0-.07,0-.05,0-.07,0-.05,0-.07,0-.05,0-.07,0c-.02,0-.05,0-.07,0s-.05,0-.07,0-.05,0-.07,0-.05,0-.07,0-.05,0-.07,0-.05.01-.07.01-.05,0-.07,0-.05,0-.07,0-.05,0-.07,0-.05,0-.07,0-.05,0-.07,0-.05,0-.07,0-.05,0-.07,0-.05,0-.07,0-.05,0-.07,0-.05,0-.07,0-.05,0-.07,0-.05,0-.07,0-.05,0-.07,0-.05,0-.07,0-.05,0-.07,0-.05,0-.07,0-.05,0-.07,0-.05,0-.08,0c.02,0,.05-.01.08-.02s.05-.02.07-.03c.02-.01.05-.02.07-.03.02-.01.04-.03.06-.04.02-.02.04-.03.06-.05.02-.02.04-.04.05-.05.02-.02.03-.04.05-.06.01-.02.02-.05.02-.07.02-.02.03-.03.04-.06s.02-.04.02-.07,0-.05,0-.07c0-.02,0-.05,0-.07,0-.03-.02-.05-.03-.06-.01-.02-.02-.04-.04-.06.01-.04.01-.05.04-.09.02-.01.04-.02.05-.04.01-.02.01-.04.01-.07,0-.02,0-.05,0-.07,0-.02-.02-.04-.03-.06s-.01-.05-.03-.06-.03-.03-.05-.05c-.02-.02-.04-.03-.06-.05,0-.04,0-.04,0-.08s0-.04,0-.07.02-.04.02-.07,0-.04,0-.07,0-.04,0-.08,0-.04.01-.07,0-.04,0-.07c0-.02,0-.05.02-.07s.02-.04.03-.06.02-.04.04-.06.04-.03.06-.04c.02-.01.03-.03.05-.05.02-.01.04-.02.06-.03.03-.02.03-.03.06-.04s.03-.01.07-.03.03-.01.07-.03.03-.02.06-.04.03-.02.06-.03.03-.02.07-.03.03-.01.07-.03c.02,0,.04,0,.07,0s.05,0,.07,0,.05,0,.07,0,.05,0,.07,0,.05,0,.07,0,.05,0,.07,0,.05,0,.07,0c.02,0,.05,0,.07,0,.02,0,.04,0,.06,0,.02.04.01.04.02.08s0,.04,0,.08,0,.04,0,.08c0,.02.02.04.02.07s.01.04.02.06.01.04.02.06.02.04.03.06.03.04.04.05.03.03.05.05.04.03.05.04.03.03.05.05.04.02.06.03.04.02.06.03.04.02.06.02.04.01.07.02.04.02.07.02ZM5.96,6.86s.03.01.06,0c.04,0,.08,0,.12,0,.07,0,.15-.03.22-.04.02,0,.04-.01.07-.02.02,0,.04-.02.06-.03.02,0,.05,0,.07-.02.02,0,.04-.02.06-.03.02,0,.04-.02.06-.02.02,0,.04-.02.06-.03.02-.01.04-.02.06-.03.02-.01.04-.02.06-.03.02-.01.03-.03.04-.04,0,.02,0,.04,0,.07,0,0-.02.02-.03.03-.01.01-.03.03-.05.04-.02.01-.04.01-.06.03-.02.01-.03.03-.05.04-.02,0-.04.02-.06.03-.02,0-.04.02-.06.03-.02,0-.04.01-.06.02-.02,0-.04.02-.06.03-.02,0-.04,0-.06.02-.02,0-.04,0-.07,0-.02,0-.04.03-.06.03-.02,0-.04,0-.07,0-.02,0-.04.02-.06.02-.02,0-.04,0-.07,0-.02,0-.04,0-.07,0-.02,0-.04,0-.07,0-.02,0-.04.01-.05.02-.01.01-.01.03-.01.05,0,.02.01.03.03.04,0,0,.01.02.02.02,0,0,.02,0,.03,0,.07,0,.14-.02.21-.03.02,0,.05,0,.07,0,.02,0,.05-.02.07-.03.02,0,.05,0,.07-.02.02,0,.05,0,.07-.02.02,0,.05-.02.07-.03.02,0,.05,0,.07-.02.02,0,.04-.03.06-.03.02-.01.05-.01.07-.02.02-.01.04-.03.06-.04.02-.01.05-.01.07-.02.01,0,.03-.03.04-.03,0,.02,0,.04-.01.06,0,0,0,.01-.02.02-.02.01-.03.03-.05.04-.02.01-.05.01-.07.02-.02.01-.03.03-.06.04-.02.01-.04.02-.06.03-.02,0-.04.02-.06.03-.02,0-.04.02-.06.03-.02,0-.05,0-.07.02-.02,0-.04.01-.07.02-.02,0-.05,0-.07.01-.02,0-.04.02-.07.02-.02,0-.05,0-.07,0-.02,0-.04.02-.07.02-.02,0-.05,0-.07,0-.02,0-.05,0-.07.01-.02,0-.05,0-.07,0-.09,0-.18.01-.27,0-.01,0-.05.01-.06.02-.01.01-.02.03-.02.05,0,.02.01.03.03.04.01.01.02.04.04.04.02,0,.04,0,.05,0,.02,0,.04,0,.05,0,.02,0,.05,0,.07,0,.02,0,.05.01.07.01.02,0,.05,0,.07,0,.02,0,.05,0,.07,0,.02,0,.05,0,.07-.01.02,0,.05.01.07,0,.02,0,.05-.02.07-.02.02,0,.05-.01.07-.02.02,0,.04-.02.07-.02.02,0,.05,0,.07-.01.02,0,.05,0,.07,0,.02,0,.05-.01.07-.02.02,0,.04-.02.06-.03.02,0,.04-.02.06-.03.02,0,.05-.01.07-.02.02-.01.04-.03.06-.04.02-.01.05-.02.06-.03,0,0,0,0,0,0,0,.03-.03.05-.04.07s-.02.05-.04.07c-.02.02-.04.03-.06.04s-.03.04-.05.05-.04.02-.06.03-.04.02-.07.03-.04.02-.06.03-.04.02-.07.02-.05.01-.07.02-.05,0-.07,0-.05.01-.07.02-.05,0-.07.01-.05,0-.07.01-.05,0-.07.01-.05.01-.07.01-.05,0-.07,0c-.06,0-.11,0-.17.01-.08,0-.17.02-.25.02-.02,0-.04,0-.06,0s-.04,0-.06,0c-.03,0-.05,0-.08,0-.03,0-.05,0-.08,0-.03,0-.06,0-.08,0-.02,0-.05,0-.07,0s-.05,0-.07,0-.05,0-.07,0-.05,0-.07,0c-.02,0-.05,0-.07,0s-.05,0-.07,0-.05,0-.07,0-.05,0-.07,0-.04,0-.07,0-.05,0-.07,0-.04,0-.07-.01-.04,0-.07-.01c-.02,0-.05-.01-.07-.01s-.05,0-.07,0-.05-.01-.07-.01-.05-.01-.07-.02-.05-.01-.07-.02-.05,0-.07-.01-.04-.03-.06-.03-.05,0-.07-.01-.04-.02-.06-.03-.05-.01-.07-.02-.05-.02-.07-.03c-.02-.01-.04-.03-.06-.04-.02-.01-.04-.02-.06-.04-.01-.02-.03-.04-.04-.06s0-.05-.01-.07-.02-.04-.02-.07,0-.05,0-.07,0-.05,0-.07,0-.05,0-.07,0-.05,0-.07c0-.02,0-.04,0-.07,0-.02,0-.04,0-.07,0-.02,0-.04,0-.07s0-.05,0-.07,0-.05,0-.07c0-.02,0-.05,0-.07,0-.02,0-.05,0-.07s0-.05,0-.07,0-.05,0-.07,0-.05,0-.07,0-.05,0-.07,0-.05,0-.07,0-.05,0-.07,0-.05,0-.07,0-.05,0-.07,0-.05,0-.07,0-.05,0-.07,0-.05,0-.07,0-.05,0-.07,0-.05,0-.07,0-.05,0-.07,0-.05,0-.07,0-.05,0-.07,0-.05,0-.07,0-.05,0-.07,0-.05,0-.07,0-.05,0-.07,0-.05,0-.07,0-.05,0-.07c0-.02,0-.05,0-.07s0-.05,0-.07,0-.05,0-.07,0-.05,0-.07,0-.05,0-.07c0-.02,0-.05,0-.07s0-.05,0-.07,0-.05,0-.07,0-.05,0-.07,0-.05,0-.07,0-.05,0-.07,0-.05,0-.07,0-.05,0-.07,0-.05,0-.07,0-.05,0-.07,0-.05,0-.07,0-.05,0-.07,0-.05,0-.07,0-.05,0-.07,0-.05,0-.07c0-.02,0-.05,0-.07s0-.05,0-.07,0-.05,0-.07,0-.05,0-.07,0-.05,0-.07,0-.05,0-.07,0-.05,0-.07,0-.05,0-.07,0-.05,0-.07,0-.05,0-.07,0-.05,0-.07,0-.05,0-.07,0-.05,0-.07,0-.05,0-.07c0-.02,0-.04-.01-.07,0-.02,0-.04,0-.07s0-.05,0-.07,0-.05,0-.07c0-.02,0-.05,0-.07,0-.03,0-.05.01-.07,0-.02,0-.05,0-.07,0-.02,0-.05.01-.07,0-.02.02-.04.04-.06.01-.02.03-.04.05-.05s.05,0,.07,0c.02,0,.05,0,.07,0,.02,0,.04.02.07.02s.05,0,.07.01c.02,0,.05.02.07.02.02,0,.05,0,.07.01s.05,0,.07,0,.05,0,.07,0,.05,0,.07.01.05,0,.07.01.05,0,.07,0,.05,0,.07,0,.05.01.07.01.05,0,.07,0c.02,0,.05,0,.07,0s.05,0,.07,0,.05,0,.07,0,.05,0,.07,0,.05,0,.07,0,.05,0,.07,0,.05,0,.07,0,.05,0,.07,0,.05,0,.07,0,.05,0,.07,0,.05,0,.07,0,.05,0,.07,0,.05,0,.07,0,.05,0,.07,0,.05,0,.07,0,.05,0,.07,0,.05,0,.07,0,.05,0,.07,0,.05,0,.07,0,.05,0,.07,0,.05,0,.07-.01.05,0,.07,0,.05,0,.07-.01.05,0,.07,0,.05,0,.07,0,.05,0,.07,0,.05-.02.07-.02c.02,0,.05,0,.07,0s.05,0,.07-.01.05,0,.07,0,.04-.01.07-.02.05,0,.07,0c.02,0,.05-.01.07-.02.03,0,.05,0,.07.01.02.01.04.03.06.04.01.02.03.04.04.06,0,.02,0,.05.01.07,0,.02.02.04.02.07,0,.02,0,.05,0,.07s0,.05,0,.07,0,.05,0,.07,0,.05,0,.07,0,.05,0,.07c0,.03,0,.05,0,.07,0,.03.01.05.01.07,0,.02,0,.05,0,.07s0,.05,0,.07,0,.05,0,.07,0,.05,0,.07,0,.05,0,.07,0,.05,0,.07,0,.05,0,.07,0,.05,0,.07,0,.05,0,.07,0,.05,0,.07,0,.05,0,.07,0,.05,0,.07,0,.05,0,.07,0,.05,0,.07,0,.05,0,.07,0,.05,0,.07-.01.05-.01.07,0,.05,0,.07,0,.05,0,.07,0,.05,0,.07,0,.05,0,.07,0,.05,0,.07,0,.05,0,.07,0,.05,0,.07,0,.05,0,.07,0,.05,0,.07,0,.05,0,.07,0,.05,0,.07,0,.05,0,.07,0,.05,0,.07,0,.05,0,.07,0,.05,0,.07,0,.05,0,.07,0,.05,0,.07,0,.05,0,.07,0,.05,0,.07,0,.05,0,.07,0,.05,0,.07,0,.05,0,.07,0,.04,0,.06c-.02-.02-.05-.03-.07-.05-.02-.01-.04-.02-.06-.03s-.04-.02-.06-.02-.04.02-.06.03-.03.02-.05.04c-.01.02-.03.03-.04.05s0,.04,0,.06,0,.04.02.06.02.03.04.05c.02.02.04.03.06.05s.03.04.05.05.04.03.06.04.04.03.06.05.04.03.06.05c0,.03,0,.05,0,.08-.01,0-.03.02-.05.03-.02.01-.04.03-.06.04-.02.01-.04.03-.06.04-.02.01-.04.02-.07.03-.02.01-.04.02-.07.03-.02,0-.04.03-.06.04-.02,0-.05,0-.07.01-.02,0-.03.02-.04.03,0,.01-.01.03,0,.05,0,.03.03.05.06.05,0,0,.02,0,.02,0,.02,0,.05-.01.07-.02.02,0,.04-.03.07-.04.02,0,.05-.02.07-.03.02-.01.04-.02.06-.03.02-.01.05-.02.07-.03.02-.01.04-.03.06-.04,0,.02,0,.04,0,.05,0,0-.02.02-.04.04-.02.01-.04.02-.06.03-.02.01-.03.03-.06.04-.02.01-.04.01-.07.02-.02.01-.04.02-.06.03-.02,0-.03.04-.06.04-.02,0-.04.02-.07.02-.02,0-.04.02-.07.03-.02,0-.05,0-.07.01-.02,0-.04.01-.05.03-.01.01,0,.03,0,.05,0,.03.03.05.06.05,0,0,.01,0,.02,0,.02,0,.04-.02.07-.02.02,0,.05,0,.07,0,.02,0,.04-.02.07-.03.02,0,.04-.02.06-.03.02,0,.04-.02.06-.03.02-.01.04-.02.06-.03.02-.01.04-.03.06-.04.02-.01.04-.02.05-.03,0,.02,0,.04,0,.05,0,0-.03.01-.05.03-.02.01-.03.04-.05.05-.02.01-.04.02-.06.03-.02.01-.04.03-.06.04-.02.01-.04.01-.07.02-.02,0-.04.03-.06.04-.02,0-.04.01-.07.02-.02,0-.04.01-.07.02-.02,0-.05,0-.07.01-.02,0-.04.02-.07.02-.02,0-.04.01-.07.02-.02,0-.04.01-.05.03-.01.01-.01.03,0,.05,0,.03.04.06.07.06,0,0,0,0,.01,0,.02,0,.05,0,.07-.01.02,0,.05,0,.07,0,.02,0,.04-.02.07-.03.02,0,.05,0,.07-.02.02,0,.04-.03.06-.04.02,0,.04-.02.07-.03.02,0,.05-.02.07-.03.02-.01.04-.02.06-.04.02-.01.04-.02.06-.03.02-.01.04-.02.06-.03,0,.01,0,.03,0,.04,0,0-.02.02-.05.04-.02.01-.04.02-.06.03-.02.01-.03.03-.06.04-.02.01-.03.03-.06.05-.02.01-.05.01-.07.02-.02,0-.04.02-.07.03-.02,0-.04.01-.07.02-.02,0-.04.01-.07.02-.02,0-.04.02-.07.02-.02,0-.04.01-.07.02-.02,0-.05,0-.07,0-.02,0-.04.02-.07.03-.02,0-.05,0-.07,0-.02,0-.05,0-.07,0-.02,0-.04.02-.05.03-.01.01-.02.04-.02.05,0,.02,0,.04.02.05ZM9.16,7.24s0,.06,0,.09c0,.03,0,.06,0,.09,0,.03-.02.05-.03.07,0,.02-.02.04-.03.05,0,0,0,0,0,0,0-.02,0-.04,0-.06s0-.04,0-.06,0-.04,0-.06c0-.02-.02-.05-.02-.07s0-.05,0-.07-.02-.04-.03-.07c0-.02-.01-.04-.02-.07s-.02-.04-.03-.06-.03-.04-.04-.06-.02-.04-.03-.06-.03-.03-.04-.05-.03-.04-.04-.05c0,0,0,0,0,0-.01-.01-.02-.02-.04-.03.01-.01.03-.03.05-.04s.02-.04.03-.05c.01-.02.03-.04.04-.06,0,0,0,0,0,0,.02.02.03.04.05.05s.04.03.05.05.04.03.05.05.02.05.03.06c.01.02.03.03.04.05,0,.02.02.04.02.06,0,.02.01.04.02.07,0,.02,0,.04,0,.07,0,0,0,0,0,0,0,0,0,0,0,0,0,.01,0,.01,0,.03,0,.02,0,.02,0,.03,0,.01,0,.01,0,.03,0,.03-.01.06-.02.09ZM9.23,6.71s-.03-.04-.04-.05-.04-.03-.05-.04-.03-.04-.04-.05-.03-.03-.05-.04-.03-.04-.05-.05c0,0,0,0,0,0-.02-.01-.04-.03-.06-.03,0,0,0,0,0,0,0-.02,0-.04,0-.06s.02-.04.02-.06c0-.02-.01-.04-.03-.06-.01-.02-.03-.03-.05-.03-.02,0-.04,0-.06.01-.02.01-.02.04-.03.06,0,.02,0,.04-.01.07,0,.02,0,.05-.01.07,0,.02-.01.04-.02.06,0,.02-.02.04-.03.06-.01.02-.03.03-.04.05s-.03.02-.05.04c-.02.01-.03.03-.05.04s-.04.02-.06.02c-.02,0-.03.03-.04.05s-.01.04,0,.06c0,.02.02.03.04.04.01,0,.02,0,.03,0,0,0,.02,0,.03,0,.03-.01.06-.04.09-.05,0,.02,0,.03.02.05.02.02.03.04.05.06.01.02.03.04.04.06.01.02.02.04.04.06.01.02.03.04.04.06s.02.05.03.07c.01.03.02.06.03.08,0,.03.02.06.02.08,0,.02,0,.05,0,.07s0,.05,0,.07c0,0,0,0,0,0-.02.01-.02,0-.03.02,0,0-.01,0-.02,0-.01,0-.03.02-.04.02-.02.01-.02.02-.02.02-.02,0-.03,0-.04,0-.02,0-.04-.06-.04-.07-.01-.02-.03-.04-.04-.06,0-.02-.01-.04-.02-.06-.01-.02-.03-.04-.04-.06s-.02-.05-.03-.07-.03-.04-.05-.06-.02-.05-.04-.07c-.01-.02-.04-.03-.05-.05s-.02-.04-.04-.06-.04-.03-.06-.05-.04-.03-.05-.05c-.02-.02-.03-.04-.05-.06s-.04-.03-.06-.05-.04-.03-.06-.04-.04-.03-.06-.05-.04-.02-.06-.04-.04-.03-.06-.05-.04-.03-.06-.04c-.03-.02-.08-.04-.1-.07,0,0-.01-.01-.02,0,0-.01-.02-.03-.03-.04,0-.01-.02-.02-.02-.04,0,0,0-.01,0-.02,0,0,0-.02,0-.03,0-.02,0-.04,0-.06s0-.04,0-.06c0-.03.03-.06.05-.08,0,0,0,0,0,0,.02-.01.02-.04.02-.06s0-.04-.01-.06c-.02-.03-.07-.03-.1-.02,0,0-.01,0-.02.01-.02.02-.03.04-.05.06-.01.02-.02.03-.03.05,0,.02-.01.04-.02.05,0,.02-.01.04-.02.06s0,.04,0,.06c0,0,0,0,0-.01,0,0,0,0,0-.01,0-.02,0-.02-.01-.03,0,0,0-.01,0-.02,0-.02,0-.03,0-.05,0,0,.01,0,.01-.01,0,0,0-.01,0-.02,0-.02,0-.02,0-.04,0,0,0,0,0-.01,0-.01,0-.02,0-.03,0,0,0-.02,0-.02,0-.02.02-.04.03-.07s.02-.04.03-.07c.01-.02.04-.03.05-.05.02-.02.03-.04.04-.05.02-.02.04-.03.07-.05-.01.02-.01.04-.02.07,0,.02-.02.05-.02.07,0,.02,0,.04,0,.06s.03.03.05.03c.02,0,.03,0,.05,0,0,0,0,0,0,0,.02-.01.04-.02.05-.05,0-.02.01-.04.02-.06s.01-.04.02-.06c0-.01.01-.02.02-.03,0-.01,0-.01.01-.02,0-.01.01-.03.02-.04.01-.02.03-.04.05-.05s.04-.03.06-.05c.02-.01.05-.02.07-.03.02,0,.04-.02.07-.03s.04-.02.07-.03c.02,0,.04,0,.05-.02s.04,0,.06-.01c.02,0,.05-.03.07-.05.02-.01.04-.03.06-.06.02-.02.04-.05.05-.09,0-.03.01-.06.01-.09,0-.04,0-.07-.01-.1,0-.01,0-.02,0-.03,0-.02,0-.04,0-.06,0-.02.01-.03.01-.04,0-.03.02-.05.04-.06,0,0,.02-.01.03-.02.01,0,.03,0,.04,0,.02,0,.04,0,.06.01.02,0,.04.02.06.03s.04.02.05.04c.02.02.03.04.04.06s.02.04.03.06,0,.04.01.07c0,.03,0,.05,0,.08s-.02.05-.02.07,0,.05-.02.07c0,.02-.02.04-.02.05,0,.02-.02.04-.03.07s-.02.05-.02.07,0,.05,0,.07c0,.02-.02.05-.02.08,0,.02,0,.02,0,.04,0,0,0,0,0,.01,0,.01,0,.01,0,.02,0,0,0,.01.01.02,0,.02,0,.04.01.06,0,.02.03.03.03.05.02.03.02.03.03.06s0,.04.02.07.03.03.04.06.01.03.03.07c.01.02.02.04.03.07s.02.04.03.07.02.05.03.07.01.05.02.07.02.04.03.07.01.05.02.07.02.04.03.07c0,.02,0,.03.01.05s.01.03.02.05c-.01-.03-.02-.06-.04-.09Z"/>
                <path class="cls-4" d="M8.65,5.99s-.05-.02-.08-.03-.05-.02-.08-.03c-.03,0-.05,0-.08,0-.03,0-.05,0-.08,0-.03,0-.06,0-.08,0-.03,0-.06,0-.08,0,0,0,0,.01,0,.01-.02,0-.04.01-.05.03-.01.02-.02.04-.02.06,0,.02.01.04.03.05.02.01.04.02.06.01.02,0,.04,0,.07,0,.02,0,.04,0,.07,0,.02,0,.05,0,.07,0,.02,0,.05,0,.07,0,.02,0,.04.01.06.02.02,0,.04.02.06.02.02,0,.03.02.05.04s.03.02.04.04c.02.02.04.02.06.02.02,0,.03,0,.05-.02.02-.01.03-.03.03-.05s0-.04-.01-.06c-.01-.02-.02-.03-.04-.05s-.04-.02-.06-.03-.03-.03-.05-.04Z"/>
              </g>
              <path class="cls-4" d="M6.27,1.05s-.04,0-.05-.02c0,0-.03-.02-.06-.03-.02,0-.04-.01-.07-.02-.02,0-.04-.01-.07-.01-.02,0-.04,0-.07,0-.02,0-.04-.01-.07-.01s-.04,0-.07,0-.04-.01-.07-.01-.05,0-.07,0c-.02,0-.04,0-.05-.02s-.02-.03-.02-.05c0-.02.02-.03.03-.05s.03-.02.05-.02c.02,0,.05,0,.07,0,.02,0,.05,0,.07,0,.02,0,.05,0,.07,0s.05.01.07.02.05,0,.07,0,.05.01.07.02c.02,0,.05,0,.07.01.03,0,.05.02.07.03.03.01.04.03.05.05.01.01.02.03.01.05s0,.04-.02.05c-.01.01-.03,0-.05,0Z"/>
            </g>
          </g>
        </g>
      </g>
    </g>
  </g>
</svg>