<?xml version="1.0" encoding="UTF-8"?>
<svg id="_레이어_2" data-name="레이어 2" xmlns="http://www.w3.org/2000/svg" viewBox="0 0 31.93 10.24">
  <defs>
    <style>
      .cls-1 {
        fill: #1a1a1a;
      }
    </style>
  </defs>
  <g id="_레이어_1-2" data-name="레이어 1">
    <g>
      <g>
        <g>
          <path class="cls-1" d="M19.41,2.01h-.73c-1.22,0-.78,4.3-3.13,4.3h-1.13v-1.38h.73c1.22,0,.78-4.3,3.13-4.3h1.13v1.38Z"/>
          <path class="cls-1" d="M20.11,4.91c.44,0,.74.3.74.74s-.3.74-.74.74-.74-.3-.74-.74.3-.74.74-.74Z"/>
          <path class="cls-1" d="M21.5.63h2.26c1.61,0,2.42.92,2.42,2.2s-.81,2.2-2.42,2.2h-.8v1.27h-1.46V.63ZM22.96,2.01v1.65h.85c.6,0,.87-.36.87-.83s-.27-.82-.87-.82h-.85Z"/>
          <path class="cls-1" d="M27.18,4.91c.44,0,.74.3.74.74s-.3.74-.74.74-.74-.3-.74-.74.3-.74.74-.74Z"/>
          <path class="cls-1" d="M31.69.63v1.46h-.57c-.8,0-1.34.62-1.34,1.37s.54,1.39,1.34,1.39h.57v1.46h-.57c-1.66,0-2.84-1.18-2.84-2.84s1.18-2.84,2.84-2.84h.57Z"/>
        </g>
        <g>
          <path class="cls-1" d="M14.4,9.07s.04.07.08.09c.03.02.07.04.12.05.04.01.09.01.14.01.03,0,.06,0,.09-.01.03,0,.07-.02.1-.04.03-.02.05-.04.07-.07.02-.03.03-.06.03-.1,0-.03,0-.06-.02-.08s-.03-.04-.05-.06c-.02-.02-.05-.03-.07-.04-.03-.01-.05-.02-.08-.02l-.25-.06s-.06-.02-.09-.03c-.03-.01-.06-.03-.08-.05-.02-.02-.04-.05-.05-.08s-.02-.07-.02-.11c0-.03,0-.06.02-.09.01-.04.03-.07.06-.1.03-.03.07-.06.12-.08s.11-.03.19-.03c.05,0,.11,0,.16.02s.09.04.13.07c.04.03.07.06.09.11.02.04.03.09.03.15h-.11s-.01-.08-.03-.11-.04-.06-.07-.08c-.03-.02-.06-.04-.09-.05-.04-.01-.07-.02-.11-.02-.04,0-.07,0-.1.01-.03,0-.06.02-.09.04-.02.02-.05.04-.06.07-.02.03-.02.06-.02.1,0,.03,0,.05.01.07,0,.02.02.04.04.05.02.01.03.02.05.03s.04.01.06.02l.27.07s.08.02.11.04c.03.02.06.03.09.06.03.02.05.05.06.08s.02.07.02.12c0,.01,0,.03,0,.05s0,.04-.02.07c-.01.02-.02.05-.04.07-.02.02-.04.04-.07.06-.03.02-.07.03-.12.05s-.1.02-.17.02-.12,0-.18-.02-.1-.04-.14-.07c-.04-.03-.07-.07-.09-.12s-.03-.11-.03-.17h.1c0,.06,0,.1.03.14Z"/>
          <path class="cls-1" d="M15.65,8.5v.08h-.16v.54s0,.06.01.07.03.03.07.03c.03,0,.06,0,.08,0v.08s-.03,0-.04,0-.03,0-.04,0c-.07,0-.11-.01-.14-.04-.03-.03-.04-.07-.04-.14v-.54h-.14v-.08h.14v-.24h.1v.24h.16Z"/>
          <path class="cls-1" d="M15.94,8.5v.19h0c.02-.06.06-.11.11-.15.05-.03.11-.05.19-.05v.1s-.08,0-.12.02c-.04.01-.07.03-.09.06s-.05.06-.06.09c-.01.04-.02.07-.02.12v.42h-.1v-.8h.09Z"/>
          <path class="cls-1" d="M16.45,9.03s.03.07.05.1c.02.03.05.05.08.07.03.02.07.03.12.03.07,0,.13-.02.17-.06.04-.04.07-.09.08-.15h.1c-.02.09-.06.16-.11.21s-.13.07-.23.07c-.06,0-.12-.01-.16-.03-.05-.02-.08-.05-.11-.09-.03-.04-.05-.08-.06-.13-.01-.05-.02-.1-.02-.16,0-.05,0-.1.02-.15s.04-.1.06-.13c.03-.04.07-.07.11-.1.05-.02.1-.04.16-.04s.12.01.16.04.08.06.11.1c.03.04.05.09.06.14.01.05.02.11.02.16h-.61s0,.07.01.11ZM16.93,8.73s-.03-.06-.05-.09c-.02-.03-.05-.05-.08-.06-.03-.02-.07-.02-.11-.02s-.08,0-.11.02c-.03.02-.06.04-.08.06-.02.03-.04.06-.05.09s-.02.07-.03.11h.51s0-.07-.02-.11Z"/>
          <path class="cls-1" d="M17.31,9.03s.03.07.05.1c.02.03.05.05.08.07.03.02.07.03.12.03.07,0,.13-.02.17-.06.04-.04.07-.09.08-.15h.1c-.02.09-.06.16-.11.21s-.13.07-.23.07c-.06,0-.12-.01-.16-.03-.05-.02-.08-.05-.11-.09-.03-.04-.05-.08-.06-.13-.01-.05-.02-.1-.02-.16,0-.05,0-.1.02-.15s.04-.1.06-.13c.03-.04.07-.07.11-.1.05-.02.1-.04.16-.04s.12.01.16.04.08.06.11.1c.03.04.05.09.06.14.01.05.02.11.02.16h-.61s0,.07.01.11ZM17.79,8.73s-.03-.06-.05-.09c-.02-.03-.05-.05-.08-.06-.03-.02-.07-.02-.11-.02s-.08,0-.11.02c-.03.02-.06.04-.08.06-.02.03-.04.06-.05.09s-.02.07-.03.11h.51s0-.07-.02-.11Z"/>
          <path class="cls-1" d="M18.41,8.5v.08h-.16v.54s0,.06.01.07.03.03.07.03c.03,0,.06,0,.08,0v.08s-.03,0-.04,0-.03,0-.04,0c-.07,0-.11-.01-.14-.04-.03-.03-.04-.07-.04-.14v-.54h-.14v-.08h.14v-.24h.1v.24h.16Z"/>
          <path class="cls-1" d="M19.61,8.19s.09,0,.13.02c.04.01.07.03.1.06s.05.06.07.1c.02.04.02.08.02.13s0,.09-.02.13c-.02.04-.04.07-.07.1-.03.03-.06.05-.1.06s-.08.02-.13.02h-.38v.47h-.11v-1.1h.49ZM19.59,8.73c.07,0,.13-.02.18-.06.05-.04.07-.09.07-.17s-.02-.13-.07-.17-.1-.06-.18-.06h-.36v.45h.36Z"/>
          <path class="cls-1" d="M20.24,8.19v.44h0s.05-.09.1-.12c.05-.03.1-.04.16-.04s.1,0,.14.02.07.03.09.06.04.06.05.1c0,.04.01.08.01.13v.51h-.1v-.5s0-.07,0-.09-.02-.05-.03-.08c-.02-.02-.04-.04-.06-.05-.03-.01-.06-.02-.1-.02s-.07,0-.1.02c-.03.01-.06.03-.08.06-.02.02-.04.05-.05.09-.01.03-.02.07-.02.11v.46h-.1v-1.1h.1Z"/>
          <path class="cls-1" d="M21.53,8.51s.09.05.12.09.06.08.07.13c.02.05.02.1.02.16s0,.11-.02.16c-.02.05-.04.1-.07.13s-.07.07-.12.09c-.05.02-.1.03-.16.03s-.11-.01-.16-.03c-.05-.02-.09-.05-.12-.09s-.06-.08-.07-.13c-.02-.05-.02-.11-.02-.16s0-.11.02-.16c.02-.05.04-.1.07-.13s.07-.07.12-.09c.05-.02.1-.03.16-.03s.11.01.16.03ZM21.24,8.59s-.06.05-.09.08-.04.07-.05.11-.02.08-.02.12,0,.08.02.12.03.08.05.11.05.06.09.08c.03.02.08.03.12.03s.09-.01.12-.03c.03-.02.06-.05.09-.08s.04-.07.05-.11.02-.08.02-.12,0-.08-.02-.12-.03-.08-.05-.11-.05-.06-.09-.08c-.04-.02-.08-.03-.12-.03s-.09,0-.12.03Z"/>
          <path class="cls-1" d="M22.26,8.5v.08h-.16v.54s0,.06.01.07.03.03.07.03c.03,0,.06,0,.08,0v.08s-.03,0-.04,0-.03,0-.04,0c-.07,0-.11-.01-.14-.04-.03-.03-.04-.07-.04-.14v-.54h-.14v-.08h.14v-.24h.1v.24h.16Z"/>
          <path class="cls-1" d="M22.96,8.51s.09.05.12.09.06.08.07.13c.02.05.02.1.02.16s0,.11-.02.16c-.02.05-.04.1-.07.13s-.07.07-.12.09c-.05.02-.1.03-.16.03s-.11-.01-.16-.03c-.05-.02-.09-.05-.12-.09s-.06-.08-.07-.13c-.02-.05-.02-.11-.02-.16s0-.11.02-.16c.02-.05.04-.1.07-.13s.07-.07.12-.09c.05-.02.1-.03.16-.03s.11.01.16.03ZM22.68,8.59s-.06.05-.09.08-.04.07-.05.11-.02.08-.02.12,0,.08.02.12.03.08.05.11.05.06.09.08c.03.02.08.03.12.03s.09-.01.12-.03c.03-.02.06-.05.09-.08s.04-.07.05-.11.02-.08.02-.12,0-.08-.02-.12-.03-.08-.05-.11-.05-.06-.09-.08c-.04-.02-.08-.03-.12-.03s-.09,0-.12.03Z"/>
          <path class="cls-1" d="M24.04,9.39s-.03.09-.06.12c-.03.03-.06.06-.11.08-.04.02-.1.03-.16.03-.04,0-.08,0-.12-.01-.04,0-.07-.02-.1-.04-.03-.02-.06-.04-.08-.08-.02-.03-.03-.07-.03-.11h.1s.02.05.03.08c.01.02.03.04.05.05.02.01.04.02.07.03s.05,0,.08,0c.09,0,.16-.03.2-.08.04-.05.06-.13.06-.22v-.11h0s-.06.09-.1.12c-.04.03-.09.04-.15.04-.06,0-.12-.01-.16-.03-.05-.02-.08-.05-.11-.09s-.05-.08-.06-.13-.02-.1-.02-.16,0-.11.02-.15c.02-.05.04-.09.07-.13.03-.04.07-.07.11-.09.04-.02.1-.03.15-.03.03,0,.06,0,.08.01s.05.02.07.03c.02.02.04.03.06.05s.03.04.04.06h0v-.14h.1v.73c0,.06,0,.11-.02.16ZM23.81,9.18s.06-.04.08-.07c.02-.03.04-.06.05-.1s.02-.08.02-.12,0-.08-.01-.12c0-.04-.02-.07-.04-.11s-.05-.06-.08-.08-.07-.03-.12-.03-.09,0-.12.03c-.03.02-.06.04-.08.08-.02.03-.04.07-.05.11,0,.04-.01.08-.01.12s0,.08.02.12c.01.04.03.07.05.1.02.03.05.05.08.07.03.02.07.03.12.03.04,0,.08,0,.11-.03Z"/>
          <path class="cls-1" d="M24.39,8.5v.19h0c.02-.06.06-.11.11-.15.05-.03.11-.05.19-.05v.1s-.08,0-.12.02c-.04.01-.07.03-.09.06s-.05.06-.06.09c-.01.04-.02.07-.02.12v.42h-.1v-.8h.09Z"/>
          <path class="cls-1" d="M24.87,8.62s.04-.06.07-.08c.03-.02.06-.04.1-.05.04-.01.08-.02.13-.02.03,0,.07,0,.11.01.03,0,.07.02.09.04.03.02.05.04.07.08.02.03.03.08.03.13v.42s.02.06.06.06c.01,0,.02,0,.03,0v.08s-.02,0-.03,0c0,0-.02,0-.03,0-.02,0-.04,0-.06-.01s-.03-.02-.03-.03c0-.01-.01-.03-.02-.04,0-.02,0-.04,0-.06h0s-.04.05-.05.07-.04.04-.06.05-.05.02-.08.03c-.03,0-.06.01-.1.01-.04,0-.07,0-.1-.01s-.06-.02-.08-.04c-.02-.02-.04-.04-.06-.07s-.02-.06-.02-.1c0-.06.01-.1.04-.13.02-.03.06-.06.1-.07.04-.02.09-.03.14-.03.05,0,.1-.01.15-.02.02,0,.04,0,.05,0,.02,0,.03,0,.04-.02.01,0,.02-.02.02-.03,0-.01,0-.03,0-.05,0-.03,0-.06-.02-.08s-.03-.04-.04-.05c-.02-.01-.04-.02-.07-.03-.03,0-.05,0-.08,0-.06,0-.11.01-.15.04-.04.03-.06.08-.06.14h-.1s.01-.09.03-.12ZM25.36,8.86s-.02.02-.04.02-.03,0-.05.01c-.04,0-.08.01-.13.02s-.08.01-.12.03c-.04.01-.07.03-.09.05-.02.02-.03.05-.03.09,0,.02,0,.05.01.07.01.02.02.04.04.05.02.01.04.02.06.03.02,0,.04.01.07.01.04,0,.07,0,.11-.02s.06-.03.09-.05c.03-.02.05-.05.06-.08.01-.03.02-.07.02-.11v-.13h0Z"/>
          <path class="cls-1" d="M25.8,8.5v.15h0c.02-.06.06-.1.11-.13.05-.03.11-.05.17-.05.06,0,.11.01.16.03.04.02.08.05.11.09.03.04.05.08.07.13s.02.1.02.16,0,.11-.02.16c-.01.05-.04.1-.07.13-.03.04-.07.07-.11.09-.04.02-.1.03-.16.03-.03,0-.06,0-.09-.01-.03,0-.06-.02-.08-.03-.02-.01-.05-.03-.07-.05-.02-.02-.03-.05-.04-.08h0v.44h-.1v-1.09h.09ZM26.33,8.77s-.03-.08-.05-.11-.05-.06-.08-.08c-.03-.02-.07-.03-.12-.03-.05,0-.1,0-.13.03-.04.02-.07.04-.09.07-.02.03-.04.07-.05.11,0,.04-.01.08-.01.13,0,.04,0,.08.01.12.01.04.03.08.05.11.02.03.05.06.09.08.04.02.08.03.13.03.05,0,.09-.01.12-.03.03-.02.06-.05.08-.08s.04-.07.05-.11c0-.04.01-.08.01-.12s0-.08-.01-.12Z"/>
          <path class="cls-1" d="M26.75,8.19v.44h0s.05-.09.1-.12c.05-.03.1-.04.16-.04s.1,0,.14.02.07.03.09.06.04.06.05.1c0,.04.01.08.01.13v.51h-.1v-.5s0-.07,0-.09-.02-.05-.03-.08c-.02-.02-.04-.04-.06-.05-.03-.01-.06-.02-.1-.02s-.07,0-.1.02c-.03.01-.06.03-.08.06-.02.02-.04.05-.05.09-.01.03-.02.07-.02.11v.46h-.1v-1.1h.1Z"/>
          <path class="cls-1" d="M27.56,8.5l.26.68.24-.68h.1l-.35.92s-.03.06-.04.08c-.01.02-.03.04-.04.05-.01.01-.03.02-.05.03s-.05,0-.08,0c-.02,0-.03,0-.05,0-.01,0-.02,0-.03,0v-.08s.02,0,.03,0c.01,0,.02,0,.03,0,.02,0,.04,0,.05,0s.03-.01.04-.03c.01-.01.02-.02.03-.04,0-.02.01-.03.02-.05l.03-.09-.32-.79h.1Z"/>
          <path class="cls-1" d="M29.59,8.41s-.05-.06-.08-.08c-.03-.02-.06-.04-.1-.05-.04-.01-.07-.02-.11-.02-.07,0-.14.01-.19.04-.05.03-.1.06-.13.11-.03.05-.06.1-.07.15-.02.06-.02.12-.02.18s0,.12.02.18c.02.06.04.11.07.16.03.05.08.08.13.11.05.03.12.04.19.04.05,0,.1,0,.14-.03.04-.02.08-.04.11-.08s.05-.07.07-.11.03-.09.04-.14h.11c0,.07-.02.13-.05.18-.02.05-.06.1-.1.14-.04.04-.09.07-.14.09-.05.02-.11.03-.18.03-.09,0-.16-.02-.23-.05-.07-.03-.12-.07-.16-.13s-.08-.11-.1-.18c-.02-.07-.03-.14-.03-.22s.01-.15.03-.22c.02-.07.05-.13.1-.18.04-.05.1-.1.16-.13.07-.03.14-.05.23-.05.05,0,.1,0,.15.02.05.02.1.04.14.07.04.03.07.07.1.11.03.04.04.1.05.15h-.1s-.02-.08-.05-.11Z"/>
          <path class="cls-1" d="M30.06,8.19v1.1h-.1v-1.1h.1Z"/>
          <path class="cls-1" d="M30.86,9.29v-.14h0c-.03.05-.06.09-.11.12-.05.03-.1.04-.16.04-.05,0-.09,0-.13-.02s-.06-.03-.09-.06-.04-.06-.05-.09c-.01-.04-.02-.08-.02-.13v-.52h.1v.52c0,.07.02.13.05.16.03.04.09.06.16.06.04,0,.08,0,.11-.03s.05-.04.07-.07c.02-.03.03-.06.04-.1,0-.04.01-.08.01-.12v-.42h.1v.8h-.09Z"/>
          <path class="cls-1" d="M31.3,8.19v.46h0s.02-.05.04-.08c.02-.02.04-.04.07-.05.02-.01.05-.03.08-.03.03,0,.06-.01.09-.01.06,0,.11.01.16.03.04.02.08.05.11.09.03.04.05.08.07.13s.02.1.02.16,0,.11-.02.16c-.01.05-.04.1-.07.13-.03.04-.07.07-.11.09-.04.02-.1.03-.16.03-.06,0-.12-.01-.17-.04-.05-.03-.09-.07-.11-.13h0v.15h-.09v-1.1h.1ZM31.82,8.77s-.03-.08-.05-.11-.05-.06-.08-.08c-.03-.02-.07-.03-.12-.03-.05,0-.09.01-.13.03-.04.02-.06.05-.09.08-.02.03-.04.07-.05.11,0,.04-.01.08-.01.12s0,.08.01.12c.01.04.03.08.05.11.02.03.05.06.09.08.04.02.08.03.13.03.05,0,.09-.01.12-.03.03-.02.06-.05.08-.08s.04-.07.05-.11c0-.04.01-.08.01-.12s0-.08-.01-.12Z"/>
        </g>
      </g>
      <g>
        <path class="cls-1" d="M6.84,4.09c-.06-.06-.14-.11-.23-.14-.08-.03-.17-.05-.26-.05s-.18.02-.26.06c-.08.03-.17.07-.23.13-.06.06-.12.14-.15.22-.03.08-.03.17-.03.27s0,.18.04.26c.03.08.09.16.15.22.06.06.13.12.22.15.08.03.17.06.26.06s.18-.02.26-.06c.08-.03.16-.09.22-.15.06-.06.11-.14.15-.22.03-.08.05-.17.05-.26s-.03-.18-.06-.26c-.03-.08-.07-.17-.13-.23Z"/>
        <path class="cls-1" d="M10.04,8.59c-.16,0-.32-.02-.48-.04-.24-.02-.49-.04-.73-.03-.13,0-.26.01-.39.02.02-.05.02-.12-.04-.16-.1-.08-.17-.11-.23-.16-.07-.05-.14-.1-.26-.2-.05-.04-.06-.1-.03-.15.12-.19.11-.2.24-.39.13-.19.11-.2.23-.39.13-.19.16-.17.29-.36.02-.03-.02-.07-.03-.1-.05-.17-.08-.25-.11-.34-.02-.08-.04-.15-.09-.29-.03-.1.06-.21.17-.18.11.02.17.04.23.06.07.02.14.03.27.06.14.03.2.05.27.06.06.01.11.02.21.04.13.02.22-.12.14-.22-.05-.08-.09-.12-.12-.16-.04-.05-.07-.11-.15-.22s-.1-.17-.13-.23c-.03-.06-.06-.11-.12-.21-.03-.05-.02-.12.03-.16.09-.07.15-.1.2-.13.06-.04.12-.07.23-.15.11-.08.16-.13.21-.17.05-.04.1-.06.18-.12.09-.06.08-.2-.03-.24-.19-.07-.2-.09-.41-.17-.23-.09-.22-.1-.45-.18-.23-.09-.23-.07-.47-.16-.05-.02-.09-.08-.09-.13,0-.2,0-.22,0-.44,0-.22.02-.24.02-.44,0-.1-.1-.17-.19-.14-.2.06-.2.09-.42.15-.23.07-.24.04-.47.11-.22.07-.23.07-.42.13-.07.02-.15,0-.2-.05-.1-.1-.11-.13-.24-.26-.16-.15-.17-.14-.33-.29-.15-.14-.15-.16-.29-.29-.06-.05-.14-.05-.18.01-.12.16-.12.17-.25.33-.13.17-.14.16-.27.33-.12.16-.13.17-.24.32-.03.04-.08.06-.13.05-.23-.05-.24-.02-.47-.07-.24-.05-.23-.05-.47-.11-.21-.05-.23-.08-.4-.12-.11-.03-.2.08-.16.18.06.15.04.17.11.33.07.17.1.17.16.31.03.07,0,.14-.08.16-.21.05-.21.07-.43.12-.22.05-.23.04-.45.09-.2.05-.22.07-.39.11-.12.03-.15.19-.04.26.15.1.18.09.36.21.2.13.19.16.39.29.2.13.2.13.39.26.05.04.07.11.03.16-.07.1-.11.15-.15.2-.04.06-.08.11-.16.22-.08.11-.12.17-.16.22-.03.04-.06.09-.12.16-.08.11.03.25.15.21.09-.03.14-.04.19-.06.07-.03.13-.06.26-.1.13-.04.2-.05.27-.07.05-.01.11-.02.19-.04.06-.01.12,0,.17.03.09.07.15.09.21.12.05.03.1.07.19.14.08.06.07.18,0,.23-.17.11-.19.1-.37.22-.2.13-.19.13-.39.27-.18.12-.19.14-.35.25-.07.05-.08.14,0,.2.15.13.14.15.31.29.17.14.19.12.37.26.17.14.16.15.34.3.15.12.16.15.27.24.09.08.24,0,.21-.13-.03-.12-.04-.19-.06-.26-.02-.07-.03-.15-.06-.28-.02-.07.03-.14.09-.17.11-.04.16-.06.22-.08.06-.02.12-.04.24-.08.12-.04.17-.08.23-.11.06-.03.11-.06.23-.1s.18-.06.24-.07c.06-.02.11-.04.22-.08.05-.02.08-.06.08-.11,0-.17.01-.25.02-.33,0-.08,0-.16.01-.3,0-.05.03-.07.07-.04.12.07.18.12.25.16.07.04.15.07.28.15.05.03.08.1.06.15-.07.21-.08.21-.16.43-.08.23-.08.23-.16.45-.08.23-.05.23-.13.46-.07.21-.08.22-.15.42,0,.03-.01.05,0,.07,0,0-.01,0-.02,0-.15,0-.31.01-.47,0-.16-.01-.32-.05-.48-.06-.17-.01-.33,0-.5,0-.16,0-.32.03-.48.04-.16,0-.32,0-.48.01-.32,0-.64.04-.96.03-.16,0-.32-.04-.48-.05-.08,0-.16,0-.25,0-.03,0-.06.03-.06.07,0,.04.03.08.06.08.08,0,.16,0,.24.02.16.02.32.07.48.08.24.03.49.02.73.02.24,0,.48,0,.73,0,.16,0,.32-.03.48-.03.08,0,.16,0,.24,0,.16,0,.31.01.46.04.08.01.17.03.25.03.17.01.33.01.5,0,.16-.01.32-.05.48-.06.08,0,.15,0,.23,0,.16,0,.31,0,.47.03.16.02.33.03.5.03.16,0,.33-.01.49-.03.16-.02.31-.03.47-.03.24-.01.48,0,.72,0,.08,0,.16,0,.24,0,.03,0,.06-.03.06-.07,0-.04-.03-.08-.06-.08ZM7.72,5.05c-.12.1-.28.17-.42.25-.14.07-.3.12-.46.15-.15.04-.32.06-.48.06s-.33-.02-.48-.05c-.16-.04-.3-.12-.44-.19-.14-.07-.29-.14-.42-.24-.12-.1-.24-.21-.34-.34-.04-.05-.04-.16,0-.21.1-.13.22-.24.34-.35.12-.1.26-.19.41-.27.14-.07.31-.1.46-.14.15-.04.31-.01.48-.01s.32,0,.47.03c.16.04.32.06.46.13.14.07.29.15.41.25.12.1.24.22.34.34.04.05,0,.13-.04.18-.1.13-.16.3-.28.4Z"/>
        <g>
          <path class="cls-1" d="M.21,4.77s0,.03,0,.05,0,.02,0,.05c0,.02,0,.05.02.06.01.01.03.03.06.04.02,0,.04,0,.06.02.02,0,.04.01.06.02.02,0,.04.02.06.02s.04.03.06.04.04.01.06.02.04.02.06.03c.02.01.03.03.05.05s.03.03.04.05.02.04.03.06c0,.02,0,.04,0,.07,0,.04,0,.04-.01.08s.03.05,0,.08c-.02.02-.03,0-.06,0s-.03,0-.06,0-.04.01-.06,0c-.02-.02,0-.02,0-.05s0-.03,0-.05c0-.02,0-.04-.02-.06-.01-.01-.03-.03-.05-.04-.02,0-.04-.01-.06-.02-.02,0-.04-.02-.06-.03-.02,0-.04-.02-.06-.02s-.04,0-.06-.02-.04-.02-.06-.03-.03-.03-.05-.04c-.02-.01-.04-.02-.05-.04s-.03-.03-.04-.05-.02-.04-.02-.06c0-.02,0-.04,0-.07,0-.04.01-.04.02-.08s-.02-.05,0-.08c.02-.02.03,0,.06,0s.03,0,.06,0c.03,0,.04-.02.06,0Z"/>
          <path class="cls-1" d="M.29,4.43s-.02.02-.02.05,0,.03,0,.06-.02.02-.02.05.01.04-.01.05c-.03.01-.03,0-.06,0s-.03-.02-.06-.03-.05.02-.06-.01,0-.03.01-.06.01-.03.02-.06.01-.03.02-.06,0-.03,0-.07,0-.03.02-.06,0-.03.02-.06,0-.03.01-.06.02-.03.03-.06,0-.03.02-.06-.02-.05,0-.07.03,0,.06.01.03.02.06.02.05-.02.07,0c.02.02-.02.03-.02.06s0,.03-.01.05,0,.03,0,.06-.04.03-.02.06c.02.03.04,0,.07.01s.03,0,.06.01.03.01.06.02.03.02.06.02.03,0,.07,0,.03.02.06.02.03,0,.06.02.03.01.06.02.04-.01.06.01,0,.03-.01.06,0,.03-.01.07.02.05-.01.07-.04,0-.07-.01-.03-.02-.06-.03-.03,0-.06-.01-.03-.02-.06-.02-.03,0-.06-.01-.03-.01-.06-.02-.03,0-.06-.01-.03,0-.06-.02-.03-.02-.06,0Z"/>
          <path class="cls-1" d="M.27,3.78s.01-.02.02-.05.01-.03.03-.05.01-.03.02-.05,0-.03.02-.06.01-.03.03-.05c0-.02.01-.04.02-.06.01-.02.02-.03.04-.05.01-.02.02-.04.03-.05.02-.01.03-.03.05-.04.02-.01.04-.02.06-.02s.04,0,.06,0,.04,0,.06,0c.02,0,.04.01.06.02.02,0,.03.03.05.04.02.01.03.02.05.04s.04.03.05.04,0,.04.01.06.01.05.01.07c.03,0,.03-.01.06-.02s.03,0,.06,0,.03-.02.06-.03.03,0,.06-.01.03-.02.05,0c.02.02,0,.02-.01.05s-.02.02-.03.05-.01.03-.02.05,0,.04-.01.06c-.03.02-.04,0-.07,0s-.03.01-.07.02-.03,0-.07,0-.03.02-.06.03-.03,0-.07.01-.05-.03-.06,0,.02.01.05.03.04,0,.07.02.02.03.06.04.04,0,.07.02.04,0,.05.04,0,.03-.02.06-.01.03-.03.06,0,.04-.03.06-.03-.02-.06-.03-.03,0-.06-.02-.03,0-.06-.02-.02-.03-.05-.04-.03,0-.06-.02-.03,0-.06-.02-.03-.02-.06-.04-.03-.02-.06-.03-.04,0-.07-.01-.03-.02-.06-.03-.03-.02-.06-.03-.04,0-.06-.03ZM.52,3.68s.03.02.07.03.03.02.06.03.03.04.07.03c.03,0,.01-.03.02-.05s.01-.02.02-.05c0-.02.01-.04.01-.06,0-.02,0-.05-.01-.06s-.03-.02-.05-.03c-.02,0-.04-.01-.05,0s-.03,0-.05.02c-.01.01-.02.03-.03.05-.01.02,0,.03-.02.05-.02.02-.04.02-.03.05Z"/>
          <path class="cls-1" d="M.62,3.04s.01-.03.03-.06.02-.03.04-.06.03-.02.05-.05.02-.03.03-.06,0-.03.03-.06.02-.03.04-.06.02-.03.04-.06,0-.04.04-.05.02.02.05.04.03.01.06.03.05,0,.06.03-.03.03-.05.06-.01.03-.03.06-.02.02-.04.05-.02.03-.04.06-.04.02-.03.06.03.02.05.04.03.05.06.04.01-.04.03-.06.02-.03.04-.06.03-.02.05-.05.02-.03.03-.06,0-.05.03-.06.03,0,.06.03.03.02.05.03.04.01.05.04-.02.03-.04.05-.02.03-.03.06-.01.03-.03.06-.02.02-.04.05-.05.03-.04.06c.01.04.03.04.07.03.03,0,.03-.02.04-.04s.01-.03.03-.06.02-.03.04-.05,0-.03.03-.06,0-.05.03-.06.03.03.05.04.03.01.06.03.05,0,.05.03c0,.03-.02.03-.04.05s-.01.03-.03.06-.02.02-.04.05-.02.03-.04.06-.01.03-.03.06-.02.02-.04.05-.01.03-.03.06,0,.05-.03.06-.03-.02-.06-.03-.02-.03-.05-.04-.04,0-.06-.02-.03-.02-.05-.04-.02-.03-.05-.04-.03-.01-.06-.03-.02-.03-.05-.04-.03-.01-.06-.03-.02-.02-.05-.04-.03-.02-.05-.04-.03-.02-.06-.03c-.03-.01-.05,0-.06-.03Z"/>
          <path class="cls-1" d="M1.03,2.42s.02-.02.04-.05.01-.03.04-.06.02-.02.04-.05.02-.02.05-.05.02-.03.04-.05.02-.03.04-.05.02-.02.04-.05.01-.04.04-.04.02.02.04.04.03.02.05.04.04,0,.05.04-.01.03-.04.05-.02.03-.04.05-.03.02-.05.04-.02.03-.04.05-.05.02-.04.05.04.01.06.04.01.05.05.04.02-.02.04-.05.03-.02.05-.05.01-.03.03-.06.03-.02.05-.04,0-.04.04-.04.02.02.04.04.03,0,.06.03.04.02.05.05-.02.03-.04.06-.03.02-.05.04-.02.03-.04.05-.02.02-.04.05-.03.02-.03.06c0,.04.01.05.05.05.03,0,.02-.02.05-.05s.02-.02.04-.05.02-.03.04-.05.01-.03.03-.06.01-.04.05-.04.02.02.04.04.02.02.05.04.05,0,.05.04c0,.03-.02.03-.04.05s-.02.03-.04.06-.03.02-.05.04-.02.03-.04.05-.01.03-.04.06-.02.02-.04.05-.03.02-.05.04,0,.04-.04.05-.02-.01-.05-.04-.02-.02-.05-.04-.02-.03-.05-.05-.03-.02-.05-.04-.02-.02-.05-.04-.03-.02-.05-.04-.03-.02-.05-.04-.02-.02-.05-.04-.03-.01-.06-.03-.02-.03-.04-.05-.03-.02-.05-.03-.04-.02-.04-.05Z"/>
          <path class="cls-1" d="M1.78,1.88s-.02.02-.04.04-.03.01-.05.03-.02.02-.04.04-.02.04-.04.04c-.03,0-.03-.03-.05-.05s-.02-.03-.04-.05-.05-.02-.05-.05.03-.02.05-.05.03-.02.05-.04.02-.03.04-.05.02-.02.05-.04.02-.02.05-.04.03-.02.05-.04.02-.03.04-.05.03-.01.06-.03.02-.02.05-.05.01-.05.05-.05.03.02.05.04.01.03.04.05.05.01.05.04c0,.03-.02.02-.04.04s-.02.01-.05.03-.02.02-.04.04-.05,0-.04.04c0,.03.02.03.04.05s.03.02.05.05.02.02.05.05.02.03.04.05.02.02.04.05.03.02.05.04.02.03.04.05.03.02.05.05.04.02.04.05-.03.02-.06.04-.02.03-.04.05-.02.03-.05.03-.02-.01-.05-.04-.02-.03-.04-.05-.03-.02-.05-.04-.02-.03-.04-.05-.02-.03-.04-.05-.03-.02-.05-.04-.02-.03-.04-.06-.03-.02-.04-.05c-.02-.03-.01-.04-.05-.05Z"/>
          <path class="cls-1" d="M2.4,1.13s.02-.02.05-.04.02-.02.05-.04.03-.01.06-.03.03,0,.06-.02.02-.02.05-.04c.02-.01.04-.02.06-.03.02,0,.04-.02.06-.02.02,0,.04-.01.06-.01.02,0,.04,0,.06,0s.04,0,.06.01.04.02.06.03.03.03.04.05c.01.02.02.03.03.05.01.02.02.04.03.06,0,.02.02.04.03.06s0,.04,0,.06,0,.04,0,.07-.02.04-.03.06c-.01.02-.03.03-.05.05-.01.01-.02.04-.04.05-.02.01-.04.02-.06.03-.02.01-.02.02-.04.04s-.05,0-.05.02c0,.03,0,.03.02.05s.03.02.04.04.04.03.03.06c-.01.03-.03.02-.06.03s-.03,0-.06.03-.02.05-.05.04-.02-.02-.04-.05,0-.03-.02-.06-.02-.02-.04-.05-.02-.03-.04-.05,0-.03-.02-.06-.02-.02-.04-.05-.01-.03-.03-.06-.02-.03-.04-.05-.02-.03-.04-.05-.01-.03-.03-.06-.01-.03-.03-.06-.04-.02-.03-.06ZM2.66,1.19s.02.02.04.05.02.02.03.05,0,.03.02.05,0,.05.03.06.03-.02.05-.04.03-.01.05-.03c.02-.01.04-.03.05-.04.01-.02.02-.04.02-.06s0-.04-.02-.06c-.01-.02-.03-.03-.05-.04s-.03-.01-.06-.01c-.02,0-.04,0-.06.01-.03.02-.02.02-.05.03-.03.01-.05,0-.05.04Z"/>
          <path class="cls-1" d="M3.12.71s.03,0,.06-.02.03-.01.06-.03.03-.04.06-.03c.03,0,.02.02.03.05s0,.03.02.06,0,.03.02.06,0,.05.03.06c.03.01.03-.02.06-.03s.03-.01.06-.03.03-.01.06-.03.05,0,.07-.03c.01-.03,0-.03-.02-.06s-.02-.02-.03-.05,0-.03-.02-.06-.04-.03-.02-.05c.01-.03.03,0,.06-.02s.03-.02.06-.04.03-.04.06-.03.01.03.03.06.01.03.03.06.01.03.02.06.02.03.03.06.02.03.03.06.02.03.03.06.01.03.02.06,0,.03.02.06.02.03.03.06,0,.03.02.06,0,.03.02.06.05.03.04.06-.04,0-.07.02-.03,0-.06.02-.03.05-.06.04-.01-.04-.03-.07-.02-.03-.03-.06,0-.04-.02-.07-.02-.03-.03-.06,0-.04-.03-.05-.03,0-.06.01-.03.02-.06.03-.03.02-.06.04-.05,0-.06.02,0,.03.02.06,0,.03.02.07.02.03.04.06.01.03.03.06.05.03.04.07-.04,0-.07.02-.02.03-.06.04-.03.03-.06.01,0-.03-.02-.06-.02-.03-.03-.06-.01-.03-.03-.06-.02-.03-.03-.06,0-.03-.02-.06-.02-.03-.03-.06-.02-.03-.03-.06-.02-.03-.03-.06,0-.04-.01-.07-.02-.03-.03-.06,0-.04-.02-.06-.04-.02-.02-.05Z"/>
          <path class="cls-1" d="M4.29.26s.04-.02.06-.02.04,0,.06,0,.04,0,.06,0,.04.02.06.02.04.02.06.03.04.02.06.03.03.03.04.05.03.03.04.05.02.04.03.05,0,.04.01.06c0,.02.02.04.02.06s0,.04,0,.06-.01.04-.02.06,0,.04,0,.06-.02.04-.03.06-.01.04-.03.06-.03.03-.04.05-.03.03-.05.04-.04.02-.06.03-.04.02-.06.02c-.02,0-.04.01-.06.01s-.04,0-.06,0-.04,0-.06,0-.04-.01-.06-.02-.04-.01-.06-.02-.03-.03-.05-.04-.03-.03-.04-.05-.03-.03-.04-.05-.02-.04-.03-.06-.01-.04-.02-.06c0-.02-.02-.04-.02-.06s0-.04,0-.06,0-.04,0-.06,0-.04,0-.06.01-.04.02-.06.02-.04.03-.05.04-.02.05-.04.03-.03.05-.04.04-.02.06-.03.04,0,.06-.01ZM4.45.84s.03-.02.05-.04c.02-.01.04-.02.05-.04s.01-.04.02-.06.01-.04.01-.06c0-.02,0-.04,0-.06,0-.02-.02-.04-.03-.05-.01-.02-.02-.04-.03-.05s-.03-.02-.05-.03-.04,0-.06,0c-.02,0-.04,0-.06,0s-.04.02-.05.03c-.02.01-.03.02-.04.04s-.03.03-.04.05,0,.04,0,.06c0,.02,0,.04,0,.06,0,.02.02.04.03.05.01.02.02.03.04.05s.03.03.05.03.04.02.06.02c.02,0,.04,0,.06,0Z"/>
          <path class="cls-1" d="M5.05.28s-.03,0-.06.01-.03,0-.06,0-.03.02-.05.02-.03.02-.06,0c-.02-.02,0-.03-.01-.06s0-.03,0-.06-.03-.04-.01-.06.03,0,.06-.01.03,0,.06-.01.03,0,.06-.01.03,0,.06,0,.03,0,.06,0,.03,0,.06,0,.03,0,.06-.01.03,0,.06-.01.03,0,.06,0,.04-.03.07,0,0,.03,0,.06.01.03.02.06.02.03,0,.06c-.02.02-.02,0-.05,0s-.03,0-.06,0-.03,0-.05.01-.03,0-.05.02c-.02.03,0,.03,0,.06s0,.03,0,.07,0,.03,0,.07.01.03.02.06,0,.03,0,.07,0,.03.01.07,0,.03,0,.07,0,.03.01.07.03.03.01.06-.03.02-.06.02-.04-.01-.07,0-.03.03-.06.01,0-.03-.01-.06,0-.03,0-.07,0-.03,0-.07-.02-.03-.02-.06.01-.03,0-.07-.01-.03-.02-.06,0-.03-.01-.07-.02-.03-.02-.07c0-.04.02-.05,0-.07Z"/>
          <path class="cls-1" d="M5.97,0s.04,0,.06,0,.04,0,.06.01.04.01.06.02.04.01.06.02.03.03.04.05.04.02.05.04.02.04.03.06,0,.04.01.06.02.04.02.06,0,.04,0,.06c0,.02.01.04,0,.06s0,.04-.01.06-.02.04-.03.06-.02.04-.03.06-.03.03-.04.05-.02.04-.04.05-.04.01-.06.02-.03.03-.05.03-.04,0-.06,0-.04,0-.06,0c-.02,0-.04.01-.06,0s-.04-.02-.06-.02-.04-.01-.06-.02-.04,0-.06-.02-.03-.03-.04-.05-.03-.03-.04-.05-.03-.03-.04-.05,0-.04-.01-.06-.01-.04-.02-.06-.02-.04-.02-.06.01-.04.01-.06,0-.04,0-.06.01-.04.02-.06.02-.04.03-.05.02-.04.03-.06.03-.03.05-.04.04-.02.06-.03.03-.03.05-.03.04,0,.06,0,.04,0,.06,0ZM5.98.61s.04,0,.06-.01c.02,0,.04-.02.05-.03s.03-.03.04-.05,0-.04.01-.06c0-.02.01-.04.01-.06,0-.02-.02-.04-.02-.06,0-.02-.01-.04-.02-.05s-.02-.04-.03-.05-.04-.02-.06-.02c-.02,0-.04-.01-.06-.01-.02,0-.04.02-.06.02-.02,0-.04.02-.05.03s-.03.02-.04.04-.02.04-.02.06c0,.02,0,.04,0,.06,0,.02.01.04.02.06,0,.02,0,.04.01.06s.03.03.05.04.03.03.05.04c.02,0,.04,0,.06,0Z"/>
          <path class="cls-1" d="M6.99.05s0,.03,0,.06-.01.03-.02.07.02.05,0,.07c-.03.02-.04,0-.08,0-.02,0-.04,0-.06,0-.02,0-.04.01-.05.02s-.03.02-.05.03-.02.03-.02.05-.02.03-.02.05c0,.02,0,.04,0,.06,0,.02.02.04.03.05s.02.03.03.05.03.03.05.03c.02,0,.04.01.06.02.03,0,.04.02.06,0,.03-.03.04-.04.01-.07s-.04-.01-.07-.01-.05.03-.08,0c-.02-.02.01-.03.01-.06s0-.03,0-.06-.02-.04,0-.06c.03-.02.03,0,.07.01s.03,0,.07,0,.03,0,.07,0,.03,0,.07,0,.04-.01.07.01,0,.03,0,.07,0,.03-.01.07,0,.03,0,.07,0,.03,0,.07-.01.03-.02.07.01.03,0,.07,0,.04-.02.06c-.02.02-.03,0-.06,0s-.03,0-.06,0-.03,0-.06,0-.03,0-.06,0c-.02,0-.04-.01-.06-.02s-.04-.01-.06-.02-.04,0-.06-.02-.03-.03-.04-.04-.03-.02-.05-.04-.02-.04-.03-.06-.03-.03-.04-.05,0-.04-.01-.06,0-.04,0-.06,0-.04,0-.06,0-.04.01-.06,0-.04.01-.06.03-.03.04-.05.02-.04.03-.05.03-.03.04-.04.03-.03.05-.04.04-.02.06-.03.04,0,.06-.01.04,0,.06-.01.04,0,.06,0c.04,0,.05-.01.08.02Z"/>
          <path class="cls-1" d="M7.34.09s.03.01.06.02.03.01.06.02.03,0,.06,0,.03.02.06.02.03,0,.06.01c.02,0,.04,0,.06.01.02,0,.04,0,.06.01.02,0,.03.03.05.04.02.01.04.02.05.03.01.02.02.03.03.05s.01.04.02.06.01.04,0,.06c0,.02-.02.04-.02.06,0,.02,0,.04-.01.06,0,.02-.01.04-.02.06s-.03.03-.05.04-.03.03-.05.03-.04.02-.07.02c0,.03.01.03.02.06s.02.02.03.05,0,.03.02.06.01.03.03.06.04.03.03.05c-.02.02-.03,0-.05,0s-.03,0-.05-.02-.03-.01-.05-.02-.04.01-.06,0c-.02-.02,0-.03-.02-.07s-.02-.03-.03-.06-.01-.03-.03-.06,0-.03-.02-.06-.02-.03-.03-.06,0-.07-.02-.06,0,.03-.01.07,0,.03-.01.07-.01.03-.02.06,0,.04,0,.07,0,.04-.02.06-.03,0-.06,0-.03,0-.07-.01-.05,0-.07-.02,0-.03.01-.07,0-.03,0-.07,0-.03.01-.06.01-.03.02-.06,0-.03.02-.06.01-.03.02-.06,0-.03,0-.07.02-.03.02-.06,0-.03,0-.07.01-.03.02-.06.02-.03.02-.06c0-.04-.02-.05,0-.07ZM7.5.32s-.01.03-.02.06-.01.03-.02.07-.01.03,0,.07c.01.02.02.01.04.02s.03,0,.05.01c.02,0,.04,0,.06,0,.02,0,.03-.02.05-.03s.03-.03.04-.05c0-.02,0-.04-.01-.06s-.02-.03-.03-.04c-.01,0-.03-.02-.05-.02-.03,0-.03,0-.05,0s-.03-.03-.05-.01Z"/>
          <path class="cls-1" d="M8.44.37s0,0,0,0c0,.03.01.03.01.06s0,.03,0,.06,0,.03.01.06,0,.03,0,.06,0,.03.01.06,0,.03,0,.06,0,.03,0,.06,0,.03,0,.06,0,.03,0,.06,0,.03,0,.06.02.03.02.06,0,.03,0,.06.01.03.02.06.02.04,0,.06c-.03.02-.03,0-.06-.01s-.03-.02-.06-.03-.04,0-.06-.02c-.02-.03,0-.04-.02-.07-.02-.03-.02-.02-.05-.03s-.03,0-.06-.02-.03-.02-.06-.03-.04-.03-.07-.02c-.04.01-.01.05-.05.07-.03.01-.03,0-.07-.02s-.03-.01-.07-.02-.06,0-.07-.03c0-.03.03-.02.05-.04s.02-.02.04-.05.02-.02.04-.04.02-.03.04-.05.02-.02.04-.05.03-.02.05-.04.02-.02.05-.04.02-.03.04-.05.02-.03.04-.05.03-.02.05-.04.02-.03.04-.05.02-.03.04-.05.03-.02.05-.04.02-.02.05-.04ZM8.33.9s0-.03,0-.06,0-.03,0-.06.03-.05,0-.06-.01.03-.03.05-.03.01-.05.03-.04.02-.03.05c0,.03.03,0,.06.02.03.02.04.04.06.03Z"/>
          <path class="cls-1" d="M8.94.56s.02.02.05.03.03,0,.06.02.03.02.05.03.03.02.05.03.03.02.05.03c.02,0,.04.02.05.03.02.01.04.02.05.03.02.02.03.03.04.05.01.02.02.03.03.05s.02.04.02.06.01.04.01.06-.01.04-.02.06c0,.02-.02.04-.03.06,0,.02-.02.04-.03.06-.01.02-.03.03-.04.05s-.03.03-.05.04-.04.01-.06.02-.04,0-.06,0c-.02,0-.04,0-.06,0-.02,0-.04,0-.06,0-.02,0-.03-.03-.05-.04-.02-.01-.02-.01-.05-.03s-.03-.03-.05-.02c-.03.01-.02.02-.03.05s0,.03-.02.06,0,.05-.02.06c-.03,0-.03-.02-.06-.03s-.03-.02-.06-.04-.05,0-.06-.02,0-.03.02-.06.03-.02.04-.05,0-.03.02-.06.01-.03.03-.06,0-.03.02-.06.02-.03.03-.06.03-.02.04-.05,0-.03.02-.06.02-.03.03-.06.01-.03.03-.06.01-.03.02-.06,0-.04.04-.05ZM9.03.82s-.02.03-.03.05,0,.03-.02.06-.02.02-.03.05-.04.03-.03.05.03.02.05.03.03.01.05.03c.02.01.04.01.06.01.02,0,.05,0,.06-.01s.03-.03.04-.05c0-.02.01-.04.01-.06s-.02-.04-.03-.05c-.01-.01-.02-.03-.05-.04-.03-.01-.03,0-.05-.03-.03-.02-.03-.04-.06-.03Z"/>
          <path class="cls-1" d="M9.67.94s.02.02.05.04.03.01.06.03.04,0,.05.04c0,.03,0,.03-.02.05s-.02.03-.04.05-.02.03-.04.05-.05.02-.04.05c0,.03.03.01.06.03s.03.02.05.04.03.02.06.04.02.04.06.04c.03,0,.02-.02.04-.05s.02-.03.03-.05.02-.02.04-.05,0-.05.03-.05c.03,0,.02.03.05.05s.03.01.06.03.06,0,.07.03-.04.02-.05.05-.02.03-.03.06-.02.03-.04.05-.01.03-.03.06-.02.03-.04.05,0,.04-.02.06-.02.02-.04.05-.01.03-.03.06-.03.02-.05.05-.01.03-.03.06-.02.03-.03.06-.01.04-.04.05-.03-.01-.06-.03-.03-.01-.06-.03-.03-.01-.04-.05.02-.02.04-.05.02-.03.04-.06.02-.03.04-.06.01-.03.03-.06.05-.02.04-.05-.03-.02-.06-.04-.03-.02-.06-.03-.03-.02-.06-.04-.02-.06-.06-.05,0,.04-.03.07-.04.02-.06.05,0,.04-.03.07-.03.02-.05.05,0,.05-.03.06-.03,0-.06-.03-.03-.02-.06-.04-.05-.01-.06-.04.03-.02.05-.05.02-.03.03-.06.02-.03.04-.05.02-.03.04-.05.01-.03.03-.06.01-.03.03-.06.02-.02.04-.05.01-.03.03-.06.02-.02.04-.05,0-.03.02-.06.04-.02.05-.05c.01-.03,0-.05.03-.06Z"/>
          <path class="cls-1" d="M10.55,1.59s-.01.03-.02.05,0,.03-.02.06,0,.03,0,.06-.02.02-.03.05-.03.04,0,.06.03,0,.06-.02.03-.01.05-.02.02-.02.05-.03.03-.01.05-.02.03-.02.06-.02.02.02.04.04.02.02.05.04.02.02.05.04.05.01.04.04c0,.03-.03.02-.05.03s-.03.01-.06.02-.03,0-.06,0-.03.02-.05.03-.03,0-.06.02-.03,0-.06.02-.03.01-.06.02-.03,0-.06.02-.03.01-.05.03c-.02.02-.02.02-.04.04s-.02.02-.04.05-.02.02-.04.04-.02.02-.04.04-.01.04-.04.04c-.03,0-.02-.02-.05-.05s-.03-.02-.05-.04-.04-.01-.04-.05c0-.03.02-.02.04-.04s.01-.03.03-.05.02-.02.04-.04.03-.01.05-.04.02-.02.03-.05c.01-.03,0-.03.02-.06s.01-.03.02-.06,0-.03,0-.06,0-.03.01-.06,0-.03.02-.06.02-.03.03-.06,0-.03.01-.06,0-.03.01-.06-.02-.06.01-.07c.03,0,.03.02.05.04s.01.03.03.05.02.02.05.04.04.01.04.04Z"/>
          <path class="cls-1" d="M11.56,2.72s-.03.02-.05.04-.03.01-.06.03-.02.05-.05.04c-.04,0-.02-.03-.05-.06-.01-.02-.02-.03-.04-.04-.02-.01-.03-.03-.05-.03s-.04,0-.06,0-.04,0-.06,0-.03.02-.05.03c-.02.01-.04.02-.05.03-.01.02-.02.03-.03.05s0,.04,0,.06,0,.04.01.06c0,.02.01.03.03.05.02.03.05.03.05.07,0,.03-.03.02-.06.04s-.03.02-.05.04-.02.04-.05.03c-.04,0-.03-.02-.05-.05-.01-.02-.02-.04-.03-.06s-.02-.04-.03-.05,0-.04,0-.06,0-.04,0-.06,0-.04,0-.06.02-.04.02-.06,0-.04.02-.06.02-.04.03-.05.04-.02.05-.04.02-.03.04-.05c.02-.01.03-.03.05-.04s.04-.02.06-.02.04,0,.06,0,.04-.01.06-.01.04,0,.06,0,.04,0,.06.02.04.02.06.03.04.02.05.03.03.03.04.05.03.03.04.04c.04.02.05.03.05.07Z"/>
          <path class="cls-1" d="M11.65,2.88s.02.03.03.06.01.03.03.06.05.03.04.06-.04,0-.06.03-.02.02-.05.04-.03.01-.06.03-.03.02-.06.03-.03.01-.06.03-.03.01-.06.03-.03.02-.06.04-.03.02-.06.04-.05,0-.06.03,0,.03.02.06.02.03.03.06.03.02.04.05.01.03.03.06.03.03.02.06-.03.01-.05.03-.03.01-.06.03-.02.04-.05.03-.01-.02-.03-.05-.01-.03-.03-.06-.02-.03-.04-.05-.02-.03-.03-.06-.01-.03-.03-.06-.03-.02-.04-.05,0-.03-.03-.06-.04-.03-.03-.06.03,0,.06-.02.03-.02.06-.03.03-.02.05-.04.03-.02.05-.04.03,0,.06-.02.02-.02.05-.04.03-.01.06-.03.03-.01.06-.03.03-.02.05-.04.03-.02.06-.03.04,0,.06-.03.02-.04.05-.03Z"/>
          <path class="cls-1" d="M12.15,3.95s.02.03.03.06,0,.03.01.07.03.03.02.06c-.01.03-.02.02-.05.03s-.03,0-.06.02-.03.01-.06.02-.03,0-.06.02-.03.01-.06.02-.03.02-.06.03-.03,0-.06.01c-.02,0-.04.02-.06.02-.02,0-.04,0-.06,0-.02,0-.04,0-.06,0-.02,0-.04,0-.06,0s-.04-.01-.06-.02-.04-.02-.05-.04-.02-.04-.04-.05-.03-.03-.04-.05c0-.02-.02-.04-.02-.06,0-.02-.01-.04-.02-.06,0-.02,0-.04,0-.06s-.01-.04,0-.06.02-.04.03-.06.01-.04.02-.06.03-.03.04-.05c.01-.01.03-.03.05-.04.02-.01.03-.03.05-.04.02,0,.04-.02.06-.03.03-.01.03,0,.06-.02s.03,0,.06-.02.03-.01.06-.02.03,0,.06-.01.03,0,.06-.02.03-.02.05-.03.03-.03.06-.01c.03.02,0,.03.02.06s.02.03.03.06.03.03.02.06c-.01.03-.03.01-.06.02s-.03.01-.06.03-.03,0-.06.02-.03,0-.06.02-.03,0-.06.01-.02.02-.05.03-.03,0-.06.01c-.02,0-.04.02-.06.03-.02.01-.03.03-.04.05-.01.02,0,.04-.01.06s-.01.04,0,.06c0,.02.02.04.03.05s.04.02.06.02c.02,0,.04,0,.06,0,.02,0,.04,0,.06,0,.03-.01.03-.02.05-.03s.03,0,.06-.01.03,0,.06-.02.03-.02.05-.03.03,0,.06,0,.02-.02.05-.03c.03-.02.04-.03.06-.02Z"/>
          <path class="cls-1" d="M12.27,4.37s0,.02.01.05,0,.03,0,.06,0,.03.01.06.01.03.02.06,0,.03,0,.06,0,.03,0,.06c0,.02.01.05.01.07,0,.02,0,.05,0,.07,0,.02-.01.04-.02.06,0,.02-.02.04-.03.06s-.04.03-.06.04c-.02,0-.04,0-.07.01-.02,0-.05.01-.07,0s-.05-.01-.07-.02c-.02-.01-.04-.02-.05-.04,0,.02-.02.04-.03.06-.02.02-.03.03-.05.04-.02,0-.04.01-.07.02-.02,0-.05,0-.07,0-.02,0-.05-.01-.07-.02s-.03-.03-.05-.05c-.01-.02-.04-.03-.05-.05,0-.02-.02-.04-.02-.06,0-.02-.02-.04-.02-.07,0-.03,0-.03,0-.07s0-.04,0-.07-.02-.03-.02-.07,0-.03-.01-.07-.03-.04-.01-.07.04,0,.07,0,.03,0,.07,0,.03-.01.06-.02.03-.01.06-.02.03,0,.07,0,.03-.01.06-.02.03,0,.06,0,.03,0,.07,0,.03,0,.06-.01.03,0,.06,0,.03,0,.06-.02.03-.02.06,0ZM11.84,4.64s-.03.01-.06.02-.05-.02-.06,0c-.02.03,0,.03.01.06s.01.03.02.06c0,.02.01.04.02.05.01.02.03.03.05.02.02,0,.03-.02.04-.03,0-.01,0-.03,0-.05,0,0,0,0,0,0,0,0-.01,0-.01,0,0-.03-.01-.03-.01-.06,0-.04.02-.05,0-.07ZM12.02,4.75s.02.04.03.05c.01.02.03.03.05.03.02,0,.04-.02.04-.04,0-.01,0-.03,0-.06,0-.03,0-.03-.01-.07s.02-.05,0-.07c-.02-.02-.03,0-.06.01s-.04-.02-.06,0c-.02.03,0,.03,0,.07s0,.03,0,.07Z"/>
          <path class="cls-1" d="M11.8,5.28s0,.04-.01.05c0,.02-.02.03-.03.04-.01,0-.03.01-.05.01s-.04,0-.05,0c-.02,0-.03-.02-.04-.03,0-.01-.01-.03-.01-.05,0-.02,0-.04,0-.05,0-.02.02-.03.04-.04.01,0,.03-.02.05-.02.02,0,.04,0,.05.01.02,0,.03.02.04.03,0,.01.02.03.02.05Z"/>
        </g>
        <g>
          <path class="cls-1" d="M4.41,9.57s.02,0,.05,0,.03,0,.05,0,.03-.01.05,0c.02.02,0,.02,0,.04s0,.02,0,.05.01.03,0,.05c-.02.02-.03,0-.05,0s-.03,0-.05,0-.03.02-.05,0c-.02-.02,0-.02,0-.04s0-.02,0-.05-.02-.03,0-.05ZM4.41,9.79s.02,0,.05,0,.03,0,.05,0,.03-.01.05,0c.02.02,0,.02,0,.05s0,.03,0,.06,0,.03,0,.06-.01.03-.01.06,0,.03,0,.06,0,.03,0,.06,0,.03,0,.06.02.03,0,.05c-.02.02-.02,0-.05,0s-.03,0-.05,0-.03.02-.05,0c-.02-.02,0-.03,0-.06s0-.03,0-.06,0-.03,0-.06,0-.03,0-.06,0-.03,0-.06,0-.03,0-.06,0-.03,0-.05-.01-.03,0-.05Z"/>
          <path class="cls-1" d="M4.77,10.23s-.02,0-.05,0-.03,0-.05,0-.03.01-.05,0c-.02-.02,0-.03,0-.05s0-.03,0-.06,0-.03,0-.06,0-.03,0-.06,0-.03,0-.06,0-.03,0-.06,0-.03,0-.06-.01-.03,0-.05c.02-.02.02,0,.04,0s.02,0,.05,0,.03-.01.05,0c.01.01-.02.03,0,.04.02,0,.02-.02.04-.03s.02,0,.04-.02c.02,0,.04,0,.05,0,.02,0,.03.02.05.03s.03.02.04.04.01.03.02.05c0,.02,0,.03,0,.05,0,.03,0,.03,0,.06s0,.03,0,.06,0,.03,0,.06,0,.03,0,.06.02.04,0,.06c-.02.02-.03,0-.05,0s-.03,0-.05,0-.03.02-.05,0c-.02-.02,0-.03,0-.05s0-.03,0-.05,0-.03,0-.05,0-.03,0-.05,0-.03,0-.05c0-.03-.01-.04-.04-.04s-.04.01-.04.04c0,.03,0,.03,0,.05s0,.03,0,.05,0,.03,0,.05,0,.03,0,.05.01.03,0,.05Z"/>
          <path class="cls-1" d="M5.25,9.61s.03,0,.05,0,.03,0,.05,0,.03-.01.05,0,0,.02,0,.05,0,.03,0,.05,0,.03,0,.05,0,.03,0,.05-.03.05,0,.06.02-.03.03-.05.01-.02.03-.05.01-.02.03-.04.02-.02.03-.04.01-.02.03-.05,0-.03.03-.05c.02-.01.03,0,.06,0s.03,0,.06,0,.04-.03.06,0c.01.02-.02.02-.04.04s-.01.02-.02.04,0,.02-.02.04-.01.02-.02.04-.01.02-.03.04-.02.02-.03.04-.03.02-.02.04c0,.03.01.03.03.05s.01.02.03.05.02.02.03.04.01.02.03.05.01.02.03.05,0,.03.02.05.05.02.04.05c-.02.02-.03,0-.06,0s-.03,0-.06,0-.03.01-.06,0c-.02-.01-.01-.02-.03-.05s-.02-.02-.03-.05-.02-.02-.03-.05-.01-.03-.02-.05-.01-.03-.03-.05,0-.05-.03-.04,0,.03,0,.05,0,.03,0,.06,0,.03,0,.06,0,.03,0,.06.02.03,0,.05c-.02.02-.02,0-.05,0s-.03,0-.05,0-.04.02-.06,0,0-.03,0-.05,0-.03,0-.05,0-.03,0-.05,0-.03,0-.05,0-.03,0-.05,0-.03,0-.05,0-.03,0-.05,0-.03,0-.05,0-.03,0-.05,0-.03,0-.05,0-.03,0-.05c0-.03-.02-.04,0-.05Z"/>
          <path class="cls-1" d="M6.03,9.61s.03,0,.05,0,.03.01.05.02.03,0,.05.02.03.01.04.02.03.02.04.03.02.03.03.04.02.03.02.04.02.03.02.04,0,.03,0,.05,0,.03,0,.05,0,.03,0,.05,0,.03,0,.05-.02.03-.02.04-.01.03-.02.05-.02.03-.03.04-.02.02-.04.03-.03.01-.04.02-.03.01-.05.02-.03.01-.05.01-.03,0-.05,0-.03,0-.05,0-.03,0-.05,0-.03-.02-.04-.02-.03-.02-.04-.03-.03-.01-.04-.03-.02-.03-.03-.04-.01-.03-.02-.04-.01-.03-.01-.05-.01-.03-.02-.05,0-.03,0-.05,0-.03,0-.05,0-.03,0-.05.01-.03.02-.05.02-.03.02-.04.02-.03.03-.04.02-.03.04-.04.03-.02.04-.03.03-.02.05-.02.03,0,.05,0,.03,0,.05,0ZM6.03,10.08s.03,0,.05-.01c.02,0,.03,0,.05-.02s.02-.03.03-.04.01-.03.02-.05c0-.02,0-.03,0-.05s0-.03,0-.05c0-.02-.01-.03-.02-.05s-.02-.02-.04-.03-.02-.02-.04-.03c-.01,0-.03,0-.05,0s-.03,0-.05,0c-.02,0-.03.02-.04.03s-.03.02-.04.03-.01.03-.01.05c0,.02,0,.03,0,.05s0,.03,0,.05c0,.02,0,.03.01.05s.02.03.03.04.03.02.04.02c.01,0,.03.01.05.01Z"/>
          <path class="cls-1" d="M6.4,9.61s.02,0,.05,0,.02,0,.05,0,.02-.01.05-.01.02,0,.05,0,.02,0,.05,0c.02,0,.04,0,.06,0,.02,0,.04.02.05.02.02,0,.04,0,.06.01.02,0,.03.02.04.04s.02.03.03.05.01.03.02.05c0,.02,0,.04,0,.05,0,.02,0,.03,0,.05,0,.02,0,.03-.02.05s-.02.03-.03.04-.02.03-.03.04-.03.02-.04.02c0,.02,0,.02.02.04s.01.02.03.04.02.02.03.04.02.02.03.04.04.03.03.05c-.02.02-.03,0-.06,0s-.03,0-.06,0-.03,0-.06,0c-.02-.01-.02-.02-.03-.04s-.01-.02-.03-.05-.02-.02-.03-.04-.02-.02-.04-.04-.01-.02-.03-.05,0-.05-.03-.05,0,.03,0,.05,0,.03,0,.05,0,.03,0,.05,0,.03,0,.05.02.04,0,.06-.03,0-.06,0-.03,0-.05,0-.03.02-.05,0,0-.03,0-.05,0-.03,0-.05-.01-.03-.01-.05,0-.03,0-.05,0-.03,0-.05,0-.03,0-.05,0-.03,0-.05,0-.03,0-.05,0-.03,0-.05,0-.03,0-.05,0-.03,0-.05c0-.03-.02-.03,0-.05ZM6.56,9.76s0,.03,0,.05,0,.03,0,.05,0,.03,0,.05c.01.02.02,0,.04,0s.02,0,.04,0c.02,0,.03,0,.05,0,.02,0,.03-.01.04-.02s0-.03,0-.05,0-.03,0-.04-.02-.03-.03-.03c-.01,0-.03,0-.05,0-.02,0-.02,0-.04,0-.02,0-.03-.01-.04,0Z"/>
          <path class="cls-1" d="M6.96,9.61s.02,0,.05,0,.03,0,.05,0,.03,0,.05,0,.03,0,.05,0,.03,0,.05,0,.03,0,.05,0,.03,0,.05,0,.03-.02.05,0,0,.03,0,.05.01.03.01.05,0,.03,0,.05-.02,0-.05,0-.03,0-.05,0-.03,0-.05,0-.03,0-.05,0-.03-.01-.05,0,0,.02,0,.05-.02.04,0,.06.03,0,.05,0,.03,0,.05,0,.03,0,.05,0,.03,0,.05,0,.03-.01.05,0,0,.03,0,.05,0,.03,0,.05.02.03,0,.05-.02,0-.05,0-.03,0-.05,0-.03,0-.05,0-.03,0-.05,0-.04-.02-.06,0c-.02.02-.01.04,0,.06.02.02.02,0,.05,0s.03,0,.05,0,.03,0,.05,0,.03,0,.05,0,.04-.02.06,0,0,.03,0,.05,0,.03,0,.05.02.04,0,.05c-.02.02-.03,0-.06,0s-.03,0-.05,0-.03,0-.05,0-.03,0-.05,0-.03,0-.05,0-.03,0-.05,0-.03,0-.05,0-.04.02-.06,0,0-.03,0-.05,0-.03,0-.05,0-.03,0-.05,0-.03,0-.05,0-.03,0-.05,0-.03,0-.05,0-.03,0-.05,0-.03,0-.05,0-.03,0-.05,0-.03,0-.05.01-.03,0-.05-.02-.03,0-.05Z"/>
          <path class="cls-1" d="M7.7,9.6s0,0,0,0c.01.02.01.02.02.05s0,.03.02.05.01.02.02.05,0,.02.02.05.02.02.03.04.01.02.02.05.01.02.02.05,0,.02.02.05.01.02.02.05,0,.03.02.05.01.02.03.05,0,.03.02.05.03.02.02.05-.02,0-.05,0-.03,0-.05,0-.04.02-.06,0c-.03-.02,0-.04-.02-.06-.02-.02-.02,0-.05,0s-.03,0-.05,0-.03,0-.05,0-.03-.02-.05,0c-.03.02,0,.04-.02.06-.02.02-.03,0-.05,0s-.03,0-.05,0-.04.03-.06,0,.01-.02.02-.05.01-.02.02-.05.01-.02.02-.05,0-.03.02-.05,0-.03.02-.05.01-.02.02-.05.01-.02.02-.05.02-.02.03-.05,0-.03.02-.05.01-.02.02-.05.02-.02.03-.05,0-.02.02-.05,0-.03.02-.05ZM7.76,10.03s-.01-.02-.02-.04,0-.02-.02-.04,0-.05-.01-.05-.01.02-.02.04,0,.02-.02.04-.02.02,0,.04c.01.02.02,0,.05,0,.03,0,.03.02.05,0Z"/>
        </g>
      </g>
    </g>
  </g>
</svg>