<?xml version="1.0" encoding="UTF-8"?>
<svg id="_레이어_2" data-name="레이어 2" xmlns="http://www.w3.org/2000/svg" viewBox="0 0 34.29 8.5">
  <defs>
    <style>
      .cls-1 {
        fill: #1a1a1a;
      }
    </style>
  </defs>
  <g id="_레이어_1-2" data-name="레이어 1">
    <g>
      <path class="cls-1" d="M33.37,5.89h-5.01l-.22.82h5.01c.23,0,.46-.18.52-.41.06-.23-.07-.41-.3-.41Z"/>
      <path class="cls-1" d="M33.98,1.79h-4.03l-.22.82h4.03c.23,0,.46-.18.52-.41.06-.23-.07-.41-.3-.41Z"/>
      <path class="cls-1" d="M33.67,2.94h-4.03l-.22.82-.33,1.23c-.06.23.07.41.3.41h3.12c.48,0,.8-.24.86-.28.2-.16.28-.42.16-.58-.11-.16-.36-.16-.57-.02-.01,0-.1.06-.23.06h-2.71l.22-.82h3.21c.23,0,.46-.18.52-.41.06-.23-.07-.41-.3-.41Z"/>
      <path class="cls-1" d="M27.45,5.89h-5.5l-.22.82h5.5c.23,0,.46-.18.52-.41.06-.23-.07-.41-.3-.41Z"/>
      <path class="cls-1" d="M27.23,2.27c-.14-.05-.28-.13-.4-.22h0c.07,0,.15-.06.17-.13.02-.07-.02-.13-.1-.13h-1.45l-2.93,3.62h1.12l2.64-3.26c.06.14.14.26.25.36.45.38.51,1.11.07,1.76-.19.28-.46.51-.74.67-.08.04-.16.06-.24.05-.06,0-.13-.03-.17-.06-.02-.03-.06-.04-.1-.05-.11,0-.23.07-.27.18-.02.04-.02.08,0,.12.01.03.03.06.06.08,0,0,.01,0,.02.01.14.07.3.12.48.14.86.08,1.93-.58,2.25-1.46.27-.76-.02-1.45-.66-1.67Z"/>
      <path class="cls-1" d="M19.99,2.2c.06-.23-.07-.41-.3-.41h-2.88l-.22.82h2.47l-.26.99h-2.47l-.22.82-.51,1.89c-.06.23.07.41.3.41h1.97c.48,0,.8-.24.86-.28.2-.16.28-.42.16-.58-.11-.16-.36-.16-.57-.02-.01,0-.1.06-.24.06h-1.56l.4-1.47h2.06c.23,0,.46-.18.52-.41l.49-1.81Z"/>
      <path class="cls-1" d="M22.14,1.79h-.41l-1.21,4.52c-.06.23.07.41.3.41h.41l1.21-4.52c.06-.23-.07-.41-.3-.41Z"/>
      <path class="cls-1" d="M21,1.79h-.41l-.49,1.81h-.32l-.22.82h.32l-.51,1.89c-.06.23.07.41.3.41h.41l1.21-4.52c.06-.23-.07-.41-.3-.41Z"/>
      <path class="cls-1" d="M14.79,5.89h-1.81l.22-.82h.82c.48,0,.8-.24.86-.28.2-.16.28-.42.16-.58-.11-.16-.36-.16-.57-.02-.01,0-.1.06-.23.06h-.22l.24-.9c.06-.23-.07-.41-.3-.41h-.58l-.35,1.31h-.51l.15-.57c.06-.23-.07-.41-.3-.41h-.58l-.26.99h-.82l-.22.82h1.73l-.22.82h-2.22l-.22.82h5.01c.23,0,.46-.18.52-.41.06-.23-.07-.41-.3-.41Z"/>
      <path class="cls-1" d="M15.4,1.79h-4.03l-.22.82h4.03c.23,0,.46-.18.52-.41.06-.23-.07-.41-.3-.41Z"/>
      <path class="cls-1" d="M8.5,4.1s0-.03,0-.04c0,0,0,0,0,0,0,0,0,0,0,0-.02-.33-.07-.64-.15-.95,0,0,0,0,0,0,0,0,0-.02,0-.03h0s0,0,0-.01c0,0,0,0,0,0,0,0,0,0,0-.01-.01-.05-.03-.09-.04-.14,0,0,0-.02,0-.03,0,0,0,0,0,0,0,0,0,0,0,0h0s0,0,0,0c-.42-1.23-1.39-2.21-2.62-2.64,0,0,0,0-.01,0-.06-.02-.12-.04-.17-.06,0,0-.02,0-.03,0-.05-.02-.11-.03-.16-.04-.01,0-.03,0-.04-.01-.05-.01-.1-.02-.15-.03-.02,0-.04,0-.06-.01-.05,0-.09-.02-.14-.02-.03,0-.06,0-.08-.01-.04,0-.08-.01-.12-.01-.04,0-.07,0-.11,0-.03,0-.06,0-.1,0-.07,0-.14,0-.21,0,0,0,0,0,0,0h0c-.07,0-.13,0-.2,0-.02,0-.05,0-.07,0-.04,0-.08,0-.12,0-.03,0-.06,0-.09,0-.03,0-.06,0-.09.01-.04,0-.07,0-.11.02,0,0-.01,0-.02,0,0,0,0,0,0,0,0,0-.02,0-.03,0,0,0,0,0,0,0-.02,0-.05,0-.07.01-.03,0-.05.01-.08.02,0,0-.01,0-.02,0h0s-.05.01-.07.02c0,0,0,0,0,0-.02,0-.04,0-.06.01C1.95.44.91,1.33.38,2.5c0,0,0,0,0,0-.03.07-.06.14-.09.22,0,0,0,0,0,0-.06.16-.11.32-.15.48,0,.01,0,.03,0,.04,0,0,0,0,0,0,0,0,0,0,0,0,0,0,0,0,0,0,0,.01,0,.03-.01.04,0,0,0,0,0,0,0,0,0,0,0,.01,0,0,0,0,0,0,0,0,0,.02,0,.02,0,.04-.02.09-.03.13,0,.01,0,.03,0,.04,0,0,0,0,0,0,0,0,0,.01,0,.02,0,0,0,0,0,0,0,0,0,.02,0,.03,0,.04-.01.08-.02.12,0,.02,0,.04,0,.06,0,0,0,0,0,0,0,0,0,0,0,.01,0,0,0,0,0,0,0,.02,0,.04,0,.06,0,0,0,.02,0,.03,0,0,0,0,0,0,0,0,0,0,0,0,0,.01,0,.02,0,.03h0s0,.04,0,.06c0,0,0,0,0,0,0,0,0,.01,0,.02,0,0,0,0,0,0,0,.01,0,.03,0,.04,0,.04,0,.07,0,.11,0,.02,0,.04,0,.06,0,0,0,0,0,0,0,0,0,0,0,.01,0,0,0,0,0,0,0,.03,0,.06,0,.09h0c0,.07,0,.13,0,.2,0,.04,0,.08,0,.12,0,.02,0,.04,0,.06,0,0,0,0,0,0,0,0,0,0,0,0,0,0,0,0,0,0,0,0,0,0,0,0,0,.07.01.13.02.2,0,0,0,.01,0,.02,0,.07.02.13.03.2,0,0,0,.02,0,.03.01.06.03.13.04.19,0,.01,0,.02,0,.03.02.07.04.14.06.21,0,0,0,0,0,0,0,.03.02.05.02.08,0,.02.01.04.02.05.01.03.02.07.04.1,0,.03.02.05.03.08.02.04.03.08.05.12,0,.02.02.04.02.05.02.04.04.09.06.13,0,0,.01.02.02.03.03.05.05.1.08.15,0,0,0,0,0,0,.13.23.28.45.45.65h0s.01.01.02.02c.03.04.07.08.11.12.02.03.05.05.07.08.02.02.04.05.07.07.03.03.06.06.09.09,0,0,.02.02.03.02.02.02.04.03.06.05.01,0,.02.02.03.03,0,0,0,0,0,0h.02s0,.01,0,.01c0,0,.01.01.02.02.04.03.07.06.11.09.02.02.04.03.06.05.03.02.06.05.09.07.01,0,.03.02.04.03.02.01.03.02.05.03.02.01.03.02.05.03,0,0,.01,0,.02.01.03.02.06.04.09.06.15.09.3.18.46.25,0,0,0,0,0,0,0,0,0,0,0,0,.02.01.05.02.07.03,0,0,.02,0,.02,0,.03.02.07.03.11.04.02,0,.04.01.06.02.26.1.54.18.82.23.02,0,.03,0,.05,0,0,0,0,0,0,0,0,0,0,0,0,0,0,0,0,0,0,0,0,0,0,0,0,0,0,0,.01,0,.02,0,.06,0,.13.02.19.02.03,0,.06,0,.09,0,.03,0,.07,0,.1,0,0,0,0,0,0,0h0s0,0,0,0c.08,0,.16,0,.24,0,0,0,0,0,0,0h0c.06,0,.13,0,.19,0,.02,0,.05,0,.07,0,.04,0,.08,0,.12,0,.03,0,.06,0,.09,0,.04,0,.07,0,.11-.01.03,0,.06,0,.09-.01,0,0,0,0,0,0,.05,0,.09-.02.14-.02,0,0,0,0,.01,0,.04,0,.08-.02.12-.02.03,0,.05-.01.08-.02.04,0,.07-.02.11-.03.03,0,.06-.02.08-.02.03-.01.07-.02.1-.03.03,0,.06-.02.09-.03.03-.01.06-.02.09-.03.03-.01.06-.02.09-.04.03-.01.06-.02.09-.03.04-.02.08-.03.12-.05.04-.02.08-.04.12-.06.03-.02.07-.03.1-.05.03-.02.06-.03.09-.05.03-.01.05-.03.08-.04.03-.02.06-.04.09-.06.02-.01.04-.03.06-.04.03-.02.07-.04.1-.07.02-.01.03-.02.05-.03.04-.03.07-.05.11-.08,0,0,.02-.01.02-.02.81-.63,1.38-1.54,1.57-2.59,0,0,0,0,0,0,0,0,0-.02,0-.03.04-.24.06-.48.06-.74h0c0-.05,0-.1,0-.16,0,0,0,0,0,0ZM2.43,7.62h0v.07s-.02.06-.05.06c-.05-.03-.11-.06-.16-.09-.03-.03-.02-.07.02-.11l.07-.07s.12-.06.12.03v.11ZM2.43,6.89c0,.05-.02.12-.06.16l-.08.08s0,0,.01,0c0,0,0,0,0,0h-.01l-.26.26-.02.02s-.08.06-.12.05c-.09-.07-.18-.14-.26-.22-.02-.04.03-.09.07-.14h0l.11-.11.27-.27.02-.02h0s0,0,0,0l.07-.07s0,0,0,0l.04-.04.11-.11s.1-.04.1.05v.37ZM3.25,8.1c-.18-.05-.36-.11-.53-.18-.03-.02-.03-.05-.03-.08v-.27c0-.07.04-.17.1-.11l.15.15h0l.04.04.03.03h0l.22.22s.02.03.03.05c0,0,0,.02.01.02.03.06.03.12-.02.13ZM5.16,8.12s-.04-.03-.04-.07v-1.09c0-.08.04-.14.08-.1h0l.34.34s.07.03.1,0l.1-.1s.03-.07,0-.1l-.24-.24-.12-.12h0l-.18-.18s-.07-.11-.07-.17v-.26s.02-.12.07-.06h0s.35.35.35.35c.03.03.07.03.1,0l.1-.1s.03-.07,0-.1l-.11-.11-.05-.05h0s-.03-.03-.03-.03h0s-.52-.52-.52-.52c-.03-.03-.07-.03-.1,0l-.71.71s-.03.07,0,.1l.1.1s.07.03.1,0l.24-.23h0s.05-.05.05-.05h0s.03-.03.03-.03c0,0,0,0,0,0l.03-.03s.09-.07.09,0v.29s-.03.14-.09.21h0s-.53.53-.53.53c-.03.03-.03.07,0,.1l.1.1s.07.03.1,0l.31-.31s.11-.09.11,0v1.18c0,.05-.03.09-.05.11-.18.02-.36.04-.54.04-.11,0-.22,0-.33-.01l-1.17-1.17s-.05-.07-.06-.13v-.03s0-.15,0-.15v-.24c0-.06.04-.09.09-.04h0s0,0,0,0h0s.99.99.99.99c0,0,0,0,0,0,0,0,0,0,0,0,.03.03.07.03.1,0l.1-.1s.03-.07,0-.1l-1.16-1.16s-.07-.07-.07-.07c-.03-.05-.04-.13-.04-.18v-.52s.02-.06.04-.07h0s.03-.01.05,0l.99.99s.07.03.1,0l.1-.1s.03-.07,0-.1l-.36-.36-.04-.04h0s0,0,0,0l-.02-.02-.95-.95s-.07-.03-.1,0l-.09.09h0s-.08.08-.08.08h0s0,0,0,0l-.02.02-.11.11h0,0s-.04.04-.04.04c0,0,0,0,0,0l-.02.02s0,0,0,0l-.04.04h0s-.24.24-.24.24l-.06.06h-.01s0,.01,0,.01l-.21.21-.14.14h0s-.07.07-.07.07c0,0,0,0,0,0h0s0,0,0,0l-.15.15h0s-.03.03-.03.03l-.03.03s-.03.07,0,.1l.1.1s.07.03.1,0l.37-.37h0l.02-.02s0,0,0,0l.02-.02h0s.02-.02.02-.02c0,0,0,0,0,0l.22-.22h0s.03-.03.03-.03c0,0,0,0,0,0l.02-.02s0,0,0,0h0s.29-.3.29-.3c.05-.05.1-.03.1.04v.3h0v.26c0,.06-.03.16-.07.2l-.02.02h0s0,0,0,0l-.02.02h0s-.02.02-.02.02h0s-.02.02-.02.02h0,0s0,0,0,0l-.05.05h0l-.02.02-.74.74s-.1.02-.15-.02c-.36-.39-.63-.85-.81-1.36,0-.02,0-.05.02-.06l.4-.45s0,0,0,0c0,0,0,0,0,0l.29-.33.14-.16.49-.56s.11-.1.19-.05h0l.05.03h.02s0,.01,0,.01l.42.26h0s0,0,0,0l.03.02s0,0,0,0l.03.02.19.12s.06.01.08,0l.62-.59.08.02h.02s.79.21.79.21c.07.02.12.05.16.08l.88,1s.07.03.1,0l.1-.09s.02-.03.02-.05c0-.02,0-.04-.02-.05l-.89-1.01c.48-.29.8-.82.8-1.42,0-.43-.17-.83-.44-1.12,0,0,0,0,0,0,0,0,0,0,0,0-.03-.04-.07-.07-.11-.11,0,0,0,0,0,0-.04-.03-.07-.06-.11-.09,0,0,0,0,0,0,0,0,0,0,0,0-.04-.03-.08-.06-.13-.08,0,0-.01,0-.02,0-.04-.03-.09-.05-.13-.07,0,0-.01,0-.02,0-.05-.02-.09-.04-.14-.06,0,0,0,0-.01,0-.13-.04-.27-.07-.41-.08,0,0,0,0,0,0-.01,0-.03,0-.04,0-.03,0-.06,0-.09,0-.04,0-.07,0-.11,0,0,0-.02,0-.03,0-.04,0-.07,0-.11.01-.01,0-.02,0-.03,0-.04,0-.08.01-.12.02,0,0,0,0-.01,0-.31.08-.58.24-.8.47h0s0,0,0,0c-.28.3-.46.7-.46,1.14,0,.2.04.4.11.58l-.19.22-.03.03s0,0,0,0l-.17.19s0,0,0,0l-.02.02s0,0,0,0l-.09.1h0v.02s-.01,0-.01,0l-.17.2s0,0,0,0h-.01s0,.01,0,.01l-.29.33-.03.03-.25.29s0,0,0,0v.02s-.01,0-.01,0l-.12.13s0,0,0,0c0,0,0,0,0,0h-.01s0,.01,0,.01l-.1.11s0,0,0,0l-.03.03h0s0,0,0,0l-.27.31s-.09.02-.12-.02c-.06-.28-.09-.57-.09-.86C.28,2.06,2.06.28,4.25.28s3.97,1.78,3.97,3.97c0,1.88-1.31,3.46-3.07,3.87ZM2.21,3.58l.93-1.07.44.5.03.03.35.4c.06.07.07.19,0,.17h0l-.53-.13s-.05,0-.06.02l-.04.04-.02.02h0s-.04.04-.04.04l-.03.03h0s0,0,0,0l-.36.35-.1.1-.08-.05h-.02s-.06-.05-.06-.05t0,0h0s-.39-.25-.39-.25c-.06-.03-.05-.11-.02-.15h0ZM2.89,1.95h.03s.04-.01.05-.01h0s0,0,0,0c.22-.04.44-.13.63-.26,0,0,0,0,0,0h0c.21-.16.46-.26.72-.28h.02c.08,0,.16,0,.25,0,.02,0,.04,0,.06,0,0,0,0,0,0,0,.02,0,.05.01.08.03.06.05.11.1.16.16.01.02,0,.05-.03.04,0,0,0,0,0,0-.02,0-.05-.01-.08-.01-.1-.02-.21-.03-.31-.03-.35,0-.68.1-.96.29h-.02s-.04.04-.05.05c-.18.12-.39.2-.6.23h0s-.04,0-.06,0h-.02c-.07,0-.14,0-.21,0-.03,0-.04-.03-.04-.06.01-.04.02-.07.04-.1.02-.03.05-.04.09-.04.08,0,.16,0,.24-.02ZM2.8,1.59c.25-.29.63-.48,1.05-.48.05,0,.1,0,.14,0,.06.01.06.04.02.06h-.01s0,0,0,0c0,0,0,0,0,0-.01,0-.02,0-.03.01h-.01c-.18.06-.35.15-.5.26-.15.1-.31.16-.47.2h-.02s-.07.02-.11.02c-.07,0-.08-.04-.05-.09ZM4.37,3.52s.01-.06.05-.06c.08,0,.16,0,.24.01.06.01.11.06.07.09-.01.01-.03.02-.04.03-.03.02-.05.04-.08.06,0,0-.02.01-.03.02-.03.02-.09,0-.13-.04l-.03-.04h0s-.01-.01-.01-.01c0,0,0,0,0,0l-.05-.06ZM4.55,3.19h-.01s-.04,0-.06,0c-.11,0-.21.01-.31.03,0,0,0,0,0,0-.02,0-.05.01-.08-.02l-.07-.08s0-.05.03-.06c.08-.03.17-.04.26-.05h.03s.1-.01.14-.01c.02,0,.04,0,.06,0h.02c.16,0,.32.04.46.1,0,0,0,0,0,0,0,0,0,0,0,0,.01,0,.02.01.03.02.01,0,.02.02.01.04,0,.01-.02.03-.03.04,0,.01-.01.02-.02.03,0,0,0,0-.01.01,0,0,0,0-.01,0h0s-.01,0-.02,0c0,0,0,0,0,0,0,0,0,0,0,0-.01,0-.03,0-.04,0h0c-.13-.04-.26-.06-.39-.06ZM4.48,2.71c-.11,0-.22.01-.33.03h-.04s-.02.01-.03.01h0s-.06.02-.09.03h0s-.07.02-.11.04h-.04s-.01.02-.02.01c0,0-.03-.01-.04-.02-.01,0-.02-.02-.03-.02l-.05-.06s0-.08.03-.1c.15-.09.31-.15.48-.19h0s.03,0,.04,0h.04s.02,0,.03,0h.04s.08,0,.12,0c.24,0,.48.06.69.18.03.02.05.05.05.08,0,0,0,.01,0,.02,0,.04-.01.08-.02.11,0,0,0,0,0,0,0,.02-.02.03-.03.03,0,0-.03,0-.07-.02-.2-.07-.4-.11-.61-.11ZM5.18,2.3s0,0,0,0c-.18-.08-.37-.13-.57-.14h-.02s-.07,0-.11,0h-.04c-.13,0-.25.02-.37.05h-.02c-.16.04-.31.11-.45.19l-.03.02s-.06.03-.08.05c0,0,0,0,0,0-.03.02-.05,0-.07-.02l-.02-.03h0s-.05-.07-.05-.07h0s-.01-.05.02-.06h0s.06-.03.09-.05h.02s.09-.06.13-.09c0,0,0,0,0,0h0c.06-.04.12-.08.18-.12h0c.21-.12.44-.17.68-.17.09,0,.18,0,.27.03h.01s.03,0,.05.01h.03s.02.01.03.02c0,0,0,0,0,0,0,0,0,0,0,0h0s.02,0,.02,0c.08.02.16.05.24.09.02,0,.03.02.03.02.03.07.05.15.06.23,0,.03,0,.06-.03.04ZM2.77,2.43h0s.08,0,.06.03l-.19.21s-.07.05-.1.05c0,0,0,0-.01,0-.02,0-.04-.02-.05-.06,0-.06-.01-.12-.01-.18,0-.02,0-.03,0-.05,0-.01.02-.02.04-.02h0c.09,0,.18,0,.27,0Z"/>
      <path class="cls-1" d="M6.9,3.86h0s0,0,0,0l-.05-.05s-.07-.03-.1,0l-.02.02h0s-.02.02-.02.02c0,0,0,0,0,0h-.01s-.08.09-.08.09h0s-.55.55-.55.55l-.02.02h0s-.02.03-.02.04c0,0,0,0,0,0h0s0,.03,0,.03c0,0,0,.02.02.02l.1.1s.07.03.1,0l.05-.05h0s.28-.29.28-.29c.04-.04.09-.04.09.02v.26c0,.05-.03.15-.06.19l-.56.56s-.03.07,0,.1l.1.1s.07.03.1,0l.26-.26.02-.02.06-.06s.1-.02.1.06v.68h0v.41s.03.07.07.07h.14s0,0,0,0c.02,0,.05-.02.06-.04h0s0-.02,0-.03v-1.11s0-.04.02-.05c0,0,.02,0,.02,0,.01,0,.03,0,.06.02l.02.02.03.03.04.04.23.23s.02.02.03.02c.02,0,.05,0,.07-.02l.05-.05s.04-.04.04-.04c0,0,0,0,0-.01,0,0,.01-.02.01-.03,0-.02,0-.03-.02-.05l-.19-.19h0s0,0,0,0l-.03-.03-.02-.02h0s-.11-.11-.11-.11l-.04-.04-.17-.17s-.05-.13-.05-.18v-.26s.01-.1.06-.04h0s.36.36.36.36c.02.02.06.02.08,0h.01s.09-.1.09-.1c.03-.03.03-.07,0-.1l-.21-.21-.04-.04h0s-.07-.07-.07-.07h0s-.03-.03-.03-.03c0,0,0,0,0,0h-.01s-.05-.07-.05-.07t0,0l-.23-.23h0Z"/>
    </g>
  </g>
</svg>