<?xml version="1.0" encoding="UTF-8"?>
<svg id="_레이어_1" data-name="레이어_1" xmlns="http://www.w3.org/2000/svg" version="1.1" viewBox="0 0 841.89 595.28">
  <!-- Generator: Adobe Illustrator 30.4.0, SVG Export Plug-In . SVG Version: 2.1.4 Build 226)  -->
  <defs>
    <style>
      .st0 {
        fill: #231815;
      }
    </style>
  </defs>
  <g>
    <path class="st0" d="M317.49,313.19h.48l1.61,6.54c.25-1.1.5-2.19.74-3.27s.5-2.17.75-3.27h.47l-1.69,7.16h-.54c-.27-1.08-.54-2.16-.8-3.23-.26-1.07-.53-2.15-.79-3.23-.26,1.08-.51,2.16-.76,3.23-.25,1.07-.5,2.15-.76,3.23h-.54c-.28-1.2-.56-2.4-.85-3.58-.28-1.19-.57-2.38-.86-3.58h.49l1.51,6.54,1.53-6.54Z"/>
    <path class="st0" d="M323.37,313.19h1.9c.35,0,.67.03.97.09s.55.17.77.31c.22.14.39.33.51.55.12.23.19.5.19.82v.31c0,.48-.16.87-.47,1.16-.32.29-.72.49-1.21.58.32.56.65,1.11.97,1.67.33.55.65,1.11.98,1.66h-.56l-1.87-3.26s-.09,0-.14,0h-1.57v3.25h-.46v-7.16ZM325.24,316.69c.27,0,.52-.03.77-.08.24-.05.45-.14.64-.26.18-.12.33-.27.44-.45.11-.18.17-.4.17-.65v-.26c0-.27-.05-.49-.16-.67-.1-.18-.25-.32-.43-.43-.18-.11-.39-.18-.63-.23-.24-.05-.5-.07-.79-.07h-1.41v3.1h1.4Z"/>
    <path class="st0" d="M330.01,313.19h.45v7.16h-.45v-7.16Z"/>
    <path class="st0" d="M334.63,313.58h-2.19v-.39h4.84v.39h-2.2v6.77h-.45v-6.77Z"/>
    <path class="st0" d="M339.27,313.19h3.8v.39h-3.35v2.81h3.07v.39h-3.07v3.17h3.35v.39h-3.8v-7.16Z"/>
    <path class="st0" d="M345.36,313.19h1.9c.35,0,.67.03.97.09s.55.17.77.31c.22.14.39.33.51.55.12.23.19.5.19.82v.31c0,.48-.16.87-.47,1.16-.32.29-.72.49-1.21.58.32.56.65,1.11.97,1.67.33.55.65,1.11.98,1.66h-.56l-1.87-3.26s-.09,0-.14,0h-1.57v3.25h-.46v-7.16ZM347.22,316.69c.27,0,.52-.03.77-.08.24-.05.45-.14.64-.26.18-.12.33-.27.44-.45.11-.18.17-.4.17-.65v-.26c0-.27-.05-.49-.16-.67-.1-.18-.25-.32-.43-.43-.18-.11-.39-.18-.63-.23-.24-.05-.5-.07-.79-.07h-1.41v3.1h1.4Z"/>
    <path class="st0" d="M355.48,313.19h2c.35,0,.67.04.96.11.29.07.54.19.76.34.21.15.38.34.49.58.12.24.18.52.18.85v.35c0,.3-.06.56-.18.8-.12.24-.29.43-.5.6-.21.16-.47.28-.76.37-.29.09-.61.13-.95.13h-1.54v3.04h-.45v-7.16ZM357.45,316.91c.27,0,.52-.03.76-.09.24-.06.44-.15.62-.28.17-.12.31-.28.42-.47.1-.19.16-.42.16-.67v-.33c0-.26-.05-.49-.15-.67-.1-.19-.23-.34-.41-.46s-.38-.21-.61-.26-.49-.08-.78-.08h-1.53v3.33h1.52Z"/>
    <path class="st0" d="M362.06,313.19h.45v6.77h3.16v.39h-3.62v-7.16Z"/>
    <path class="st0" d="M371.51,318.06h-2.88l-.77,2.29h-.47l2.45-7.16h.49l2.47,7.16h-.51l-.77-2.29ZM368.76,317.67h2.62l-1.31-3.9-1.31,3.9Z"/>
    <path class="st0" d="M375.17,313.94v6.41h-.46v-7.16h.53c.59,1.07,1.18,2.14,1.76,3.2s1.17,2.13,1.76,3.2v-6.41h.45v7.16h-.52l-3.52-6.41Z"/>
    <path class="st0" d="M382.05,313.94v6.41h-.46v-7.16h.53c.59,1.07,1.18,2.14,1.76,3.2s1.17,2.13,1.76,3.2v-6.41h.45v7.16h-.52l-3.52-6.41Z"/>
    <path class="st0" d="M388.48,313.19h3.8v.39h-3.35v2.81h3.07v.39h-3.07v3.17h3.35v.39h-3.8v-7.16Z"/>
    <path class="st0" d="M394.56,313.19h1.9c.35,0,.67.03.97.09s.55.17.77.31c.22.14.39.33.51.55.12.23.19.5.19.82v.31c0,.48-.16.87-.47,1.16-.32.29-.72.49-1.21.58.32.56.65,1.11.97,1.67.33.55.65,1.11.98,1.66h-.56l-1.87-3.26s-.09,0-.14,0h-1.57v3.25h-.46v-7.16ZM396.43,316.69c.27,0,.52-.03.77-.08.24-.05.45-.14.64-.26.18-.12.33-.27.44-.45.11-.18.17-.4.17-.65v-.26c0-.27-.05-.49-.16-.67-.1-.18-.25-.32-.43-.43-.18-.11-.39-.18-.63-.23-.24-.05-.5-.07-.79-.07h-1.41v3.1h1.4Z"/>
  </g>
  <g>
    <path class="st0" d="M312.97,303.71v-.29h.87c.21,0,.36-.05.45-.15.09-.1.13-.22.13-.38v-18.67c0-.15-.04-.28-.13-.38s-.24-.15-.45-.15h-.87v-.29h4.93v.29h-.87c-.21,0-.36.05-.45.15s-.13.22-.13.38v9.57l9.01-9.62c.12-.12.19-.22.22-.32.03-.1-.14-.15-.51-.15h-.87v-.29h3.19v.29h-.46c-.33,0-.59.06-.78.19s-.35.25-.46.36l-5.97,6.35,8.09,12.29c.21.31.45.47.72.49.27.02.51.03.73.03v.29h-4.93v-.29h.46c.21,0,.39-.05.52-.16.13-.11.15-.23.06-.36l-6.98-10.84-2.03,2.15v8.7c0,.16.04.28.13.38.09.1.24.15.45.15h.87v.29h-4.93Z"/>
    <path class="st0" d="M330.51,303.71v-.29h.87c.21,0,.36-.05.45-.15.09-.1.13-.22.13-.38v-18.67c0-.15-.04-.28-.13-.38s-.24-.15-.45-.15h-.87v-.29h4.93v.29h-.87c-.21,0-.36.05-.45.15-.09.1-.13.22-.13.38v18.67c0,.16.04.28.13.38.09.1.24.15.45.15h.87v.29h-4.93Z"/>
    <path class="st0" d="M336.59,303.71v-.29h.87c.21,0,.36-.05.45-.15.09-.1.13-.22.13-.38v-18.67c0-.15-.04-.28-.13-.38s-.24-.15-.45-.15h-.87v-.29h3.56l6.55,19.59,5.65-18.78c0-.15-.04-.28-.13-.38s-.24-.15-.45-.15h-.87v-.29h4.93v.29h-.87c-.21,0-.36.05-.45.15s-.13.22-.13.38v18.67c0,.16.04.28.13.38.09.1.24.15.45.15h.87v.29h-4.93v-.29h.87c.21,0,.36-.05.45-.15.09-.1.13-.22.13-.38v-17.71l-5.54,18.52h-2.03l-6.46-19.28v18.46c0,.16.04.28.13.38.09.1.24.15.45.15h.87v.29h-3.19Z"/>
    <path class="st0" d="M364.53,303.71v-.29h.87c.21,0,.36-.05.45-.15.09-.1.13-.22.13-.38v-18.67c0-.15-.04-.28-.13-.38s-.24-.15-.45-.15h-.87v-.29h4.93v.29h-.87c-.21,0-.36.05-.45.15-.09.1-.13.22-.13.38v13.01c.85-.97,1.73-1.79,2.64-2.48.91-.69,1.81-1.27,2.71-1.74.9-.47,1.77-.86,2.61-1.14.84-.29,1.62-.52,2.33-.7v-6.96c0-.15-.04-.28-.13-.38s-.24-.15-.45-.15h-.87v-.29h4.93v.29h-.87c-.21,0-.36.05-.45.15s-.13.22-.13.38v18.67c0,.16.04.28.13.38.09.1.24.15.45.15h.87v.29h-4.93v-.29h.87c.21,0,.36-.05.45-.15.09-.1.13-.22.13-.38v-11.39c-.77.15-1.63.41-2.58.77s-1.89.81-2.84,1.36-1.84,1.18-2.7,1.88-1.57,1.48-2.17,2.33v5.04c0,.16.04.28.13.38.09.1.24.15.45.15h.87v.29h-4.93Z"/>
    <path class="st0" d="M388.51,303.42h.87c.21,0,.36-.05.45-.15.09-.1.13-.22.13-.38v-8.9l-5.42-9.77c-.08-.15-.18-.28-.31-.38-.12-.1-.29-.15-.51-.15h-.78v-.29h5.07v.29h-.87c-.21,0-.34.05-.39.15-.05.1-.04.22.04.38l5.16,9.22,5.28-9.22c.08-.15.09-.28.04-.38s-.18-.15-.39-.15h-.87v-.29h3.16v.29h-.78c-.21,0-.38.05-.49.15-.12.1-.22.22-.32.38l-5.6,9.77v8.9c0,.16.04.28.13.38.09.1.24.15.45.15h.87v.29h-4.93v-.29Z"/>
    <path class="st0" d="M403.81,297.4c0,1,.14,1.87.42,2.61.28.73.66,1.34,1.13,1.81.47.47,1.01.82,1.62,1.04.61.22,1.23.33,1.87.33.71,0,1.42-.13,2.11-.39.7-.26,1.32-.64,1.87-1.13.55-.49.99-1.1,1.33-1.83.34-.73.51-1.54.51-2.45v-13.16c0-.15-.04-.28-.13-.38-.09-.1-.24-.15-.45-.15h-.87v-.29h3.19v.29h-.87c-.21,0-.36.05-.45.15-.09.1-.13.22-.13.38v13.16c0,1.04-.19,1.96-.56,2.75-.38.79-.87,1.45-1.49,1.99-.62.53-1.32.93-2.12,1.2-.79.27-1.6.41-2.43.41s-1.64-.13-2.42-.39c-.78-.26-1.48-.66-2.1-1.19s-1.12-1.19-1.49-1.99c-.38-.79-.56-1.72-.56-2.78v-13.16c0-.15-.04-.28-.13-.38s-.24-.15-.45-.15h-.87v-.29h4.93v.29h-.87c-.21,0-.36.05-.45.15s-.13.22-.13.38v13.16Z"/>
    <path class="st0" d="M417.58,303.71v-.29h.87c.21,0,.36-.05.45-.15.09-.1.13-.22.13-.38v-18.67c0-.15-.04-.28-.13-.38s-.24-.15-.45-.15h-.87v-.29h3.19l11.07,19.65v-18.84c0-.15-.04-.28-.13-.38s-.24-.15-.45-.15h-.87v-.29h3.19v.29h-.87c-.21,0-.36.05-.45.15s-.13.22-.13.38l.06,19.48h-2.03l-10.84-19.28v18.46c0,.16.04.28.13.38.09.1.24.15.45.15h.87v.29h-3.19Z"/>
  </g>
  <g>
    <path class="st0" d="M451.36,308.91c-.12-.13-.16-.83-.13-2.09.03-1.26.14-2.82.33-4.67.17-1.89.52-4.39,1.06-7.5l.38-2.29-3.19.04c-1.97.03-3.09.06-3.37.1-.09.04-.45.47-1.06,1.3-2.02,2.75-3.92,5.22-5.7,7.4-1.95,2.35-3.36,3.94-4.23,4.77-.2.17-.34.28-.41.32s-.16.05-.25.02c-.15-.04-.27-.1-.38-.18-.08-.05-.12-.11-.12-.16s.03-.17.08-.34c.08-.25.33-.71.74-1.38.82-1.36,1.44-2.47,1.84-3.34s.69-1.69.87-2.46c.16-.72.2-1.21.12-1.48-.15-.84-.7-1.41-1.65-1.71-.96-.3-2.39-.36-4.29-.17l-1.14.1-.14-.22c-.16-.19-.15-.4.04-.64.08-.12.2-.21.36-.27.16-.06.44-.12.86-.17.41-.07,1.27-.23,2.57-.5,4.47-.89,8.05-1.44,10.77-1.63l.76-.04,1.06-1.5c1.81-2.5,4.51-6.57,8.11-12.2.69-1.08,1.18-1.8,1.47-2.18.29-.38.51-.58.66-.61.39-.05.6.1.63.46.03.36-.1,1-.41,1.93-.89,2.76-1.69,5.52-2.39,8.25-.33,1.32-.63,2.59-.89,3.82-.26,1.23-.37,1.88-.33,1.96.07,0,.33.03.78.08.47.04.72.12.76.24.08.21.03.39-.16.52-.12.07-.52.06-1.2-.02l-.46-.04-.24,1.38c-.71,4-1.13,7.4-1.28,10.21-.07,1.67-.04,2.98.08,3.91.09.46.03.78-.2.96-.27.2-.51.21-.72.02ZM439.5,300.2c1.78-2.11,3.39-4.15,4.83-6.1.44-.58.74-.99.92-1.22l.26-.32-.4.04c-1.28.12-2.45.25-3.53.38-2.18.33-3.85.62-5,.88-.09.04.07.13.5.28,1.05.36,1.71,1,1.97,1.91.23.59.22,1.37-.02,2.35-.24,1.13-.76,2.41-1.57,3.85-.25.45-.38.69-.38.72.31-.31,1.12-1.23,2.43-2.77ZM450.46,291.55h2.73l.4-1.99c.69-3.31,1.47-6.55,2.35-9.73.2-.74.33-1.26.4-1.56l.1-.44-.2.24c-.17.21-.71,1-1.62,2.35-3.27,4.86-5.56,8.22-6.88,10.07-.52.73-.78,1.11-.78,1.14-.01.03.11.02.38-.02.25-.04,1.29-.06,3.11-.06Z"/>
    <path class="st0" d="M455.15,300.8c-.12-.08-.19-.17-.22-.26-.05-.28.19-1.66.74-4.14.55-2.48.89-3.78,1.04-3.92.19-.13.36-.14.52-.02.05.07-.17,1.19-.66,3.37l-.74,3.29.74-1.28c.82-1.41,1.61-2.58,2.36-3.5.75-.92,1.39-1.51,1.92-1.74.27-.11.52-.15.78-.12.36.04.63.22.83.53s.36.83.49,1.56c.17,1.02.36,1.68.56,1.96.2.29.52.36.98.23.77-.21,1.79-.71,3.05-1.5.55-.37.94-.44,1.18-.22.11.08.17.2.18.36.09.35-.19.71-.84,1.1-1.16.73-2.09,1.23-2.79,1.51-.71.27-1.3.36-1.79.27-.5-.09-.89-.34-1.15-.75-.26-.4-.47-1.09-.65-2.04-.2-1.1-.37-1.68-.52-1.73-.27-.03-.76.33-1.47,1.08-.86.96-1.79,2.36-2.79,4.21-.36.65-.62,1.1-.78,1.34-.16.24-.31.39-.44.44-.19.12-.36.11-.52-.02Z"/>
    <path class="st0" d="M468.78,300.14c-.85-.31-1.34-.82-1.46-1.55-.03-.59.1-1.22.38-1.91.39-.73.88-1.46,1.48-2.19.89-.97,1.83-1.67,2.81-2.11.98-.37,1.7-.32,2.13.15.44.47.47,1.23.1,2.28-.19.54-.42.82-.7.82-.11,0-.19-.06-.26-.18-.07-.12-.07-.23-.02-.32s.09-.33.1-.72c.03-.4-.03-.66-.16-.8-.09-.19-.29-.25-.58-.2-.61.05-1.31.41-2.09,1.06-1.17,1-1.88,2.01-2.13,3.03-.13.55-.09.94.14,1.18.32.49,1.06.73,2.21.72,2.05,0,4.88-.89,8.49-2.67.61-.31.97-.46,1.08-.46s.21.07.31.2c.1.13.14.25.13.36-.03.13-.11.25-.26.35s-.44.25-.9.44-1.28.54-2.49,1.03c-2.91,1.18-5.23,1.75-6.96,1.69-.58,0-1.04-.06-1.36-.18Z"/>
    <path class="st0" d="M479.65,303.17c-.25-.17-.38-.66-.38-1.45,0-.36.13-1.2.4-2.52.27-1.32.49-2.32.68-2.98.74-2.37,1.83-4.71,3.27-7.04.81-1.28,1.71-2.47,2.69-3.59.98-1.12,1.93-2.03,2.85-2.73.92-.7,1.68-1.1,2.29-1.18.37-.04.69.04.96.23s.41.46.44.81c.11,1.01-.48,2.4-1.77,4.17-1.04,1.48-2.26,2.76-3.68,3.86-1.42,1.1-2.81,1.84-4.18,2.24-.27.08-.44.12-.52.12s-.15-.03-.22-.08c-.01,0-.03,0-.04-.02-.07-.08-.13-.08-.18-.01-.05.07-.17.34-.36.79-.01.05-.03.09-.04.12-.52,1.25-.94,2.57-1.28,3.95-.33,1.38-.49,2.53-.48,3.43,0,.4.02.66.06.8l.06.2.2-.28c.36-.44,1-1.48,1.93-3.11,1.09-1.9,1.91-3.28,2.47-4.13.56-.85.98-1.38,1.28-1.57.19-.16.39-.21.6-.16.25.04.41.11.48.22.07.11.07.34.02.7-.05.36-.19,1.08-.42,2.15-.36,1.67-.54,2.65-.54,2.91.03,1.06.26,1.67.72,1.83.4.07.98-.14,1.73-.62,1.17-.8,2.26-1.93,3.27-3.39.33-.48.56-.76.7-.86.36-.17.65-.15.88.08.13.15.17.33.1.54-.07.21-.25.51-.54.9-.33.41-.5.63-.5.66-.2.25-.68.79-1.44,1.61-.82.88-1.62,1.53-2.38,1.97-.76.44-1.44.64-2.03.6s-1.04-.33-1.35-.88c-.27-.44-.39-1.02-.38-1.75s.16-1.75.44-3.07l.38-1.75-.34.46c-.61.85-1.41,2.17-2.39,3.95-1.17,2.13-1.93,3.33-2.29,3.61-.44.39-.83.48-1.18.28ZM484.1,291.79c1.12-.51,2.22-1.22,3.32-2.15,1.1-.93,2.03-1.93,2.81-2.99.78-1.06,1.27-2.04,1.47-2.93.08-.35.09-.59.04-.73s-.18-.21-.38-.21c-.57,0-1.43.47-2.57,1.42-1.14.94-2.24,2.08-3.29,3.41-.96,1.26-1.84,2.65-2.65,4.17l-.34.66.46-.16c.29-.11.67-.27,1.14-.48Z"/>
    <path class="st0" d="M493.15,302.44c-.89-.36-1.28-1.34-1.18-2.95.11-.98.36-2.12.78-3.41.52-1.41,1.04-2.54,1.55-3.39.29-.4.54-.51.74-.34.07.07.08.17.04.31-.04.14-.17.44-.4.89-.69,1.34-1.2,2.61-1.52,3.79-.32,1.18-.43,2.15-.32,2.9.11.75.43,1.17.96,1.25.7.11,1.68-.29,2.92-1.19s2.49-2.11,3.74-3.64c.31-.37.52-.61.65-.72.13-.11.27-.16.43-.16s.28.02.35.07c.07.05.13.13.17.25v.04c.05.15.06.27.02.36-.04.09-.16.24-.36.45-.2.21-.61.61-1.24,1.21-.05.04-.09.07-.1.1-1.68,1.58-3.01,2.69-4.01,3.33-1.34.85-2.42,1.14-3.23.86ZM494.7,290.55c-.2-.08-.31-.12-.32-.12-.01,0-.04-.06-.08-.18-.04-.13,0-.26.12-.37.12-.11.27-.17.46-.17.33,0,.81-.19,1.44-.58.39-.25.65-.35.8-.28.27.05.42.21.46.47.04.26-.05.5-.26.73-.21.21-.63.38-1.26.49-.63.11-1.08.12-1.36.01Z"/>
    <path class="st0" d="M502.42,301.58c-.11-.03-.25-.13-.44-.32-.32-.31-.54-.97-.67-1.98s-.14-2.24-.05-3.68c.05-.93.13-1.54.24-1.83s.27-.39.5-.3c.01,0,.03,0,.04.02.08,0,.13.07.14.21.01.14,0,.57-.04,1.29,0,.11,0,.19-.02.24-.05,1.16-.02,2.19.09,3.11.11.92.3,1.54.55,1.85.13.21.27.26.4.14.42-.31.95-.96,1.57-1.95.61-1,1.28-2.41,2.01-4.23.25-.62.43-1.03.52-1.21.09-.18.2-.32.32-.41.23-.19.47-.26.73-.22s.44.18.55.42c.08.17.2.44.36.82.48,1.2,1.38,1.77,2.69,1.71.98,0,2.01-.34,3.09-1.02.33-.21.59-.34.77-.38s.36-.02.53.06c.24.11.38.29.42.56s-.03.52-.22.76c-.16.21-.54.46-1.14.75-.6.29-1.29.54-2.07.77-.44.13-.99.2-1.65.19-.66,0-1.19-.08-1.6-.21-1.04-.39-1.74-1.04-2.11-1.95l-.14-.4-.84,1.81c-.76,1.65-1.39,2.86-1.89,3.64-.51.78-1,1.29-1.48,1.55-.41.19-.8.25-1.16.2Z"/>
    <path class="st0" d="M517.25,300.72c-1.02-.15-1.71-.6-2.07-1.38-.31-.66-.31-1.47-.01-2.41.3-.94.84-1.86,1.63-2.75.72-.74,1.48-1.32,2.29-1.73.51-.23.95-.33,1.34-.31.39.02.67.16.86.43.32.44.26,1.04-.18,1.79-.44.76-1.11,1.48-2,2.15-.9.68-1.81,1.12-2.74,1.34-.21.05-.33.11-.36.18-.03.07,0,.25.08.54.23.74.86,1.16,1.91,1.26s2.39-.15,4.03-.74c1.58-.56,3.21-1.37,4.88-2.43.66-.43,1.04-.64,1.12-.64.05,0,.12.05.21.16s.12.19.11.26c.03.12-.29.39-.96.8-1.91,1.18-3.8,2.1-5.66,2.74-1.86.65-3.35.89-4.47.75ZM517.09,296.67c.78-.36,1.48-.83,2.09-1.41.61-.58.95-1.08,1.02-1.51l.04-.34h-.32c-.35.01-.77.17-1.27.48-.5.31-.95.68-1.35,1.12-.46.56-.81,1.12-1.04,1.67-.07.19-.1.29-.09.31,0,.02.06,0,.17-.03.15-.04.39-.14.74-.3Z"/>
  </g>
</svg>